<svg width="1120" height="329" viewBox="0 0 1120 329" fill="none" xmlns="http://www.w3.org/2000/svg">
<rect y="49" width="1120" height="280" rx="8" fill="#F2F5F3" fill-opacity="0.77"/>
<path d="M100.744 157.273V198H92.392L76.1847 174.494H75.9261V198H66.0824V157.273H74.554L90.5824 180.739H90.9205V157.273H100.744ZM122.445 198.557C119.476 198.557 116.837 198.02 114.531 196.946C112.224 195.872 110.401 194.394 109.062 192.511C107.736 190.629 107.047 188.468 106.994 186.028H116.539C116.619 187.527 117.228 188.733 118.369 189.648C119.509 190.549 120.868 191 122.445 191C123.678 191 124.772 190.728 125.727 190.185C126.681 189.641 127.43 188.879 127.974 187.898C128.517 186.903 128.782 185.763 128.769 184.477C128.782 183.165 128.511 182.018 127.954 181.037C127.41 180.056 126.655 179.294 125.687 178.75C124.732 178.193 123.632 177.915 122.386 177.915C121.206 177.902 120.085 178.16 119.025 178.69C117.978 179.221 117.182 179.943 116.638 180.858L107.948 179.227L109.718 157.273H135.849V165.207H117.812L116.877 174.812H117.116C117.792 173.686 118.879 172.758 120.377 172.028C121.888 171.286 123.605 170.915 125.528 170.915C127.967 170.915 130.141 171.485 132.05 172.625C133.973 173.752 135.484 175.316 136.585 177.318C137.698 179.32 138.255 181.614 138.255 184.199C138.255 186.996 137.592 189.475 136.266 191.636C134.954 193.797 133.111 195.494 130.738 196.727C128.378 197.947 125.614 198.557 122.445 198.557ZM152.459 192.432L152.28 194.639C152.121 196.469 151.796 198.252 151.305 199.989C150.828 201.739 150.318 203.31 149.774 204.702C149.231 206.094 148.8 207.174 148.482 207.943H142.357C142.569 207.174 142.854 206.094 143.212 204.702C143.583 203.31 143.928 201.739 144.246 199.989C144.564 198.239 144.743 196.462 144.783 194.659L144.822 192.432H152.459ZM174.94 198.994C171.387 198.994 168.325 198.152 165.753 196.469C163.181 194.772 161.199 192.339 159.807 189.17C158.415 185.989 157.725 182.164 157.739 177.696C157.752 173.228 158.448 169.437 159.827 166.321C161.219 163.192 163.194 160.812 165.753 159.182C168.325 157.538 171.387 156.716 174.94 156.716C178.493 156.716 181.556 157.538 184.128 159.182C186.713 160.812 188.702 163.192 190.094 166.321C191.486 169.45 192.175 173.241 192.162 177.696C192.162 182.177 191.466 186.009 190.074 189.19C188.682 192.372 186.7 194.805 184.128 196.489C181.569 198.159 178.507 198.994 174.94 198.994ZM174.94 190.94C177.062 190.94 178.778 189.86 180.091 187.699C181.403 185.525 182.053 182.19 182.04 177.696C182.04 174.753 181.741 172.327 181.145 170.418C180.548 168.495 179.72 167.063 178.659 166.122C177.598 165.181 176.359 164.71 174.94 164.71C172.832 164.71 171.129 165.777 169.83 167.912C168.53 170.033 167.874 173.295 167.861 177.696C167.848 180.679 168.133 183.152 168.716 185.114C169.313 187.076 170.148 188.541 171.222 189.509C172.295 190.463 173.535 190.94 174.94 190.94ZM214.643 198.994C211.09 198.994 208.028 198.152 205.456 196.469C202.884 194.772 200.902 192.339 199.51 189.17C198.118 185.989 197.429 182.164 197.442 177.696C197.455 173.228 198.151 169.437 199.53 166.321C200.922 163.192 202.897 160.812 205.456 159.182C208.028 157.538 211.09 156.716 214.643 156.716C218.196 156.716 221.259 157.538 223.831 159.182C226.416 160.812 228.405 163.192 229.797 166.321C231.189 169.45 231.878 173.241 231.865 177.696C231.865 182.177 231.169 186.009 229.777 189.19C228.385 192.372 226.403 194.805 223.831 196.489C221.272 198.159 218.21 198.994 214.643 198.994ZM214.643 190.94C216.765 190.94 218.482 189.86 219.794 187.699C221.107 185.525 221.756 182.19 221.743 177.696C221.743 174.753 221.445 172.327 220.848 170.418C220.251 168.495 219.423 167.063 218.362 166.122C217.302 165.181 216.062 164.71 214.643 164.71C212.536 164.71 210.832 165.777 209.533 167.912C208.233 170.033 207.577 173.295 207.564 177.696C207.551 180.679 207.836 183.152 208.419 185.114C209.016 187.076 209.851 188.541 210.925 189.509C211.999 190.463 213.238 190.94 214.643 190.94ZM254.347 198.994C250.794 198.994 247.731 198.152 245.159 196.469C242.587 194.772 240.605 192.339 239.213 189.17C237.821 185.989 237.132 182.164 237.145 177.696C237.158 173.228 237.854 169.437 239.233 166.321C240.625 163.192 242.6 160.812 245.159 159.182C247.731 157.538 250.794 156.716 254.347 156.716C257.9 156.716 260.962 157.538 263.534 159.182C266.119 160.812 268.108 163.192 269.5 166.321C270.892 169.45 271.581 173.241 271.568 177.696C271.568 182.177 270.872 186.009 269.48 189.19C268.088 192.372 266.106 194.805 263.534 196.489C260.975 198.159 257.913 198.994 254.347 198.994ZM254.347 190.94C256.468 190.94 258.185 189.86 259.497 187.699C260.81 185.525 261.459 182.19 261.446 177.696C261.446 174.753 261.148 172.327 260.551 170.418C259.955 168.495 259.126 167.063 258.065 166.122C257.005 165.181 255.765 164.71 254.347 164.71C252.239 164.71 250.535 165.777 249.236 167.912C247.937 170.033 247.28 173.295 247.267 177.696C247.254 180.679 247.539 183.152 248.122 185.114C248.719 187.076 249.554 188.541 250.628 189.509C251.702 190.463 252.941 190.94 254.347 190.94Z" fill="#2D995F"/>
<path d="M65.358 130H63.5114L68.8523 115.455H70.6705L76.0114 130H74.1648L69.8182 117.756H69.7045L65.358 130ZM66.0398 124.318H73.483V125.881H66.0398V124.318ZM82.169 130.227C81.2599 130.227 80.4574 129.998 79.7614 129.538C79.0653 129.074 78.5208 128.421 78.1278 127.578C77.7348 126.731 77.5384 125.729 77.5384 124.574C77.5384 123.428 77.7348 122.434 78.1278 121.591C78.5208 120.748 79.0677 120.097 79.7685 119.638C80.4692 119.179 81.2789 118.949 82.1974 118.949C82.9077 118.949 83.4688 119.067 83.8807 119.304C84.2973 119.536 84.6146 119.801 84.8324 120.099C85.0549 120.393 85.2277 120.634 85.3509 120.824H85.4929V115.455H87.169V130H85.5497V128.324H85.3509C85.2277 128.523 85.0526 128.774 84.8253 129.077C84.598 129.375 84.2737 129.643 83.8523 129.879C83.4309 130.111 82.8698 130.227 82.169 130.227ZM82.3963 128.722C83.0687 128.722 83.6368 128.546 84.1009 128.196C84.5649 127.841 84.9176 127.351 85.1591 126.726C85.4006 126.096 85.5213 125.369 85.5213 124.545C85.5213 123.731 85.4029 123.018 85.1662 122.408C84.9295 121.792 84.5791 121.314 84.1151 120.973C83.651 120.627 83.0781 120.455 82.3963 120.455C81.6861 120.455 81.0942 120.637 80.6207 121.001C80.152 121.361 79.7992 121.851 79.5625 122.472C79.3305 123.087 79.2145 123.778 79.2145 124.545C79.2145 125.322 79.3329 126.027 79.5696 126.662C79.8111 127.292 80.1662 127.794 80.6349 128.168C81.1084 128.537 81.6955 128.722 82.3963 128.722ZM90.4716 130V119.091H92.0909V120.795H92.233C92.4602 120.213 92.8272 119.761 93.3338 119.439C93.8404 119.112 94.4489 118.949 95.1591 118.949C95.8788 118.949 96.4777 119.112 96.956 119.439C97.4389 119.761 97.8153 120.213 98.0852 120.795H98.1989C98.4782 120.232 98.8973 119.785 99.456 119.453C100.015 119.117 100.685 118.949 101.466 118.949C102.441 118.949 103.239 119.254 103.859 119.865C104.48 120.471 104.79 121.416 104.79 122.699V130H103.114V122.699C103.114 121.894 102.893 121.319 102.453 120.973C102.013 120.627 101.494 120.455 100.898 120.455C100.131 120.455 99.5365 120.687 99.1151 121.151C98.6937 121.61 98.483 122.192 98.483 122.898V130H96.7784V122.528C96.7784 121.908 96.5772 121.409 96.1747 121.03C95.7723 120.646 95.2538 120.455 94.6193 120.455C94.1837 120.455 93.7765 120.571 93.3977 120.803C93.0237 121.035 92.7206 121.357 92.4886 121.768C92.2614 122.176 92.1477 122.647 92.1477 123.182V130H90.4716ZM107.854 130V119.091H109.531V130H107.854ZM108.707 117.273C108.38 117.273 108.098 117.161 107.862 116.939C107.629 116.716 107.513 116.449 107.513 116.136C107.513 115.824 107.629 115.556 107.862 115.334C108.098 115.111 108.38 115 108.707 115C109.033 115 109.313 115.111 109.545 115.334C109.781 115.556 109.9 115.824 109.9 116.136C109.9 116.449 109.781 116.716 109.545 116.939C109.313 117.161 109.033 117.273 108.707 117.273ZM114.277 123.438V130H112.6V119.091H114.22V120.795H114.362C114.618 120.241 115.006 119.796 115.527 119.46C116.047 119.119 116.72 118.949 117.544 118.949C118.282 118.949 118.929 119.1 119.483 119.403C120.037 119.702 120.467 120.156 120.775 120.767C121.083 121.373 121.237 122.14 121.237 123.068V130H119.561V123.182C119.561 122.325 119.338 121.657 118.893 121.179C118.448 120.696 117.837 120.455 117.061 120.455C116.526 120.455 116.047 120.571 115.626 120.803C115.209 121.035 114.88 121.373 114.639 121.818C114.397 122.263 114.277 122.803 114.277 123.438ZM124.3 130V119.091H125.976V130H124.3ZM125.152 117.273C124.825 117.273 124.544 117.161 124.307 116.939C124.075 116.716 123.959 116.449 123.959 116.136C123.959 115.824 124.075 115.556 124.307 115.334C124.544 115.111 124.825 115 125.152 115C125.479 115 125.758 115.111 125.99 115.334C126.227 115.556 126.345 115.824 126.345 116.136C126.345 116.449 126.227 116.716 125.99 116.939C125.758 117.161 125.479 117.273 125.152 117.273ZM136.773 121.534L135.267 121.96C135.173 121.709 135.033 121.465 134.848 121.229C134.668 120.987 134.422 120.788 134.11 120.632C133.797 120.476 133.397 120.398 132.909 120.398C132.242 120.398 131.685 120.552 131.24 120.859C130.8 121.162 130.58 121.548 130.58 122.017C130.58 122.434 130.731 122.763 131.034 123.004C131.337 123.246 131.811 123.447 132.455 123.608L134.074 124.006C135.05 124.242 135.776 124.605 136.255 125.092C136.733 125.575 136.972 126.198 136.972 126.96C136.972 127.585 136.792 128.144 136.432 128.636C136.077 129.129 135.58 129.517 134.941 129.801C134.301 130.085 133.558 130.227 132.711 130.227C131.598 130.227 130.677 129.986 129.948 129.503C129.219 129.02 128.757 128.314 128.563 127.386L130.154 126.989C130.305 127.576 130.592 128.016 131.013 128.31C131.439 128.603 131.996 128.75 132.682 128.75C133.463 128.75 134.084 128.584 134.543 128.253C135.007 127.917 135.239 127.514 135.239 127.045C135.239 126.667 135.106 126.349 134.841 126.094C134.576 125.833 134.169 125.639 133.62 125.511L131.801 125.085C130.802 124.848 130.069 124.482 129.6 123.984C129.136 123.482 128.904 122.855 128.904 122.102C128.904 121.487 129.077 120.942 129.422 120.469C129.773 119.995 130.248 119.624 130.85 119.354C131.456 119.084 132.142 118.949 132.909 118.949C133.989 118.949 134.837 119.186 135.452 119.659C136.072 120.133 136.513 120.758 136.773 121.534ZM144.239 119.091V120.511H138.586V119.091H144.239ZM140.234 116.477H141.91V126.875C141.91 127.348 141.978 127.704 142.116 127.94C142.258 128.172 142.438 128.329 142.656 128.409C142.878 128.485 143.112 128.523 143.359 128.523C143.543 128.523 143.695 128.513 143.813 128.494C143.932 128.471 144.026 128.452 144.097 128.438L144.438 129.943C144.325 129.986 144.166 130.028 143.962 130.071C143.759 130.118 143.501 130.142 143.188 130.142C142.715 130.142 142.251 130.04 141.796 129.837C141.346 129.633 140.972 129.323 140.674 128.906C140.38 128.49 140.234 127.964 140.234 127.33V116.477ZM146.761 130V119.091H148.38V120.739H148.494C148.692 120.199 149.052 119.761 149.573 119.425C150.094 119.089 150.681 118.92 151.335 118.92C151.458 118.92 151.612 118.923 151.796 118.928C151.981 118.932 152.121 118.939 152.215 118.949V120.653C152.158 120.639 152.028 120.618 151.825 120.589C151.626 120.556 151.415 120.54 151.192 120.54C150.662 120.54 150.189 120.651 149.772 120.874C149.36 121.091 149.033 121.394 148.792 121.783C148.555 122.166 148.437 122.604 148.437 123.097V130H146.761ZM157.412 130.256C156.721 130.256 156.094 130.125 155.53 129.865C154.967 129.6 154.519 129.219 154.188 128.722C153.856 128.22 153.691 127.614 153.691 126.903C153.691 126.278 153.814 125.772 154.06 125.384C154.306 124.991 154.635 124.683 155.047 124.46C155.459 124.238 155.914 124.072 156.411 123.963C156.913 123.849 157.417 123.759 157.924 123.693C158.587 123.608 159.124 123.544 159.536 123.501C159.953 123.454 160.256 123.376 160.445 123.267C160.639 123.158 160.736 122.969 160.736 122.699V122.642C160.736 121.941 160.544 121.397 160.161 121.009C159.782 120.62 159.207 120.426 158.435 120.426C157.635 120.426 157.007 120.601 156.553 120.952C156.098 121.302 155.779 121.676 155.594 122.074L154.003 121.506C154.287 120.843 154.666 120.327 155.14 119.957C155.618 119.583 156.139 119.323 156.702 119.176C157.27 119.025 157.829 118.949 158.378 118.949C158.729 118.949 159.131 118.991 159.586 119.077C160.045 119.157 160.488 119.325 160.914 119.581C161.345 119.837 161.702 120.223 161.986 120.739C162.27 121.255 162.412 121.946 162.412 122.812V130H160.736V128.523H160.651C160.537 128.759 160.348 129.013 160.083 129.283C159.818 129.553 159.465 129.782 159.025 129.972C158.584 130.161 158.047 130.256 157.412 130.256ZM157.668 128.75C158.331 128.75 158.89 128.62 159.344 128.359C159.803 128.099 160.149 127.763 160.381 127.351C160.618 126.939 160.736 126.506 160.736 126.051V124.517C160.665 124.602 160.509 124.68 160.267 124.751C160.031 124.818 159.756 124.877 159.444 124.929C159.136 124.976 158.835 125.019 158.542 125.057C158.253 125.09 158.018 125.118 157.838 125.142C157.403 125.199 156.996 125.291 156.617 125.419C156.243 125.542 155.94 125.729 155.708 125.98C155.48 126.226 155.367 126.562 155.367 126.989C155.367 127.571 155.582 128.011 156.013 128.31C156.449 128.603 157 128.75 157.668 128.75ZM170.216 119.091V120.511H164.562V119.091H170.216ZM166.21 116.477H167.886V126.875C167.886 127.348 167.955 127.704 168.092 127.94C168.234 128.172 168.414 128.329 168.632 128.409C168.855 128.485 169.089 128.523 169.335 128.523C169.52 128.523 169.671 128.513 169.79 128.494C169.908 128.471 170.003 128.452 170.074 128.438L170.415 129.943C170.301 129.986 170.143 130.028 169.939 130.071C169.735 130.118 169.477 130.142 169.165 130.142C168.691 130.142 168.227 130.04 167.773 129.837C167.323 129.633 166.949 129.323 166.651 128.906C166.357 128.49 166.21 127.964 166.21 127.33V116.477ZM172.737 130V119.091H174.413V130H172.737ZM173.589 117.273C173.263 117.273 172.981 117.161 172.744 116.939C172.512 116.716 172.396 116.449 172.396 116.136C172.396 115.824 172.512 115.556 172.744 115.334C172.981 115.111 173.263 115 173.589 115C173.916 115 174.196 115.111 174.428 115.334C174.664 115.556 174.783 115.824 174.783 116.136C174.783 116.449 174.664 116.716 174.428 116.939C174.196 117.161 173.916 117.273 173.589 117.273ZM186.404 119.091L182.37 130H180.665L176.631 119.091H178.449L181.461 127.784H181.574L184.586 119.091H186.404ZM192.799 130.227C191.748 130.227 190.842 129.995 190.079 129.531C189.322 129.062 188.737 128.409 188.325 127.571C187.918 126.728 187.714 125.748 187.714 124.631C187.714 123.513 187.918 122.528 188.325 121.676C188.737 120.819 189.31 120.152 190.044 119.673C190.782 119.19 191.644 118.949 192.629 118.949C193.197 118.949 193.758 119.044 194.312 119.233C194.866 119.422 195.37 119.73 195.825 120.156C196.279 120.578 196.642 121.136 196.912 121.832C197.181 122.528 197.316 123.385 197.316 124.403V125.114H188.907V123.665H195.612C195.612 123.049 195.489 122.5 195.243 122.017C195.001 121.534 194.655 121.153 194.206 120.874C193.761 120.594 193.235 120.455 192.629 120.455C191.961 120.455 191.384 120.62 190.896 120.952C190.413 121.278 190.041 121.705 189.781 122.23C189.52 122.756 189.39 123.319 189.39 123.92V124.886C189.39 125.71 189.532 126.409 189.816 126.982C190.105 127.55 190.505 127.983 191.017 128.281C191.528 128.575 192.122 128.722 192.799 128.722C193.24 128.722 193.637 128.66 193.993 128.537C194.352 128.409 194.663 128.22 194.923 127.969C195.183 127.713 195.385 127.396 195.527 127.017L197.146 127.472C196.975 128.021 196.689 128.504 196.287 128.92C195.884 129.332 195.387 129.654 194.795 129.886C194.203 130.114 193.538 130.227 192.799 130.227ZM210.349 119.091V120.511H204.468V119.091H210.349ZM206.23 130V117.585C206.23 116.96 206.377 116.439 206.67 116.023C206.964 115.606 207.345 115.294 207.814 115.085C208.282 114.877 208.777 114.773 209.298 114.773C209.71 114.773 210.046 114.806 210.306 114.872C210.567 114.938 210.761 115 210.889 115.057L210.406 116.506C210.321 116.477 210.202 116.442 210.051 116.399C209.904 116.357 209.71 116.335 209.468 116.335C208.914 116.335 208.514 116.475 208.268 116.754C208.027 117.034 207.906 117.443 207.906 117.983V130H206.23ZM216.823 130.227C215.772 130.227 214.865 129.995 214.103 129.531C213.345 129.062 212.76 128.409 212.348 127.571C211.941 126.728 211.738 125.748 211.738 124.631C211.738 123.513 211.941 122.528 212.348 121.676C212.76 120.819 213.333 120.152 214.067 119.673C214.806 119.19 215.667 118.949 216.652 118.949C217.221 118.949 217.782 119.044 218.336 119.233C218.89 119.422 219.394 119.73 219.848 120.156C220.303 120.578 220.665 121.136 220.935 121.832C221.205 122.528 221.34 123.385 221.34 124.403V125.114H212.931V123.665H219.635C219.635 123.049 219.512 122.5 219.266 122.017C219.025 121.534 218.679 121.153 218.229 120.874C217.784 120.594 217.258 120.455 216.652 120.455C215.985 120.455 215.407 120.62 214.919 120.952C214.436 121.278 214.065 121.705 213.804 122.23C213.544 122.756 213.414 123.319 213.414 123.92V124.886C213.414 125.71 213.556 126.409 213.84 126.982C214.129 127.55 214.529 127.983 215.04 128.281C215.551 128.575 216.146 128.722 216.823 128.722C217.263 128.722 217.661 128.66 218.016 128.537C218.376 128.409 218.686 128.22 218.946 127.969C219.207 127.713 219.408 127.396 219.55 127.017L221.169 127.472C220.999 128.021 220.712 128.504 220.31 128.92C219.908 129.332 219.41 129.654 218.819 129.886C218.227 130.114 217.561 130.227 216.823 130.227ZM228.463 130.227C227.412 130.227 226.506 129.995 225.743 129.531C224.986 129.062 224.401 128.409 223.989 127.571C223.582 126.728 223.378 125.748 223.378 124.631C223.378 123.513 223.582 122.528 223.989 121.676C224.401 120.819 224.974 120.152 225.708 119.673C226.446 119.19 227.308 118.949 228.293 118.949C228.861 118.949 229.422 119.044 229.976 119.233C230.53 119.422 231.034 119.73 231.489 120.156C231.944 120.578 232.306 121.136 232.576 121.832C232.846 122.528 232.98 123.385 232.98 124.403V125.114H224.571V123.665H231.276C231.276 123.049 231.153 122.5 230.907 122.017C230.665 121.534 230.319 121.153 229.87 120.874C229.425 120.594 228.899 120.455 228.293 120.455C227.625 120.455 227.048 120.62 226.56 120.952C226.077 121.278 225.705 121.705 225.445 122.23C225.185 122.756 225.054 123.319 225.054 123.92V124.886C225.054 125.71 225.196 126.409 225.48 126.982C225.769 127.55 226.169 127.983 226.681 128.281C227.192 128.575 227.786 128.722 228.463 128.722C228.904 128.722 229.301 128.66 229.657 128.537C230.016 128.409 230.327 128.22 230.587 127.969C230.847 127.713 231.049 127.396 231.191 127.017L232.81 127.472C232.64 128.021 232.353 128.504 231.951 128.92C231.548 129.332 231.051 129.654 230.459 129.886C229.867 130.114 229.202 130.227 228.463 130.227Z" fill="#343A40"/>
<rect x="28" y="76" width="7" height="226" rx="3.5" fill="#2D995F"/>
<rect x="63.5" y="238.5" width="285" height="47" rx="3.5" stroke="#2D995F"/>
<path d="M133.909 259.156C133.81 258.811 133.67 258.505 133.49 258.24C133.31 257.97 133.09 257.743 132.83 257.558C132.574 257.369 132.28 257.224 131.949 257.125C131.622 257.026 131.26 256.976 130.862 256.976C130.119 256.976 129.465 257.161 128.902 257.53C128.343 257.899 127.908 258.437 127.595 259.142C127.283 259.843 127.126 260.7 127.126 261.713C127.126 262.726 127.28 263.588 127.588 264.298C127.896 265.009 128.331 265.551 128.895 265.925C129.458 266.294 130.124 266.479 130.891 266.479C131.587 266.479 132.181 266.356 132.673 266.109C133.17 265.858 133.549 265.506 133.81 265.051C134.075 264.597 134.207 264.059 134.207 263.439L134.832 263.531H131.082V261.216H137.169V263.048C137.169 264.327 136.899 265.425 136.359 266.344C135.82 267.258 135.076 267.963 134.129 268.46C133.182 268.953 132.098 269.199 130.876 269.199C129.513 269.199 128.315 268.898 127.283 268.297C126.25 267.691 125.446 266.831 124.868 265.719C124.295 264.601 124.009 263.276 124.009 261.741C124.009 260.562 124.179 259.511 124.52 258.588C124.866 257.66 125.348 256.874 125.969 256.23C126.589 255.586 127.311 255.096 128.135 254.76C128.959 254.424 129.851 254.256 130.812 254.256C131.636 254.256 132.403 254.376 133.114 254.618C133.824 254.855 134.454 255.191 135.003 255.626C135.557 256.062 136.009 256.58 136.359 257.182C136.71 257.778 136.935 258.437 137.034 259.156H133.909ZM144.394 269.213C143.272 269.213 142.306 268.986 141.496 268.531C140.691 268.072 140.071 267.423 139.635 266.585C139.2 265.742 138.982 264.746 138.982 263.595C138.982 262.473 139.2 261.488 139.635 260.641C140.071 259.793 140.684 259.133 141.475 258.659C142.27 258.186 143.203 257.949 144.273 257.949C144.993 257.949 145.663 258.065 146.283 258.297C146.908 258.524 147.453 258.867 147.917 259.327C148.385 259.786 148.75 260.364 149.01 261.06C149.271 261.751 149.401 262.561 149.401 263.489V264.32H140.189V262.445H146.553C146.553 262.009 146.458 261.623 146.269 261.287C146.079 260.951 145.817 260.688 145.48 260.499C145.149 260.304 144.763 260.207 144.323 260.207C143.864 260.207 143.456 260.314 143.101 260.527C142.751 260.735 142.476 261.017 142.277 261.372C142.078 261.723 141.977 262.113 141.972 262.544V264.327C141.972 264.866 142.071 265.333 142.27 265.726C142.474 266.119 142.76 266.422 143.13 266.635C143.499 266.848 143.937 266.955 144.444 266.955C144.78 266.955 145.087 266.907 145.367 266.812C145.646 266.718 145.885 266.576 146.084 266.386C146.283 266.197 146.435 265.965 146.539 265.69L149.337 265.875C149.195 266.547 148.904 267.134 148.463 267.636C148.028 268.134 147.464 268.522 146.773 268.801C146.087 269.076 145.293 269.213 144.394 269.213ZM154.401 262.693V269H151.375V258.091H154.259V260.016H154.387C154.628 259.381 155.033 258.879 155.601 258.51C156.169 258.136 156.858 257.949 157.668 257.949C158.426 257.949 159.086 258.115 159.65 258.446C160.213 258.777 160.651 259.251 160.963 259.866C161.276 260.477 161.432 261.206 161.432 262.054V269H158.407V262.594C158.411 261.926 158.241 261.405 157.895 261.031C157.55 260.652 157.074 260.463 156.468 260.463C156.06 260.463 155.701 260.551 155.388 260.726C155.08 260.901 154.839 261.157 154.664 261.493C154.493 261.824 154.406 262.224 154.401 262.693ZM168.788 269.213C167.666 269.213 166.7 268.986 165.891 268.531C165.086 268.072 164.465 267.423 164.03 266.585C163.594 265.742 163.376 264.746 163.376 263.595C163.376 262.473 163.594 261.488 164.03 260.641C164.465 259.793 165.079 259.133 165.869 258.659C166.665 258.186 167.598 257.949 168.668 257.949C169.387 257.949 170.057 258.065 170.678 258.297C171.303 258.524 171.847 258.867 172.311 259.327C172.78 259.786 173.144 260.364 173.405 261.06C173.665 261.751 173.795 262.561 173.795 263.489V264.32H164.584V262.445H170.947C170.947 262.009 170.853 261.623 170.663 261.287C170.474 260.951 170.211 260.688 169.875 260.499C169.544 260.304 169.158 260.207 168.717 260.207C168.258 260.207 167.851 260.314 167.496 260.527C167.145 260.735 166.871 261.017 166.672 261.372C166.473 261.723 166.371 262.113 166.366 262.544V264.327C166.366 264.866 166.466 265.333 166.665 265.726C166.868 266.119 167.155 266.422 167.524 266.635C167.893 266.848 168.331 266.955 168.838 266.955C169.174 266.955 169.482 266.907 169.761 266.812C170.041 266.718 170.28 266.576 170.479 266.386C170.678 266.197 170.829 265.965 170.933 265.69L173.732 265.875C173.589 266.547 173.298 267.134 172.858 267.636C172.422 268.134 171.859 268.522 171.168 268.801C170.481 269.076 169.688 269.213 168.788 269.213ZM175.77 269V258.091H178.703V259.994H178.817C179.016 259.317 179.349 258.806 179.818 258.46C180.287 258.11 180.827 257.935 181.438 257.935C181.589 257.935 181.752 257.944 181.928 257.963C182.103 257.982 182.257 258.008 182.389 258.041V260.726C182.247 260.683 182.051 260.645 181.8 260.612C181.549 260.579 181.319 260.562 181.111 260.562C180.666 260.562 180.268 260.66 179.918 260.854C179.572 261.043 179.297 261.308 179.094 261.649C178.895 261.99 178.795 262.383 178.795 262.828V269H175.77ZM186.752 269.206C186.056 269.206 185.435 269.085 184.891 268.844C184.346 268.598 183.916 268.235 183.598 267.757C183.286 267.274 183.13 266.673 183.13 265.953C183.13 265.347 183.241 264.838 183.463 264.426C183.686 264.014 183.989 263.683 184.373 263.432C184.756 263.181 185.192 262.991 185.679 262.864C186.172 262.736 186.688 262.646 187.228 262.594C187.862 262.527 188.373 262.466 188.762 262.409C189.15 262.348 189.432 262.258 189.607 262.139C189.782 262.021 189.87 261.846 189.87 261.614V261.571C189.87 261.121 189.728 260.773 189.444 260.527C189.164 260.281 188.766 260.158 188.25 260.158C187.706 260.158 187.273 260.278 186.951 260.52C186.629 260.757 186.416 261.055 186.311 261.415L183.513 261.188C183.655 260.525 183.935 259.952 184.351 259.469C184.768 258.981 185.305 258.607 185.963 258.347C186.626 258.081 187.393 257.949 188.265 257.949C188.871 257.949 189.451 258.02 190.005 258.162C190.563 258.304 191.058 258.524 191.489 258.822C191.925 259.121 192.268 259.504 192.519 259.973C192.77 260.437 192.895 260.993 192.895 261.642V269H190.026V267.487H189.941C189.766 267.828 189.531 268.129 189.238 268.389C188.944 268.645 188.591 268.846 188.179 268.993C187.767 269.135 187.292 269.206 186.752 269.206ZM187.618 267.118C188.063 267.118 188.456 267.03 188.797 266.855C189.138 266.675 189.406 266.434 189.6 266.131C189.794 265.828 189.891 265.484 189.891 265.101V263.943C189.796 264.005 189.666 264.062 189.5 264.114C189.339 264.161 189.157 264.206 188.953 264.249C188.75 264.286 188.546 264.322 188.343 264.355C188.139 264.384 187.954 264.41 187.789 264.433C187.434 264.485 187.123 264.568 186.858 264.682C186.593 264.795 186.387 264.949 186.24 265.143C186.094 265.333 186.02 265.57 186.02 265.854C186.02 266.266 186.169 266.58 186.468 266.798C186.771 267.011 187.154 267.118 187.618 267.118ZM201.045 258.091V260.364H194.475V258.091H201.045ZM195.967 255.477H198.993V265.648C198.993 265.927 199.035 266.145 199.12 266.301C199.206 266.453 199.324 266.559 199.475 266.621C199.632 266.682 199.812 266.713 200.015 266.713C200.157 266.713 200.299 266.701 200.441 266.678C200.583 266.649 200.692 266.628 200.768 266.614L201.244 268.865C201.092 268.912 200.879 268.967 200.605 269.028C200.33 269.095 199.996 269.135 199.603 269.149C198.874 269.178 198.235 269.08 197.686 268.858C197.141 268.635 196.717 268.29 196.414 267.821C196.111 267.352 195.962 266.76 195.967 266.045V255.477ZM207.87 269.213C206.748 269.213 205.782 268.986 204.973 268.531C204.168 268.072 203.547 267.423 203.112 266.585C202.676 265.742 202.458 264.746 202.458 263.595C202.458 262.473 202.676 261.488 203.112 260.641C203.547 259.793 204.161 259.133 204.951 258.659C205.747 258.186 206.68 257.949 207.75 257.949C208.469 257.949 209.139 258.065 209.76 258.297C210.385 258.524 210.929 258.867 211.393 259.327C211.862 259.786 212.226 260.364 212.487 261.06C212.747 261.751 212.877 262.561 212.877 263.489V264.32H203.666V262.445H210.029C210.029 262.009 209.935 261.623 209.745 261.287C209.556 260.951 209.293 260.688 208.957 260.499C208.626 260.304 208.24 260.207 207.799 260.207C207.34 260.207 206.933 260.314 206.578 260.527C206.227 260.735 205.953 261.017 205.754 261.372C205.555 261.723 205.453 262.113 205.449 262.544V264.327C205.449 264.866 205.548 265.333 205.747 265.726C205.95 266.119 206.237 266.422 206.606 266.635C206.975 266.848 207.413 266.955 207.92 266.955C208.256 266.955 208.564 266.907 208.843 266.812C209.123 266.718 209.362 266.576 209.561 266.386C209.76 266.197 209.911 265.965 210.015 265.69L212.814 265.875C212.672 266.547 212.38 267.134 211.94 267.636C211.504 268.134 210.941 268.522 210.25 268.801C209.563 269.076 208.77 269.213 207.87 269.213ZM222.613 254.455V269H219.538V254.455H222.613ZM228.112 262.693V269H225.086V258.091H227.97V260.016H228.098C228.339 259.381 228.744 258.879 229.312 258.51C229.88 258.136 230.569 257.949 231.379 257.949C232.136 257.949 232.797 258.115 233.36 258.446C233.924 258.777 234.362 259.251 234.674 259.866C234.987 260.477 235.143 261.206 235.143 262.054V269H232.118V262.594C232.122 261.926 231.952 261.405 231.606 261.031C231.261 260.652 230.785 260.463 230.179 260.463C229.771 260.463 229.412 260.551 229.099 260.726C228.791 260.901 228.55 261.157 228.375 261.493C228.204 261.824 228.117 262.224 228.112 262.693ZM247.308 258.091L243.494 269H240.085L236.271 258.091H239.467L241.732 265.896H241.846L244.104 258.091H247.308ZM253.433 269.213C252.33 269.213 251.376 268.979 250.571 268.51C249.771 268.036 249.153 267.378 248.717 266.536C248.282 265.688 248.064 264.705 248.064 263.588C248.064 262.461 248.282 261.476 248.717 260.634C249.153 259.786 249.771 259.128 250.571 258.659C251.376 258.186 252.33 257.949 253.433 257.949C254.536 257.949 255.488 258.186 256.288 258.659C257.093 259.128 257.714 259.786 258.149 260.634C258.585 261.476 258.803 262.461 258.803 263.588C258.803 264.705 258.585 265.688 258.149 266.536C257.714 267.378 257.093 268.036 256.288 268.51C255.488 268.979 254.536 269.213 253.433 269.213ZM253.447 266.869C253.949 266.869 254.368 266.727 254.705 266.443C255.041 266.154 255.294 265.761 255.464 265.264C255.64 264.767 255.727 264.201 255.727 263.567C255.727 262.932 255.64 262.366 255.464 261.869C255.294 261.372 255.041 260.979 254.705 260.69C254.368 260.402 253.949 260.257 253.447 260.257C252.941 260.257 252.515 260.402 252.169 260.69C251.828 260.979 251.57 261.372 251.395 261.869C251.224 262.366 251.139 262.932 251.139 263.567C251.139 264.201 251.224 264.767 251.395 265.264C251.57 265.761 251.828 266.154 252.169 266.443C252.515 266.727 252.941 266.869 253.447 266.869ZM260.77 269V258.091H263.795V269H260.77ZM262.29 256.685C261.84 256.685 261.454 256.536 261.132 256.237C260.815 255.934 260.656 255.572 260.656 255.151C260.656 254.734 260.815 254.376 261.132 254.078C261.454 253.775 261.84 253.624 262.29 253.624C262.74 253.624 263.123 253.775 263.44 254.078C263.762 254.376 263.923 254.734 263.923 255.151C263.923 255.572 263.762 255.934 263.44 256.237C263.123 256.536 262.74 256.685 262.29 256.685ZM271.148 269.213C270.031 269.213 269.069 268.976 268.265 268.503C267.464 268.025 266.849 267.362 266.418 266.514C265.992 265.667 265.779 264.691 265.779 263.588C265.779 262.471 265.994 261.491 266.425 260.648C266.861 259.8 267.479 259.14 268.279 258.666C269.079 258.188 270.031 257.949 271.134 257.949C272.086 257.949 272.919 258.122 273.634 258.467C274.349 258.813 274.915 259.298 275.331 259.923C275.748 260.548 275.978 261.282 276.02 262.125H273.165C273.085 261.58 272.872 261.143 272.526 260.811C272.185 260.475 271.738 260.307 271.184 260.307C270.715 260.307 270.305 260.435 269.955 260.69C269.609 260.941 269.339 261.308 269.145 261.791C268.951 262.274 268.854 262.859 268.854 263.545C268.854 264.241 268.949 264.833 269.138 265.321C269.332 265.809 269.605 266.18 269.955 266.436C270.305 266.692 270.715 266.82 271.184 266.82C271.529 266.82 271.839 266.749 272.114 266.607C272.393 266.464 272.623 266.259 272.803 265.989C272.988 265.714 273.108 265.385 273.165 265.001H276.02C275.973 265.835 275.746 266.569 275.338 267.203C274.936 267.833 274.38 268.325 273.669 268.68C272.959 269.036 272.119 269.213 271.148 269.213ZM282.929 269.213C281.807 269.213 280.841 268.986 280.031 268.531C279.226 268.072 278.606 267.423 278.17 266.585C277.735 265.742 277.517 264.746 277.517 263.595C277.517 262.473 277.735 261.488 278.17 260.641C278.606 259.793 279.219 259.133 280.01 258.659C280.805 258.186 281.738 257.949 282.808 257.949C283.528 257.949 284.198 258.065 284.818 258.297C285.443 258.524 285.988 258.867 286.452 259.327C286.92 259.786 287.285 260.364 287.545 261.06C287.806 261.751 287.936 262.561 287.936 263.489V264.32H278.724V262.445H285.088C285.088 262.009 284.993 261.623 284.804 261.287C284.615 260.951 284.352 260.688 284.016 260.499C283.684 260.304 283.298 260.207 282.858 260.207C282.399 260.207 281.991 260.314 281.636 260.527C281.286 260.735 281.011 261.017 280.812 261.372C280.614 261.723 280.512 262.113 280.507 262.544V264.327C280.507 264.866 280.607 265.333 280.805 265.726C281.009 266.119 281.295 266.422 281.665 266.635C282.034 266.848 282.472 266.955 282.979 266.955C283.315 266.955 283.623 266.907 283.902 266.812C284.181 266.718 284.42 266.576 284.619 266.386C284.818 266.197 284.97 265.965 285.074 265.69L287.872 265.875C287.73 266.547 287.439 267.134 286.999 267.636C286.563 268.134 286 268.522 285.308 268.801C284.622 269.076 283.829 269.213 282.929 269.213Z" fill="#2D995F"/>
<g clip-path="url(#clip0_4005_471)">
<path d="M882.462 27.8759C877.82 35.8698 886.561 49.3391 877.752 52.1361L878.478 51.4106C883.795 44.8722 872.681 31.0333 877.998 24.4949C878.825 23.5358 879.534 22.4819 880.111 21.3555" fill="#2F2E41"/>
<path d="M925.935 145.154C926.087 144.354 926.062 143.53 925.861 142.741C925.66 141.952 925.289 141.216 924.773 140.586C924.258 139.956 923.61 139.446 922.876 139.093C922.142 138.74 921.339 138.552 920.524 138.543L909.05 105.219L902.699 113.311L914.831 144.449C914.906 145.818 915.481 147.112 916.446 148.086C917.412 149.059 918.701 149.645 920.07 149.732C921.438 149.818 922.791 149.4 923.872 148.557C924.953 147.713 925.687 146.502 925.935 145.154Z" fill="#FFB8B8"/>
<path d="M875.497 64.6955C875.497 64.6955 875.14 52.6325 885.931 59.5429C896.722 66.4533 920.217 131.187 920.217 131.187L908.525 137.511L881.983 78.2719L875.497 64.6955Z" fill="#2D995F"/>
<path d="M907.333 271.447L901.945 273.749L890.499 254.067L898.452 250.67L907.333 271.447Z" fill="#FFB6B6"/>
<path d="M914.167 279.564L910.303 281.215L908.054 277.863L907.846 282.264L897.597 286.642C897.106 286.852 896.561 286.9 896.041 286.778C895.52 286.656 895.053 286.371 894.706 285.964C894.36 285.558 894.152 285.051 894.114 284.519C894.076 283.986 894.209 283.455 894.494 283.003L900.263 273.857L898.687 270.17L907.515 267.006L914.167 279.564Z" fill="#2F2E41"/>
<path d="M822.864 278.124L817.012 277.838L815.33 255.135L823.968 255.557L822.864 278.124Z" fill="#FFB6B6"/>
<path d="M825.458 288.41L821.261 288.205L820.705 284.207L818.593 288.075L807.461 287.531C806.927 287.505 806.416 287.309 806.002 286.972C805.587 286.635 805.292 286.174 805.158 285.657C805.024 285.14 805.059 284.594 805.257 284.098C805.456 283.602 805.808 283.183 806.262 282.901L815.452 277.198L815.647 273.193L824.971 274.208L825.458 288.41Z" fill="#2F2E41"/>
<path d="M995.31 274.506C995.698 274.52 996.081 274.415 996.407 274.204C996.732 273.994 996.986 273.688 997.132 273.329C997.278 272.97 997.31 272.574 997.224 272.196C997.138 271.818 996.938 271.475 996.65 271.215C996.601 271.026 996.565 270.89 996.516 270.701C996.878 269.756 997.514 268.94 998.342 268.358C999.171 267.777 1000.15 267.456 1001.17 267.437C1002.18 267.417 1003.17 267.701 1004.02 268.251C1004.87 268.8 1005.54 269.591 1005.94 270.522C1008.23 275.748 1011.18 281.151 1009.8 286.944C1019.14 266.656 1015.66 241.565 1001.4 224.427C997.488 222.32 994.295 218.54 993.432 214.124C995.365 214.758 997.753 213.168 996.285 211.153C995.649 210.383 995.008 209.62 994.372 208.85C1001.62 200.986 1010.46 213.153 1002.5 223.749C1005.17 227.028 1007.49 230.576 1009.41 234.337C1008.94 230.329 1009.42 226.265 1010.82 222.48C1012.25 218.951 1014.95 215.965 1017.33 212.904C1020.22 209.174 1026.25 210.825 1026.69 215.519C1024 216.432 1023.69 220.333 1026.78 220.837C1026.06 229.585 1020.42 237.671 1012.59 241.579C1015.57 249.7 1016.79 258.364 1016.16 266.992C1017.45 256.903 1028.25 254.355 1035.77 250.278C1036.25 249.965 1036.81 249.798 1037.38 249.797C1037.95 249.796 1038.51 249.961 1038.99 250.273C1039.47 250.585 1039.85 251.029 1040.08 251.552C1040.31 252.075 1040.39 252.654 1040.29 253.218C1039.25 253.652 1038.26 254.188 1037.33 254.819C1036.89 255.119 1036.56 255.547 1036.37 256.044C1036.19 256.542 1036.16 257.084 1036.3 257.596C1036.43 258.109 1036.72 258.567 1037.13 258.908C1037.54 259.249 1038.04 259.456 1038.57 259.5C1034.84 268.968 1025.05 275.395 1014.93 275.455C1013.99 279.69 1012.62 283.817 1010.84 287.768L995.815 287.911C995.759 287.745 995.709 287.573 995.659 287.407C997.05 287.481 998.446 287.384 999.814 287.119C996.093 282.8 993.227 280.605 995.31 274.506Z" fill="#ACE7C7"/>
<path d="M837.65 130.545C837.65 130.545 825.748 162.97 825.555 166.598C825.363 170.227 821.969 216.111 819.122 218.777C816.275 221.443 807.572 262.777 814.344 266.01C821.116 269.243 842.481 263.887 842.481 263.887L849.913 215.062L852.438 177.656C852.438 177.656 860.125 265.74 874.066 265.481C888.007 265.222 904.996 259.915 904.996 259.915L885.483 206.571C885.483 206.571 885.758 143.418 881.235 130.681C876.713 117.943 837.65 130.545 837.65 130.545Z" fill="#2F2E41"/>
<path d="M872.966 47.0059L857.027 48.4653L854.459 56.3451C854.459 56.3451 841.12 63.6682 844.073 66.9952C847.027 70.3221 843.413 92.7428 843.413 92.7428L844.229 110.942C844.229 110.942 843.352 123.551 840.728 126.456C838.104 129.361 831.239 136.485 836.09 133.077C853.098 121.127 882.828 131.21 882.828 131.21L878.581 105.206C878.581 105.206 888.228 62.6303 884.421 59.0347C880.614 55.439 877.022 54.9845 877.022 54.9845L872.966 47.0059Z" fill="#2D995F"/>
<path d="M789.212 129.493C790.012 129.344 790.771 129.021 791.433 128.548C792.096 128.074 792.646 127.461 793.046 126.751C793.446 126.042 793.685 125.253 793.747 124.441C793.809 123.63 793.692 122.814 793.405 122.052L820.289 99.2518L810.438 96.2793L785.831 118.897C784.583 119.464 783.586 120.47 783.03 121.723C782.474 122.976 782.396 124.39 782.813 125.696C783.23 127.002 784.111 128.11 785.291 128.81C786.47 129.51 787.865 129.753 789.212 129.493Z" fill="#FFB8B8"/>
<path d="M857.486 69.8536C857.486 69.8536 862.783 59.0089 850.103 60.8614C837.422 62.7138 789.335 112.022 789.335 112.022L797.382 122.599L845.982 79.5532L857.486 69.8536Z" fill="#2D995F"/>
<path d="M836.836 51.4595L786.56 115.847C785.691 116.965 785.3 118.381 785.473 119.787C785.646 121.192 786.37 122.471 787.485 123.344C799.16 151.683 834.09 172.698 875.179 191.772C876.297 192.642 877.714 193.034 879.12 192.86C880.526 192.687 881.806 191.963 882.679 190.848L932.955 126.46C933.826 125.343 934.217 123.926 934.044 122.52C933.871 121.115 933.147 119.836 932.031 118.963C897.549 99.4992 867.911 76.9485 844.336 50.5356C843.218 49.6662 841.801 49.2752 840.395 49.4484C838.989 49.6216 837.71 50.3448 836.836 51.4595Z" fill="#E6E6E6"/>
<path d="M929.426 124.995L914.123 144.594C904.775 156.494 891.095 164.212 876.073 166.063C861.05 167.914 845.906 163.746 833.947 154.471L791.06 121.007C790.424 120.511 790.012 119.783 789.912 118.983C789.813 118.184 790.035 117.377 790.53 116.741L839.112 54.523C839.609 53.8888 840.337 53.4777 841.138 53.3799C841.938 53.2821 842.744 53.5056 843.38 54.0013C865.074 82.0059 894.114 103.799 928.901 120.733C929.535 121.229 929.947 121.956 930.045 122.755C930.144 123.554 929.921 124.36 929.426 124.995Z" fill="white"/>
<path d="M835.833 86.6088L825.867 99.3728C825.602 99.7109 825.214 99.9302 824.788 99.9825C824.362 100.035 823.933 99.9158 823.594 99.6517C823.256 99.3876 823.036 99 822.983 98.5741C822.931 98.1482 823.049 97.7187 823.313 97.3802L833.28 84.6162C833.411 84.4484 833.573 84.308 833.758 84.203C833.943 84.098 834.147 84.0306 834.359 84.0044C834.57 83.9783 834.784 83.9941 834.989 84.0508C835.194 84.1075 835.386 84.2041 835.554 84.335C835.722 84.4659 835.862 84.6286 835.967 84.8137C836.072 84.9989 836.139 85.2029 836.165 85.4141C836.191 85.6252 836.175 85.8394 836.118 86.0444C836.061 86.2495 835.965 86.4412 835.833 86.6088Z" fill="#CCCCCC"/>
<path d="M854.527 77.1411L832.64 105.172C832.509 105.339 832.347 105.48 832.162 105.584C831.977 105.689 831.773 105.756 831.562 105.782C831.35 105.808 831.136 105.793 830.931 105.736C830.726 105.679 830.534 105.583 830.367 105.452C830.199 105.321 830.059 105.158 829.954 104.973C829.849 104.788 829.782 104.585 829.756 104.373C829.73 104.162 829.746 103.948 829.802 103.743C829.859 103.538 829.956 103.347 830.087 103.179L851.974 75.1485C852.105 74.9805 852.267 74.8399 852.452 74.7347C852.637 74.6296 852.842 74.562 853.053 74.5358C853.264 74.5095 853.479 74.5252 853.684 74.582C853.889 74.6387 854.081 74.7353 854.249 74.8663C854.417 74.9972 854.557 75.16 854.662 75.3453C854.767 75.5305 854.834 75.7347 854.86 75.9459C854.886 76.1572 854.87 76.3715 854.813 76.5766C854.756 76.7817 854.659 76.9735 854.527 77.1411Z" fill="#CCCCCC"/>
<path d="M817.198 123.894C823.091 123.894 827.867 119.119 827.867 113.229C827.867 107.339 823.091 102.564 817.198 102.564C811.306 102.564 806.53 107.339 806.53 113.229C806.53 119.119 811.306 123.894 817.198 123.894Z" fill="#2D995F"/>
<path d="M855.69 99.2949L828.808 133.722C828.527 134.008 828.151 134.18 827.752 134.206C827.352 134.233 826.957 134.111 826.641 133.865C826.326 133.619 826.112 133.265 826.04 132.871C825.969 132.477 826.045 132.071 826.254 131.73L853.136 97.3023C853.416 97.0167 853.792 96.8443 854.192 96.818C854.591 96.7917 854.987 96.9132 855.302 97.1595C855.618 97.4057 855.832 97.7595 855.903 98.1533C855.975 98.5472 855.899 98.9535 855.69 99.2949Z" fill="#CCCCCC"/>
<path d="M873.128 91.4336L835.608 139.486C835.327 139.771 834.952 139.944 834.552 139.97C834.152 139.996 833.757 139.875 833.442 139.628C833.126 139.382 832.912 139.028 832.841 138.635C832.769 138.241 832.845 137.834 833.054 137.493L870.575 89.441C870.855 89.1554 871.231 88.983 871.631 88.9567C872.03 88.9303 872.425 89.0519 872.741 89.2982C873.057 89.5444 873.271 89.8982 873.342 90.292C873.414 90.6859 873.338 91.0922 873.128 91.4336Z" fill="#CCCCCC"/>
<path d="M872.998 112.799L846.116 147.226C845.836 147.512 845.46 147.684 845.06 147.71C844.661 147.737 844.266 147.615 843.95 147.369C843.634 147.123 843.42 146.769 843.349 146.375C843.277 145.981 843.354 145.575 843.563 145.233L870.444 110.806C870.725 110.521 871.101 110.348 871.5 110.322C871.9 110.296 872.295 110.417 872.611 110.663C872.926 110.91 873.14 111.263 873.212 111.657C873.283 112.051 873.207 112.457 872.998 112.799Z" fill="#CCCCCC"/>
<path d="M908.567 117.045L881.686 151.472C881.405 151.758 881.029 151.93 880.63 151.956C880.23 151.983 879.835 151.861 879.519 151.615C879.204 151.369 878.99 151.015 878.918 150.621C878.847 150.227 878.923 149.821 879.132 149.48L906.014 115.052C906.294 114.767 906.67 114.594 907.07 114.568C907.469 114.542 907.864 114.663 908.18 114.909C908.496 115.156 908.71 115.51 908.781 115.903C908.852 116.297 908.776 116.704 908.567 117.045Z" fill="#2D995F"/>
<path d="M890.437 104.939L852.916 152.991C852.636 153.277 852.26 153.449 851.861 153.476C851.461 153.502 851.066 153.381 850.75 153.134C850.435 152.888 850.221 152.534 850.149 152.14C850.078 151.747 850.154 151.34 850.363 150.999L887.883 102.947C888.164 102.661 888.54 102.489 888.939 102.463C889.339 102.436 889.734 102.558 890.05 102.804C890.365 103.05 890.579 103.404 890.651 103.798C890.722 104.192 890.646 104.598 890.437 104.939Z" fill="#CCCCCC"/>
<path d="M846.243 26.6649C846.242 29.2556 846.877 31.8069 848.093 34.0949C849.309 36.3829 851.068 38.3376 853.215 39.7874C855.363 41.2372 857.834 42.1378 860.411 42.4101C862.989 42.6825 865.593 42.3182 867.997 41.3493C870.4 40.3804 872.529 38.8365 874.197 36.8531C875.864 34.8697 877.019 32.5076 877.56 29.9739C878.1 27.4403 878.011 24.8126 877.299 22.3216C876.587 19.8307 875.274 17.5526 873.475 15.6873L873.399 15.6114C873.272 15.4784 873.146 15.3454 873.013 15.2188C873.012 15.2188 873.011 15.2186 873.01 15.2183C873.01 15.218 873.009 15.2176 873.008 15.217C873.008 15.2164 873.007 15.2157 873.007 15.2149C873.007 15.2141 873.006 15.2133 873.006 15.2125C872.842 15.0605 872.677 14.9086 872.506 14.763C870.218 12.7579 867.401 11.4545 864.391 11.0088C861.382 10.563 858.307 10.9938 855.536 12.2496C852.765 13.5054 850.415 15.533 848.767 18.0896C847.118 20.6462 846.242 23.6235 846.243 26.6649Z" fill="#2F2E41"/>
<path d="M865.976 43.598C873.309 43.598 879.253 37.656 879.253 30.3263C879.253 22.9966 873.309 17.0547 865.976 17.0547C858.644 17.0547 852.7 22.9966 852.7 30.3263C852.7 37.656 858.644 43.598 865.976 43.598Z" fill="#FFB8B8"/>
<path d="M851.823 33.8622C850.525 28.0162 852.401 21.4666 856.491 17.5638C858.547 15.6397 861.106 14.3347 863.871 13.7988C866.637 13.263 869.497 13.518 872.124 14.5346C872.458 14.6693 872.792 14.8168 873.12 14.9707L873.272 15.0425V15.0648C873.302 15.0853 873.331 15.1068 873.361 15.1285C873.423 15.1865 873.498 15.2281 873.58 15.2495C874.733 15.2194 875.879 15.4331 876.943 15.8766C878.008 16.3201 878.966 16.9835 879.756 17.8232C881.814 20.0551 882.783 23.662 882.486 27.9794L882.477 28.1144L882.361 28.1861C880.804 29.173 879.187 30.064 877.521 30.8542C871.692 33.5937 866.372 34.1013 861.258 32.404L861.164 32.3729L859.018 28.777C858.577 31.2571 858.812 39.4837 856.284 39.9294L851.878 34.1101L851.823 33.8622Z" fill="#2F2E41"/>
<path d="M823.876 45.4186C828.394 43.0875 822.583 34.6271 823.751 29.6805C824.918 24.734 833.326 23.143 833.862 18.0889C834.397 13.0347 835.658 7.82191 838.994 3.9868C841.126 1.53617 844.267 -0.272977 847.501 0.03398C848.595 0.137835 849.655 0.476234 850.606 1.02613C851.558 1.57602 852.38 2.3245 853.016 3.22057C853.652 4.11665 854.088 5.13926 854.293 6.21877C854.498 7.29829 854.468 8.40934 854.205 9.47626C855.126 8.17192 857.509 8.45461 858.099 9.93825C858.624 11.2572 857.465 12.8548 856.102 12.9715C854.318 15.1739 852.275 17.5113 849.48 17.9555C849.034 18.0578 848.572 18.0575 848.127 17.9548C847.681 17.8521 847.265 17.6496 846.91 17.3626C846.252 16.7313 846.201 15.4694 846.981 14.9976C843.469 16.3924 841.41 20.1887 840.888 23.9307C840.367 27.6727 841.088 31.4588 841.563 35.2069C842.038 38.955 842.243 42.8978 840.773 46.3784C839.036 50.4907 835.037 53.4381 830.673 54.3833C826.309 55.3286 821.661 54.4048 817.711 52.3234C813.76 50.242 810.466 47.0645 807.775 43.5022C812.41 46.7926 818.824 48.0253 823.876 45.4186Z" fill="#2F2E41"/>
<path d="M859.634 29.4677C854.992 37.4616 863.733 50.9309 854.924 53.7279L855.65 53.0024C860.967 46.464 849.853 32.6251 855.17 26.0867C855.997 25.1276 856.706 24.0737 857.283 22.9473" fill="#2F2E41"/>
<path d="M852.443 33.742C852.443 33.742 856.376 19.0672 873.235 15.6801C873.254 15.6739 873.317 15.6485 873.399 15.6106C873.45 15.5789 873.513 15.5472 873.577 15.5156C873.387 15.4079 873.203 15.313 873.013 15.218L873.011 15.2175L873.008 15.2162L873.007 15.2141L873.007 15.2116C872.842 15.0597 872.677 14.9078 872.506 14.7622L872.025 14.7812C872.025 14.7812 855.11 12.1033 852.443 33.742Z" fill="#FD6584"/>
<path d="M730 288.368C730 288.451 730.016 288.533 730.048 288.61C730.079 288.687 730.126 288.756 730.185 288.815C730.243 288.874 730.313 288.92 730.39 288.952C730.466 288.983 730.549 289 730.632 288.999H1110.37C1110.54 288.999 1110.7 288.933 1110.81 288.814C1110.93 288.696 1111 288.535 1111 288.368C1111 288.2 1110.93 288.04 1110.81 287.921C1110.7 287.803 1110.54 287.736 1110.37 287.736H730.632C730.549 287.736 730.466 287.752 730.39 287.784C730.313 287.816 730.243 287.862 730.184 287.921C730.126 287.979 730.079 288.049 730.048 288.126C730.016 288.203 730 288.285 730 288.368Z" fill="#CCCCCC"/>
</g>
<defs>
<clipPath id="clip0_4005_471">
<rect width="381" height="289" fill="white" transform="translate(730)"/>
</clipPath>
</defs>
</svg>
