<svg width="1120" height="359" viewBox="0 0 1120 359" fill="none" xmlns="http://www.w3.org/2000/svg">
<rect y="79" width="1120" height="280" rx="8" fill="#F2F5F3" fill-opacity="0.77"/>
<path d="M61.6364 157.281C61.4574 156.659 61.206 156.109 60.8821 155.632C60.5582 155.146 60.1619 154.737 59.6932 154.405C59.233 154.064 58.7045 153.804 58.108 153.625C57.5199 153.446 56.8679 153.357 56.152 153.357C54.8139 153.357 53.6378 153.689 52.6236 154.354C51.6179 155.018 50.8338 155.986 50.2713 157.256C49.7088 158.517 49.4276 160.06 49.4276 161.884C49.4276 163.707 49.7045 165.259 50.2585 166.537C50.8125 167.815 51.5966 168.791 52.6108 169.464C53.625 170.129 54.8224 170.462 56.2031 170.462C57.456 170.462 58.5256 170.24 59.4119 169.797C60.3068 169.345 60.9886 168.71 61.4574 167.892C61.9347 167.074 62.1733 166.107 62.1733 164.99L63.2983 165.156H56.5483V160.989H67.5043V164.287C67.5043 166.588 67.0185 168.565 66.0469 170.219C65.0753 171.864 63.7372 173.134 62.0327 174.028C60.3281 174.915 58.3764 175.358 56.1776 175.358C53.723 175.358 51.5668 174.817 49.7088 173.734C47.8509 172.643 46.402 171.097 45.3622 169.094C44.331 167.082 43.8153 164.696 43.8153 161.935C43.8153 159.812 44.1222 157.92 44.7358 156.259C45.358 154.588 46.2273 153.173 47.3438 152.014C48.4602 150.855 49.7599 149.973 51.2429 149.368C52.7259 148.763 54.3324 148.46 56.0625 148.46C57.5455 148.46 58.9261 148.678 60.2045 149.112C61.483 149.538 62.6165 150.143 63.6051 150.928C64.6023 151.712 65.4162 152.645 66.0469 153.727C66.6776 154.801 67.0824 155.986 67.2614 157.281H61.6364ZM80.5089 175.384C78.489 175.384 76.7504 174.974 75.293 174.156C73.8441 173.33 72.7276 172.162 71.9435 170.653C71.1594 169.136 70.7674 167.342 70.7674 165.271C70.7674 163.251 71.1594 161.479 71.9435 159.953C72.7276 158.428 73.8313 157.239 75.2546 156.386C76.6864 155.534 78.3654 155.108 80.2915 155.108C81.587 155.108 82.793 155.317 83.9094 155.734C85.0344 156.143 86.0146 156.761 86.8498 157.588C87.6935 158.415 88.3498 159.455 88.8185 160.707C89.2873 161.952 89.5217 163.409 89.5217 165.08V166.575H72.9407V163.2H84.3952C84.3952 162.416 84.2248 161.722 83.8839 161.116C83.543 160.511 83.07 160.038 82.4648 159.697C81.8683 159.348 81.1737 159.173 80.381 159.173C79.5543 159.173 78.8214 159.365 78.1822 159.749C77.5515 160.124 77.0572 160.631 76.6992 161.27C76.3413 161.901 76.158 162.604 76.1495 163.379V166.588C76.1495 167.56 76.3285 168.399 76.6864 169.107C77.0529 169.814 77.5685 170.359 78.2333 170.743C78.8981 171.126 79.6864 171.318 80.5984 171.318C81.2035 171.318 81.7575 171.233 82.2603 171.062C82.7631 170.892 83.1935 170.636 83.5515 170.295C83.9094 169.955 84.1822 169.537 84.3697 169.043L89.4066 169.375C89.1509 170.585 88.6268 171.642 87.8342 172.545C87.0501 173.44 86.0359 174.139 84.7915 174.642C83.5558 175.136 82.1282 175.384 80.5089 175.384ZM103.52 155.364V159.455H91.695V155.364H103.52ZM94.3796 150.659H99.8256V168.966C99.8256 169.469 99.9023 169.861 100.056 170.142C100.209 170.415 100.422 170.607 100.695 170.717C100.976 170.828 101.3 170.884 101.667 170.884C101.922 170.884 102.178 170.862 102.434 170.82C102.689 170.768 102.885 170.73 103.022 170.705L103.878 174.757C103.605 174.842 103.222 174.94 102.728 175.051C102.233 175.17 101.632 175.243 100.925 175.268C99.6126 175.32 98.462 175.145 97.4734 174.744C96.4933 174.344 95.7305 173.722 95.185 172.878C94.6396 172.034 94.3711 170.969 94.3796 169.682V150.659ZM137.401 148.818V175H132.62L121.229 158.521H121.038V175H115.502V148.818H120.36L131.661 165.284H131.891V148.818H137.401ZM153.212 148.818V175H147.676V154.072H147.523L141.527 157.831V152.922L148.009 148.818H153.212ZM169.7 175.575C167.501 175.567 165.609 175.026 164.024 173.952C162.447 172.878 161.233 171.322 160.381 169.286C159.537 167.249 159.119 164.798 159.128 161.935C159.128 159.08 159.55 156.646 160.393 154.635C161.246 152.624 162.46 151.094 164.037 150.045C165.622 148.989 167.51 148.46 169.7 148.46C171.891 148.46 173.774 148.989 175.351 150.045C176.936 151.102 178.155 152.636 179.007 154.648C179.859 156.651 180.281 159.08 180.273 161.935C180.273 164.807 179.847 167.261 178.994 169.298C178.151 171.335 176.94 172.891 175.364 173.964C173.787 175.038 171.899 175.575 169.7 175.575ZM169.7 170.986C171.2 170.986 172.398 170.232 173.293 168.723C174.188 167.214 174.631 164.952 174.622 161.935C174.622 159.949 174.418 158.295 174.009 156.974C173.608 155.653 173.037 154.661 172.295 153.996C171.562 153.331 170.697 152.999 169.7 152.999C168.209 152.999 167.016 153.744 166.121 155.236C165.226 156.727 164.774 158.96 164.766 161.935C164.766 163.946 164.966 165.625 165.366 166.972C165.776 168.31 166.351 169.315 167.092 169.989C167.834 170.653 168.703 170.986 169.7 170.986ZM194.485 175.575C192.287 175.567 190.395 175.026 188.809 173.952C187.233 172.878 186.018 171.322 185.166 169.286C184.322 167.249 183.904 164.798 183.913 161.935C183.913 159.08 184.335 156.646 185.179 154.635C186.031 152.624 187.245 151.094 188.822 150.045C190.407 148.989 192.295 148.46 194.485 148.46C196.676 148.46 198.559 148.989 200.136 150.045C201.721 151.102 202.94 152.636 203.792 154.648C204.645 156.651 205.066 159.08 205.058 161.935C205.058 164.807 204.632 167.261 203.779 169.298C202.936 171.335 201.725 172.891 200.149 173.964C198.572 175.038 196.684 175.575 194.485 175.575ZM194.485 170.986C195.985 170.986 197.183 170.232 198.078 168.723C198.973 167.214 199.416 164.952 199.407 161.935C199.407 159.949 199.203 158.295 198.794 156.974C198.393 155.653 197.822 154.661 197.081 153.996C196.348 153.331 195.483 152.999 194.485 152.999C192.994 152.999 191.801 153.744 190.906 155.236C190.011 156.727 189.559 158.96 189.551 161.935C189.551 163.946 189.751 165.625 190.152 166.972C190.561 168.31 191.136 169.315 191.877 169.989C192.619 170.653 193.488 170.986 194.485 170.986ZM213.92 171.42L213.78 172.827C213.669 173.952 213.456 175.072 213.141 176.189C212.834 177.314 212.51 178.332 212.169 179.244C211.837 180.156 211.568 180.872 211.364 181.392H207.835C207.963 180.889 208.138 180.186 208.359 179.283C208.581 178.388 208.79 177.382 208.986 176.266C209.182 175.149 209.305 174.011 209.357 172.852L209.42 171.42H213.92ZM228.06 175.575C225.861 175.567 223.969 175.026 222.384 173.952C220.807 172.878 219.592 171.322 218.74 169.286C217.896 167.249 217.479 164.798 217.487 161.935C217.487 159.08 217.909 156.646 218.753 154.635C219.605 152.624 220.82 151.094 222.396 150.045C223.982 148.989 225.869 148.46 228.06 148.46C230.25 148.46 232.134 148.989 233.71 150.045C235.295 151.102 236.514 152.636 237.366 154.648C238.219 156.651 238.641 159.08 238.632 161.935C238.632 164.807 238.206 167.261 237.354 169.298C236.51 171.335 235.3 172.891 233.723 173.964C232.146 175.038 230.259 175.575 228.06 175.575ZM228.06 170.986C229.56 170.986 230.757 170.232 231.652 168.723C232.547 167.214 232.99 164.952 232.982 161.935C232.982 159.949 232.777 158.295 232.368 156.974C231.967 155.653 231.396 154.661 230.655 153.996C229.922 153.331 229.057 152.999 228.06 152.999C226.568 152.999 225.375 153.744 224.48 155.236C223.585 156.727 223.134 158.96 223.125 161.935C223.125 163.946 223.325 165.625 223.726 166.972C224.135 168.31 224.71 169.315 225.452 169.989C226.193 170.653 227.062 170.986 228.06 170.986ZM252.845 175.575C250.646 175.567 248.754 175.026 247.169 173.952C245.592 172.878 244.377 171.322 243.525 169.286C242.681 167.249 242.264 164.798 242.272 161.935C242.272 159.08 242.694 156.646 243.538 154.635C244.39 152.624 245.605 151.094 247.181 150.045C248.767 148.989 250.654 148.46 252.845 148.46C255.035 148.46 256.919 148.989 258.495 150.045C260.081 151.102 261.299 152.636 262.152 154.648C263.004 156.651 263.426 159.08 263.417 161.935C263.417 164.807 262.991 167.261 262.139 169.298C261.295 171.335 260.085 172.891 258.508 173.964C256.931 175.038 255.044 175.575 252.845 175.575ZM252.845 170.986C254.345 170.986 255.542 170.232 256.437 168.723C257.332 167.214 257.775 164.952 257.767 161.935C257.767 159.949 257.562 158.295 257.153 156.974C256.752 155.653 256.181 154.661 255.44 153.996C254.707 153.331 253.842 152.999 252.845 152.999C251.353 152.999 250.16 153.744 249.265 155.236C248.37 156.727 247.919 158.96 247.91 161.935C247.91 163.946 248.11 165.625 248.511 166.972C248.92 168.31 249.495 169.315 250.237 169.989C250.978 170.653 251.848 170.986 252.845 170.986ZM277.63 175.575C275.431 175.567 273.539 175.026 271.954 173.952C270.377 172.878 269.163 171.322 268.31 169.286C267.467 167.249 267.049 164.798 267.058 161.935C267.058 159.08 267.479 156.646 268.323 154.635C269.175 152.624 270.39 151.094 271.967 150.045C273.552 148.989 275.44 148.46 277.63 148.46C279.82 148.46 281.704 148.989 283.281 150.045C284.866 151.102 286.085 152.636 286.937 154.648C287.789 156.651 288.211 159.08 288.202 161.935C288.202 164.807 287.776 167.261 286.924 169.298C286.08 171.335 284.87 172.891 283.293 173.964C281.717 175.038 279.829 175.575 277.63 175.575ZM277.63 170.986C279.13 170.986 280.327 170.232 281.222 168.723C282.117 167.214 282.56 164.952 282.552 161.935C282.552 159.949 282.347 158.295 281.938 156.974C281.538 155.653 280.967 154.661 280.225 153.996C279.492 153.331 278.627 152.999 277.63 152.999C276.138 152.999 274.945 153.744 274.05 155.236C273.156 156.727 272.704 158.96 272.695 161.935C272.695 163.946 272.896 165.625 273.296 166.972C273.705 168.31 274.281 169.315 275.022 169.989C275.763 170.653 276.633 170.986 277.63 170.986ZM317.996 157.281C317.817 156.659 317.565 156.109 317.241 155.632C316.918 155.146 316.521 154.737 316.053 154.405C315.592 154.064 315.064 153.804 314.467 153.625C313.879 153.446 313.227 153.357 312.511 153.357C311.173 153.357 309.997 153.689 308.983 154.354C307.977 155.018 307.193 155.986 306.631 157.256C306.068 158.517 305.787 160.06 305.787 161.884C305.787 163.707 306.064 165.259 306.618 166.537C307.172 167.815 307.956 168.791 308.97 169.464C309.984 170.129 311.182 170.462 312.562 170.462C313.815 170.462 314.885 170.24 315.771 169.797C316.666 169.345 317.348 168.71 317.817 167.892C318.294 167.074 318.533 166.107 318.533 164.99L319.658 165.156H312.908V160.989H323.864V164.287C323.864 166.588 323.378 168.565 322.406 170.219C321.435 171.864 320.097 173.134 318.392 174.028C316.688 174.915 314.736 175.358 312.537 175.358C310.082 175.358 307.926 174.817 306.068 173.734C304.21 172.643 302.761 171.097 301.722 169.094C300.69 167.082 300.175 164.696 300.175 161.935C300.175 159.812 300.482 157.92 301.095 156.259C301.717 154.588 302.587 153.173 303.703 152.014C304.82 150.855 306.119 149.973 307.602 149.368C309.085 148.763 310.692 148.46 312.422 148.46C313.905 148.46 315.286 148.678 316.564 149.112C317.842 149.538 318.976 150.143 319.964 150.928C320.962 151.712 321.776 152.645 322.406 153.727C323.037 154.801 323.442 155.986 323.621 157.281H317.996ZM327.919 175V155.364H333.199V158.79H333.404C333.762 157.571 334.363 156.651 335.206 156.028C336.05 155.398 337.022 155.082 338.121 155.082C338.394 155.082 338.688 155.099 339.003 155.134C339.319 155.168 339.596 155.214 339.834 155.274V160.107C339.578 160.03 339.225 159.962 338.773 159.902C338.321 159.842 337.908 159.812 337.533 159.812C336.732 159.812 336.016 159.987 335.385 160.337C334.763 160.678 334.269 161.155 333.902 161.768C333.544 162.382 333.365 163.089 333.365 163.891V175H327.919ZM347.687 175.371C346.434 175.371 345.317 175.153 344.337 174.719C343.357 174.276 342.582 173.624 342.011 172.763C341.448 171.893 341.167 170.811 341.167 169.516C341.167 168.425 341.367 167.509 341.768 166.767C342.168 166.026 342.714 165.429 343.404 164.977C344.094 164.526 344.879 164.185 345.756 163.955C346.643 163.724 347.572 163.562 348.543 163.469C349.685 163.349 350.606 163.239 351.305 163.136C352.004 163.026 352.511 162.864 352.826 162.651C353.141 162.437 353.299 162.122 353.299 161.705V161.628C353.299 160.818 353.043 160.192 352.532 159.749C352.029 159.305 351.313 159.084 350.384 159.084C349.404 159.084 348.624 159.301 348.045 159.736C347.465 160.162 347.082 160.699 346.894 161.347L341.857 160.938C342.113 159.744 342.616 158.713 343.366 157.844C344.116 156.966 345.083 156.293 346.268 155.824C347.461 155.347 348.842 155.108 350.41 155.108C351.501 155.108 352.545 155.236 353.542 155.491C354.548 155.747 355.438 156.143 356.214 156.68C356.998 157.217 357.616 157.908 358.067 158.751C358.519 159.587 358.745 160.588 358.745 161.756V175H353.58V172.277H353.427C353.112 172.891 352.69 173.432 352.161 173.901C351.633 174.361 350.998 174.723 350.256 174.987C349.515 175.243 348.658 175.371 347.687 175.371ZM349.246 171.612C350.048 171.612 350.755 171.455 351.369 171.139C351.982 170.815 352.464 170.381 352.813 169.835C353.163 169.29 353.337 168.672 353.337 167.982V165.898C353.167 166.009 352.933 166.111 352.634 166.205C352.344 166.29 352.016 166.371 351.65 166.447C351.283 166.516 350.917 166.58 350.55 166.639C350.184 166.69 349.852 166.737 349.553 166.78C348.914 166.874 348.356 167.023 347.879 167.227C347.401 167.432 347.031 167.709 346.766 168.058C346.502 168.399 346.37 168.825 346.37 169.337C346.37 170.078 346.638 170.645 347.175 171.037C347.721 171.42 348.411 171.612 349.246 171.612ZM368.416 163.648V175H362.97V155.364H368.161V158.828H368.391C368.825 157.686 369.554 156.783 370.577 156.118C371.599 155.445 372.839 155.108 374.297 155.108C375.661 155.108 376.849 155.406 377.864 156.003C378.878 156.599 379.666 157.452 380.229 158.56C380.791 159.659 381.072 160.972 381.072 162.497V175H375.626V163.469C375.635 162.267 375.328 161.33 374.706 160.656C374.084 159.974 373.227 159.634 372.136 159.634C371.403 159.634 370.756 159.791 370.193 160.107C369.639 160.422 369.205 160.882 368.889 161.487C368.582 162.084 368.425 162.804 368.416 163.648ZM395.809 155.364V159.455H383.984V155.364H395.809ZM386.669 150.659H392.115V168.966C392.115 169.469 392.191 169.861 392.345 170.142C392.498 170.415 392.711 170.607 392.984 170.717C393.265 170.828 393.589 170.884 393.956 170.884C394.211 170.884 394.467 170.862 394.723 170.82C394.978 170.768 395.174 170.73 395.311 170.705L396.167 174.757C395.895 174.842 395.511 174.94 395.017 175.051C394.522 175.17 393.922 175.243 393.214 175.268C391.902 175.32 390.751 175.145 389.762 174.744C388.782 174.344 388.02 173.722 387.474 172.878C386.929 172.034 386.66 170.969 386.669 169.682V150.659ZM54.733 199.364V203.455H42.6136V199.364H54.733ZM45.3878 219V197.945C45.3878 196.521 45.6648 195.341 46.2188 194.403C46.7812 193.466 47.5483 192.763 48.5199 192.294C49.4915 191.825 50.5952 191.591 51.831 191.591C52.6662 191.591 53.429 191.655 54.1193 191.783C54.8182 191.911 55.3381 192.026 55.679 192.128L54.7074 196.219C54.4943 196.151 54.2301 196.087 53.9148 196.027C53.608 195.967 53.2926 195.938 52.9688 195.938C52.1676 195.938 51.6094 196.125 51.294 196.5C50.9787 196.866 50.821 197.382 50.821 198.047V219H45.3878ZM58.06 219V199.364H63.3398V202.79H63.5444C63.9023 201.571 64.5032 200.651 65.3469 200.028C66.1907 199.398 67.1623 199.082 68.2617 199.082C68.5344 199.082 68.8285 199.099 69.1438 199.134C69.4592 199.168 69.7362 199.214 69.9748 199.274V204.107C69.7191 204.03 69.3654 203.962 68.9137 203.902C68.462 203.842 68.0487 203.812 67.6737 203.812C66.8725 203.812 66.1566 203.987 65.5259 204.337C64.9038 204.678 64.4094 205.155 64.043 205.768C63.685 206.382 63.506 207.089 63.506 207.891V219H58.06ZM80.7486 219.384C78.7628 219.384 77.0455 218.962 75.5966 218.118C74.1563 217.266 73.044 216.081 72.2599 214.564C71.4759 213.038 71.0838 211.27 71.0838 209.259C71.0838 207.23 71.4759 205.457 72.2599 203.94C73.044 202.415 74.1563 201.23 75.5966 200.386C77.0455 199.534 78.7628 199.108 80.7486 199.108C82.7344 199.108 84.4474 199.534 85.8878 200.386C87.3366 201.23 88.4531 202.415 89.2372 203.94C90.0213 205.457 90.4134 207.23 90.4134 209.259C90.4134 211.27 90.0213 213.038 89.2372 214.564C88.4531 216.081 87.3366 217.266 85.8878 218.118C84.4474 218.962 82.7344 219.384 80.7486 219.384ZM80.7741 215.165C81.6776 215.165 82.4318 214.909 83.0369 214.398C83.642 213.878 84.098 213.17 84.4048 212.276C84.7202 211.381 84.8778 210.362 84.8778 209.22C84.8778 208.078 84.7202 207.06 84.4048 206.165C84.098 205.27 83.642 204.562 83.0369 204.043C82.4318 203.523 81.6776 203.263 80.7741 203.263C79.8622 203.263 79.0952 203.523 78.473 204.043C77.8594 204.562 77.3949 205.27 77.0795 206.165C76.7727 207.06 76.6193 208.078 76.6193 209.22C76.6193 210.362 76.7727 211.381 77.0795 212.276C77.3949 213.17 77.8594 213.878 78.473 214.398C79.0952 214.909 79.8622 215.165 80.7741 215.165ZM93.9545 219V199.364H99.1449V202.828H99.375C99.7841 201.678 100.466 200.77 101.42 200.105C102.375 199.44 103.517 199.108 104.847 199.108C106.193 199.108 107.339 199.445 108.286 200.118C109.232 200.783 109.862 201.686 110.178 202.828H110.382C110.783 201.703 111.507 200.804 112.555 200.131C113.612 199.449 114.861 199.108 116.301 199.108C118.134 199.108 119.621 199.692 120.763 200.859C121.913 202.018 122.489 203.663 122.489 205.794V219H117.055V206.868C117.055 205.777 116.766 204.959 116.186 204.413C115.607 203.868 114.882 203.595 114.013 203.595C113.024 203.595 112.253 203.911 111.699 204.541C111.145 205.163 110.868 205.986 110.868 207.009V219H105.588V206.753C105.588 205.79 105.311 205.023 104.757 204.452C104.212 203.881 103.491 203.595 102.597 203.595C101.991 203.595 101.446 203.749 100.96 204.055C100.483 204.354 100.104 204.776 99.8224 205.321C99.5412 205.858 99.4006 206.489 99.4006 207.213V219H93.9545ZM145.567 199.364V203.455H133.742V199.364H145.567ZM136.426 194.659H141.873V212.966C141.873 213.469 141.949 213.861 142.103 214.142C142.256 214.415 142.469 214.607 142.742 214.717C143.023 214.828 143.347 214.884 143.713 214.884C143.969 214.884 144.225 214.862 144.48 214.82C144.736 214.768 144.932 214.73 145.069 214.705L145.925 218.757C145.652 218.842 145.269 218.94 144.775 219.051C144.28 219.17 143.679 219.243 142.972 219.268C141.659 219.32 140.509 219.145 139.52 218.744C138.54 218.344 137.777 217.722 137.232 216.878C136.686 216.034 136.418 214.969 136.426 213.682V194.659ZM154.983 207.648V219H149.537V192.818H154.829V202.828H155.059C155.502 201.669 156.218 200.761 157.207 200.105C158.196 199.44 159.436 199.108 160.927 199.108C162.291 199.108 163.48 199.406 164.494 200.003C165.517 200.591 166.309 201.439 166.872 202.547C167.443 203.646 167.724 204.963 167.716 206.497V219H162.27V207.469C162.278 206.259 161.971 205.317 161.349 204.643C160.735 203.97 159.875 203.634 158.767 203.634C158.025 203.634 157.369 203.791 156.798 204.107C156.235 204.422 155.792 204.882 155.468 205.487C155.153 206.084 154.991 206.804 154.983 207.648ZM180.95 219.384C178.93 219.384 177.192 218.974 175.734 218.156C174.286 217.33 173.169 216.162 172.385 214.653C171.601 213.136 171.209 211.342 171.209 209.271C171.209 207.251 171.601 205.479 172.385 203.953C173.169 202.428 174.273 201.239 175.696 200.386C177.128 199.534 178.807 199.108 180.733 199.108C182.028 199.108 183.234 199.317 184.351 199.734C185.476 200.143 186.456 200.761 187.291 201.588C188.135 202.415 188.791 203.455 189.26 204.707C189.729 205.952 189.963 207.409 189.963 209.08V210.575H173.382V207.2H184.837C184.837 206.416 184.666 205.722 184.325 205.116C183.984 204.511 183.511 204.038 182.906 203.697C182.31 203.348 181.615 203.173 180.822 203.173C179.996 203.173 179.263 203.365 178.624 203.749C177.993 204.124 177.499 204.631 177.141 205.27C176.783 205.901 176.599 206.604 176.591 207.379V210.588C176.591 211.56 176.77 212.399 177.128 213.107C177.494 213.814 178.01 214.359 178.675 214.743C179.339 215.126 180.128 215.318 181.04 215.318C181.645 215.318 182.199 215.233 182.702 215.062C183.205 214.892 183.635 214.636 183.993 214.295C184.351 213.955 184.624 213.537 184.811 213.043L189.848 213.375C189.592 214.585 189.068 215.642 188.276 216.545C187.491 217.44 186.477 218.139 185.233 218.642C183.997 219.136 182.57 219.384 180.95 219.384ZM226.011 205.909C226.011 208.764 225.47 211.193 224.387 213.196C223.314 215.199 221.848 216.729 219.99 217.786C218.14 218.834 216.061 219.358 213.751 219.358C211.424 219.358 209.336 218.83 207.487 217.773C205.637 216.716 204.176 215.186 203.102 213.183C202.028 211.18 201.491 208.756 201.491 205.909C201.491 203.054 202.028 200.625 203.102 198.622C204.176 196.619 205.637 195.094 207.487 194.045C209.336 192.989 211.424 192.46 213.751 192.46C216.061 192.46 218.14 192.989 219.99 194.045C221.848 195.094 223.314 196.619 224.387 198.622C225.47 200.625 226.011 203.054 226.011 205.909ZM220.399 205.909C220.399 204.06 220.122 202.5 219.568 201.23C219.022 199.96 218.251 198.997 217.254 198.341C216.257 197.685 215.089 197.357 213.751 197.357C212.413 197.357 211.245 197.685 210.248 198.341C209.251 198.997 208.475 199.96 207.922 201.23C207.376 202.5 207.103 204.06 207.103 205.909C207.103 207.759 207.376 209.318 207.922 210.588C208.475 211.858 209.251 212.821 210.248 213.477C211.245 214.134 212.413 214.462 213.751 214.462C215.089 214.462 216.257 214.134 217.254 213.477C218.251 212.821 219.022 211.858 219.568 210.588C220.122 209.318 220.399 207.759 220.399 205.909ZM238.856 226.773C237.092 226.773 235.579 226.53 234.317 226.044C233.065 225.567 232.067 224.915 231.326 224.088C230.585 223.261 230.103 222.332 229.881 221.301L234.918 220.624C235.072 221.016 235.315 221.382 235.647 221.723C235.979 222.064 236.418 222.337 236.964 222.541C237.518 222.754 238.191 222.861 238.984 222.861C240.168 222.861 241.144 222.571 241.911 221.991C242.687 221.42 243.075 220.462 243.075 219.115V215.523H242.844C242.606 216.068 242.248 216.584 241.771 217.07C241.293 217.555 240.68 217.952 239.93 218.259C239.18 218.565 238.285 218.719 237.245 218.719C235.771 218.719 234.428 218.378 233.218 217.696C232.016 217.006 231.058 215.953 230.342 214.538C229.634 213.115 229.281 211.317 229.281 209.143C229.281 206.919 229.643 205.061 230.367 203.57C231.092 202.078 232.055 200.962 233.256 200.22C234.467 199.479 235.792 199.108 237.232 199.108C238.332 199.108 239.252 199.295 239.994 199.67C240.735 200.037 241.332 200.497 241.783 201.051C242.244 201.597 242.597 202.134 242.844 202.662H243.049V199.364H248.457V219.192C248.457 220.862 248.048 222.26 247.229 223.385C246.411 224.51 245.278 225.354 243.829 225.916C242.388 226.487 240.731 226.773 238.856 226.773ZM238.971 214.628C239.849 214.628 240.59 214.411 241.195 213.976C241.809 213.533 242.278 212.902 242.602 212.084C242.934 211.257 243.1 210.268 243.1 209.118C243.1 207.967 242.938 206.97 242.614 206.126C242.29 205.274 241.822 204.614 241.208 204.145C240.594 203.676 239.849 203.442 238.971 203.442C238.076 203.442 237.322 203.685 236.708 204.17C236.094 204.648 235.63 205.312 235.315 206.165C234.999 207.017 234.842 208.001 234.842 209.118C234.842 210.251 234.999 211.232 235.315 212.058C235.638 212.876 236.103 213.511 236.708 213.963C237.322 214.406 238.076 214.628 238.971 214.628ZM265.383 210.639V199.364H270.829V219H265.6V215.433H265.396C264.952 216.584 264.215 217.509 263.184 218.207C262.161 218.906 260.913 219.256 259.438 219.256C258.126 219.256 256.971 218.957 255.974 218.361C254.977 217.764 254.197 216.916 253.634 215.817C253.08 214.717 252.799 213.401 252.79 211.866V199.364H258.237V210.895C258.245 212.054 258.556 212.97 259.17 213.643C259.783 214.317 260.606 214.653 261.637 214.653C262.293 214.653 262.907 214.504 263.478 214.206C264.049 213.899 264.509 213.447 264.859 212.851C265.217 212.254 265.391 211.517 265.383 210.639ZM280.631 207.648V219H275.185V199.364H280.375V202.828H280.605C281.04 201.686 281.769 200.783 282.792 200.118C283.814 199.445 285.054 199.108 286.512 199.108C287.875 199.108 289.064 199.406 290.078 200.003C291.093 200.599 291.881 201.452 292.444 202.56C293.006 203.659 293.287 204.972 293.287 206.497V219H287.841V207.469C287.85 206.267 287.543 205.33 286.921 204.656C286.299 203.974 285.442 203.634 284.351 203.634C283.618 203.634 282.971 203.791 282.408 204.107C281.854 204.422 281.419 204.882 281.104 205.487C280.797 206.084 280.64 206.804 280.631 207.648ZM320.217 200.348C320.115 199.317 319.676 198.516 318.9 197.945C318.125 197.374 317.072 197.088 315.743 197.088C314.839 197.088 314.076 197.216 313.454 197.472C312.832 197.719 312.355 198.064 312.022 198.507C311.699 198.95 311.537 199.453 311.537 200.016C311.52 200.484 311.618 200.893 311.831 201.243C312.052 201.592 312.355 201.895 312.738 202.151C313.122 202.398 313.565 202.615 314.068 202.803C314.571 202.982 315.108 203.135 315.679 203.263L318.031 203.825C319.173 204.081 320.221 204.422 321.176 204.848C322.13 205.274 322.957 205.798 323.656 206.42C324.355 207.043 324.896 207.776 325.279 208.619C325.672 209.463 325.872 210.43 325.88 211.521C325.872 213.124 325.463 214.513 324.653 215.689C323.852 216.857 322.693 217.764 321.176 218.412C319.667 219.051 317.848 219.371 315.717 219.371C313.603 219.371 311.762 219.047 310.194 218.399C308.635 217.751 307.416 216.793 306.538 215.523C305.669 214.244 305.213 212.663 305.17 210.78H310.527C310.586 211.658 310.838 212.391 311.281 212.979C311.733 213.558 312.333 213.997 313.083 214.295C313.842 214.585 314.699 214.73 315.653 214.73C316.591 214.73 317.404 214.594 318.095 214.321C318.794 214.048 319.335 213.669 319.718 213.183C320.102 212.697 320.294 212.139 320.294 211.509C320.294 210.92 320.119 210.426 319.77 210.026C319.429 209.625 318.926 209.284 318.261 209.003C317.605 208.722 316.799 208.466 315.845 208.236L312.994 207.52C310.787 206.983 309.044 206.143 307.765 205.001C306.487 203.859 305.852 202.321 305.86 200.386C305.852 198.801 306.274 197.416 307.126 196.232C307.987 195.047 309.167 194.122 310.667 193.457C312.167 192.793 313.872 192.46 315.781 192.46C317.724 192.46 319.42 192.793 320.869 193.457C322.326 194.122 323.46 195.047 324.27 196.232C325.079 197.416 325.497 198.788 325.522 200.348H320.217ZM339.946 199.364V203.455H328.121V199.364H339.946ZM330.805 194.659H336.251V212.966C336.251 213.469 336.328 213.861 336.482 214.142C336.635 214.415 336.848 214.607 337.121 214.717C337.402 214.828 337.726 214.884 338.092 214.884C338.348 214.884 338.604 214.862 338.859 214.82C339.115 214.768 339.311 214.73 339.447 214.705L340.304 218.757C340.031 218.842 339.648 218.94 339.153 219.051C338.659 219.17 338.058 219.243 337.351 219.268C336.038 219.32 334.888 219.145 333.899 218.744C332.919 218.344 332.156 217.722 331.611 216.878C331.065 216.034 330.797 214.969 330.805 213.682V194.659ZM349.093 219.371C347.84 219.371 346.724 219.153 345.744 218.719C344.763 218.276 343.988 217.624 343.417 216.763C342.854 215.893 342.573 214.811 342.573 213.516C342.573 212.425 342.773 211.509 343.174 210.767C343.575 210.026 344.12 209.429 344.81 208.977C345.501 208.526 346.285 208.185 347.163 207.955C348.049 207.724 348.978 207.562 349.95 207.469C351.092 207.349 352.012 207.239 352.711 207.136C353.41 207.026 353.917 206.864 354.232 206.651C354.548 206.437 354.705 206.122 354.705 205.705V205.628C354.705 204.818 354.45 204.192 353.938 203.749C353.435 203.305 352.719 203.084 351.79 203.084C350.81 203.084 350.031 203.301 349.451 203.736C348.871 204.162 348.488 204.699 348.3 205.347L343.263 204.938C343.519 203.744 344.022 202.713 344.772 201.844C345.522 200.966 346.489 200.293 347.674 199.824C348.867 199.347 350.248 199.108 351.816 199.108C352.907 199.108 353.951 199.236 354.948 199.491C355.954 199.747 356.844 200.143 357.62 200.68C358.404 201.217 359.022 201.908 359.474 202.751C359.925 203.587 360.151 204.588 360.151 205.756V219H354.987V216.277H354.833C354.518 216.891 354.096 217.432 353.567 217.901C353.039 218.361 352.404 218.723 351.663 218.987C350.921 219.243 350.065 219.371 349.093 219.371ZM350.653 215.612C351.454 215.612 352.161 215.455 352.775 215.139C353.388 214.815 353.87 214.381 354.219 213.835C354.569 213.29 354.744 212.672 354.744 211.982V209.898C354.573 210.009 354.339 210.111 354.04 210.205C353.751 210.29 353.423 210.371 353.056 210.447C352.69 210.516 352.323 210.58 351.957 210.639C351.59 210.69 351.258 210.737 350.96 210.78C350.32 210.874 349.762 211.023 349.285 211.227C348.808 211.432 348.437 211.709 348.173 212.058C347.908 212.399 347.776 212.825 347.776 213.337C347.776 214.078 348.045 214.645 348.582 215.037C349.127 215.42 349.817 215.612 350.653 215.612ZM374.821 199.364V203.455H362.996V199.364H374.821ZM365.68 194.659H371.126V212.966C371.126 213.469 371.203 213.861 371.357 214.142C371.51 214.415 371.723 214.607 371.996 214.717C372.277 214.828 372.601 214.884 372.967 214.884C373.223 214.884 373.479 214.862 373.734 214.82C373.99 214.768 374.186 214.73 374.322 214.705L375.179 218.757C374.906 218.842 374.523 218.94 374.028 219.051C373.534 219.17 372.933 219.243 372.226 219.268C370.913 219.32 369.763 219.145 368.774 218.744C367.794 218.344 367.031 217.722 366.486 216.878C365.94 216.034 365.672 214.969 365.68 213.682V194.659ZM387.107 219.384C385.087 219.384 383.348 218.974 381.891 218.156C380.442 217.33 379.325 216.162 378.541 214.653C377.757 213.136 377.365 211.342 377.365 209.271C377.365 207.251 377.757 205.479 378.541 203.953C379.325 202.428 380.429 201.239 381.852 200.386C383.284 199.534 384.963 199.108 386.889 199.108C388.185 199.108 389.391 199.317 390.507 199.734C391.632 200.143 392.612 200.761 393.447 201.588C394.291 202.415 394.947 203.455 395.416 204.707C395.885 205.952 396.119 207.409 396.119 209.08V210.575H379.538V207.2H390.993C390.993 206.416 390.822 205.722 390.482 205.116C390.141 204.511 389.668 204.038 389.062 203.697C388.466 203.348 387.771 203.173 386.979 203.173C386.152 203.173 385.419 203.365 384.78 203.749C384.149 204.124 383.655 204.631 383.297 205.27C382.939 205.901 382.756 206.604 382.747 207.379V210.588C382.747 211.56 382.926 212.399 383.284 213.107C383.651 213.814 384.166 214.359 384.831 214.743C385.496 215.126 386.284 215.318 387.196 215.318C387.801 215.318 388.355 215.233 388.858 215.062C389.361 214.892 389.791 214.636 390.149 214.295C390.507 213.955 390.78 213.537 390.967 213.043L396.004 213.375C395.749 214.585 395.224 215.642 394.432 216.545C393.648 217.44 392.634 218.139 391.389 218.642C390.153 219.136 388.726 219.384 387.107 219.384ZM58.4787 244.348C58.3764 243.317 57.9375 242.516 57.1619 241.945C56.3864 241.374 55.3338 241.088 54.0043 241.088C53.1009 241.088 52.3381 241.216 51.7159 241.472C51.0938 241.719 50.6165 242.064 50.2841 242.507C49.9602 242.95 49.7983 243.453 49.7983 244.016C49.7813 244.484 49.8793 244.893 50.0923 245.243C50.3139 245.592 50.6165 245.895 51 246.151C51.3835 246.398 51.8267 246.615 52.3295 246.803C52.8324 246.982 53.3693 247.135 53.9403 247.263L56.2926 247.825C57.4347 248.081 58.483 248.422 59.4375 248.848C60.392 249.274 61.2188 249.798 61.9176 250.42C62.6165 251.043 63.1577 251.776 63.5412 252.619C63.9332 253.463 64.1335 254.43 64.142 255.521C64.1335 257.124 63.7244 258.513 62.9148 259.689C62.1136 260.857 60.9545 261.764 59.4375 262.412C57.929 263.051 56.1094 263.371 53.9787 263.371C51.8651 263.371 50.0241 263.047 48.456 262.399C46.8963 261.751 45.6776 260.793 44.7997 259.523C43.9304 258.244 43.4744 256.663 43.4318 254.78H48.7884C48.848 255.658 49.0994 256.391 49.5426 256.979C49.9943 257.558 50.5952 257.997 51.3452 258.295C52.1037 258.585 52.9602 258.73 53.9148 258.73C54.8523 258.73 55.6662 258.594 56.3565 258.321C57.0554 258.048 57.5966 257.669 57.9801 257.183C58.3636 256.697 58.5554 256.139 58.5554 255.509C58.5554 254.92 58.3807 254.426 58.0312 254.026C57.6903 253.625 57.1875 253.284 56.5227 253.003C55.8665 252.722 55.0611 252.466 54.1065 252.236L51.2557 251.52C49.0483 250.983 47.3054 250.143 46.027 249.001C44.7486 247.859 44.1136 246.321 44.1222 244.386C44.1136 242.801 44.5355 241.416 45.3878 240.232C46.2486 239.047 47.429 238.122 48.929 237.457C50.429 236.793 52.1335 236.46 54.0426 236.46C55.9858 236.46 57.6818 236.793 59.1307 237.457C60.5881 238.122 61.7216 239.047 62.5312 240.232C63.3409 241.416 63.7585 242.788 63.7841 244.348H58.4787ZM67.8654 236.818H74.6921L81.9023 254.409H82.2092L89.4194 236.818H96.2461V263H90.8768V245.959H90.6594L83.8839 262.872H80.2276L73.4521 245.895H73.2347V263H67.8654V236.818ZM100.807 263V236.818H118.449V241.382H106.342V247.621H117.541V252.185H106.342V258.436H118.5V263H100.807ZM131.182 263V236.818H148.824V241.382H136.717V247.621H147.916V252.185H136.717V258.436H148.875V263H131.182ZM153.123 263V243.364H158.313V246.828H158.543C158.952 245.678 159.634 244.77 160.588 244.105C161.543 243.44 162.685 243.108 164.015 243.108C165.361 243.108 166.507 243.445 167.453 244.118C168.4 244.783 169.03 245.686 169.346 246.828H169.55C169.951 245.703 170.675 244.804 171.723 244.131C172.78 243.449 174.029 243.108 175.469 243.108C177.301 243.108 178.789 243.692 179.931 244.859C181.081 246.018 181.657 247.663 181.657 249.794V263H176.223V250.868C176.223 249.777 175.934 248.959 175.354 248.413C174.775 247.868 174.05 247.595 173.181 247.595C172.192 247.595 171.421 247.911 170.867 248.541C170.313 249.163 170.036 249.986 170.036 251.009V263H164.756V250.753C164.756 249.79 164.479 249.023 163.925 248.452C163.38 247.881 162.659 247.595 161.765 247.595C161.159 247.595 160.614 247.749 160.128 248.055C159.651 248.354 159.272 248.776 158.99 249.321C158.709 249.858 158.569 250.489 158.569 251.213V263H153.123ZM185.958 270.364V243.364H191.328V246.662H191.571C191.809 246.134 192.154 245.597 192.606 245.051C193.066 244.497 193.663 244.037 194.396 243.67C195.137 243.295 196.058 243.108 197.157 243.108C198.589 243.108 199.91 243.483 201.12 244.233C202.331 244.974 203.298 246.095 204.022 247.595C204.747 249.087 205.109 250.957 205.109 253.207C205.109 255.398 204.755 257.247 204.048 258.756C203.349 260.256 202.395 261.393 201.184 262.169C199.983 262.936 198.636 263.32 197.145 263.32C196.088 263.32 195.189 263.145 194.447 262.795C193.714 262.446 193.113 262.007 192.645 261.479C192.176 260.942 191.818 260.401 191.571 259.855H191.404V270.364H185.958ZM191.289 253.182C191.289 254.349 191.451 255.368 191.775 256.237C192.099 257.107 192.568 257.784 193.181 258.27C193.795 258.747 194.541 258.986 195.419 258.986C196.305 258.986 197.055 258.743 197.669 258.257C198.282 257.763 198.747 257.081 199.062 256.212C199.386 255.334 199.548 254.324 199.548 253.182C199.548 252.048 199.39 251.051 199.075 250.19C198.76 249.33 198.295 248.656 197.681 248.17C197.068 247.685 196.314 247.442 195.419 247.442C194.532 247.442 193.782 247.676 193.169 248.145C192.564 248.614 192.099 249.278 191.775 250.139C191.451 251 191.289 252.014 191.289 253.182ZM217.612 263.384C215.626 263.384 213.909 262.962 212.46 262.118C211.02 261.266 209.907 260.081 209.123 258.564C208.339 257.038 207.947 255.27 207.947 253.259C207.947 251.23 208.339 249.457 209.123 247.94C209.907 246.415 211.02 245.23 212.46 244.386C213.909 243.534 215.626 243.108 217.612 243.108C219.598 243.108 221.311 243.534 222.751 244.386C224.2 245.23 225.316 246.415 226.1 247.94C226.885 249.457 227.277 251.23 227.277 253.259C227.277 255.27 226.885 257.038 226.1 258.564C225.316 260.081 224.2 261.266 222.751 262.118C221.311 262.962 219.598 263.384 217.612 263.384ZM217.637 259.165C218.541 259.165 219.295 258.909 219.9 258.398C220.505 257.878 220.961 257.17 221.268 256.276C221.583 255.381 221.741 254.362 221.741 253.22C221.741 252.078 221.583 251.06 221.268 250.165C220.961 249.27 220.505 248.562 219.9 248.043C219.295 247.523 218.541 247.263 217.637 247.263C216.725 247.263 215.958 247.523 215.336 248.043C214.723 248.562 214.258 249.27 213.943 250.165C213.636 251.06 213.483 252.078 213.483 253.22C213.483 254.362 213.636 255.381 213.943 256.276C214.258 257.17 214.723 257.878 215.336 258.398C215.958 258.909 216.725 259.165 217.637 259.165ZM234.199 263L228.855 243.364H234.365L237.408 256.557H237.587L240.757 243.364H246.165L249.387 256.48H249.553L252.544 243.364H258.042L252.711 263H246.945L243.57 250.651H243.327L239.952 263H234.199ZM269.403 263.384C267.384 263.384 265.645 262.974 264.188 262.156C262.739 261.33 261.622 260.162 260.838 258.653C260.054 257.136 259.662 255.342 259.662 253.271C259.662 251.251 260.054 249.479 260.838 247.953C261.622 246.428 262.726 245.239 264.149 244.386C265.581 243.534 267.26 243.108 269.186 243.108C270.482 243.108 271.688 243.317 272.804 243.734C273.929 244.143 274.909 244.761 275.744 245.588C276.588 246.415 277.244 247.455 277.713 248.707C278.182 249.952 278.416 251.409 278.416 253.08V254.575H261.835V251.2H273.29C273.29 250.416 273.119 249.722 272.778 249.116C272.438 248.511 271.964 248.038 271.359 247.697C270.763 247.348 270.068 247.173 269.276 247.173C268.449 247.173 267.716 247.365 267.077 247.749C266.446 248.124 265.952 248.631 265.594 249.27C265.236 249.901 265.053 250.604 265.044 251.379V254.588C265.044 255.56 265.223 256.399 265.581 257.107C265.947 257.814 266.463 258.359 267.128 258.743C267.793 259.126 268.581 259.318 269.493 259.318C270.098 259.318 270.652 259.233 271.155 259.062C271.658 258.892 272.088 258.636 272.446 258.295C272.804 257.955 273.077 257.537 273.264 257.043L278.301 257.375C278.045 258.585 277.521 259.642 276.729 260.545C275.945 261.44 274.93 262.139 273.686 262.642C272.45 263.136 271.023 263.384 269.403 263.384ZM281.97 263V243.364H287.25V246.79H287.455C287.813 245.571 288.413 244.651 289.257 244.028C290.101 243.398 291.072 243.082 292.172 243.082C292.445 243.082 292.739 243.099 293.054 243.134C293.369 243.168 293.646 243.214 293.885 243.274V248.107C293.629 248.03 293.276 247.962 292.824 247.902C292.372 247.842 291.959 247.812 291.584 247.812C290.783 247.812 290.067 247.987 289.436 248.337C288.814 248.678 288.32 249.155 287.953 249.768C287.595 250.382 287.416 251.089 287.416 251.891V263H281.97ZM296.701 263V243.364H301.891V246.828H302.121C302.53 245.678 303.212 244.77 304.167 244.105C305.121 243.44 306.263 243.108 307.593 243.108C308.939 243.108 310.086 243.445 311.032 244.118C311.978 244.783 312.608 245.686 312.924 246.828H313.128C313.529 245.703 314.253 244.804 315.301 244.131C316.358 243.449 317.607 243.108 319.047 243.108C320.88 243.108 322.367 243.692 323.509 244.859C324.659 246.018 325.235 247.663 325.235 249.794V263H319.801V250.868C319.801 249.777 319.512 248.959 318.932 248.413C318.353 247.868 317.628 247.595 316.759 247.595C315.77 247.595 314.999 247.911 314.445 248.541C313.891 249.163 313.614 249.986 313.614 251.009V263H308.334V250.753C308.334 249.79 308.057 249.023 307.503 248.452C306.958 247.881 306.238 247.595 305.343 247.595C304.738 247.595 304.192 247.749 303.706 248.055C303.229 248.354 302.85 248.776 302.569 249.321C302.287 249.858 302.147 250.489 302.147 251.213V263H296.701ZM338.485 263.384C336.466 263.384 334.727 262.974 333.27 262.156C331.821 261.33 330.704 260.162 329.92 258.653C329.136 257.136 328.744 255.342 328.744 253.271C328.744 251.251 329.136 249.479 329.92 247.953C330.704 246.428 331.808 245.239 333.231 244.386C334.663 243.534 336.342 243.108 338.268 243.108C339.564 243.108 340.77 243.317 341.886 243.734C343.011 244.143 343.991 244.761 344.826 245.588C345.67 246.415 346.326 247.455 346.795 248.707C347.264 249.952 347.498 251.409 347.498 253.08V254.575H330.917V251.2H342.372C342.372 250.416 342.201 249.722 341.86 249.116C341.52 248.511 341.047 248.038 340.441 247.697C339.845 247.348 339.15 247.173 338.358 247.173C337.531 247.173 336.798 247.365 336.159 247.749C335.528 248.124 335.034 248.631 334.676 249.27C334.318 249.901 334.135 250.604 334.126 251.379V254.588C334.126 255.56 334.305 256.399 334.663 257.107C335.029 257.814 335.545 258.359 336.21 258.743C336.875 259.126 337.663 259.318 338.575 259.318C339.18 259.318 339.734 259.233 340.237 259.062C340.74 258.892 341.17 258.636 341.528 258.295C341.886 257.955 342.159 257.537 342.346 257.043L347.383 257.375C347.127 258.585 346.603 259.642 345.811 260.545C345.027 261.44 344.012 262.139 342.768 262.642C341.532 263.136 340.105 263.384 338.485 263.384ZM356.498 251.648V263H351.052V243.364H356.243V246.828H356.473C356.907 245.686 357.636 244.783 358.659 244.118C359.681 243.445 360.922 243.108 362.379 243.108C363.743 243.108 364.931 243.406 365.946 244.003C366.96 244.599 367.748 245.452 368.311 246.56C368.873 247.659 369.154 248.972 369.154 250.497V263H363.708V251.469C363.717 250.267 363.41 249.33 362.788 248.656C362.166 247.974 361.309 247.634 360.218 247.634C359.485 247.634 358.838 247.791 358.275 248.107C357.721 248.422 357.287 248.882 356.971 249.487C356.664 250.084 356.507 250.804 356.498 251.648ZM383.891 243.364V247.455H372.066V243.364H383.891ZM374.751 238.659H380.197V256.966C380.197 257.469 380.273 257.861 380.427 258.142C380.58 258.415 380.793 258.607 381.066 258.717C381.347 258.828 381.671 258.884 382.038 258.884C382.293 258.884 382.549 258.862 382.805 258.82C383.06 258.768 383.256 258.73 383.393 258.705L384.249 262.757C383.977 262.842 383.593 262.94 383.099 263.051C382.604 263.17 382.004 263.243 381.296 263.268C379.984 263.32 378.833 263.145 377.844 262.744C376.864 262.344 376.102 261.722 375.556 260.878C375.011 260.034 374.742 258.969 374.751 257.682V238.659ZM395.873 263V236.818H413.208V241.382H401.409V247.621H412.058V252.185H401.409V263H395.873ZM428.191 254.639V243.364H433.637V263H428.409V259.433H428.204C427.761 260.584 427.024 261.509 425.993 262.207C424.97 262.906 423.721 263.256 422.247 263.256C420.934 263.256 419.779 262.957 418.782 262.361C417.785 261.764 417.005 260.916 416.443 259.817C415.889 258.717 415.608 257.401 415.599 255.866V243.364H421.045V254.895C421.054 256.054 421.365 256.97 421.978 257.643C422.592 258.317 423.414 258.653 424.446 258.653C425.102 258.653 425.716 258.504 426.287 258.206C426.858 257.899 427.318 257.447 427.667 256.851C428.025 256.254 428.2 255.517 428.191 254.639ZM443.44 251.648V263H437.994V243.364H443.184V246.828H443.414C443.849 245.686 444.577 244.783 445.6 244.118C446.623 243.445 447.863 243.108 449.32 243.108C450.684 243.108 451.873 243.406 452.887 244.003C453.901 244.599 454.69 245.452 455.252 246.56C455.815 247.659 456.096 248.972 456.096 250.497V263H450.65V251.469C450.658 250.267 450.352 249.33 449.729 248.656C449.107 247.974 448.251 247.634 447.16 247.634C446.427 247.634 445.779 247.791 445.217 248.107C444.663 248.422 444.228 248.882 443.913 249.487C443.606 250.084 443.448 250.804 443.44 251.648ZM467.624 263.32C466.132 263.32 464.782 262.936 463.571 262.169C462.37 261.393 461.415 260.256 460.708 258.756C460.009 257.247 459.659 255.398 459.659 253.207C459.659 250.957 460.022 249.087 460.746 247.595C461.471 246.095 462.434 244.974 463.635 244.233C464.846 243.483 466.171 243.108 467.611 243.108C468.711 243.108 469.627 243.295 470.36 243.67C471.101 244.037 471.698 244.497 472.15 245.051C472.61 245.597 472.959 246.134 473.198 246.662H473.364V236.818H478.797V263H473.428V259.855H473.198C472.942 260.401 472.58 260.942 472.111 261.479C471.651 262.007 471.05 262.446 470.309 262.795C469.576 263.145 468.681 263.32 467.624 263.32ZM469.35 258.986C470.228 258.986 470.969 258.747 471.574 258.27C472.188 257.784 472.657 257.107 472.98 256.237C473.313 255.368 473.479 254.349 473.479 253.182C473.479 252.014 473.317 251 472.993 250.139C472.669 249.278 472.201 248.614 471.587 248.145C470.973 247.676 470.228 247.442 469.35 247.442C468.455 247.442 467.701 247.685 467.087 248.17C466.473 248.656 466.009 249.33 465.694 250.19C465.378 251.051 465.221 252.048 465.221 253.182C465.221 254.324 465.378 255.334 465.694 256.212C466.017 257.081 466.482 257.763 467.087 258.257C467.701 258.743 468.455 258.986 469.35 258.986Z" fill="#2D995F"/>
<path d="M53.3068 283.455H55.0682V293.085C55.0682 294.08 54.8338 294.967 54.3651 295.749C53.901 296.525 53.2453 297.138 52.3977 297.588C51.5502 298.033 50.5559 298.256 49.4148 298.256C48.2737 298.256 47.2794 298.033 46.4318 297.588C45.5843 297.138 44.9261 296.525 44.4574 295.749C43.9934 294.967 43.7614 294.08 43.7614 293.085V283.455H45.5227V292.943C45.5227 293.653 45.679 294.286 45.9915 294.839C46.304 295.389 46.7491 295.822 47.3267 296.139C47.9091 296.452 48.6051 296.608 49.4148 296.608C50.2244 296.608 50.9205 296.452 51.5028 296.139C52.0852 295.822 52.5303 295.389 52.8381 294.839C53.1506 294.286 53.3068 293.653 53.3068 292.943V283.455ZM58.3583 302.091V287.091H59.9776V288.824H60.1765C60.2996 288.634 60.4701 288.393 60.6879 288.099C60.9104 287.801 61.2276 287.536 61.6396 287.304C62.0562 287.067 62.6197 286.949 63.3299 286.949C64.2485 286.949 65.0581 287.179 65.7589 287.638C66.4596 288.097 67.0065 288.748 67.3995 289.591C67.7925 290.434 67.989 291.428 67.989 292.574C67.989 293.729 67.7925 294.731 67.3995 295.578C67.0065 296.421 66.462 297.074 65.766 297.538C65.07 297.998 64.2674 298.227 63.3583 298.227C62.6576 298.227 62.0965 298.111 61.6751 297.879C61.2537 297.643 60.9293 297.375 60.7021 297.077C60.4748 296.774 60.2996 296.523 60.1765 296.324H60.0344V302.091H58.3583ZM60.006 292.545C60.006 293.369 60.1268 294.096 60.3683 294.726C60.6097 295.351 60.9625 295.841 61.4265 296.196C61.8905 296.546 62.4587 296.722 63.131 296.722C63.8318 296.722 64.4165 296.537 64.8853 296.168C65.3588 295.794 65.7139 295.292 65.9506 294.662C66.1921 294.027 66.3129 293.322 66.3129 292.545C66.3129 291.778 66.1945 291.087 65.9577 290.472C65.7257 289.851 65.373 289.361 64.8995 289.001C64.4308 288.637 63.8413 288.455 63.131 288.455C62.4492 288.455 61.8763 288.627 61.4123 288.973C60.9483 289.314 60.5979 289.792 60.3612 290.408C60.1244 291.018 60.006 291.731 60.006 292.545ZM74.9492 302.318C74.1396 302.318 73.4435 302.214 72.8612 302.006C72.2788 301.802 71.7934 301.532 71.4052 301.196C71.0217 300.865 70.7163 300.509 70.489 300.131L71.8242 299.193C71.9757 299.392 72.1675 299.619 72.3995 299.875C72.6315 300.135 72.9487 300.36 73.3512 300.55C73.7584 300.744 74.2911 300.841 74.9492 300.841C75.8299 300.841 76.5567 300.628 77.1296 300.202C77.7025 299.776 77.989 299.108 77.989 298.199V295.983H77.8469C77.7238 296.182 77.5487 296.428 77.3214 296.722C77.0988 297.01 76.7769 297.268 76.3555 297.496C75.9388 297.718 75.3754 297.83 74.6651 297.83C73.7844 297.83 72.9937 297.621 72.293 297.205C71.5969 296.788 71.0453 296.182 70.6381 295.386C70.2357 294.591 70.0344 293.625 70.0344 292.489C70.0344 291.371 70.2309 290.398 70.6239 289.57C71.0169 288.736 71.5638 288.092 72.2646 287.638C72.9653 287.179 73.775 286.949 74.6935 286.949C75.4038 286.949 75.9672 287.067 76.3839 287.304C76.8053 287.536 77.1272 287.801 77.3498 288.099C77.5771 288.393 77.7522 288.634 77.8754 288.824H78.0458V287.091H79.6651V298.312C79.6651 299.25 79.4521 300.012 79.0259 300.599C78.6045 301.191 78.0363 301.625 77.3214 301.899C76.6112 302.179 75.8204 302.318 74.9492 302.318ZM74.8924 296.324C75.5647 296.324 76.1329 296.17 76.5969 295.862C77.061 295.554 77.4137 295.112 77.6552 294.534C77.8967 293.956 78.0174 293.265 78.0174 292.46C78.0174 291.674 77.899 290.981 77.6623 290.379C77.4255 289.778 77.0752 289.307 76.6112 288.966C76.1471 288.625 75.5742 288.455 74.8924 288.455C74.1822 288.455 73.5903 288.634 73.1168 288.994C72.6481 289.354 72.2953 289.837 72.0586 290.443C71.8266 291.049 71.7106 291.722 71.7106 292.46C71.7106 293.218 71.829 293.888 72.0657 294.47C72.3072 295.048 72.6623 295.502 73.131 295.834C73.6045 296.161 74.1916 296.324 74.8924 296.324ZM82.7333 298V287.091H84.3526V288.739H84.4663C84.6651 288.199 85.025 287.761 85.5458 287.425C86.0666 287.089 86.6538 286.92 87.3072 286.92C87.4303 286.92 87.5842 286.923 87.7688 286.928C87.9535 286.932 88.0932 286.939 88.1879 286.949V288.653C88.131 288.639 88.0008 288.618 87.7972 288.589C87.5984 288.556 87.3877 288.54 87.1651 288.54C86.6348 288.54 86.1613 288.651 85.7447 288.874C85.3327 289.091 85.006 289.394 84.7646 289.783C84.5278 290.166 84.4094 290.604 84.4094 291.097V298H82.7333ZM93.3849 298.256C92.6937 298.256 92.0663 298.125 91.5028 297.865C90.9394 297.6 90.492 297.219 90.1605 296.722C89.8291 296.22 89.6634 295.614 89.6634 294.903C89.6634 294.278 89.7865 293.772 90.0327 293.384C90.2789 292.991 90.608 292.683 91.0199 292.46C91.4318 292.238 91.8864 292.072 92.3835 291.963C92.8854 291.849 93.3897 291.759 93.8963 291.693C94.5592 291.608 95.0966 291.544 95.5085 291.501C95.9252 291.454 96.2282 291.376 96.4176 291.267C96.6117 291.158 96.7088 290.969 96.7088 290.699V290.642C96.7088 289.941 96.517 289.397 96.1335 289.009C95.7547 288.62 95.1795 288.426 94.4077 288.426C93.6075 288.426 92.9801 288.601 92.5256 288.952C92.071 289.302 91.7514 289.676 91.5668 290.074L89.9759 289.506C90.2599 288.843 90.6387 288.327 91.1122 287.957C91.5904 287.583 92.1113 287.323 92.6747 287.176C93.2429 287.025 93.8016 286.949 94.3509 286.949C94.7012 286.949 95.1037 286.991 95.5582 287.077C96.0175 287.157 96.4602 287.325 96.8864 287.581C97.3172 287.837 97.6747 288.223 97.9588 288.739C98.2429 289.255 98.3849 289.946 98.3849 290.812V298H96.7088V296.523H96.6236C96.5099 296.759 96.3205 297.013 96.0554 297.283C95.7902 297.553 95.4375 297.782 94.9972 297.972C94.5568 298.161 94.0194 298.256 93.3849 298.256ZM93.6406 296.75C94.3035 296.75 94.8622 296.62 95.3168 296.359C95.776 296.099 96.1217 295.763 96.3537 295.351C96.5904 294.939 96.7088 294.506 96.7088 294.051V292.517C96.6378 292.602 96.4815 292.68 96.2401 292.751C96.0033 292.818 95.7287 292.877 95.4162 292.929C95.1084 292.976 94.8078 293.019 94.5142 293.057C94.2254 293.09 93.991 293.118 93.8111 293.142C93.3755 293.199 92.9683 293.291 92.5895 293.419C92.2154 293.542 91.9124 293.729 91.6804 293.98C91.4531 294.226 91.3395 294.562 91.3395 294.989C91.3395 295.571 91.5549 296.011 91.9858 296.31C92.4214 296.603 92.973 296.75 93.6406 296.75ZM105.564 298.227C104.654 298.227 103.852 297.998 103.156 297.538C102.46 297.074 101.915 296.421 101.522 295.578C101.129 294.731 100.933 293.729 100.933 292.574C100.933 291.428 101.129 290.434 101.522 289.591C101.915 288.748 102.462 288.097 103.163 287.638C103.864 287.179 104.673 286.949 105.592 286.949C106.302 286.949 106.863 287.067 107.275 287.304C107.692 287.536 108.009 287.801 108.227 288.099C108.449 288.393 108.622 288.634 108.745 288.824H108.887V283.455H110.564V298H108.944V296.324H108.745C108.622 296.523 108.447 296.774 108.22 297.077C107.993 297.375 107.668 297.643 107.247 297.879C106.825 298.111 106.264 298.227 105.564 298.227ZM105.791 296.722C106.463 296.722 107.031 296.546 107.495 296.196C107.959 295.841 108.312 295.351 108.554 294.726C108.795 294.096 108.916 293.369 108.916 292.545C108.916 291.731 108.797 291.018 108.561 290.408C108.324 289.792 107.974 289.314 107.51 288.973C107.046 288.627 106.473 288.455 105.791 288.455C105.081 288.455 104.489 288.637 104.015 289.001C103.547 289.361 103.194 289.851 102.957 290.472C102.725 291.087 102.609 291.778 102.609 292.545C102.609 293.322 102.727 294.027 102.964 294.662C103.206 295.292 103.561 295.794 104.029 296.168C104.503 296.537 105.09 296.722 105.791 296.722ZM118.44 298.227C117.389 298.227 116.482 297.995 115.72 297.531C114.962 297.062 114.377 296.409 113.966 295.571C113.558 294.728 113.355 293.748 113.355 292.631C113.355 291.513 113.558 290.528 113.966 289.676C114.377 288.819 114.95 288.152 115.684 287.673C116.423 287.19 117.285 286.949 118.27 286.949C118.838 286.949 119.399 287.044 119.953 287.233C120.507 287.422 121.011 287.73 121.466 288.156C121.92 288.578 122.282 289.136 122.552 289.832C122.822 290.528 122.957 291.385 122.957 292.403V293.114H114.548V291.665H121.252C121.252 291.049 121.129 290.5 120.883 290.017C120.642 289.534 120.296 289.153 119.846 288.874C119.401 288.594 118.876 288.455 118.27 288.455C117.602 288.455 117.024 288.62 116.537 288.952C116.054 289.278 115.682 289.705 115.422 290.23C115.161 290.756 115.031 291.319 115.031 291.92V292.886C115.031 293.71 115.173 294.409 115.457 294.982C115.746 295.55 116.146 295.983 116.657 296.281C117.169 296.575 117.763 296.722 118.44 296.722C118.88 296.722 119.278 296.66 119.633 296.537C119.993 296.409 120.303 296.22 120.564 295.969C120.824 295.713 121.025 295.396 121.167 295.017L122.787 295.472C122.616 296.021 122.33 296.504 121.927 296.92C121.525 297.332 121.028 297.654 120.436 297.886C119.844 298.114 119.179 298.227 118.44 298.227ZM132.211 302.091C131.927 302.091 131.674 302.067 131.451 302.02C131.229 301.977 131.075 301.935 130.99 301.892L131.416 300.415C131.823 300.519 132.183 300.557 132.495 300.528C132.808 300.5 133.085 300.36 133.326 300.109C133.573 299.863 133.797 299.463 134.001 298.909L134.314 298.057L130.279 287.091H132.098L135.109 295.784H135.223L138.234 287.091H140.052L135.422 299.591C135.213 300.154 134.955 300.621 134.647 300.99C134.34 301.364 133.982 301.641 133.575 301.821C133.172 302.001 132.718 302.091 132.211 302.091ZM146.306 298.227C145.321 298.227 144.457 297.993 143.713 297.524C142.975 297.055 142.397 296.4 141.98 295.557C141.569 294.714 141.363 293.729 141.363 292.602C141.363 291.466 141.569 290.474 141.98 289.626C142.397 288.779 142.975 288.121 143.713 287.652C144.457 287.183 145.321 286.949 146.306 286.949C147.291 286.949 148.152 287.183 148.891 287.652C149.634 288.121 150.212 288.779 150.624 289.626C151.041 290.474 151.249 291.466 151.249 292.602C151.249 293.729 151.041 294.714 150.624 295.557C150.212 296.4 149.634 297.055 148.891 297.524C148.152 297.993 147.291 298.227 146.306 298.227ZM146.306 296.722C147.054 296.722 147.669 296.53 148.152 296.146C148.635 295.763 148.993 295.259 149.225 294.634C149.457 294.009 149.573 293.331 149.573 292.602C149.573 291.873 149.457 291.194 149.225 290.564C148.993 289.934 148.635 289.425 148.152 289.037C147.669 288.649 147.054 288.455 146.306 288.455C145.558 288.455 144.942 288.649 144.459 289.037C143.976 289.425 143.619 289.934 143.387 290.564C143.155 291.194 143.039 291.873 143.039 292.602C143.039 293.331 143.155 294.009 143.387 294.634C143.619 295.259 143.976 295.763 144.459 296.146C144.942 296.53 145.558 296.722 146.306 296.722ZM160.683 293.54V287.091H162.359V298H160.683V296.153H160.569C160.313 296.707 159.915 297.179 159.376 297.567C158.836 297.95 158.154 298.142 157.33 298.142C156.648 298.142 156.042 297.993 155.512 297.695C154.982 297.392 154.565 296.937 154.262 296.331C153.959 295.72 153.808 294.951 153.808 294.023V287.091H155.484V293.909C155.484 294.705 155.706 295.339 156.151 295.812C156.601 296.286 157.174 296.523 157.87 296.523C158.287 296.523 158.71 296.416 159.141 296.203C159.577 295.99 159.942 295.663 160.235 295.223C160.533 294.783 160.683 294.222 160.683 293.54ZM165.429 298V287.091H167.048V288.739H167.162C167.36 288.199 167.72 287.761 168.241 287.425C168.762 287.089 169.349 286.92 170.002 286.92C170.126 286.92 170.279 286.923 170.464 286.928C170.649 286.932 170.788 286.939 170.883 286.949V288.653C170.826 288.639 170.696 288.618 170.493 288.589C170.294 288.556 170.083 288.54 169.86 288.54C169.33 288.54 168.857 288.651 168.44 288.874C168.028 289.091 167.701 289.394 167.46 289.783C167.223 290.166 167.105 290.604 167.105 291.097V298H165.429ZM178.722 298V283.455H183.808C184.821 283.455 185.656 283.63 186.315 283.98C186.973 284.326 187.463 284.792 187.785 285.379C188.107 285.962 188.268 286.608 188.268 287.318C188.268 287.943 188.156 288.459 187.934 288.866C187.716 289.274 187.427 289.596 187.067 289.832C186.712 290.069 186.326 290.244 185.91 290.358V290.5C186.355 290.528 186.802 290.685 187.252 290.969C187.702 291.253 188.078 291.66 188.381 292.19C188.684 292.721 188.836 293.369 188.836 294.136C188.836 294.866 188.67 295.521 188.339 296.104C188.007 296.686 187.484 297.148 186.769 297.489C186.054 297.83 185.124 298 183.978 298H178.722ZM180.484 296.438H183.978C185.129 296.438 185.945 296.215 186.428 295.77C186.916 295.32 187.16 294.776 187.16 294.136C187.16 293.644 187.034 293.189 186.783 292.773C186.532 292.351 186.175 292.015 185.711 291.764C185.247 291.509 184.698 291.381 184.063 291.381H180.484V296.438ZM180.484 289.847H183.751C184.281 289.847 184.759 289.742 185.185 289.534C185.616 289.326 185.957 289.032 186.208 288.653C186.464 288.275 186.592 287.83 186.592 287.318C186.592 286.679 186.369 286.137 185.924 285.692C185.479 285.242 184.773 285.017 183.808 285.017H180.484V289.847ZM198.378 293.54V287.091H200.054V298H198.378V296.153H198.264C198.009 296.707 197.611 297.179 197.071 297.567C196.531 297.95 195.849 298.142 195.026 298.142C194.344 298.142 193.738 297.993 193.207 297.695C192.677 297.392 192.26 296.937 191.957 296.331C191.654 295.72 191.503 294.951 191.503 294.023V287.091H193.179V293.909C193.179 294.705 193.402 295.339 193.847 295.812C194.296 296.286 194.869 296.523 195.565 296.523C195.982 296.523 196.406 296.416 196.837 296.203C197.272 295.99 197.637 295.663 197.93 295.223C198.229 294.783 198.378 294.222 198.378 293.54ZM210.851 289.534L209.346 289.96C209.251 289.709 209.111 289.465 208.926 289.229C208.747 288.987 208.5 288.788 208.188 288.632C207.875 288.476 207.475 288.398 206.988 288.398C206.32 288.398 205.764 288.552 205.319 288.859C204.878 289.162 204.658 289.548 204.658 290.017C204.658 290.434 204.81 290.763 205.113 291.004C205.416 291.246 205.889 291.447 206.533 291.608L208.152 292.006C209.128 292.242 209.855 292.605 210.333 293.092C210.811 293.575 211.05 294.198 211.05 294.96C211.05 295.585 210.87 296.144 210.51 296.636C210.155 297.129 209.658 297.517 209.019 297.801C208.38 298.085 207.636 298.227 206.789 298.227C205.676 298.227 204.755 297.986 204.026 297.503C203.297 297.02 202.835 296.314 202.641 295.386L204.232 294.989C204.383 295.576 204.67 296.016 205.091 296.31C205.517 296.603 206.074 296.75 206.76 296.75C207.542 296.75 208.162 296.584 208.621 296.253C209.085 295.917 209.317 295.514 209.317 295.045C209.317 294.667 209.185 294.349 208.919 294.094C208.654 293.833 208.247 293.639 207.698 293.511L205.88 293.085C204.881 292.848 204.147 292.482 203.678 291.984C203.214 291.482 202.982 290.855 202.982 290.102C202.982 289.487 203.155 288.942 203.5 288.469C203.851 287.995 204.327 287.624 204.928 287.354C205.534 287.084 206.221 286.949 206.988 286.949C208.067 286.949 208.915 287.186 209.53 287.659C210.15 288.133 210.591 288.758 210.851 289.534ZM213.573 298V287.091H215.249V298H213.573ZM214.425 285.273C214.099 285.273 213.817 285.161 213.58 284.939C213.348 284.716 213.232 284.449 213.232 284.136C213.232 283.824 213.348 283.556 213.58 283.334C213.817 283.111 214.099 283 214.425 283C214.752 283 215.031 283.111 215.263 283.334C215.5 283.556 215.619 283.824 215.619 284.136C215.619 284.449 215.5 284.716 215.263 284.939C215.031 285.161 214.752 285.273 214.425 285.273ZM219.995 291.438V298H218.319V287.091H219.939V288.795H220.081C220.336 288.241 220.725 287.796 221.245 287.46C221.766 287.119 222.439 286.949 223.262 286.949C224.001 286.949 224.647 287.1 225.201 287.403C225.755 287.702 226.186 288.156 226.494 288.767C226.802 289.373 226.956 290.14 226.956 291.068V298H225.279V291.182C225.279 290.325 225.057 289.657 224.612 289.179C224.167 288.696 223.556 288.455 222.779 288.455C222.244 288.455 221.766 288.571 221.345 288.803C220.928 289.035 220.599 289.373 220.358 289.818C220.116 290.263 219.995 290.803 219.995 291.438ZM234.592 298.227C233.541 298.227 232.634 297.995 231.872 297.531C231.115 297.062 230.53 296.409 230.118 295.571C229.711 294.728 229.507 293.748 229.507 292.631C229.507 291.513 229.711 290.528 230.118 289.676C230.53 288.819 231.103 288.152 231.837 287.673C232.575 287.19 233.437 286.949 234.422 286.949C234.99 286.949 235.551 287.044 236.105 287.233C236.659 287.422 237.163 287.73 237.618 288.156C238.072 288.578 238.435 289.136 238.705 289.832C238.974 290.528 239.109 291.385 239.109 292.403V293.114H230.7V291.665H237.405C237.405 291.049 237.282 290.5 237.036 290.017C236.794 289.534 236.448 289.153 235.999 288.874C235.554 288.594 235.028 288.455 234.422 288.455C233.754 288.455 233.177 288.62 232.689 288.952C232.206 289.278 231.834 289.705 231.574 290.23C231.313 290.756 231.183 291.319 231.183 291.92V292.886C231.183 293.71 231.325 294.409 231.609 294.982C231.898 295.55 232.298 295.983 232.81 296.281C233.321 296.575 233.915 296.722 234.592 296.722C235.033 296.722 235.43 296.66 235.786 296.537C236.145 296.409 236.455 296.22 236.716 295.969C236.976 295.713 237.178 295.396 237.32 295.017L238.939 295.472C238.768 296.021 238.482 296.504 238.08 296.92C237.677 297.332 237.18 297.654 236.588 297.886C235.996 298.114 235.331 298.227 234.592 298.227ZM249.386 289.534L247.881 289.96C247.786 289.709 247.646 289.465 247.462 289.229C247.282 288.987 247.036 288.788 246.723 288.632C246.411 288.476 246.01 288.398 245.523 288.398C244.855 288.398 244.299 288.552 243.854 288.859C243.413 289.162 243.193 289.548 243.193 290.017C243.193 290.434 243.345 290.763 243.648 291.004C243.951 291.246 244.424 291.447 245.068 291.608L246.688 292.006C247.663 292.242 248.39 292.605 248.868 293.092C249.346 293.575 249.585 294.198 249.585 294.96C249.585 295.585 249.405 296.144 249.045 296.636C248.69 297.129 248.193 297.517 247.554 297.801C246.915 298.085 246.171 298.227 245.324 298.227C244.211 298.227 243.29 297.986 242.561 297.503C241.832 297.02 241.37 296.314 241.176 295.386L242.767 294.989C242.919 295.576 243.205 296.016 243.626 296.31C244.053 296.603 244.609 296.75 245.295 296.75C246.077 296.75 246.697 296.584 247.156 296.253C247.62 295.917 247.852 295.514 247.852 295.045C247.852 294.667 247.72 294.349 247.455 294.094C247.189 293.833 246.782 293.639 246.233 293.511L244.415 293.085C243.416 292.848 242.682 292.482 242.213 291.984C241.749 291.482 241.517 290.855 241.517 290.102C241.517 289.487 241.69 288.942 242.036 288.469C242.386 287.995 242.862 287.624 243.463 287.354C244.069 287.084 244.756 286.949 245.523 286.949C246.602 286.949 247.45 287.186 248.065 287.659C248.686 288.133 249.126 288.758 249.386 289.534ZM259.836 289.534L258.33 289.96C258.235 289.709 258.096 289.465 257.911 289.229C257.731 288.987 257.485 288.788 257.172 288.632C256.86 288.476 256.46 288.398 255.972 288.398C255.304 288.398 254.748 288.552 254.303 288.859C253.863 289.162 253.642 289.548 253.642 290.017C253.642 290.434 253.794 290.763 254.097 291.004C254.4 291.246 254.873 291.447 255.517 291.608L257.137 292.006C258.112 292.242 258.839 292.605 259.317 293.092C259.795 293.575 260.034 294.198 260.034 294.96C260.034 295.585 259.855 296.144 259.495 296.636C259.14 297.129 258.642 297.517 258.003 297.801C257.364 298.085 256.621 298.227 255.773 298.227C254.66 298.227 253.739 297.986 253.01 297.503C252.281 297.02 251.819 296.314 251.625 295.386L253.216 294.989C253.368 295.576 253.654 296.016 254.076 296.31C254.502 296.603 255.058 296.75 255.745 296.75C256.526 296.75 257.146 296.584 257.605 296.253C258.069 295.917 258.301 295.514 258.301 295.045C258.301 294.667 258.169 294.349 257.904 294.094C257.639 293.833 257.231 293.639 256.682 293.511L254.864 293.085C253.865 292.848 253.131 292.482 252.662 291.984C252.198 291.482 251.966 290.855 251.966 290.102C251.966 289.487 252.139 288.942 252.485 288.469C252.835 287.995 253.311 287.624 253.912 287.354C254.518 287.084 255.205 286.949 255.972 286.949C257.051 286.949 257.899 287.186 258.515 287.659C259.135 288.133 259.575 288.758 259.836 289.534Z" fill="#343A40"/>
<g clip-path="url(#clip0_4006_473)">
<path d="M740.899 279.001C774.532 279.001 801.797 276.916 801.797 274.344C801.797 271.772 774.532 269.688 740.899 269.688C707.265 269.688 680 271.772 680 274.344C680 276.916 707.265 279.001 740.899 279.001Z" fill="#E6E6E6"/>
<path d="M760.623 70.0877L736.327 63.4448C742.815 57.3074 745.637 51.5257 744.794 46.0996H760.623V70.0877Z" fill="#9F616A"/>
<path d="M763.199 256.826L755.352 257.933L745.898 170.838L730.805 257.564L722.707 257.933V147.957H772.77L763.199 256.826Z" fill="#2F2E41"/>
<path d="M726.783 274.383C728.014 274.418 729.223 274.039 730.215 273.306C731.207 272.573 731.926 271.529 732.257 270.339L732.83 261.763L731.675 255.681C728.626 253.169 725.544 253.221 722.43 255.681L721.437 268.42C721.379 269.168 721.473 269.919 721.713 270.629C721.953 271.339 722.335 271.993 722.835 272.55C723.335 273.108 723.943 273.558 724.621 273.873C725.3 274.188 726.035 274.361 726.783 274.383Z" fill="#2F2E41"/>
<path d="M759.176 274.383C760.408 274.418 761.616 274.039 762.608 273.306C763.601 272.573 764.319 271.529 764.651 270.339L765.224 261.763L764.068 255.681C761.02 253.169 757.937 253.221 754.824 255.681L753.831 268.42C753.773 269.168 753.867 269.919 754.107 270.629C754.347 271.339 754.729 271.993 755.229 272.55C755.729 273.108 756.336 273.558 757.015 273.873C757.694 274.188 758.429 274.361 759.176 274.383Z" fill="#2F2E41"/>
<path d="M757.31 57.5398C765.035 57.5398 771.298 51.2611 771.298 43.516C771.298 35.7709 765.035 29.4922 757.31 29.4922C749.584 29.4922 743.321 35.7709 743.321 43.516C743.321 51.2611 749.584 57.5398 757.31 57.5398Z" fill="#9F616A"/>
<path d="M774.979 149.801H721.603C728.521 117.658 728.501 91.7703 722.991 70.8339C722.64 69.501 722.792 68.0851 723.418 66.8578C724.045 65.6305 725.101 64.6782 726.384 64.1836L740.744 58.6465C745.056 64.2282 751.139 66.6662 760.623 63.075L768.148 64.6226C769.98 64.9971 771.615 66.0246 772.749 67.5149C773.884 69.0052 774.441 70.8572 774.318 72.7279C773.765 80.9161 773.983 89.1669 773.506 96.2893C772.031 118.345 771.394 135.54 774.979 149.801Z" fill="#E6E6E6"/>
<path d="M749.947 25.0637C749.947 25.0637 758.046 15.8375 767.617 24.6946L770.193 25.4327L768.353 26.9089C768.353 26.9089 777.924 31.3375 777.188 40.5637C777.188 40.5637 775.715 40.1946 774.979 40.5637C774.243 40.9327 773.875 44.9922 773.875 44.9922C773.875 44.9922 772.77 42.0399 772.402 41.6708C772.034 41.3018 766.88 45.7303 758.414 39.0875C758.414 39.0875 755.837 45.7303 752.892 44.9922C749.947 44.2541 745.898 44.6232 744.058 49.4208C744.058 49.4208 734.119 28.016 749.947 25.0637Z" fill="#2F2E41"/>
<path d="M777.556 141.682L772.83 148.032C772.338 148.693 771.982 149.446 771.783 150.246C771.584 151.047 771.545 151.879 771.67 152.695C771.794 153.51 772.079 154.293 772.509 154.997C772.938 155.701 773.502 156.313 774.169 156.796C775.028 157.419 776.032 157.81 777.085 157.934C778.137 158.057 779.204 157.908 780.183 157.501C781.162 157.094 782.021 156.442 782.677 155.608C783.334 154.774 783.767 153.785 783.934 152.736L785.286 144.265L787.863 107.73L786.022 89.2773L774.243 93.7059L777.556 109.575V141.682Z" fill="#9F616A"/>
<path d="M772.77 98.1361L787.127 91.4932L786.39 86.2644C786.39 81.9355 785.085 77.7076 782.645 74.1359C780.205 70.5641 776.746 67.8153 772.72 66.2503L768.353 64.5527L772.77 98.1361Z" fill="#E6E6E6"/>
<path d="M720.498 140.207L725.224 146.557C725.716 147.218 726.072 147.971 726.271 148.772C726.471 149.572 726.509 150.405 726.384 151.22C726.26 152.036 725.975 152.818 725.546 153.523C725.116 154.227 724.552 154.838 723.885 155.322C723.026 155.944 722.022 156.336 720.97 156.459C719.917 156.582 718.85 156.433 717.871 156.026C716.892 155.619 716.033 154.968 715.377 154.133C714.72 153.299 714.287 152.311 714.12 151.261L712.768 142.791L710.191 106.255L712.032 87.8027L723.811 92.2313L720.498 108.1V140.207Z" fill="#9F616A"/>
<path d="M725.284 96.6595L710.927 90.0166L711.664 84.7879C711.664 80.4589 712.969 76.2311 715.409 72.6593C717.849 69.0875 721.309 66.3387 725.334 64.7737L729.701 63.0762L725.284 96.6595Z" fill="#E6E6E6"/>
<rect x="852" y="123" width="253" height="115" rx="4" fill="white"/>
<path d="M1101.13 237.867H855.471C854.444 237.866 853.46 237.457 852.735 236.729C852.009 236.002 851.601 235.015 851.6 233.987V126.884C851.601 125.856 852.009 124.869 852.735 124.142C853.46 123.414 854.444 123.005 855.471 123.004H1101.13C1102.16 123.005 1103.14 123.414 1103.87 124.142C1104.59 124.869 1105 125.856 1105 126.884V233.987C1105 235.015 1104.59 236.002 1103.87 236.729C1103.14 237.457 1102.16 237.866 1101.13 237.867ZM855.471 124.556C854.855 124.557 854.264 124.802 853.829 125.239C853.394 125.675 853.149 126.267 853.148 126.884V233.987C853.149 234.604 853.394 235.196 853.829 235.632C854.264 236.069 854.855 236.314 855.471 236.315H1101.13C1101.75 236.314 1102.34 236.069 1102.77 235.632C1103.21 235.196 1103.45 234.604 1103.45 233.987V126.884C1103.45 126.267 1103.21 125.675 1102.77 125.239C1102.34 124.802 1101.75 124.557 1101.13 124.556H855.471Z" fill="#E6E6E6"/>
<path d="M865.534 136.197C864.918 136.197 864.328 136.443 863.892 136.879C863.457 137.316 863.212 137.908 863.212 138.526C863.212 139.143 863.457 139.735 863.892 140.172C864.328 140.609 864.918 140.854 865.534 140.854H898.048C898.664 140.854 899.255 140.609 899.69 140.172C900.126 139.735 900.37 139.143 900.37 138.526C900.37 137.908 900.126 137.316 899.69 136.879C899.255 136.443 898.664 136.197 898.048 136.197H865.534Z" fill="#E6E6E6"/>
<path d="M1088.12 152.39V195.567H868.868V172.834C870.386 171.856 871.914 170.883 873.455 169.943C880.037 165.904 887.082 162.128 894.761 160.728C898.392 160.049 902.113 160.003 905.76 160.59C909.613 161.228 913.301 162.559 916.952 163.895C920.553 165.216 924.162 166.579 927.928 167.345C931.598 168.068 935.365 168.142 939.06 167.566C946.11 166.506 952.734 163.665 959.33 161.095C965.967 158.512 972.806 156.07 979.989 155.749C987.08 155.428 994.084 157.108 1000.81 159.191C1014.53 163.436 1028.54 169.732 1043.07 165.413C1057.82 161.036 1071.39 148.398 1087.73 152.147C1087.89 152.176 1088.03 152.263 1088.12 152.39Z" fill="#E6E6E6"/>
<path d="M1088.12 153.143C1088.05 153.274 1087.94 153.379 1087.8 153.438C1087.66 153.498 1087.51 153.511 1087.37 153.473C1085.42 153.025 1083.43 152.819 1081.43 152.858C1065.35 153.143 1052.98 166.12 1037.26 168.061C1023.09 169.81 1009.74 162.899 996.413 159.287C989.488 157.41 982.348 156.415 975.221 157.69C968.149 158.952 961.512 161.852 954.847 164.427C948.43 166.905 941.761 169.208 934.813 169.323C927.173 169.452 920.294 166.295 913.208 163.89C909.523 162.637 905.742 161.646 901.838 161.55C898.033 161.504 894.246 162.092 890.633 163.289C883.103 165.689 876.32 169.966 869.715 174.215C869.602 174.295 869.464 174.332 869.326 174.321C869.183 174.301 869.05 174.239 868.943 174.142C868.837 174.045 868.762 173.918 868.729 173.778C868.697 173.638 868.707 173.49 868.76 173.356C868.812 173.222 868.904 173.107 869.024 173.026L869.326 172.834C870.841 171.856 872.365 170.883 873.903 169.943C880.471 165.904 887.502 162.128 895.164 160.728C898.788 160.049 902.501 160.003 906.141 160.59C909.986 161.228 913.666 162.559 917.309 163.895C920.902 165.216 924.505 166.579 928.263 167.345C931.924 168.068 935.684 168.142 939.372 167.566C946.407 166.506 953.016 163.665 959.599 161.095C966.222 158.512 973.047 156.07 980.215 155.749C987.291 155.428 994.28 157.108 1001 159.191C1014.69 163.436 1028.66 169.732 1043.16 165.413C1057.88 161.036 1071.42 148.398 1087.73 152.147C1087.89 152.176 1088.03 152.263 1088.12 152.39C1088.19 152.503 1088.23 152.633 1088.23 152.766C1088.23 152.9 1088.19 153.03 1088.12 153.143Z" fill="#2D995F"/>
<path d="M899.078 164.362C900.848 164.362 902.282 162.924 902.282 161.15C902.282 159.376 900.848 157.938 899.078 157.938C897.308 157.938 895.874 159.376 895.874 161.15C895.874 162.924 897.308 164.362 899.078 164.362Z" fill="#2D995F"/>
<path d="M980.095 160.231C981.865 160.231 983.3 158.793 983.3 157.019C983.3 155.245 981.865 153.807 980.095 153.807C978.326 153.807 976.891 155.245 976.891 157.019C976.891 158.793 978.326 160.231 980.095 160.231Z" fill="#2D995F"/>
<path d="M1078.96 156.102C1080.73 156.102 1082.17 154.664 1082.17 152.89C1082.17 151.116 1080.73 149.678 1078.96 149.678C1077.19 149.678 1075.76 151.116 1075.76 152.89C1075.76 154.664 1077.19 156.102 1078.96 156.102Z" fill="#2D995F"/>
<path d="M897.274 213.807C896.658 213.807 896.067 214.052 895.632 214.489C895.196 214.925 894.951 215.517 894.951 216.135C894.951 216.752 895.196 217.345 895.632 217.781C896.067 218.218 896.658 218.463 897.274 218.463H929.787C930.403 218.463 930.994 218.218 931.43 217.781C931.865 217.345 932.11 216.752 932.11 216.135C932.11 215.517 931.865 214.925 931.43 214.489C930.994 214.052 930.403 213.807 929.787 213.807H897.274Z" fill="#E6E6E6"/>
<path d="M876.372 224.674C881.218 224.674 885.146 220.736 885.146 215.878C885.146 211.02 881.218 207.082 876.372 207.082C871.527 207.082 867.599 211.02 867.599 215.878C867.599 220.736 871.527 224.674 876.372 224.674Z" fill="#2D995F"/>
<path d="M975.719 213.807C975.104 213.807 974.513 214.052 974.077 214.489C973.642 214.925 973.397 215.517 973.397 216.135C973.397 216.752 973.642 217.345 974.077 217.781C974.513 218.218 975.104 218.463 975.719 218.463H1008.23C1008.85 218.463 1009.44 218.218 1009.88 217.781C1010.31 217.345 1010.56 216.752 1010.56 216.135C1010.56 215.517 1010.31 214.925 1009.88 214.489C1009.44 214.052 1008.85 213.807 1008.23 213.807H975.719Z" fill="#E6E6E6"/>
<path d="M954.818 224.674C959.663 224.674 963.591 220.736 963.591 215.878C963.591 211.02 959.663 207.082 954.818 207.082C949.972 207.082 946.044 211.02 946.044 215.878C946.044 220.736 949.972 224.674 954.818 224.674Z" fill="#2D995F"/>
<path d="M1054.17 213.807C1053.55 213.807 1052.96 214.052 1052.52 214.489C1052.09 214.925 1051.84 215.517 1051.84 216.135C1051.84 216.752 1052.09 217.345 1052.52 217.781C1052.96 218.218 1053.55 218.463 1054.17 218.463H1086.68C1087.29 218.463 1087.89 218.218 1088.32 217.781C1088.76 217.345 1089 216.752 1089 216.135C1089 215.517 1088.76 214.925 1088.32 214.489C1087.89 214.052 1087.29 213.807 1086.68 213.807H1054.17Z" fill="#E6E6E6"/>
<path d="M1033.26 224.674C1038.11 224.674 1042.04 220.736 1042.04 215.878C1042.04 211.02 1038.11 207.082 1033.26 207.082C1028.42 207.082 1024.49 211.02 1024.49 215.878C1024.49 220.736 1028.42 224.674 1033.26 224.674Z" fill="#2D995F"/>
<path d="M1084.31 94.0849H963.117C960.754 94.0849 958.84 92.7174 958.837 91.0322V64.623C958.84 62.9378 960.754 61.5703 963.117 61.5703H1084.31C1086.68 61.5703 1088.59 62.9378 1088.59 64.623V91.0317C1088.59 92.7169 1086.68 94.0828 1084.31 94.0849ZM963.117 62.7903C961.699 62.7903 960.551 63.611 960.549 64.622V91.0307C960.549 92.0417 961.699 92.8612 963.117 92.8623H1084.31C1085.73 92.8623 1086.88 92.0417 1086.88 91.0307V64.623C1086.88 63.612 1085.73 62.7924 1084.31 62.7914L963.117 62.7903Z" fill="#E6E6E6"/>
<path d="M990.521 76.5801C989.836 76.5809 989.181 76.8537 988.697 77.3387C988.213 77.8237 987.941 78.4812 987.94 79.1671V97.2762C987.941 97.962 988.213 98.6196 988.697 99.1046C989.181 99.5895 989.836 99.8624 990.521 99.8632H1082.9C1083.58 99.8624 1084.24 99.5895 1084.72 99.1046C1085.21 98.6196 1085.48 97.962 1085.48 97.2762V79.1671C1085.48 78.4812 1085.21 77.8237 1084.72 77.3387C1084.24 76.8537 1083.58 76.5809 1082.9 76.5801H990.521Z" fill="#2D995F"/>
<path d="M1003.42 94.17C1006.56 94.17 1009.1 91.6218 1009.1 88.4785C1009.1 85.3352 1006.56 82.7871 1003.42 82.7871C1000.29 82.7871 997.746 85.3352 997.746 88.4785C997.746 91.6218 1000.29 94.17 1003.42 94.17Z" fill="white"/>
<path d="M1029.3 86.0098C1028.68 86.0098 1028.09 86.2551 1027.65 86.6917C1027.22 87.1284 1026.97 87.7206 1026.97 88.3381C1026.97 88.9556 1027.22 89.5478 1027.65 89.9844C1028.09 90.4211 1028.68 90.6664 1029.3 90.6664H1061.81C1062.42 90.6664 1063.02 90.4211 1063.45 89.9844C1063.89 89.5478 1064.13 88.9556 1064.13 88.3381C1064.13 87.7206 1063.89 87.1284 1063.45 86.6917C1063.02 86.2551 1062.42 86.0098 1061.81 86.0098H1029.3Z" fill="white"/>
<path d="M993.483 32.5146H872.285C869.923 32.5146 868.008 31.1471 868.005 29.4619V3.05268C868.008 1.3675 869.923 0 872.285 0H993.483C995.845 0 997.76 1.3675 997.763 3.05268V29.4614C997.761 31.1466 995.845 32.5125 993.483 32.5146ZM872.285 1.22003C870.868 1.22003 869.719 2.04063 869.717 3.05163V29.4604C869.717 30.4714 870.868 31.2909 872.285 31.292H993.483C994.901 31.292 996.049 30.4714 996.051 29.4604V3.05268C996.051 2.04167 994.901 1.2221 993.483 1.22107L872.285 1.22003Z" fill="#E6E6E6"/>
<path d="M899.689 15.0078C899.005 15.0086 898.349 15.2814 897.865 15.7664C897.381 16.2514 897.109 16.909 897.108 17.5948V35.7039C897.109 36.3898 897.381 37.0473 897.865 37.5323C898.349 38.0173 899.005 38.2901 899.689 38.2909H992.069C992.753 38.2901 993.409 38.0173 993.893 37.5323C994.376 37.0473 994.648 36.3898 994.649 35.7039V17.5948C994.648 16.909 994.376 16.2514 993.893 15.7664C993.409 15.2814 992.753 15.0086 992.069 15.0078H899.689Z" fill="#2D995F"/>
<path d="M912.591 32.5996C915.726 32.5996 918.268 30.0515 918.268 26.9082C918.268 23.7649 915.726 21.2168 912.591 21.2168C909.456 21.2168 906.914 23.7649 906.914 26.9082C906.914 30.0515 909.456 32.5996 912.591 32.5996Z" fill="white"/>
<path d="M938.463 24.4375C937.847 24.4375 937.257 24.6828 936.821 25.1194C936.386 25.5561 936.141 26.1483 936.141 26.7658C936.141 27.3833 936.386 27.9755 936.821 28.4122C937.257 28.8488 937.847 29.0941 938.463 29.0941H970.977C971.593 29.0941 972.184 28.8488 972.619 28.4122C973.055 27.9755 973.299 27.3833 973.299 26.7658C973.299 26.1483 973.055 25.5561 972.619 25.1194C972.184 24.6828 971.593 24.4375 970.977 24.4375H938.463Z" fill="white"/>
</g>
<defs>
<clipPath id="clip0_4006_473">
<rect width="425" height="279" fill="white" transform="translate(680)"/>
</clipPath>
</defs>
</svg>
