<svg width="1120" height="359" viewBox="0 0 1120 359" fill="none" xmlns="http://www.w3.org/2000/svg">
<rect y="79" width="1120" height="280" rx="8" fill="#F2F5F3" fill-opacity="0.77"/>
<path d="M61.6364 157.281C61.4574 156.659 61.206 156.109 60.8821 155.632C60.5582 155.146 60.1619 154.737 59.6932 154.405C59.233 154.064 58.7045 153.804 58.108 153.625C57.5199 153.446 56.8679 153.357 56.152 153.357C54.8139 153.357 53.6378 153.689 52.6236 154.354C51.6179 155.018 50.8338 155.986 50.2713 157.256C49.7088 158.517 49.4276 160.06 49.4276 161.884C49.4276 163.707 49.7045 165.259 50.2585 166.537C50.8125 167.815 51.5966 168.791 52.6108 169.464C53.625 170.129 54.8224 170.462 56.2031 170.462C57.456 170.462 58.5256 170.24 59.4119 169.797C60.3068 169.345 60.9886 168.71 61.4574 167.892C61.9347 167.074 62.1733 166.107 62.1733 164.99L63.2983 165.156H56.5483V160.989H67.5043V164.287C67.5043 166.588 67.0185 168.565 66.0469 170.219C65.0753 171.864 63.7372 173.134 62.0327 174.028C60.3281 174.915 58.3764 175.358 56.1776 175.358C53.723 175.358 51.5668 174.817 49.7088 173.734C47.8509 172.643 46.402 171.097 45.3622 169.094C44.331 167.082 43.8153 164.696 43.8153 161.935C43.8153 159.812 44.1222 157.92 44.7358 156.259C45.358 154.588 46.2273 153.173 47.3438 152.014C48.4602 150.855 49.7599 149.973 51.2429 149.368C52.7259 148.763 54.3324 148.46 56.0625 148.46C57.5455 148.46 58.9261 148.678 60.2045 149.112C61.483 149.538 62.6165 150.143 63.6051 150.928C64.6023 151.712 65.4162 152.645 66.0469 153.727C66.6776 154.801 67.0824 155.986 67.2614 157.281H61.6364ZM80.5089 175.384C78.489 175.384 76.7504 174.974 75.293 174.156C73.8441 173.33 72.7276 172.162 71.9435 170.653C71.1594 169.136 70.7674 167.342 70.7674 165.271C70.7674 163.251 71.1594 161.479 71.9435 159.953C72.7276 158.428 73.8313 157.239 75.2546 156.386C76.6864 155.534 78.3654 155.108 80.2915 155.108C81.587 155.108 82.793 155.317 83.9094 155.734C85.0344 156.143 86.0146 156.761 86.8498 157.588C87.6935 158.415 88.3498 159.455 88.8185 160.707C89.2873 161.952 89.5217 163.409 89.5217 165.08V166.575H72.9407V163.2H84.3952C84.3952 162.416 84.2248 161.722 83.8839 161.116C83.543 160.511 83.07 160.038 82.4648 159.697C81.8683 159.348 81.1737 159.173 80.381 159.173C79.5543 159.173 78.8214 159.365 78.1822 159.749C77.5515 160.124 77.0572 160.631 76.6992 161.27C76.3413 161.901 76.158 162.604 76.1495 163.379V166.588C76.1495 167.56 76.3285 168.399 76.6864 169.107C77.0529 169.814 77.5685 170.359 78.2333 170.743C78.8981 171.126 79.6864 171.318 80.5984 171.318C81.2035 171.318 81.7575 171.233 82.2603 171.062C82.7631 170.892 83.1935 170.636 83.5515 170.295C83.9094 169.955 84.1822 169.537 84.3697 169.043L89.4066 169.375C89.1509 170.585 88.6268 171.642 87.8342 172.545C87.0501 173.44 86.0359 174.139 84.7915 174.642C83.5558 175.136 82.1282 175.384 80.5089 175.384ZM103.52 155.364V159.455H91.695V155.364H103.52ZM94.3796 150.659H99.8256V168.966C99.8256 169.469 99.9023 169.861 100.056 170.142C100.209 170.415 100.422 170.607 100.695 170.717C100.976 170.828 101.3 170.884 101.667 170.884C101.922 170.884 102.178 170.862 102.434 170.82C102.689 170.768 102.885 170.73 103.022 170.705L103.878 174.757C103.605 174.842 103.222 174.94 102.728 175.051C102.233 175.17 101.632 175.243 100.925 175.268C99.6126 175.32 98.462 175.145 97.4734 174.744C96.4933 174.344 95.7305 173.722 95.185 172.878C94.6396 172.034 94.3711 170.969 94.3796 169.682V150.659ZM137.401 148.818V175H132.62L121.229 158.521H121.038V175H115.502V148.818H120.36L131.661 165.284H131.891V148.818H137.401ZM151.384 175.358C149.577 175.358 147.966 175.026 146.551 174.361C145.145 173.696 144.029 172.78 143.202 171.612C142.375 170.445 141.945 169.107 141.911 167.598H147.28C147.34 168.612 147.766 169.435 148.559 170.065C149.351 170.696 150.293 171.011 151.384 171.011C152.253 171.011 153.02 170.82 153.685 170.436C154.358 170.044 154.882 169.503 155.257 168.812C155.641 168.114 155.833 167.312 155.833 166.409C155.833 165.489 155.637 164.679 155.245 163.98C154.861 163.281 154.328 162.736 153.647 162.344C152.965 161.952 152.185 161.751 151.307 161.743C150.54 161.743 149.794 161.901 149.07 162.216C148.354 162.531 147.796 162.962 147.395 163.507L142.473 162.625L143.713 148.818H159.719V153.344H148.277L147.6 159.902H147.753C148.213 159.254 148.908 158.717 149.837 158.291C150.766 157.865 151.806 157.652 152.956 157.652C154.533 157.652 155.939 158.023 157.175 158.764C158.411 159.506 159.387 160.524 160.103 161.82C160.819 163.107 161.172 164.589 161.164 166.268C161.172 168.033 160.763 169.601 159.936 170.973C159.118 172.337 157.972 173.411 156.498 174.195C155.032 174.97 153.327 175.358 151.384 175.358ZM175.29 175.575C173.091 175.567 171.199 175.026 169.614 173.952C168.037 172.878 166.823 171.322 165.971 169.286C165.127 167.249 164.709 164.798 164.718 161.935C164.718 159.08 165.14 156.646 165.983 154.635C166.836 152.624 168.05 151.094 169.627 150.045C171.212 148.989 173.1 148.46 175.29 148.46C177.48 148.46 179.364 148.989 180.941 150.045C182.526 151.102 183.745 152.636 184.597 154.648C185.449 156.651 185.871 159.08 185.863 161.935C185.863 164.807 185.436 167.261 184.584 169.298C183.74 171.335 182.53 172.891 180.953 173.964C179.377 175.038 177.489 175.575 175.29 175.575ZM175.29 170.986C176.79 170.986 177.988 170.232 178.882 168.723C179.777 167.214 180.221 164.952 180.212 161.935C180.212 159.949 180.007 158.295 179.598 156.974C179.198 155.653 178.627 154.661 177.885 153.996C177.152 153.331 176.287 152.999 175.29 152.999C173.799 152.999 172.605 153.744 171.711 155.236C170.816 156.727 170.364 158.96 170.355 161.935C170.355 163.946 170.556 165.625 170.956 166.972C171.365 168.31 171.941 169.315 172.682 169.989C173.424 170.653 174.293 170.986 175.29 170.986ZM200.075 175.575C197.876 175.567 195.984 175.026 194.399 173.952C192.822 172.878 191.608 171.322 190.756 169.286C189.912 167.249 189.494 164.798 189.503 161.935C189.503 159.08 189.925 156.646 190.768 154.635C191.621 152.624 192.835 151.094 194.412 150.045C195.997 148.989 197.885 148.46 200.075 148.46C202.266 148.46 204.149 148.989 205.726 150.045C207.311 151.102 208.53 152.636 209.382 154.648C210.234 156.651 210.656 159.08 210.648 161.935C210.648 164.807 210.222 167.261 209.369 169.298C208.526 171.335 207.315 172.891 205.739 173.964C204.162 175.038 202.274 175.575 200.075 175.575ZM200.075 170.986C201.575 170.986 202.773 170.232 203.668 168.723C204.563 167.214 205.006 164.952 204.997 161.935C204.997 159.949 204.793 158.295 204.384 156.974C203.983 155.653 203.412 154.661 202.67 153.996C201.938 153.331 201.072 152.999 200.075 152.999C198.584 152.999 197.391 153.744 196.496 155.236C195.601 156.727 195.149 158.96 195.141 161.935C195.141 163.946 195.341 165.625 195.741 166.972C196.151 168.31 196.726 169.315 197.467 169.989C198.209 170.653 199.078 170.986 200.075 170.986ZM219.51 171.42L219.37 172.827C219.259 173.952 219.046 175.072 218.73 176.189C218.424 177.314 218.1 178.332 217.759 179.244C217.426 180.156 217.158 180.872 216.953 181.392H213.425C213.553 180.889 213.728 180.186 213.949 179.283C214.171 178.388 214.38 177.382 214.576 176.266C214.772 175.149 214.895 174.011 214.946 172.852L215.01 171.42H219.51ZM233.65 175.575C231.451 175.567 229.559 175.026 227.973 173.952C226.397 172.878 225.182 171.322 224.33 169.286C223.486 167.249 223.069 164.798 223.077 161.935C223.077 159.08 223.499 156.646 224.343 154.635C225.195 152.624 226.409 151.094 227.986 150.045C229.571 148.989 231.459 148.46 233.65 148.46C235.84 148.46 237.723 148.989 239.3 150.045C240.885 151.102 242.104 152.636 242.956 154.648C243.809 156.651 244.23 159.08 244.222 161.935C244.222 164.807 243.796 167.261 242.944 169.298C242.1 171.335 240.89 172.891 239.313 173.964C237.736 175.038 235.848 175.575 233.65 175.575ZM233.65 170.986C235.15 170.986 236.347 170.232 237.242 168.723C238.137 167.214 238.58 164.952 238.571 161.935C238.571 159.949 238.367 158.295 237.958 156.974C237.557 155.653 236.986 154.661 236.245 153.996C235.512 153.331 234.647 152.999 233.65 152.999C232.158 152.999 230.965 153.744 230.07 155.236C229.175 156.727 228.723 158.96 228.715 161.935C228.715 163.946 228.915 165.625 229.316 166.972C229.725 168.31 230.3 169.315 231.042 169.989C231.783 170.653 232.652 170.986 233.65 170.986ZM258.435 175.575C256.236 175.567 254.344 175.026 252.759 173.952C251.182 172.878 249.967 171.322 249.115 169.286C248.271 167.249 247.854 164.798 247.862 161.935C247.862 159.08 248.284 156.646 249.128 154.635C249.98 152.624 251.195 151.094 252.771 150.045C254.357 148.989 256.244 148.46 258.435 148.46C260.625 148.46 262.509 148.989 264.085 150.045C265.67 151.102 266.889 152.636 267.741 154.648C268.594 156.651 269.016 159.08 269.007 161.935C269.007 164.807 268.581 167.261 267.729 169.298C266.885 171.335 265.675 172.891 264.098 173.964C262.521 175.038 260.634 175.575 258.435 175.575ZM258.435 170.986C259.935 170.986 261.132 170.232 262.027 168.723C262.922 167.214 263.365 164.952 263.357 161.935C263.357 159.949 263.152 158.295 262.743 156.974C262.342 155.653 261.771 154.661 261.03 153.996C260.297 153.331 259.432 152.999 258.435 152.999C256.943 152.999 255.75 153.744 254.855 155.236C253.96 156.727 253.509 158.96 253.5 161.935C253.5 163.946 253.7 165.625 254.101 166.972C254.51 168.31 255.085 169.315 255.827 169.989C256.568 170.653 257.438 170.986 258.435 170.986ZM283.22 175.575C281.021 175.567 279.129 175.026 277.544 173.952C275.967 172.878 274.752 171.322 273.9 169.286C273.056 167.249 272.639 164.798 272.647 161.935C272.647 159.08 273.069 156.646 273.913 154.635C274.765 152.624 275.98 151.094 277.556 150.045C279.142 148.989 281.029 148.46 283.22 148.46C285.41 148.46 287.294 148.989 288.87 150.045C290.456 151.102 291.674 152.636 292.527 154.648C293.379 156.651 293.801 159.08 293.792 161.935C293.792 164.807 293.366 167.261 292.514 169.298C291.67 171.335 290.46 172.891 288.883 173.964C287.306 175.038 285.419 175.575 283.22 175.575ZM283.22 170.986C284.72 170.986 285.917 170.232 286.812 168.723C287.707 167.214 288.15 164.952 288.142 161.935C288.142 159.949 287.937 158.295 287.528 156.974C287.127 155.653 286.556 154.661 285.815 153.996C285.082 153.331 284.217 152.999 283.22 152.999C281.728 152.999 280.535 153.744 279.64 155.236C278.745 156.727 278.294 158.96 278.285 161.935C278.285 163.946 278.485 165.625 278.886 166.972C279.295 168.31 279.87 169.315 280.612 169.989C281.353 170.653 282.223 170.986 283.22 170.986ZM306.225 175V148.818H311.76V170.436H322.985V175H306.225ZM335.42 175.384C333.435 175.384 331.717 174.962 330.268 174.118C328.828 173.266 327.716 172.081 326.932 170.564C326.148 169.038 325.756 167.27 325.756 165.259C325.756 163.23 326.148 161.457 326.932 159.94C327.716 158.415 328.828 157.23 330.268 156.386C331.717 155.534 333.435 155.108 335.42 155.108C337.406 155.108 339.119 155.534 340.56 156.386C342.009 157.23 343.125 158.415 343.909 159.94C344.693 161.457 345.085 163.23 345.085 165.259C345.085 167.27 344.693 169.038 343.909 170.564C343.125 172.081 342.009 173.266 340.56 174.118C339.119 174.962 337.406 175.384 335.42 175.384ZM335.446 171.165C336.349 171.165 337.104 170.909 337.709 170.398C338.314 169.878 338.77 169.17 339.077 168.276C339.392 167.381 339.55 166.362 339.55 165.22C339.55 164.078 339.392 163.06 339.077 162.165C338.77 161.27 338.314 160.562 337.709 160.043C337.104 159.523 336.349 159.263 335.446 159.263C334.534 159.263 333.767 159.523 333.145 160.043C332.531 160.562 332.067 161.27 331.751 162.165C331.445 163.06 331.291 164.078 331.291 165.22C331.291 166.362 331.445 167.381 331.751 168.276C332.067 169.17 332.531 169.878 333.145 170.398C333.767 170.909 334.534 171.165 335.446 171.165ZM354.226 175.371C352.973 175.371 351.857 175.153 350.876 174.719C349.896 174.276 349.121 173.624 348.55 172.763C347.987 171.893 347.706 170.811 347.706 169.516C347.706 168.425 347.906 167.509 348.307 166.767C348.707 166.026 349.253 165.429 349.943 164.977C350.634 164.526 351.418 164.185 352.295 163.955C353.182 163.724 354.111 163.562 355.082 163.469C356.224 163.349 357.145 163.239 357.844 163.136C358.543 163.026 359.05 162.864 359.365 162.651C359.68 162.437 359.838 162.122 359.838 161.705V161.628C359.838 160.818 359.582 160.192 359.071 159.749C358.568 159.305 357.852 159.084 356.923 159.084C355.943 159.084 355.163 159.301 354.584 159.736C354.004 160.162 353.621 160.699 353.433 161.347L348.396 160.938C348.652 159.744 349.155 158.713 349.905 157.844C350.655 156.966 351.622 156.293 352.807 155.824C354 155.347 355.381 155.108 356.949 155.108C358.04 155.108 359.084 155.236 360.081 155.491C361.087 155.747 361.977 156.143 362.753 156.68C363.537 157.217 364.155 157.908 364.607 158.751C365.058 159.587 365.284 160.588 365.284 161.756V175H360.119V172.277H359.966C359.651 172.891 359.229 173.432 358.7 173.901C358.172 174.361 357.537 174.723 356.795 174.987C356.054 175.243 355.197 175.371 354.226 175.371ZM355.786 171.612C356.587 171.612 357.294 171.455 357.908 171.139C358.521 170.815 359.003 170.381 359.352 169.835C359.702 169.29 359.876 168.672 359.876 167.982V165.898C359.706 166.009 359.472 166.111 359.173 166.205C358.884 166.29 358.555 166.371 358.189 166.447C357.822 166.516 357.456 166.58 357.089 166.639C356.723 166.69 356.391 166.737 356.092 166.78C355.453 166.874 354.895 167.023 354.418 167.227C353.94 167.432 353.57 167.709 353.305 168.058C353.041 168.399 352.909 168.825 352.909 169.337C352.909 170.078 353.178 170.645 353.714 171.037C354.26 171.42 354.95 171.612 355.786 171.612ZM374.955 163.648V175H369.509V155.364H374.7V158.828H374.93C375.364 157.686 376.093 156.783 377.116 156.118C378.138 155.445 379.379 155.108 380.836 155.108C382.2 155.108 383.388 155.406 384.403 156.003C385.417 156.599 386.205 157.452 386.768 158.56C387.33 159.659 387.612 160.972 387.612 162.497V175H382.165V163.469C382.174 162.267 381.867 161.33 381.245 160.656C380.623 159.974 379.766 159.634 378.675 159.634C377.942 159.634 377.295 159.791 376.732 160.107C376.178 160.422 375.744 160.882 375.428 161.487C375.121 162.084 374.964 162.804 374.955 163.648ZM54.733 199.364V203.455H42.6136V199.364H54.733ZM45.3878 219V197.945C45.3878 196.521 45.6648 195.341 46.2188 194.403C46.7812 193.466 47.5483 192.763 48.5199 192.294C49.4915 191.825 50.5952 191.591 51.831 191.591C52.6662 191.591 53.429 191.655 54.1193 191.783C54.8182 191.911 55.3381 192.026 55.679 192.128L54.7074 196.219C54.4943 196.151 54.2301 196.087 53.9148 196.027C53.608 195.967 53.2926 195.938 52.9688 195.938C52.1676 195.938 51.6094 196.125 51.294 196.5C50.9787 196.866 50.821 197.382 50.821 198.047V219H45.3878ZM58.06 219V199.364H63.3398V202.79H63.5444C63.9023 201.571 64.5032 200.651 65.3469 200.028C66.1907 199.398 67.1623 199.082 68.2617 199.082C68.5344 199.082 68.8285 199.099 69.1438 199.134C69.4592 199.168 69.7362 199.214 69.9748 199.274V204.107C69.7191 204.03 69.3654 203.962 68.9137 203.902C68.462 203.842 68.0487 203.812 67.6737 203.812C66.8725 203.812 66.1566 203.987 65.5259 204.337C64.9038 204.678 64.4094 205.155 64.043 205.768C63.685 206.382 63.506 207.089 63.506 207.891V219H58.06ZM80.7486 219.384C78.7628 219.384 77.0455 218.962 75.5966 218.118C74.1563 217.266 73.044 216.081 72.2599 214.564C71.4759 213.038 71.0838 211.27 71.0838 209.259C71.0838 207.23 71.4759 205.457 72.2599 203.94C73.044 202.415 74.1563 201.23 75.5966 200.386C77.0455 199.534 78.7628 199.108 80.7486 199.108C82.7344 199.108 84.4474 199.534 85.8878 200.386C87.3366 201.23 88.4531 202.415 89.2372 203.94C90.0213 205.457 90.4134 207.23 90.4134 209.259C90.4134 211.27 90.0213 213.038 89.2372 214.564C88.4531 216.081 87.3366 217.266 85.8878 218.118C84.4474 218.962 82.7344 219.384 80.7486 219.384ZM80.7741 215.165C81.6776 215.165 82.4318 214.909 83.0369 214.398C83.642 213.878 84.098 213.17 84.4048 212.276C84.7202 211.381 84.8778 210.362 84.8778 209.22C84.8778 208.078 84.7202 207.06 84.4048 206.165C84.098 205.27 83.642 204.562 83.0369 204.043C82.4318 203.523 81.6776 203.263 80.7741 203.263C79.8622 203.263 79.0952 203.523 78.473 204.043C77.8594 204.562 77.3949 205.27 77.0795 206.165C76.7727 207.06 76.6193 208.078 76.6193 209.22C76.6193 210.362 76.7727 211.381 77.0795 212.276C77.3949 213.17 77.8594 213.878 78.473 214.398C79.0952 214.909 79.8622 215.165 80.7741 215.165ZM93.9545 219V199.364H99.1449V202.828H99.375C99.7841 201.678 100.466 200.77 101.42 200.105C102.375 199.44 103.517 199.108 104.847 199.108C106.193 199.108 107.339 199.445 108.286 200.118C109.232 200.783 109.862 201.686 110.178 202.828H110.382C110.783 201.703 111.507 200.804 112.555 200.131C113.612 199.449 114.861 199.108 116.301 199.108C118.134 199.108 119.621 199.692 120.763 200.859C121.913 202.018 122.489 203.663 122.489 205.794V219H117.055V206.868C117.055 205.777 116.766 204.959 116.186 204.413C115.607 203.868 114.882 203.595 114.013 203.595C113.024 203.595 112.253 203.911 111.699 204.541C111.145 205.163 110.868 205.986 110.868 207.009V219H105.588V206.753C105.588 205.79 105.311 205.023 104.757 204.452C104.212 203.881 103.491 203.595 102.597 203.595C101.991 203.595 101.446 203.749 100.96 204.055C100.483 204.354 100.104 204.776 99.8224 205.321C99.5412 205.858 99.4006 206.489 99.4006 207.213V219H93.9545ZM145.567 199.364V203.455H133.742V199.364H145.567ZM136.426 194.659H141.873V212.966C141.873 213.469 141.949 213.861 142.103 214.142C142.256 214.415 142.469 214.607 142.742 214.717C143.023 214.828 143.347 214.884 143.713 214.884C143.969 214.884 144.225 214.862 144.48 214.82C144.736 214.768 144.932 214.73 145.069 214.705L145.925 218.757C145.652 218.842 145.269 218.94 144.775 219.051C144.28 219.17 143.679 219.243 142.972 219.268C141.659 219.32 140.509 219.145 139.52 218.744C138.54 218.344 137.777 217.722 137.232 216.878C136.686 216.034 136.418 214.969 136.426 213.682V194.659ZM154.983 207.648V219H149.537V192.818H154.829V202.828H155.059C155.502 201.669 156.218 200.761 157.207 200.105C158.196 199.44 159.436 199.108 160.927 199.108C162.291 199.108 163.48 199.406 164.494 200.003C165.517 200.591 166.309 201.439 166.872 202.547C167.443 203.646 167.724 204.963 167.716 206.497V219H162.27V207.469C162.278 206.259 161.971 205.317 161.349 204.643C160.735 203.97 159.875 203.634 158.767 203.634C158.025 203.634 157.369 203.791 156.798 204.107C156.235 204.422 155.792 204.882 155.468 205.487C155.153 206.084 154.991 206.804 154.983 207.648ZM180.95 219.384C178.93 219.384 177.192 218.974 175.734 218.156C174.286 217.33 173.169 216.162 172.385 214.653C171.601 213.136 171.209 211.342 171.209 209.271C171.209 207.251 171.601 205.479 172.385 203.953C173.169 202.428 174.273 201.239 175.696 200.386C177.128 199.534 178.807 199.108 180.733 199.108C182.028 199.108 183.234 199.317 184.351 199.734C185.476 200.143 186.456 200.761 187.291 201.588C188.135 202.415 188.791 203.455 189.26 204.707C189.729 205.952 189.963 207.409 189.963 209.08V210.575H173.382V207.2H184.837C184.837 206.416 184.666 205.722 184.325 205.116C183.984 204.511 183.511 204.038 182.906 203.697C182.31 203.348 181.615 203.173 180.822 203.173C179.996 203.173 179.263 203.365 178.624 203.749C177.993 204.124 177.499 204.631 177.141 205.27C176.783 205.901 176.599 206.604 176.591 207.379V210.588C176.591 211.56 176.77 212.399 177.128 213.107C177.494 213.814 178.01 214.359 178.675 214.743C179.339 215.126 180.128 215.318 181.04 215.318C181.645 215.318 182.199 215.233 182.702 215.062C183.205 214.892 183.635 214.636 183.993 214.295C184.351 213.955 184.624 213.537 184.811 213.043L189.848 213.375C189.592 214.585 189.068 215.642 188.276 216.545C187.491 217.44 186.477 218.139 185.233 218.642C183.997 219.136 182.57 219.384 180.95 219.384ZM226.011 205.909C226.011 208.764 225.47 211.193 224.387 213.196C223.314 215.199 221.848 216.729 219.99 217.786C218.14 218.834 216.061 219.358 213.751 219.358C211.424 219.358 209.336 218.83 207.487 217.773C205.637 216.716 204.176 215.186 203.102 213.183C202.028 211.18 201.491 208.756 201.491 205.909C201.491 203.054 202.028 200.625 203.102 198.622C204.176 196.619 205.637 195.094 207.487 194.045C209.336 192.989 211.424 192.46 213.751 192.46C216.061 192.46 218.14 192.989 219.99 194.045C221.848 195.094 223.314 196.619 224.387 198.622C225.47 200.625 226.011 203.054 226.011 205.909ZM220.399 205.909C220.399 204.06 220.122 202.5 219.568 201.23C219.022 199.96 218.251 198.997 217.254 198.341C216.257 197.685 215.089 197.357 213.751 197.357C212.413 197.357 211.245 197.685 210.248 198.341C209.251 198.997 208.475 199.96 207.922 201.23C207.376 202.5 207.103 204.06 207.103 205.909C207.103 207.759 207.376 209.318 207.922 210.588C208.475 211.858 209.251 212.821 210.248 213.477C211.245 214.134 212.413 214.462 213.751 214.462C215.089 214.462 216.257 214.134 217.254 213.477C218.251 212.821 219.022 211.858 219.568 210.588C220.122 209.318 220.399 207.759 220.399 205.909ZM238.856 226.773C237.092 226.773 235.579 226.53 234.317 226.044C233.065 225.567 232.067 224.915 231.326 224.088C230.585 223.261 230.103 222.332 229.881 221.301L234.918 220.624C235.072 221.016 235.315 221.382 235.647 221.723C235.979 222.064 236.418 222.337 236.964 222.541C237.518 222.754 238.191 222.861 238.984 222.861C240.168 222.861 241.144 222.571 241.911 221.991C242.687 221.42 243.075 220.462 243.075 219.115V215.523H242.844C242.606 216.068 242.248 216.584 241.771 217.07C241.293 217.555 240.68 217.952 239.93 218.259C239.18 218.565 238.285 218.719 237.245 218.719C235.771 218.719 234.428 218.378 233.218 217.696C232.016 217.006 231.058 215.953 230.342 214.538C229.634 213.115 229.281 211.317 229.281 209.143C229.281 206.919 229.643 205.061 230.367 203.57C231.092 202.078 232.055 200.962 233.256 200.22C234.467 199.479 235.792 199.108 237.232 199.108C238.332 199.108 239.252 199.295 239.994 199.67C240.735 200.037 241.332 200.497 241.783 201.051C242.244 201.597 242.597 202.134 242.844 202.662H243.049V199.364H248.457V219.192C248.457 220.862 248.048 222.26 247.229 223.385C246.411 224.51 245.278 225.354 243.829 225.916C242.388 226.487 240.731 226.773 238.856 226.773ZM238.971 214.628C239.849 214.628 240.59 214.411 241.195 213.976C241.809 213.533 242.278 212.902 242.602 212.084C242.934 211.257 243.1 210.268 243.1 209.118C243.1 207.967 242.938 206.97 242.614 206.126C242.29 205.274 241.822 204.614 241.208 204.145C240.594 203.676 239.849 203.442 238.971 203.442C238.076 203.442 237.322 203.685 236.708 204.17C236.094 204.648 235.63 205.312 235.315 206.165C234.999 207.017 234.842 208.001 234.842 209.118C234.842 210.251 234.999 211.232 235.315 212.058C235.638 212.876 236.103 213.511 236.708 213.963C237.322 214.406 238.076 214.628 238.971 214.628ZM265.383 210.639V199.364H270.829V219H265.6V215.433H265.396C264.952 216.584 264.215 217.509 263.184 218.207C262.161 218.906 260.913 219.256 259.438 219.256C258.126 219.256 256.971 218.957 255.974 218.361C254.977 217.764 254.197 216.916 253.634 215.817C253.08 214.717 252.799 213.401 252.79 211.866V199.364H258.237V210.895C258.245 212.054 258.556 212.97 259.17 213.643C259.783 214.317 260.606 214.653 261.637 214.653C262.293 214.653 262.907 214.504 263.478 214.206C264.049 213.899 264.509 213.447 264.859 212.851C265.217 212.254 265.391 211.517 265.383 210.639ZM280.631 207.648V219H275.185V199.364H280.375V202.828H280.605C281.04 201.686 281.769 200.783 282.792 200.118C283.814 199.445 285.054 199.108 286.512 199.108C287.875 199.108 289.064 199.406 290.078 200.003C291.093 200.599 291.881 201.452 292.444 202.56C293.006 203.659 293.287 204.972 293.287 206.497V219H287.841V207.469C287.85 206.267 287.543 205.33 286.921 204.656C286.299 203.974 285.442 203.634 284.351 203.634C283.618 203.634 282.971 203.791 282.408 204.107C281.854 204.422 281.419 204.882 281.104 205.487C280.797 206.084 280.64 206.804 280.631 207.648ZM320.217 200.348C320.115 199.317 319.676 198.516 318.9 197.945C318.125 197.374 317.072 197.088 315.743 197.088C314.839 197.088 314.076 197.216 313.454 197.472C312.832 197.719 312.355 198.064 312.022 198.507C311.699 198.95 311.537 199.453 311.537 200.016C311.52 200.484 311.618 200.893 311.831 201.243C312.052 201.592 312.355 201.895 312.738 202.151C313.122 202.398 313.565 202.615 314.068 202.803C314.571 202.982 315.108 203.135 315.679 203.263L318.031 203.825C319.173 204.081 320.221 204.422 321.176 204.848C322.13 205.274 322.957 205.798 323.656 206.42C324.355 207.043 324.896 207.776 325.279 208.619C325.672 209.463 325.872 210.43 325.88 211.521C325.872 213.124 325.463 214.513 324.653 215.689C323.852 216.857 322.693 217.764 321.176 218.412C319.667 219.051 317.848 219.371 315.717 219.371C313.603 219.371 311.762 219.047 310.194 218.399C308.635 217.751 307.416 216.793 306.538 215.523C305.669 214.244 305.213 212.663 305.17 210.78H310.527C310.586 211.658 310.838 212.391 311.281 212.979C311.733 213.558 312.333 213.997 313.083 214.295C313.842 214.585 314.699 214.73 315.653 214.73C316.591 214.73 317.404 214.594 318.095 214.321C318.794 214.048 319.335 213.669 319.718 213.183C320.102 212.697 320.294 212.139 320.294 211.509C320.294 210.92 320.119 210.426 319.77 210.026C319.429 209.625 318.926 209.284 318.261 209.003C317.605 208.722 316.799 208.466 315.845 208.236L312.994 207.52C310.787 206.983 309.044 206.143 307.765 205.001C306.487 203.859 305.852 202.321 305.86 200.386C305.852 198.801 306.274 197.416 307.126 196.232C307.987 195.047 309.167 194.122 310.667 193.457C312.167 192.793 313.872 192.46 315.781 192.46C317.724 192.46 319.42 192.793 320.869 193.457C322.326 194.122 323.46 195.047 324.27 196.232C325.079 197.416 325.497 198.788 325.522 200.348H320.217ZM339.946 199.364V203.455H328.121V199.364H339.946ZM330.805 194.659H336.251V212.966C336.251 213.469 336.328 213.861 336.482 214.142C336.635 214.415 336.848 214.607 337.121 214.717C337.402 214.828 337.726 214.884 338.092 214.884C338.348 214.884 338.604 214.862 338.859 214.82C339.115 214.768 339.311 214.73 339.447 214.705L340.304 218.757C340.031 218.842 339.648 218.94 339.153 219.051C338.659 219.17 338.058 219.243 337.351 219.268C336.038 219.32 334.888 219.145 333.899 218.744C332.919 218.344 332.156 217.722 331.611 216.878C331.065 216.034 330.797 214.969 330.805 213.682V194.659ZM349.093 219.371C347.84 219.371 346.724 219.153 345.744 218.719C344.763 218.276 343.988 217.624 343.417 216.763C342.854 215.893 342.573 214.811 342.573 213.516C342.573 212.425 342.773 211.509 343.174 210.767C343.575 210.026 344.12 209.429 344.81 208.977C345.501 208.526 346.285 208.185 347.163 207.955C348.049 207.724 348.978 207.562 349.95 207.469C351.092 207.349 352.012 207.239 352.711 207.136C353.41 207.026 353.917 206.864 354.232 206.651C354.548 206.437 354.705 206.122 354.705 205.705V205.628C354.705 204.818 354.45 204.192 353.938 203.749C353.435 203.305 352.719 203.084 351.79 203.084C350.81 203.084 350.031 203.301 349.451 203.736C348.871 204.162 348.488 204.699 348.3 205.347L343.263 204.938C343.519 203.744 344.022 202.713 344.772 201.844C345.522 200.966 346.489 200.293 347.674 199.824C348.867 199.347 350.248 199.108 351.816 199.108C352.907 199.108 353.951 199.236 354.948 199.491C355.954 199.747 356.844 200.143 357.62 200.68C358.404 201.217 359.022 201.908 359.474 202.751C359.925 203.587 360.151 204.588 360.151 205.756V219H354.987V216.277H354.833C354.518 216.891 354.096 217.432 353.567 217.901C353.039 218.361 352.404 218.723 351.663 218.987C350.921 219.243 350.065 219.371 349.093 219.371ZM350.653 215.612C351.454 215.612 352.161 215.455 352.775 215.139C353.388 214.815 353.87 214.381 354.219 213.835C354.569 213.29 354.744 212.672 354.744 211.982V209.898C354.573 210.009 354.339 210.111 354.04 210.205C353.751 210.29 353.423 210.371 353.056 210.447C352.69 210.516 352.323 210.58 351.957 210.639C351.59 210.69 351.258 210.737 350.96 210.78C350.32 210.874 349.762 211.023 349.285 211.227C348.808 211.432 348.437 211.709 348.173 212.058C347.908 212.399 347.776 212.825 347.776 213.337C347.776 214.078 348.045 214.645 348.582 215.037C349.127 215.42 349.817 215.612 350.653 215.612ZM374.821 199.364V203.455H362.996V199.364H374.821ZM365.68 194.659H371.126V212.966C371.126 213.469 371.203 213.861 371.357 214.142C371.51 214.415 371.723 214.607 371.996 214.717C372.277 214.828 372.601 214.884 372.967 214.884C373.223 214.884 373.479 214.862 373.734 214.82C373.99 214.768 374.186 214.73 374.322 214.705L375.179 218.757C374.906 218.842 374.523 218.94 374.028 219.051C373.534 219.17 372.933 219.243 372.226 219.268C370.913 219.32 369.763 219.145 368.774 218.744C367.794 218.344 367.031 217.722 366.486 216.878C365.94 216.034 365.672 214.969 365.68 213.682V194.659ZM387.107 219.384C385.087 219.384 383.348 218.974 381.891 218.156C380.442 217.33 379.325 216.162 378.541 214.653C377.757 213.136 377.365 211.342 377.365 209.271C377.365 207.251 377.757 205.479 378.541 203.953C379.325 202.428 380.429 201.239 381.852 200.386C383.284 199.534 384.963 199.108 386.889 199.108C388.185 199.108 389.391 199.317 390.507 199.734C391.632 200.143 392.612 200.761 393.447 201.588C394.291 202.415 394.947 203.455 395.416 204.707C395.885 205.952 396.119 207.409 396.119 209.08V210.575H379.538V207.2H390.993C390.993 206.416 390.822 205.722 390.482 205.116C390.141 204.511 389.668 204.038 389.062 203.697C388.466 203.348 387.771 203.173 386.979 203.173C386.152 203.173 385.419 203.365 384.78 203.749C384.149 204.124 383.655 204.631 383.297 205.27C382.939 205.901 382.756 206.604 382.747 207.379V210.588C382.747 211.56 382.926 212.399 383.284 213.107C383.651 213.814 384.166 214.359 384.831 214.743C385.496 215.126 386.284 215.318 387.196 215.318C387.801 215.318 388.355 215.233 388.858 215.062C389.361 214.892 389.791 214.636 390.149 214.295C390.507 213.955 390.78 213.537 390.967 213.043L396.004 213.375C395.749 214.585 395.224 215.642 394.432 216.545C393.648 217.44 392.634 218.139 391.389 218.642C390.153 219.136 388.726 219.384 387.107 219.384ZM58.4787 244.348C58.3764 243.317 57.9375 242.516 57.1619 241.945C56.3864 241.374 55.3338 241.088 54.0043 241.088C53.1009 241.088 52.3381 241.216 51.7159 241.472C51.0938 241.719 50.6165 242.064 50.2841 242.507C49.9602 242.95 49.7983 243.453 49.7983 244.016C49.7813 244.484 49.8793 244.893 50.0923 245.243C50.3139 245.592 50.6165 245.895 51 246.151C51.3835 246.398 51.8267 246.615 52.3295 246.803C52.8324 246.982 53.3693 247.135 53.9403 247.263L56.2926 247.825C57.4347 248.081 58.483 248.422 59.4375 248.848C60.392 249.274 61.2188 249.798 61.9176 250.42C62.6165 251.043 63.1577 251.776 63.5412 252.619C63.9332 253.463 64.1335 254.43 64.142 255.521C64.1335 257.124 63.7244 258.513 62.9148 259.689C62.1136 260.857 60.9545 261.764 59.4375 262.412C57.929 263.051 56.1094 263.371 53.9787 263.371C51.8651 263.371 50.0241 263.047 48.456 262.399C46.8963 261.751 45.6776 260.793 44.7997 259.523C43.9304 258.244 43.4744 256.663 43.4318 254.78H48.7884C48.848 255.658 49.0994 256.391 49.5426 256.979C49.9943 257.558 50.5952 257.997 51.3452 258.295C52.1037 258.585 52.9602 258.73 53.9148 258.73C54.8523 258.73 55.6662 258.594 56.3565 258.321C57.0554 258.048 57.5966 257.669 57.9801 257.183C58.3636 256.697 58.5554 256.139 58.5554 255.509C58.5554 254.92 58.3807 254.426 58.0312 254.026C57.6903 253.625 57.1875 253.284 56.5227 253.003C55.8665 252.722 55.0611 252.466 54.1065 252.236L51.2557 251.52C49.0483 250.983 47.3054 250.143 46.027 249.001C44.7486 247.859 44.1136 246.321 44.1222 244.386C44.1136 242.801 44.5355 241.416 45.3878 240.232C46.2486 239.047 47.429 238.122 48.929 237.457C50.429 236.793 52.1335 236.46 54.0426 236.46C55.9858 236.46 57.6818 236.793 59.1307 237.457C60.5881 238.122 61.7216 239.047 62.5312 240.232C63.3409 241.416 63.7585 242.788 63.7841 244.348H58.4787ZM67.8654 236.818H74.6921L81.9023 254.409H82.2092L89.4194 236.818H96.2461V263H90.8768V245.959H90.6594L83.8839 262.872H80.2276L73.4521 245.895H73.2347V263H67.8654V236.818ZM100.807 263V236.818H118.449V241.382H106.342V247.621H117.541V252.185H106.342V258.436H118.5V263H100.807ZM131.182 263V236.818H148.824V241.382H136.717V247.621H147.916V252.185H136.717V258.436H148.875V263H131.182ZM153.123 263V243.364H158.313V246.828H158.543C158.952 245.678 159.634 244.77 160.588 244.105C161.543 243.44 162.685 243.108 164.015 243.108C165.361 243.108 166.507 243.445 167.453 244.118C168.4 244.783 169.03 245.686 169.346 246.828H169.55C169.951 245.703 170.675 244.804 171.723 244.131C172.78 243.449 174.029 243.108 175.469 243.108C177.301 243.108 178.789 243.692 179.931 244.859C181.081 246.018 181.657 247.663 181.657 249.794V263H176.223V250.868C176.223 249.777 175.934 248.959 175.354 248.413C174.775 247.868 174.05 247.595 173.181 247.595C172.192 247.595 171.421 247.911 170.867 248.541C170.313 249.163 170.036 249.986 170.036 251.009V263H164.756V250.753C164.756 249.79 164.479 249.023 163.925 248.452C163.38 247.881 162.659 247.595 161.765 247.595C161.159 247.595 160.614 247.749 160.128 248.055C159.651 248.354 159.272 248.776 158.99 249.321C158.709 249.858 158.569 250.489 158.569 251.213V263H153.123ZM185.958 270.364V243.364H191.328V246.662H191.571C191.809 246.134 192.154 245.597 192.606 245.051C193.066 244.497 193.663 244.037 194.396 243.67C195.137 243.295 196.058 243.108 197.157 243.108C198.589 243.108 199.91 243.483 201.12 244.233C202.331 244.974 203.298 246.095 204.022 247.595C204.747 249.087 205.109 250.957 205.109 253.207C205.109 255.398 204.755 257.247 204.048 258.756C203.349 260.256 202.395 261.393 201.184 262.169C199.983 262.936 198.636 263.32 197.145 263.32C196.088 263.32 195.189 263.145 194.447 262.795C193.714 262.446 193.113 262.007 192.645 261.479C192.176 260.942 191.818 260.401 191.571 259.855H191.404V270.364H185.958ZM191.289 253.182C191.289 254.349 191.451 255.368 191.775 256.237C192.099 257.107 192.568 257.784 193.181 258.27C193.795 258.747 194.541 258.986 195.419 258.986C196.305 258.986 197.055 258.743 197.669 258.257C198.282 257.763 198.747 257.081 199.062 256.212C199.386 255.334 199.548 254.324 199.548 253.182C199.548 252.048 199.39 251.051 199.075 250.19C198.76 249.33 198.295 248.656 197.681 248.17C197.068 247.685 196.314 247.442 195.419 247.442C194.532 247.442 193.782 247.676 193.169 248.145C192.564 248.614 192.099 249.278 191.775 250.139C191.451 251 191.289 252.014 191.289 253.182ZM217.612 263.384C215.626 263.384 213.909 262.962 212.46 262.118C211.02 261.266 209.907 260.081 209.123 258.564C208.339 257.038 207.947 255.27 207.947 253.259C207.947 251.23 208.339 249.457 209.123 247.94C209.907 246.415 211.02 245.23 212.46 244.386C213.909 243.534 215.626 243.108 217.612 243.108C219.598 243.108 221.311 243.534 222.751 244.386C224.2 245.23 225.316 246.415 226.1 247.94C226.885 249.457 227.277 251.23 227.277 253.259C227.277 255.27 226.885 257.038 226.1 258.564C225.316 260.081 224.2 261.266 222.751 262.118C221.311 262.962 219.598 263.384 217.612 263.384ZM217.637 259.165C218.541 259.165 219.295 258.909 219.9 258.398C220.505 257.878 220.961 257.17 221.268 256.276C221.583 255.381 221.741 254.362 221.741 253.22C221.741 252.078 221.583 251.06 221.268 250.165C220.961 249.27 220.505 248.562 219.9 248.043C219.295 247.523 218.541 247.263 217.637 247.263C216.725 247.263 215.958 247.523 215.336 248.043C214.723 248.562 214.258 249.27 213.943 250.165C213.636 251.06 213.483 252.078 213.483 253.22C213.483 254.362 213.636 255.381 213.943 256.276C214.258 257.17 214.723 257.878 215.336 258.398C215.958 258.909 216.725 259.165 217.637 259.165ZM234.199 263L228.855 243.364H234.365L237.408 256.557H237.587L240.757 243.364H246.165L249.387 256.48H249.553L252.544 243.364H258.042L252.711 263H246.945L243.57 250.651H243.327L239.952 263H234.199ZM269.403 263.384C267.384 263.384 265.645 262.974 264.188 262.156C262.739 261.33 261.622 260.162 260.838 258.653C260.054 257.136 259.662 255.342 259.662 253.271C259.662 251.251 260.054 249.479 260.838 247.953C261.622 246.428 262.726 245.239 264.149 244.386C265.581 243.534 267.26 243.108 269.186 243.108C270.482 243.108 271.688 243.317 272.804 243.734C273.929 244.143 274.909 244.761 275.744 245.588C276.588 246.415 277.244 247.455 277.713 248.707C278.182 249.952 278.416 251.409 278.416 253.08V254.575H261.835V251.2H273.29C273.29 250.416 273.119 249.722 272.778 249.116C272.438 248.511 271.964 248.038 271.359 247.697C270.763 247.348 270.068 247.173 269.276 247.173C268.449 247.173 267.716 247.365 267.077 247.749C266.446 248.124 265.952 248.631 265.594 249.27C265.236 249.901 265.053 250.604 265.044 251.379V254.588C265.044 255.56 265.223 256.399 265.581 257.107C265.947 257.814 266.463 258.359 267.128 258.743C267.793 259.126 268.581 259.318 269.493 259.318C270.098 259.318 270.652 259.233 271.155 259.062C271.658 258.892 272.088 258.636 272.446 258.295C272.804 257.955 273.077 257.537 273.264 257.043L278.301 257.375C278.045 258.585 277.521 259.642 276.729 260.545C275.945 261.44 274.93 262.139 273.686 262.642C272.45 263.136 271.023 263.384 269.403 263.384ZM281.97 263V243.364H287.25V246.79H287.455C287.813 245.571 288.413 244.651 289.257 244.028C290.101 243.398 291.072 243.082 292.172 243.082C292.445 243.082 292.739 243.099 293.054 243.134C293.369 243.168 293.646 243.214 293.885 243.274V248.107C293.629 248.03 293.276 247.962 292.824 247.902C292.372 247.842 291.959 247.812 291.584 247.812C290.783 247.812 290.067 247.987 289.436 248.337C288.814 248.678 288.32 249.155 287.953 249.768C287.595 250.382 287.416 251.089 287.416 251.891V263H281.97ZM296.701 263V243.364H301.891V246.828H302.121C302.53 245.678 303.212 244.77 304.167 244.105C305.121 243.44 306.263 243.108 307.593 243.108C308.939 243.108 310.086 243.445 311.032 244.118C311.978 244.783 312.608 245.686 312.924 246.828H313.128C313.529 245.703 314.253 244.804 315.301 244.131C316.358 243.449 317.607 243.108 319.047 243.108C320.88 243.108 322.367 243.692 323.509 244.859C324.659 246.018 325.235 247.663 325.235 249.794V263H319.801V250.868C319.801 249.777 319.512 248.959 318.932 248.413C318.353 247.868 317.628 247.595 316.759 247.595C315.77 247.595 314.999 247.911 314.445 248.541C313.891 249.163 313.614 249.986 313.614 251.009V263H308.334V250.753C308.334 249.79 308.057 249.023 307.503 248.452C306.958 247.881 306.238 247.595 305.343 247.595C304.738 247.595 304.192 247.749 303.706 248.055C303.229 248.354 302.85 248.776 302.569 249.321C302.287 249.858 302.147 250.489 302.147 251.213V263H296.701ZM338.485 263.384C336.466 263.384 334.727 262.974 333.27 262.156C331.821 261.33 330.704 260.162 329.92 258.653C329.136 257.136 328.744 255.342 328.744 253.271C328.744 251.251 329.136 249.479 329.92 247.953C330.704 246.428 331.808 245.239 333.231 244.386C334.663 243.534 336.342 243.108 338.268 243.108C339.564 243.108 340.77 243.317 341.886 243.734C343.011 244.143 343.991 244.761 344.826 245.588C345.67 246.415 346.326 247.455 346.795 248.707C347.264 249.952 347.498 251.409 347.498 253.08V254.575H330.917V251.2H342.372C342.372 250.416 342.201 249.722 341.86 249.116C341.52 248.511 341.047 248.038 340.441 247.697C339.845 247.348 339.15 247.173 338.358 247.173C337.531 247.173 336.798 247.365 336.159 247.749C335.528 248.124 335.034 248.631 334.676 249.27C334.318 249.901 334.135 250.604 334.126 251.379V254.588C334.126 255.56 334.305 256.399 334.663 257.107C335.029 257.814 335.545 258.359 336.21 258.743C336.875 259.126 337.663 259.318 338.575 259.318C339.18 259.318 339.734 259.233 340.237 259.062C340.74 258.892 341.17 258.636 341.528 258.295C341.886 257.955 342.159 257.537 342.346 257.043L347.383 257.375C347.127 258.585 346.603 259.642 345.811 260.545C345.027 261.44 344.012 262.139 342.768 262.642C341.532 263.136 340.105 263.384 338.485 263.384ZM356.498 251.648V263H351.052V243.364H356.243V246.828H356.473C356.907 245.686 357.636 244.783 358.659 244.118C359.681 243.445 360.922 243.108 362.379 243.108C363.743 243.108 364.931 243.406 365.946 244.003C366.96 244.599 367.748 245.452 368.311 246.56C368.873 247.659 369.154 248.972 369.154 250.497V263H363.708V251.469C363.717 250.267 363.41 249.33 362.788 248.656C362.166 247.974 361.309 247.634 360.218 247.634C359.485 247.634 358.838 247.791 358.275 248.107C357.721 248.422 357.287 248.882 356.971 249.487C356.664 250.084 356.507 250.804 356.498 251.648ZM383.891 243.364V247.455H372.066V243.364H383.891ZM374.751 238.659H380.197V256.966C380.197 257.469 380.273 257.861 380.427 258.142C380.58 258.415 380.793 258.607 381.066 258.717C381.347 258.828 381.671 258.884 382.038 258.884C382.293 258.884 382.549 258.862 382.805 258.82C383.06 258.768 383.256 258.73 383.393 258.705L384.249 262.757C383.977 262.842 383.593 262.94 383.099 263.051C382.604 263.17 382.004 263.243 381.296 263.268C379.984 263.32 378.833 263.145 377.844 262.744C376.864 262.344 376.102 261.722 375.556 260.878C375.011 260.034 374.742 258.969 374.751 257.682V238.659ZM395.873 263V236.818H413.208V241.382H401.409V247.621H412.058V252.185H401.409V263H395.873ZM428.191 254.639V243.364H433.637V263H428.409V259.433H428.204C427.761 260.584 427.024 261.509 425.993 262.207C424.97 262.906 423.721 263.256 422.247 263.256C420.934 263.256 419.779 262.957 418.782 262.361C417.785 261.764 417.005 260.916 416.443 259.817C415.889 258.717 415.608 257.401 415.599 255.866V243.364H421.045V254.895C421.054 256.054 421.365 256.97 421.978 257.643C422.592 258.317 423.414 258.653 424.446 258.653C425.102 258.653 425.716 258.504 426.287 258.206C426.858 257.899 427.318 257.447 427.667 256.851C428.025 256.254 428.2 255.517 428.191 254.639ZM443.44 251.648V263H437.994V243.364H443.184V246.828H443.414C443.849 245.686 444.577 244.783 445.6 244.118C446.623 243.445 447.863 243.108 449.32 243.108C450.684 243.108 451.873 243.406 452.887 244.003C453.901 244.599 454.69 245.452 455.252 246.56C455.815 247.659 456.096 248.972 456.096 250.497V263H450.65V251.469C450.658 250.267 450.352 249.33 449.729 248.656C449.107 247.974 448.251 247.634 447.16 247.634C446.427 247.634 445.779 247.791 445.217 248.107C444.663 248.422 444.228 248.882 443.913 249.487C443.606 250.084 443.448 250.804 443.44 251.648ZM467.624 263.32C466.132 263.32 464.782 262.936 463.571 262.169C462.37 261.393 461.415 260.256 460.708 258.756C460.009 257.247 459.659 255.398 459.659 253.207C459.659 250.957 460.022 249.087 460.746 247.595C461.471 246.095 462.434 244.974 463.635 244.233C464.846 243.483 466.171 243.108 467.611 243.108C468.711 243.108 469.627 243.295 470.36 243.67C471.101 244.037 471.698 244.497 472.15 245.051C472.61 245.597 472.959 246.134 473.198 246.662H473.364V236.818H478.797V263H473.428V259.855H473.198C472.942 260.401 472.58 260.942 472.111 261.479C471.651 262.007 471.05 262.446 470.309 262.795C469.576 263.145 468.681 263.32 467.624 263.32ZM469.35 258.986C470.228 258.986 470.969 258.747 471.574 258.27C472.188 257.784 472.657 257.107 472.98 256.237C473.313 255.368 473.479 254.349 473.479 253.182C473.479 252.014 473.317 251 472.993 250.139C472.669 249.278 472.201 248.614 471.587 248.145C470.973 247.676 470.228 247.442 469.35 247.442C468.455 247.442 467.701 247.685 467.087 248.17C466.473 248.656 466.009 249.33 465.694 250.19C465.378 251.051 465.221 252.048 465.221 253.182C465.221 254.324 465.378 255.334 465.694 256.212C466.017 257.081 466.482 257.763 467.087 258.257C467.701 258.743 468.455 258.986 469.35 258.986Z" fill="#2D995F"/>
<path d="M43.7614 298V283.455H48.6761C49.8125 283.455 50.7453 283.649 51.4744 284.037C52.2036 284.42 52.7434 284.948 53.0938 285.621C53.4441 286.293 53.6193 287.058 53.6193 287.915C53.6193 288.772 53.4441 289.532 53.0938 290.195C52.7434 290.857 52.206 291.378 51.4815 291.757C50.7571 292.131 49.8314 292.318 48.7045 292.318H44.7273V290.727H48.6477C49.4242 290.727 50.0492 290.614 50.5227 290.386C51.0009 290.159 51.3466 289.837 51.5597 289.42C51.7775 288.999 51.8864 288.497 51.8864 287.915C51.8864 287.332 51.7775 286.823 51.5597 286.388C51.3419 285.952 50.9938 285.616 50.5156 285.379C50.0374 285.138 49.4053 285.017 48.6193 285.017H45.5227V298H43.7614ZM50.608 291.466L54.1875 298H52.142L48.6193 291.466H50.608ZM60.7837 298.227C59.7326 298.227 58.8259 297.995 58.0636 297.531C57.306 297.062 56.7212 296.409 56.3093 295.571C55.9021 294.728 55.6985 293.748 55.6985 292.631C55.6985 291.513 55.9021 290.528 56.3093 289.676C56.7212 288.819 57.2942 288.152 58.0281 287.673C58.7667 287.19 59.6284 286.949 60.6133 286.949C61.1815 286.949 61.7425 287.044 62.2965 287.233C62.8505 287.422 63.3548 287.73 63.8093 288.156C64.2638 288.578 64.6261 289.136 64.896 289.832C65.1658 290.528 65.3008 291.385 65.3008 292.403V293.114H56.8917V291.665H63.5962C63.5962 291.049 63.4731 290.5 63.2269 290.017C62.9854 289.534 62.6398 289.153 62.19 288.874C61.7449 288.594 61.2193 288.455 60.6133 288.455C59.9457 288.455 59.368 288.62 58.8803 288.952C58.3974 289.278 58.0257 289.705 57.7653 290.23C57.5049 290.756 57.3746 291.319 57.3746 291.92V292.886C57.3746 293.71 57.5167 294.409 57.8008 294.982C58.0896 295.55 58.4897 295.983 59.0011 296.281C59.5124 296.575 60.1067 296.722 60.7837 296.722C61.2241 296.722 61.6218 296.66 61.9769 296.537C62.3368 296.409 62.6469 296.22 62.9073 295.969C63.1677 295.713 63.369 295.396 63.511 295.017L65.1303 295.472C64.9599 296.021 64.6734 296.504 64.271 296.92C63.8685 297.332 63.3713 297.654 62.7795 297.886C62.1876 298.114 61.5224 298.227 60.7837 298.227ZM67.8505 302.091V287.091H69.4698V288.824H69.6687C69.7918 288.634 69.9622 288.393 70.18 288.099C70.4026 287.801 70.7198 287.536 71.1317 287.304C71.5484 287.067 72.1119 286.949 72.8221 286.949C73.7406 286.949 74.5503 287.179 75.2511 287.638C75.9518 288.097 76.4987 288.748 76.8917 289.591C77.2847 290.434 77.4812 291.428 77.4812 292.574C77.4812 293.729 77.2847 294.731 76.8917 295.578C76.4987 296.421 75.9542 297.074 75.2582 297.538C74.5621 297.998 73.7596 298.227 72.8505 298.227C72.1497 298.227 71.5887 298.111 71.1673 297.879C70.7459 297.643 70.4215 297.375 70.1942 297.077C69.967 296.774 69.7918 296.523 69.6687 296.324H69.5266V302.091H67.8505ZM69.4982 292.545C69.4982 293.369 69.619 294.096 69.8604 294.726C70.1019 295.351 70.4547 295.841 70.9187 296.196C71.3827 296.546 71.9509 296.722 72.6232 296.722C73.324 296.722 73.9087 296.537 74.3775 296.168C74.851 295.794 75.2061 295.292 75.4428 294.662C75.6843 294.027 75.805 293.322 75.805 292.545C75.805 291.778 75.6867 291.087 75.4499 290.472C75.2179 289.851 74.8652 289.361 74.3917 289.001C73.9229 288.637 73.3335 288.455 72.6232 288.455C71.9414 288.455 71.3685 288.627 70.9045 288.973C70.4405 289.314 70.0901 289.792 69.8533 290.408C69.6166 291.018 69.4982 291.731 69.4982 292.545ZM83.2482 298.256C82.5569 298.256 81.9296 298.125 81.3661 297.865C80.8027 297.6 80.3552 297.219 80.0238 296.722C79.6924 296.22 79.5266 295.614 79.5266 294.903C79.5266 294.278 79.6497 293.772 79.896 293.384C80.1422 292.991 80.4712 292.683 80.8832 292.46C81.2951 292.238 81.7496 292.072 82.2468 291.963C82.7487 291.849 83.253 291.759 83.7596 291.693C84.4225 291.608 84.9599 291.544 85.3718 291.501C85.7885 291.454 86.0915 291.376 86.2809 291.267C86.475 291.158 86.5721 290.969 86.5721 290.699V290.642C86.5721 289.941 86.3803 289.397 85.9968 289.009C85.618 288.62 85.0427 288.426 84.271 288.426C83.4708 288.426 82.8434 288.601 82.3888 288.952C81.9343 289.302 81.6147 289.676 81.43 290.074L79.8391 289.506C80.1232 288.843 80.502 288.327 80.9755 287.957C81.4537 287.583 81.9746 287.323 82.538 287.176C83.1062 287.025 83.6649 286.949 84.2141 286.949C84.5645 286.949 84.967 286.991 85.4215 287.077C85.8808 287.157 86.3235 287.325 86.7496 287.581C87.1805 287.837 87.538 288.223 87.8221 288.739C88.1062 289.255 88.2482 289.946 88.2482 290.812V298H86.5721V296.523H86.4869C86.3732 296.759 86.1838 297.013 85.9187 297.283C85.6535 297.553 85.3008 297.782 84.8604 297.972C84.4201 298.161 83.8827 298.256 83.2482 298.256ZM83.5039 296.75C84.1668 296.75 84.7255 296.62 85.18 296.359C85.6393 296.099 85.985 295.763 86.217 295.351C86.4537 294.939 86.5721 294.506 86.5721 294.051V292.517C86.5011 292.602 86.3448 292.68 86.1033 292.751C85.8666 292.818 85.592 292.877 85.2795 292.929C84.9717 292.976 84.671 293.019 84.3775 293.057C84.0887 293.09 83.8543 293.118 83.6744 293.142C83.2388 293.199 82.8316 293.291 82.4528 293.419C82.0787 293.542 81.7757 293.729 81.5437 293.98C81.3164 294.226 81.2028 294.562 81.2028 294.989C81.2028 295.571 81.4182 296.011 81.8491 296.31C82.2847 296.603 82.8363 296.75 83.5039 296.75ZM91.9964 302.091C91.7124 302.091 91.459 302.067 91.2365 302.02C91.014 301.977 90.8601 301.935 90.7749 301.892L91.201 300.415C91.6082 300.519 91.968 300.557 92.2805 300.528C92.593 300.5 92.87 300.36 93.1115 300.109C93.3577 299.863 93.5826 299.463 93.7862 298.909L94.0987 298.057L90.0646 287.091H91.8828L94.8942 295.784H95.0078L98.0192 287.091H99.8374L95.2067 299.591C94.9983 300.154 94.7403 300.621 94.4325 300.99C94.1248 301.364 93.7673 301.641 93.3601 301.821C92.9576 302.001 92.5031 302.091 91.9964 302.091ZM110.146 298L106.822 287.091H108.584L110.942 295.443H111.055L113.385 287.091H115.175L117.476 295.415H117.589L119.947 287.091H121.709L118.385 298H116.737L114.351 289.619H114.18L111.794 298H110.146ZM123.925 298V287.091H125.601V298H123.925ZM124.777 285.273C124.45 285.273 124.169 285.161 123.932 284.939C123.7 284.716 123.584 284.449 123.584 284.136C123.584 283.824 123.7 283.556 123.932 283.334C124.169 283.111 124.45 283 124.777 283C125.104 283 125.383 283.111 125.615 283.334C125.852 283.556 125.97 283.824 125.97 284.136C125.97 284.449 125.852 284.716 125.615 284.939C125.383 285.161 125.104 285.273 124.777 285.273ZM133.415 287.091V288.511H127.762V287.091H133.415ZM129.409 284.477H131.086V294.875C131.086 295.348 131.154 295.704 131.292 295.94C131.434 296.172 131.614 296.329 131.831 296.409C132.054 296.485 132.288 296.523 132.534 296.523C132.719 296.523 132.871 296.513 132.989 296.494C133.107 296.471 133.202 296.452 133.273 296.438L133.614 297.943C133.5 297.986 133.342 298.028 133.138 298.071C132.935 298.118 132.676 298.142 132.364 298.142C131.891 298.142 131.426 298.04 130.972 297.837C130.522 297.633 130.148 297.323 129.85 296.906C129.556 296.49 129.409 295.964 129.409 295.33V284.477ZM137.847 291.438V298H136.171V283.455H137.847V288.795H137.989C138.245 288.232 138.628 287.785 139.14 287.453C139.656 287.117 140.342 286.949 141.199 286.949C141.943 286.949 142.594 287.098 143.152 287.396C143.711 287.69 144.144 288.142 144.452 288.753C144.765 289.359 144.921 290.131 144.921 291.068V298H143.245V291.182C143.245 290.315 143.02 289.645 142.57 289.172C142.125 288.694 141.507 288.455 140.716 288.455C140.167 288.455 139.675 288.571 139.239 288.803C138.808 289.035 138.467 289.373 138.216 289.818C137.97 290.263 137.847 290.803 137.847 291.438ZM153.3 298V296.722L159.493 288.767V288.653H153.499V287.091H161.652V288.426L155.629 296.324V296.438H161.851V298H153.3ZM168.694 298.227C167.643 298.227 166.736 297.995 165.974 297.531C165.216 297.062 164.631 296.409 164.219 295.571C163.812 294.728 163.609 293.748 163.609 292.631C163.609 291.513 163.812 290.528 164.219 289.676C164.631 288.819 165.204 288.152 165.938 287.673C166.677 287.19 167.539 286.949 168.523 286.949C169.092 286.949 169.653 287.044 170.207 287.233C170.761 287.422 171.265 287.73 171.719 288.156C172.174 288.578 172.536 289.136 172.806 289.832C173.076 290.528 173.211 291.385 173.211 292.403V293.114H164.802V291.665H171.506C171.506 291.049 171.383 290.5 171.137 290.017C170.896 289.534 170.55 289.153 170.1 288.874C169.655 288.594 169.129 288.455 168.523 288.455C167.856 288.455 167.278 288.62 166.79 288.952C166.308 289.278 165.936 289.705 165.675 290.23C165.415 290.756 165.285 291.319 165.285 291.92V292.886C165.285 293.71 165.427 294.409 165.711 294.982C166 295.55 166.4 295.983 166.911 296.281C167.423 296.575 168.017 296.722 168.694 296.722C169.134 296.722 169.532 296.66 169.887 296.537C170.247 296.409 170.557 296.22 170.817 295.969C171.078 295.713 171.279 295.396 171.421 295.017L173.04 295.472C172.87 296.021 172.584 296.504 172.181 296.92C171.779 297.332 171.281 297.654 170.69 297.886C170.098 298.114 169.433 298.227 168.694 298.227ZM175.761 298V287.091H177.38V288.739H177.494C177.692 288.199 178.052 287.761 178.573 287.425C179.094 287.089 179.681 286.92 180.335 286.92C180.458 286.92 180.612 286.923 180.796 286.928C180.981 286.932 181.121 286.939 181.215 286.949V288.653C181.158 288.639 181.028 288.618 180.825 288.589C180.626 288.556 180.415 288.54 180.192 288.54C179.662 288.54 179.189 288.651 178.772 288.874C178.36 289.091 178.033 289.394 177.792 289.783C177.555 290.166 177.437 290.604 177.437 291.097V298H175.761ZM187.302 298.227C186.317 298.227 185.453 297.993 184.71 297.524C183.971 297.055 183.393 296.4 182.977 295.557C182.565 294.714 182.359 293.729 182.359 292.602C182.359 291.466 182.565 290.474 182.977 289.626C183.393 288.779 183.971 288.121 184.71 287.652C185.453 287.183 186.317 286.949 187.302 286.949C188.287 286.949 189.148 287.183 189.887 287.652C190.63 288.121 191.208 288.779 191.62 289.626C192.037 290.474 192.245 291.466 192.245 292.602C192.245 293.729 192.037 294.714 191.62 295.557C191.208 296.4 190.63 297.055 189.887 297.524C189.148 297.993 188.287 298.227 187.302 298.227ZM187.302 296.722C188.05 296.722 188.665 296.53 189.148 296.146C189.631 295.763 189.989 295.259 190.221 294.634C190.453 294.009 190.569 293.331 190.569 292.602C190.569 291.873 190.453 291.194 190.221 290.564C189.989 289.934 189.631 289.425 189.148 289.037C188.665 288.649 188.05 288.455 187.302 288.455C186.554 288.455 185.938 288.649 185.455 289.037C184.972 289.425 184.615 289.934 184.383 290.564C184.151 291.194 184.035 291.873 184.035 292.602C184.035 293.331 184.151 294.009 184.383 294.634C184.615 295.259 184.972 295.763 185.455 296.146C185.938 296.53 186.554 296.722 187.302 296.722ZM200.429 298V287.091H202.105V298H200.429ZM201.281 285.273C200.954 285.273 200.672 285.161 200.436 284.939C200.204 284.716 200.088 284.449 200.088 284.136C200.088 283.824 200.204 283.556 200.436 283.334C200.672 283.111 200.954 283 201.281 283C201.608 283 201.887 283.111 202.119 283.334C202.356 283.556 202.474 283.824 202.474 284.136C202.474 284.449 202.356 284.716 202.119 284.939C201.887 285.161 201.608 285.273 201.281 285.273ZM206.851 291.438V298H205.175V287.091H206.794V288.795H206.936C207.192 288.241 207.58 287.796 208.101 287.46C208.622 287.119 209.294 286.949 210.118 286.949C210.857 286.949 211.503 287.1 212.057 287.403C212.611 287.702 213.042 288.156 213.349 288.767C213.657 289.373 213.811 290.14 213.811 291.068V298H212.135V291.182C212.135 290.325 211.912 289.657 211.467 289.179C211.022 288.696 210.411 288.455 209.635 288.455C209.1 288.455 208.622 288.571 208.2 288.803C207.784 289.035 207.455 289.373 207.213 289.818C206.972 290.263 206.851 290.803 206.851 291.438ZM221.618 287.091V288.511H215.965V287.091H221.618ZM217.613 284.477H219.289V294.875C219.289 295.348 219.357 295.704 219.495 295.94C219.637 296.172 219.817 296.329 220.034 296.409C220.257 296.485 220.491 296.523 220.738 296.523C220.922 296.523 221.074 296.513 221.192 296.494C221.31 296.471 221.405 296.452 221.476 296.438L221.817 297.943C221.703 297.986 221.545 298.028 221.341 298.071C221.138 298.118 220.88 298.142 220.567 298.142C220.094 298.142 219.63 298.04 219.175 297.837C218.725 297.633 218.351 297.323 218.053 296.906C217.759 296.49 217.613 295.964 217.613 295.33V284.477ZM228.596 298.227C227.545 298.227 226.638 297.995 225.876 297.531C225.118 297.062 224.534 296.409 224.122 295.571C223.715 294.728 223.511 293.748 223.511 292.631C223.511 291.513 223.715 290.528 224.122 289.676C224.534 288.819 225.107 288.152 225.841 287.673C226.579 287.19 227.441 286.949 228.426 286.949C228.994 286.949 229.555 287.044 230.109 287.233C230.663 287.422 231.167 287.73 231.622 288.156C232.076 288.578 232.439 289.136 232.708 289.832C232.978 290.528 233.113 291.385 233.113 292.403V293.114H224.704V291.665H231.409C231.409 291.049 231.286 290.5 231.039 290.017C230.798 289.534 230.452 289.153 230.002 288.874C229.557 288.594 229.032 288.455 228.426 288.455C227.758 288.455 227.181 288.62 226.693 288.952C226.21 289.278 225.838 289.705 225.578 290.23C225.317 290.756 225.187 291.319 225.187 291.92V292.886C225.187 293.71 225.329 294.409 225.613 294.982C225.902 295.55 226.302 295.983 226.814 296.281C227.325 296.575 227.919 296.722 228.596 296.722C229.037 296.722 229.434 296.66 229.789 296.537C230.149 296.409 230.459 296.22 230.72 295.969C230.98 295.713 231.181 295.396 231.324 295.017L232.943 295.472C232.772 296.021 232.486 296.504 232.083 296.92C231.681 297.332 231.184 297.654 230.592 297.886C230 298.114 229.335 298.227 228.596 298.227ZM235.663 298V287.091H237.282V288.739H237.396C237.595 288.199 237.955 287.761 238.475 287.425C238.996 287.089 239.583 286.92 240.237 286.92C240.36 286.92 240.514 286.923 240.699 286.928C240.883 286.932 241.023 286.939 241.118 286.949V288.653C241.061 288.639 240.931 288.618 240.727 288.589C240.528 288.556 240.317 288.54 240.095 288.54C239.565 288.54 239.091 288.651 238.674 288.874C238.262 289.091 237.936 289.394 237.694 289.783C237.458 290.166 237.339 290.604 237.339 291.097V298H235.663ZM247.346 298.227C246.295 298.227 245.388 297.995 244.626 297.531C243.868 297.062 243.284 296.409 242.872 295.571C242.465 294.728 242.261 293.748 242.261 292.631C242.261 291.513 242.465 290.528 242.872 289.676C243.284 288.819 243.857 288.152 244.591 287.673C245.329 287.19 246.191 286.949 247.176 286.949C247.744 286.949 248.305 287.044 248.859 287.233C249.413 287.422 249.917 287.73 250.372 288.156C250.826 288.578 251.189 289.136 251.458 289.832C251.728 290.528 251.863 291.385 251.863 292.403V293.114H243.454V291.665H250.159C250.159 291.049 250.036 290.5 249.789 290.017C249.548 289.534 249.202 289.153 248.752 288.874C248.307 288.594 247.782 288.455 247.176 288.455C246.508 288.455 245.931 288.62 245.443 288.952C244.96 289.278 244.588 289.705 244.328 290.23C244.067 290.756 243.937 291.319 243.937 291.92V292.886C243.937 293.71 244.079 294.409 244.363 294.982C244.652 295.55 245.052 295.983 245.564 296.281C246.075 296.575 246.669 296.722 247.346 296.722C247.787 296.722 248.184 296.66 248.539 296.537C248.899 296.409 249.209 296.22 249.47 295.969C249.73 295.713 249.931 295.396 250.074 295.017L251.693 295.472C251.522 296.021 251.236 296.504 250.833 296.92C250.431 297.332 249.934 297.654 249.342 297.886C248.75 298.114 248.085 298.227 247.346 298.227ZM262.14 289.534L260.635 289.96C260.54 289.709 260.4 289.465 260.216 289.229C260.036 288.987 259.789 288.788 259.477 288.632C259.164 288.476 258.764 288.398 258.277 288.398C257.609 288.398 257.053 288.552 256.608 288.859C256.167 289.162 255.947 289.548 255.947 290.017C255.947 290.434 256.099 290.763 256.402 291.004C256.705 291.246 257.178 291.447 257.822 291.608L259.441 292.006C260.417 292.242 261.144 292.605 261.622 293.092C262.1 293.575 262.339 294.198 262.339 294.96C262.339 295.585 262.159 296.144 261.799 296.636C261.444 297.129 260.947 297.517 260.308 297.801C259.669 298.085 258.925 298.227 258.078 298.227C256.965 298.227 256.044 297.986 255.315 297.503C254.586 297.02 254.124 296.314 253.93 295.386L255.521 294.989C255.672 295.576 255.959 296.016 256.38 296.31C256.806 296.603 257.363 296.75 258.049 296.75C258.831 296.75 259.451 296.584 259.91 296.253C260.374 295.917 260.606 295.514 260.606 295.045C260.606 294.667 260.474 294.349 260.208 294.094C259.943 293.833 259.536 293.639 258.987 293.511L257.169 293.085C256.17 292.848 255.436 292.482 254.967 291.984C254.503 291.482 254.271 290.855 254.271 290.102C254.271 289.487 254.444 288.942 254.789 288.469C255.14 287.995 255.616 287.624 256.217 287.354C256.823 287.084 257.51 286.949 258.277 286.949C259.356 286.949 260.204 287.186 260.819 287.659C261.44 288.133 261.88 288.758 262.14 289.534ZM269.607 287.091V288.511H263.953V287.091H269.607ZM265.601 284.477H267.277V294.875C267.277 295.348 267.346 295.704 267.483 295.94C267.625 296.172 267.805 296.329 268.023 296.409C268.245 296.485 268.48 296.523 268.726 296.523C268.911 296.523 269.062 296.513 269.18 296.494C269.299 296.471 269.393 296.452 269.464 296.438L269.805 297.943C269.692 297.986 269.533 298.028 269.33 298.071C269.126 298.118 268.868 298.142 268.555 298.142C268.082 298.142 267.618 298.04 267.163 297.837C266.714 297.633 266.339 297.323 266.041 296.906C265.748 296.49 265.601 295.964 265.601 295.33V284.477ZM277.753 298V287.091H279.372V288.739H279.486C279.685 288.199 280.045 287.761 280.565 287.425C281.086 287.089 281.673 286.92 282.327 286.92C282.45 286.92 282.604 286.923 282.788 286.928C282.973 286.932 283.113 286.939 283.207 286.949V288.653C283.151 288.639 283.02 288.618 282.817 288.589C282.618 288.556 282.407 288.54 282.185 288.54C281.654 288.54 281.181 288.651 280.764 288.874C280.352 289.091 280.026 289.394 279.784 289.783C279.547 290.166 279.429 290.604 279.429 291.097V298H277.753ZM288.404 298.256C287.713 298.256 287.086 298.125 286.522 297.865C285.959 297.6 285.511 297.219 285.18 296.722C284.849 296.22 284.683 295.614 284.683 294.903C284.683 294.278 284.806 293.772 285.052 293.384C285.298 292.991 285.627 292.683 286.039 292.46C286.451 292.238 286.906 292.072 287.403 291.963C287.905 291.849 288.409 291.759 288.916 291.693C289.579 291.608 290.116 291.544 290.528 291.501C290.945 291.454 291.248 291.376 291.437 291.267C291.631 291.158 291.728 290.969 291.728 290.699V290.642C291.728 289.941 291.537 289.397 291.153 289.009C290.774 288.62 290.199 288.426 289.427 288.426C288.627 288.426 288 288.601 287.545 288.952C287.091 289.302 286.771 289.676 286.586 290.074L284.995 289.506C285.279 288.843 285.658 288.327 286.132 287.957C286.61 287.583 287.131 287.323 287.694 287.176C288.262 287.025 288.821 286.949 289.37 286.949C289.721 286.949 290.123 286.991 290.578 287.077C291.037 287.157 291.48 287.325 291.906 287.581C292.337 287.837 292.694 288.223 292.978 288.739C293.262 289.255 293.404 289.946 293.404 290.812V298H291.728V296.523H291.643C291.529 296.759 291.34 297.013 291.075 297.283C290.81 297.553 290.457 297.782 290.017 297.972C289.576 298.161 289.039 298.256 288.404 298.256ZM288.66 296.75C289.323 296.75 289.882 296.62 290.336 296.359C290.796 296.099 291.141 295.763 291.373 295.351C291.61 294.939 291.728 294.506 291.728 294.051V292.517C291.657 292.602 291.501 292.68 291.26 292.751C291.023 292.818 290.748 292.877 290.436 292.929C290.128 292.976 289.827 293.019 289.534 293.057C289.245 293.09 289.011 293.118 288.831 293.142C288.395 293.199 287.988 293.291 287.609 293.419C287.235 293.542 286.932 293.729 286.7 293.98C286.473 294.226 286.359 294.562 286.359 294.989C286.359 295.571 286.574 296.011 287.005 296.31C287.441 296.603 287.993 296.75 288.66 296.75ZM301.208 287.091V288.511H295.555V287.091H301.208ZM297.202 284.477H298.879V294.875C298.879 295.348 298.947 295.704 299.085 295.94C299.227 296.172 299.406 296.329 299.624 296.409C299.847 296.485 300.081 296.523 300.327 296.523C300.512 296.523 300.664 296.513 300.782 296.494C300.9 296.471 300.995 296.452 301.066 296.438L301.407 297.943C301.293 297.986 301.135 298.028 300.931 298.071C300.728 298.118 300.469 298.142 300.157 298.142C299.683 298.142 299.219 298.04 298.765 297.837C298.315 297.633 297.941 297.323 297.643 296.906C297.349 296.49 297.202 295.964 297.202 295.33V284.477ZM308.186 298.227C307.135 298.227 306.228 297.995 305.466 297.531C304.708 297.062 304.124 296.409 303.712 295.571C303.304 294.728 303.101 293.748 303.101 292.631C303.101 291.513 303.304 290.528 303.712 289.676C304.124 288.819 304.696 288.152 305.43 287.673C306.169 287.19 307.031 286.949 308.016 286.949C308.584 286.949 309.145 287.044 309.699 287.233C310.253 287.422 310.757 287.73 311.212 288.156C311.666 288.578 312.028 289.136 312.298 289.832C312.568 290.528 312.703 291.385 312.703 292.403V293.114H304.294V291.665H310.999C310.999 291.049 310.875 290.5 310.629 290.017C310.388 289.534 310.042 289.153 309.592 288.874C309.147 288.594 308.622 288.455 308.016 288.455C307.348 288.455 306.77 288.62 306.283 288.952C305.8 289.278 305.428 289.705 305.168 290.23C304.907 290.756 304.777 291.319 304.777 291.92V292.886C304.777 293.71 304.919 294.409 305.203 294.982C305.492 295.55 305.892 295.983 306.403 296.281C306.915 296.575 307.509 296.722 308.186 296.722C308.626 296.722 309.024 296.66 309.379 296.537C309.739 296.409 310.049 296.22 310.31 295.969C310.57 295.713 310.771 295.396 310.913 295.017L312.533 295.472C312.362 296.021 312.076 296.504 311.673 296.92C311.271 297.332 310.774 297.654 310.182 297.886C309.59 298.114 308.925 298.227 308.186 298.227Z" fill="#343A40"/>
<g clip-path="url(#clip0_4001_469)">
<path d="M740.899 279.001C774.532 279.001 801.797 276.916 801.797 274.344C801.797 271.772 774.532 269.688 740.899 269.688C707.265 269.688 680 271.772 680 274.344C680 276.916 707.265 279.001 740.899 279.001Z" fill="#E6E6E6"/>
<path d="M760.623 70.0877L736.327 63.4448C742.815 57.3074 745.637 51.5257 744.794 46.0996H760.623V70.0877Z" fill="#9F616A"/>
<path d="M763.199 256.826L755.352 257.933L745.898 170.838L730.805 257.564L722.707 257.933V147.957H772.77L763.199 256.826Z" fill="#2F2E41"/>
<path d="M726.783 274.383C728.014 274.418 729.223 274.039 730.215 273.306C731.207 272.573 731.926 271.529 732.257 270.339L732.83 261.763L731.675 255.681C728.626 253.169 725.544 253.221 722.43 255.681L721.437 268.42C721.379 269.168 721.473 269.919 721.713 270.629C721.953 271.339 722.335 271.993 722.835 272.55C723.335 273.108 723.943 273.558 724.621 273.873C725.3 274.188 726.035 274.361 726.783 274.383Z" fill="#2F2E41"/>
<path d="M759.176 274.383C760.408 274.418 761.616 274.039 762.608 273.306C763.601 272.573 764.319 271.529 764.651 270.339L765.224 261.763L764.068 255.681C761.02 253.169 757.937 253.221 754.824 255.681L753.831 268.42C753.773 269.168 753.867 269.919 754.107 270.629C754.347 271.339 754.729 271.993 755.229 272.55C755.729 273.108 756.336 273.558 757.015 273.873C757.694 274.188 758.429 274.361 759.176 274.383Z" fill="#2F2E41"/>
<path d="M757.31 57.5398C765.035 57.5398 771.298 51.2611 771.298 43.516C771.298 35.7709 765.035 29.4922 757.31 29.4922C749.584 29.4922 743.321 35.7709 743.321 43.516C743.321 51.2611 749.584 57.5398 757.31 57.5398Z" fill="#9F616A"/>
<path d="M774.979 149.801H721.603C728.521 117.658 728.501 91.7703 722.991 70.8339C722.64 69.501 722.792 68.0851 723.418 66.8578C724.045 65.6305 725.101 64.6782 726.384 64.1836L740.744 58.6465C745.056 64.2282 751.139 66.6662 760.623 63.075L768.148 64.6226C769.98 64.9971 771.615 66.0246 772.749 67.5149C773.884 69.0052 774.441 70.8572 774.318 72.7279C773.765 80.9161 773.983 89.1669 773.506 96.2893C772.031 118.345 771.394 135.54 774.979 149.801Z" fill="#E6E6E6"/>
<path d="M749.947 25.0637C749.947 25.0637 758.046 15.8375 767.617 24.6946L770.193 25.4327L768.353 26.9089C768.353 26.9089 777.924 31.3375 777.188 40.5637C777.188 40.5637 775.715 40.1946 774.979 40.5637C774.243 40.9327 773.875 44.9922 773.875 44.9922C773.875 44.9922 772.77 42.0399 772.402 41.6708C772.034 41.3018 766.88 45.7303 758.414 39.0875C758.414 39.0875 755.837 45.7303 752.892 44.9922C749.947 44.2541 745.898 44.6232 744.058 49.4208C744.058 49.4208 734.119 28.016 749.947 25.0637Z" fill="#2F2E41"/>
<path d="M777.556 141.682L772.83 148.032C772.338 148.693 771.982 149.446 771.783 150.246C771.584 151.047 771.545 151.879 771.67 152.695C771.794 153.51 772.079 154.293 772.509 154.997C772.938 155.701 773.502 156.313 774.169 156.796C775.028 157.419 776.032 157.81 777.085 157.934C778.137 158.057 779.204 157.908 780.183 157.501C781.162 157.094 782.021 156.442 782.677 155.608C783.334 154.774 783.767 153.785 783.934 152.736L785.286 144.265L787.863 107.73L786.022 89.2773L774.243 93.7059L777.556 109.575V141.682Z" fill="#9F616A"/>
<path d="M772.77 98.1361L787.127 91.4932L786.39 86.2644C786.39 81.9355 785.085 77.7076 782.645 74.1359C780.205 70.5641 776.746 67.8153 772.72 66.2503L768.353 64.5527L772.77 98.1361Z" fill="#E6E6E6"/>
<path d="M720.498 140.207L725.224 146.557C725.716 147.218 726.072 147.971 726.271 148.772C726.471 149.572 726.509 150.405 726.384 151.22C726.26 152.036 725.975 152.818 725.546 153.523C725.116 154.227 724.552 154.838 723.885 155.322C723.026 155.944 722.022 156.336 720.97 156.459C719.917 156.582 718.85 156.433 717.871 156.026C716.892 155.619 716.033 154.968 715.377 154.133C714.72 153.299 714.287 152.311 714.12 151.261L712.768 142.791L710.191 106.255L712.032 87.8027L723.811 92.2313L720.498 108.1V140.207Z" fill="#9F616A"/>
<path d="M725.284 96.6595L710.927 90.0166L711.664 84.7879C711.664 80.4589 712.969 76.2311 715.409 72.6593C717.849 69.0875 721.309 66.3387 725.334 64.7737L729.701 63.0762L725.284 96.6595Z" fill="#E6E6E6"/>
<rect x="852" y="123" width="253" height="115" rx="4" fill="white"/>
<path d="M1101.13 237.867H855.471C854.444 237.866 853.46 237.457 852.735 236.729C852.009 236.002 851.601 235.015 851.6 233.987V126.884C851.601 125.856 852.009 124.869 852.735 124.142C853.46 123.414 854.444 123.005 855.471 123.004H1101.13C1102.16 123.005 1103.14 123.414 1103.87 124.142C1104.59 124.869 1105 125.856 1105 126.884V233.987C1105 235.015 1104.59 236.002 1103.87 236.729C1103.14 237.457 1102.16 237.866 1101.13 237.867ZM855.471 124.556C854.855 124.557 854.265 124.802 853.829 125.239C853.394 125.675 853.149 126.267 853.148 126.884V233.987C853.149 234.604 853.394 235.196 853.829 235.632C854.265 236.069 854.855 236.314 855.471 236.315H1101.13C1101.75 236.314 1102.34 236.069 1102.77 235.632C1103.21 235.196 1103.45 234.604 1103.45 233.987V126.884C1103.45 126.267 1103.21 125.675 1102.77 125.239C1102.34 124.802 1101.75 124.557 1101.13 124.556H855.471Z" fill="#E6E6E6"/>
<path d="M865.534 136.197C864.918 136.197 864.328 136.443 863.892 136.879C863.457 137.316 863.212 137.908 863.212 138.526C863.212 139.143 863.457 139.735 863.892 140.172C864.328 140.609 864.918 140.854 865.534 140.854H898.048C898.664 140.854 899.255 140.609 899.69 140.172C900.126 139.735 900.37 139.143 900.37 138.526C900.37 137.908 900.126 137.316 899.69 136.879C899.255 136.443 898.664 136.197 898.048 136.197H865.534Z" fill="#E6E6E6"/>
<path d="M1088.12 152.39V195.567H868.868V172.834C870.386 171.856 871.914 170.883 873.455 169.943C880.037 165.904 887.082 162.128 894.761 160.728C898.392 160.049 902.113 160.003 905.76 160.59C909.613 161.228 913.301 162.559 916.952 163.895C920.553 165.216 924.162 166.579 927.928 167.345C931.598 168.068 935.365 168.142 939.06 167.566C946.11 166.506 952.734 163.665 959.33 161.095C965.967 158.512 972.806 156.07 979.989 155.749C987.08 155.428 994.084 157.108 1000.81 159.191C1014.53 163.436 1028.54 169.732 1043.07 165.413C1057.82 161.036 1071.39 148.398 1087.73 152.147C1087.89 152.176 1088.03 152.263 1088.12 152.39Z" fill="#E6E6E6"/>
<path d="M1088.12 153.143C1088.05 153.274 1087.94 153.379 1087.8 153.438C1087.66 153.498 1087.51 153.511 1087.37 153.473C1085.42 153.025 1083.43 152.819 1081.43 152.858C1065.35 153.143 1052.98 166.12 1037.26 168.061C1023.09 169.81 1009.74 162.899 996.413 159.287C989.488 157.41 982.348 156.415 975.221 157.69C968.149 158.952 961.512 161.852 954.847 164.427C948.43 166.905 941.761 169.208 934.813 169.323C927.173 169.452 920.294 166.295 913.208 163.89C909.523 162.637 905.742 161.646 901.838 161.55C898.033 161.504 894.246 162.092 890.633 163.289C883.103 165.689 876.32 169.966 869.715 174.215C869.602 174.295 869.464 174.332 869.326 174.321C869.183 174.301 869.05 174.239 868.943 174.142C868.837 174.045 868.762 173.918 868.729 173.778C868.697 173.638 868.707 173.49 868.76 173.356C868.812 173.222 868.904 173.107 869.024 173.026L869.326 172.834C870.841 171.856 872.365 170.883 873.903 169.943C880.471 165.904 887.502 162.128 895.164 160.728C898.788 160.049 902.501 160.003 906.141 160.59C909.986 161.228 913.666 162.559 917.309 163.895C920.902 165.216 924.505 166.579 928.263 167.345C931.924 168.068 935.684 168.142 939.372 167.566C946.407 166.506 953.016 163.665 959.599 161.095C966.222 158.512 973.047 156.07 980.215 155.749C987.291 155.428 994.28 157.108 1001 159.191C1014.69 163.436 1028.66 169.732 1043.16 165.413C1057.88 161.036 1071.42 148.398 1087.73 152.147C1087.89 152.176 1088.03 152.263 1088.12 152.39C1088.19 152.503 1088.23 152.633 1088.23 152.766C1088.23 152.9 1088.19 153.03 1088.12 153.143Z" fill="#2D995F"/>
<path d="M899.078 164.362C900.848 164.362 902.282 162.924 902.282 161.15C902.282 159.376 900.848 157.938 899.078 157.938C897.308 157.938 895.874 159.376 895.874 161.15C895.874 162.924 897.308 164.362 899.078 164.362Z" fill="#2D995F"/>
<path d="M980.095 160.231C981.865 160.231 983.3 158.793 983.3 157.019C983.3 155.245 981.865 153.807 980.095 153.807C978.326 153.807 976.891 155.245 976.891 157.019C976.891 158.793 978.326 160.231 980.095 160.231Z" fill="#2D995F"/>
<path d="M1078.96 156.102C1080.73 156.102 1082.17 154.664 1082.17 152.89C1082.17 151.116 1080.73 149.678 1078.96 149.678C1077.19 149.678 1075.76 151.116 1075.76 152.89C1075.76 154.664 1077.19 156.102 1078.96 156.102Z" fill="#2D995F"/>
<path d="M897.274 213.807C896.658 213.807 896.067 214.052 895.632 214.489C895.196 214.925 894.951 215.517 894.951 216.135C894.951 216.752 895.196 217.345 895.632 217.781C896.067 218.218 896.658 218.463 897.274 218.463H929.787C930.403 218.463 930.994 218.218 931.43 217.781C931.865 217.345 932.11 216.752 932.11 216.135C932.11 215.517 931.865 214.925 931.43 214.489C930.994 214.052 930.403 213.807 929.787 213.807H897.274Z" fill="#E6E6E6"/>
<path d="M876.372 224.674C881.218 224.674 885.146 220.736 885.146 215.878C885.146 211.02 881.218 207.082 876.372 207.082C871.527 207.082 867.599 211.02 867.599 215.878C867.599 220.736 871.527 224.674 876.372 224.674Z" fill="#2D995F"/>
<path d="M975.719 213.807C975.104 213.807 974.513 214.052 974.077 214.489C973.642 214.925 973.397 215.517 973.397 216.135C973.397 216.752 973.642 217.345 974.077 217.781C974.513 218.218 975.104 218.463 975.719 218.463H1008.23C1008.85 218.463 1009.44 218.218 1009.88 217.781C1010.31 217.345 1010.56 216.752 1010.56 216.135C1010.56 215.517 1010.31 214.925 1009.88 214.489C1009.44 214.052 1008.85 213.807 1008.23 213.807H975.719Z" fill="#E6E6E6"/>
<path d="M954.818 224.674C959.663 224.674 963.591 220.736 963.591 215.878C963.591 211.02 959.663 207.082 954.818 207.082C949.972 207.082 946.044 211.02 946.044 215.878C946.044 220.736 949.972 224.674 954.818 224.674Z" fill="#2D995F"/>
<path d="M1054.17 213.807C1053.55 213.807 1052.96 214.052 1052.52 214.489C1052.09 214.925 1051.84 215.517 1051.84 216.135C1051.84 216.752 1052.09 217.345 1052.52 217.781C1052.96 218.218 1053.55 218.463 1054.17 218.463H1086.68C1087.29 218.463 1087.89 218.218 1088.32 217.781C1088.76 217.345 1089 216.752 1089 216.135C1089 215.517 1088.76 214.925 1088.32 214.489C1087.89 214.052 1087.29 213.807 1086.68 213.807H1054.17Z" fill="#E6E6E6"/>
<path d="M1033.26 224.674C1038.11 224.674 1042.04 220.736 1042.04 215.878C1042.04 211.02 1038.11 207.082 1033.26 207.082C1028.42 207.082 1024.49 211.02 1024.49 215.878C1024.49 220.736 1028.42 224.674 1033.26 224.674Z" fill="#2D995F"/>
<path d="M1084.31 94.0849H963.117C960.754 94.0849 958.84 92.7174 958.837 91.0322V64.623C958.84 62.9378 960.754 61.5703 963.117 61.5703H1084.31C1086.68 61.5703 1088.59 62.9378 1088.59 64.623V91.0317C1088.59 92.7169 1086.68 94.0828 1084.31 94.0849ZM963.117 62.7903C961.699 62.7903 960.551 63.611 960.549 64.622V91.0307C960.549 92.0417 961.699 92.8612 963.117 92.8623H1084.31C1085.73 92.8623 1086.88 92.0417 1086.88 91.0307V64.623C1086.88 63.612 1085.73 62.7924 1084.31 62.7914L963.117 62.7903Z" fill="#E6E6E6"/>
<path d="M990.521 76.5801C989.836 76.5809 989.181 76.8537 988.697 77.3387C988.213 77.8237 987.941 78.4812 987.94 79.1671V97.2762C987.941 97.962 988.213 98.6196 988.697 99.1046C989.181 99.5895 989.836 99.8624 990.521 99.8632H1082.9C1083.58 99.8624 1084.24 99.5895 1084.72 99.1046C1085.21 98.6196 1085.48 97.962 1085.48 97.2762V79.1671C1085.48 78.4812 1085.21 77.8237 1084.72 77.3387C1084.24 76.8537 1083.58 76.5809 1082.9 76.5801H990.521Z" fill="#2D995F"/>
<path d="M1003.42 94.17C1006.56 94.17 1009.1 91.6218 1009.1 88.4785C1009.1 85.3352 1006.56 82.7871 1003.42 82.7871C1000.29 82.7871 997.746 85.3352 997.746 88.4785C997.746 91.6218 1000.29 94.17 1003.42 94.17Z" fill="white"/>
<path d="M1029.3 86.0098C1028.68 86.0098 1028.09 86.2551 1027.65 86.6917C1027.22 87.1284 1026.97 87.7206 1026.97 88.3381C1026.97 88.9556 1027.22 89.5478 1027.65 89.9844C1028.09 90.4211 1028.68 90.6664 1029.3 90.6664H1061.81C1062.42 90.6664 1063.02 90.4211 1063.45 89.9844C1063.89 89.5478 1064.13 88.9556 1064.13 88.3381C1064.13 87.7206 1063.89 87.1284 1063.45 86.6917C1063.02 86.2551 1062.42 86.0098 1061.81 86.0098H1029.3Z" fill="white"/>
<path d="M993.483 32.5146H872.285C869.923 32.5146 868.008 31.1471 868.005 29.4619V3.05268C868.008 1.3675 869.923 0 872.285 0H993.483C995.845 0 997.76 1.3675 997.763 3.05268V29.4614C997.761 31.1466 995.845 32.5125 993.483 32.5146ZM872.285 1.22003C870.868 1.22003 869.719 2.04063 869.717 3.05163V29.4604C869.717 30.4714 870.868 31.2909 872.285 31.292H993.483C994.901 31.292 996.049 30.4714 996.051 29.4604V3.05268C996.051 2.04167 994.901 1.2221 993.483 1.22107L872.285 1.22003Z" fill="#E6E6E6"/>
<path d="M899.689 15.0078C899.005 15.0086 898.349 15.2814 897.865 15.7664C897.381 16.2514 897.109 16.909 897.108 17.5948V35.7039C897.109 36.3898 897.381 37.0473 897.865 37.5323C898.349 38.0173 899.005 38.2901 899.689 38.2909H992.069C992.753 38.2901 993.409 38.0173 993.893 37.5323C994.376 37.0473 994.648 36.3898 994.649 35.7039V17.5948C994.648 16.909 994.376 16.2514 993.893 15.7664C993.409 15.2814 992.753 15.0086 992.069 15.0078H899.689Z" fill="#2D995F"/>
<path d="M912.591 32.5996C915.726 32.5996 918.268 30.0515 918.268 26.9082C918.268 23.7649 915.726 21.2168 912.591 21.2168C909.456 21.2168 906.914 23.7649 906.914 26.9082C906.914 30.0515 909.456 32.5996 912.591 32.5996Z" fill="white"/>
<path d="M938.463 24.4375C937.847 24.4375 937.257 24.6828 936.821 25.1194C936.386 25.5561 936.141 26.1483 936.141 26.7658C936.141 27.3833 936.386 27.9755 936.821 28.4122C937.257 28.8488 937.847 29.0941 938.463 29.0941H970.977C971.593 29.0941 972.184 28.8488 972.619 28.4122C973.055 27.9755 973.299 27.3833 973.299 26.7658C973.299 26.1483 973.055 25.5561 972.619 25.1194C972.184 24.6828 971.593 24.4375 970.977 24.4375H938.463Z" fill="white"/>
</g>
<defs>
<clipPath id="clip0_4001_469">
<rect width="425" height="279" fill="white" transform="translate(680)"/>
</clipPath>
</defs>
</svg>
