<svg width="379" height="165" viewBox="0 0 379 165" fill="none" xmlns="http://www.w3.org/2000/svg">
<rect width="379" height="165" rx="8" fill="#F5F8F6"/>
<path d="M67.8026 84.6364V105H64.0838L55.2244 92.1832H55.0753V105H50.7699V84.6364H54.5483L63.3381 97.4432H63.517V84.6364H67.8026ZM78.6779 105.278C77.2726 105.278 76.0198 105.02 74.9194 104.503C73.8256 103.986 72.9573 103.273 72.3143 102.365C71.6713 101.457 71.3365 100.416 71.31 99.2429H75.4862C75.5326 100.032 75.864 100.671 76.4805 101.162C77.0969 101.652 77.8294 101.898 78.6779 101.898C79.354 101.898 79.9506 101.749 80.4677 101.45C80.9914 101.145 81.399 100.724 81.6907 100.188C81.989 99.6439 82.1381 99.0208 82.1381 98.3182C82.1381 97.6023 81.9857 96.9725 81.6808 96.429C81.3825 95.8854 80.9682 95.4612 80.4379 95.1562C79.9076 94.8513 79.301 94.6955 78.6183 94.6889C78.0217 94.6889 77.4416 94.8116 76.8782 95.0568C76.3214 95.3021 75.8872 95.6368 75.5756 96.0611L71.7475 95.375L72.712 84.6364H85.1609V88.1562H76.2617L75.7347 93.2571H75.854C76.212 92.7533 76.7522 92.3357 77.4748 92.0043C78.1973 91.6728 79.006 91.5071 79.9009 91.5071C81.1272 91.5071 82.221 91.7955 83.1822 92.3722C84.1433 92.9489 84.9023 93.741 85.4592 94.7486C86.016 95.7495 86.2911 96.9029 86.2844 98.2088C86.2911 99.581 85.9729 100.801 85.3299 101.868C84.6935 102.929 83.802 103.764 82.6552 104.374C81.515 104.977 80.1893 105.278 78.6779 105.278ZM97.2717 105.447C95.5614 105.441 94.0898 105.02 92.8569 104.185C91.6306 103.349 90.686 102.14 90.0231 100.555C89.3668 98.9711 89.042 97.0653 89.0487 94.8381C89.0487 92.6174 89.3768 90.7249 90.033 89.1605C90.6959 87.5961 91.6405 86.4062 92.8668 85.5909C94.0998 84.7689 95.5681 84.358 97.2717 84.358C98.9753 84.358 100.44 84.7689 101.667 85.5909C102.9 86.4129 103.847 87.6061 104.51 89.1705C105.173 90.7282 105.501 92.6174 105.495 94.8381C105.495 97.072 105.163 98.9811 104.5 100.565C103.844 102.15 102.903 103.359 101.676 104.195C100.45 105.03 98.9819 105.447 97.2717 105.447ZM97.2717 101.878C98.4383 101.878 99.3697 101.291 100.066 100.118C100.762 98.9446 101.106 97.1847 101.1 94.8381C101.1 93.2936 100.941 92.0076 100.623 90.9801C100.311 89.9527 99.8668 89.1804 99.2901 88.6634C98.7201 88.1463 98.0472 87.8878 97.2717 87.8878C96.1116 87.8878 95.1836 88.4678 94.4876 89.6278C93.7915 90.7879 93.4402 92.5246 93.4336 94.8381C93.4336 96.4025 93.5894 97.7083 93.9009 98.7557C94.2191 99.7964 94.6665 100.579 95.2433 101.102C95.82 101.619 96.4961 101.878 97.2717 101.878ZM116.549 105.447C114.839 105.441 113.367 105.02 112.134 104.185C110.908 103.349 109.963 102.14 109.3 100.555C108.644 98.9711 108.319 97.0653 108.326 94.8381C108.326 92.6174 108.654 90.7249 109.31 89.1605C109.973 87.5961 110.918 86.4062 112.144 85.5909C113.377 84.7689 114.845 84.358 116.549 84.358C118.253 84.358 119.718 84.7689 120.944 85.5909C122.177 86.4129 123.125 87.6061 123.788 89.1705C124.451 90.7282 124.779 92.6174 124.772 94.8381C124.772 97.072 124.441 98.9811 123.778 100.565C123.121 102.15 122.18 103.359 120.954 104.195C119.728 105.03 118.259 105.447 116.549 105.447ZM116.549 101.878C117.716 101.878 118.647 101.291 119.343 100.118C120.039 98.9446 120.384 97.1847 120.377 94.8381C120.377 93.2936 120.218 92.0076 119.9 90.9801C119.588 89.9527 119.144 89.1804 118.567 88.6634C117.997 88.1463 117.325 87.8878 116.549 87.8878C115.389 87.8878 114.461 88.4678 113.765 89.6278C113.069 90.7879 112.718 92.5246 112.711 94.8381C112.711 96.4025 112.867 97.7083 113.178 98.7557C113.496 99.7964 113.944 100.579 114.521 101.102C115.097 101.619 115.773 101.878 116.549 101.878ZM131.665 102.216L131.556 103.31C131.47 104.185 131.304 105.056 131.059 105.925C130.82 106.8 130.568 107.592 130.303 108.301C130.044 109.01 129.836 109.567 129.676 109.972H126.932C127.032 109.58 127.167 109.034 127.34 108.331C127.512 107.635 127.675 106.853 127.827 105.984C127.98 105.116 128.076 104.231 128.115 103.33L128.165 102.216H131.665ZM142.662 105.447C140.952 105.441 139.48 105.02 138.248 104.185C137.021 103.349 136.077 102.14 135.414 100.555C134.757 98.9711 134.433 97.0653 134.439 94.8381C134.439 92.6174 134.767 90.7249 135.424 89.1605C136.087 87.5961 137.031 86.4062 138.257 85.5909C139.49 84.7689 140.959 84.358 142.662 84.358C144.366 84.358 145.831 84.7689 147.057 85.5909C148.29 86.4129 149.238 87.6061 149.901 89.1705C150.564 90.7282 150.892 92.6174 150.885 94.8381C150.885 97.072 150.554 98.9811 149.891 100.565C149.235 102.15 148.293 103.359 147.067 104.195C145.841 105.03 144.373 105.447 142.662 105.447ZM142.662 101.878C143.829 101.878 144.76 101.291 145.456 100.118C146.152 98.9446 146.497 97.1847 146.49 94.8381C146.49 93.2936 146.331 92.0076 146.013 90.9801C145.702 89.9527 145.257 89.1804 144.681 88.6634C144.111 88.1463 143.438 87.8878 142.662 87.8878C141.502 87.8878 140.574 88.4678 139.878 89.6278C139.182 90.7879 138.831 92.5246 138.824 94.8381C138.824 96.4025 138.98 97.7083 139.292 98.7557C139.61 99.7964 140.057 100.579 140.634 101.102C141.211 101.619 141.887 101.878 142.662 101.878ZM161.94 105.447C160.229 105.441 158.758 105.02 157.525 104.185C156.299 103.349 155.354 102.14 154.691 100.555C154.035 98.9711 153.71 97.0653 153.717 94.8381C153.717 92.6174 154.045 90.7249 154.701 89.1605C155.364 87.5961 156.308 86.4062 157.535 85.5909C158.768 84.7689 160.236 84.358 161.94 84.358C163.643 84.358 165.108 84.7689 166.335 85.5909C167.567 86.4129 168.515 87.6061 169.178 89.1705C169.841 90.7282 170.169 92.6174 170.163 94.8381C170.163 97.072 169.831 98.9811 169.168 100.565C168.512 102.15 167.571 103.359 166.344 104.195C165.118 105.03 163.65 105.447 161.94 105.447ZM161.94 101.878C163.106 101.878 164.038 101.291 164.734 100.118C165.43 98.9446 165.774 97.1847 165.768 94.8381C165.768 93.2936 165.609 92.0076 165.29 90.9801C164.979 89.9527 164.535 89.1804 163.958 88.6634C163.388 88.1463 162.715 87.8878 161.94 87.8878C160.78 87.8878 159.852 88.4678 159.156 89.6278C158.46 90.7879 158.108 92.5246 158.102 94.8381C158.102 96.4025 158.257 97.7083 158.569 98.7557C158.887 99.7964 159.335 100.579 159.911 101.102C160.488 101.619 161.164 101.878 161.94 101.878ZM181.217 105.447C179.507 105.441 178.035 105.02 176.802 104.185C175.576 103.349 174.631 102.14 173.968 100.555C173.312 98.9711 172.987 97.0653 172.994 94.8381C172.994 92.6174 173.322 90.7249 173.978 89.1605C174.641 87.5961 175.586 86.4062 176.812 85.5909C178.045 84.7689 179.513 84.358 181.217 84.358C182.921 84.358 184.386 84.7689 185.612 85.5909C186.845 86.4129 187.793 87.6061 188.456 89.1705C189.118 90.7282 189.447 92.6174 189.44 94.8381C189.44 97.072 189.109 98.9811 188.446 100.565C187.789 102.15 186.848 103.359 185.622 104.195C184.395 105.03 182.927 105.447 181.217 105.447ZM181.217 101.878C182.384 101.878 183.315 101.291 184.011 100.118C184.707 98.9446 185.052 97.1847 185.045 94.8381C185.045 93.2936 184.886 92.0076 184.568 90.9801C184.256 89.9527 183.812 89.1804 183.235 88.6634C182.665 88.1463 181.993 87.8878 181.217 87.8878C180.057 87.8878 179.129 88.4678 178.433 89.6278C177.737 90.7879 177.386 92.5246 177.379 94.8381C177.379 96.4025 177.535 97.7083 177.846 98.7557C178.164 99.7964 178.612 100.579 179.189 101.102C179.765 101.619 180.441 101.878 181.217 101.878Z" fill="#2D995F"/>
<path d="M50.233 69V58.8182H51.4659V67.9062H56.1989V69H50.233ZM61.0511 69.1591C60.3617 69.1591 59.7569 68.995 59.2365 68.6669C58.7195 68.3388 58.3151 67.8797 58.0234 67.2898C57.7351 66.6998 57.5909 66.0104 57.5909 65.2216C57.5909 64.4261 57.7351 63.7318 58.0234 63.1385C58.3151 62.5452 58.7195 62.0845 59.2365 61.7564C59.7569 61.4283 60.3617 61.2642 61.0511 61.2642C61.7405 61.2642 62.3438 61.4283 62.8608 61.7564C63.3812 62.0845 63.7855 62.5452 64.0739 63.1385C64.3655 63.7318 64.5114 64.4261 64.5114 65.2216C64.5114 66.0104 64.3655 66.6998 64.0739 67.2898C63.7855 67.8797 63.3812 68.3388 62.8608 68.6669C62.3438 68.995 61.7405 69.1591 61.0511 69.1591ZM61.0511 68.1051C61.5748 68.1051 62.0057 67.9709 62.3438 67.7024C62.6818 67.4339 62.9321 67.081 63.0945 66.6435C63.2569 66.206 63.3381 65.732 63.3381 65.2216C63.3381 64.7112 63.2569 64.2356 63.0945 63.7947C62.9321 63.3539 62.6818 62.9976 62.3438 62.7259C62.0057 62.4541 61.5748 62.3182 61.0511 62.3182C60.5275 62.3182 60.0966 62.4541 59.7585 62.7259C59.4205 62.9976 59.1702 63.3539 59.0078 63.7947C58.8454 64.2356 58.7642 64.7112 58.7642 65.2216C58.7642 65.732 58.8454 66.206 59.0078 66.6435C59.1702 67.081 59.4205 67.4339 59.7585 67.7024C60.0966 67.9709 60.5275 68.1051 61.0511 68.1051ZM68.5495 69.179C68.0656 69.179 67.6265 69.0878 67.2321 68.9055C66.8377 68.7199 66.5244 68.4531 66.2924 68.1051C66.0604 67.7538 65.9444 67.3295 65.9444 66.8324C65.9444 66.3949 66.0306 66.0402 66.2029 65.7685C66.3753 65.4934 66.6056 65.2779 66.894 65.1222C67.1824 64.9664 67.5005 64.8504 67.8485 64.7741C68.1999 64.6946 68.5529 64.6316 68.9075 64.5852C69.3715 64.5256 69.7477 64.4808 70.036 64.451C70.3277 64.4179 70.5398 64.3632 70.6724 64.2869C70.8083 64.2107 70.8762 64.0781 70.8762 63.8892V63.8494C70.8762 63.3589 70.742 62.9777 70.4735 62.706C70.2084 62.4342 69.8057 62.2983 69.2654 62.2983C68.7053 62.2983 68.2662 62.4209 67.948 62.6662C67.6298 62.9115 67.4061 63.1733 67.2768 63.4517L66.1632 63.054C66.362 62.59 66.6272 62.2287 66.9586 61.9702C67.2934 61.7083 67.658 61.526 68.0524 61.4233C68.4501 61.3172 68.8412 61.2642 69.2257 61.2642C69.4709 61.2642 69.7527 61.294 70.0708 61.3537C70.3923 61.41 70.7022 61.5277 71.0005 61.7067C71.3021 61.8857 71.5524 62.1558 71.7512 62.517C71.9501 62.8783 72.0495 63.3622 72.0495 63.9688V69H70.8762V67.9659H70.8166C70.737 68.1316 70.6045 68.3089 70.4189 68.4979C70.2333 68.6868 69.9863 68.8475 69.6781 68.9801C69.3699 69.1127 68.9937 69.179 68.5495 69.179ZM68.7285 68.125C69.1925 68.125 69.5836 68.0339 69.9018 67.8516C70.2233 67.6693 70.4653 67.4339 70.6277 67.1456C70.7934 66.8572 70.8762 66.554 70.8762 66.2358V65.1619C70.8265 65.2216 70.7172 65.2763 70.5481 65.326C70.3824 65.3724 70.1902 65.4138 69.9714 65.4503C69.756 65.4834 69.5455 65.5133 69.34 65.5398C69.1378 65.563 68.9738 65.5829 68.8478 65.5994C68.5429 65.6392 68.2579 65.7038 67.9927 65.7933C67.7309 65.8795 67.5188 66.0104 67.3564 66.1861C67.1973 66.3584 67.1177 66.5937 67.1177 66.892C67.1177 67.2997 67.2685 67.608 67.5701 67.8168C67.8751 68.0223 68.2612 68.125 68.7285 68.125ZM75.3643 64.4062V69H74.1911V61.3636H75.3246V62.5568H75.424C75.603 62.169 75.8748 61.8575 76.2393 61.6222C76.6039 61.3835 77.0746 61.2642 77.6513 61.2642C78.1683 61.2642 78.6207 61.3703 79.0085 61.5824C79.3963 61.7912 79.6979 62.1094 79.9134 62.5369C80.1288 62.9612 80.2365 63.4981 80.2365 64.1477V69H79.0632V64.2273C79.0632 63.6274 78.9074 63.16 78.5959 62.8253C78.2843 62.4872 77.8568 62.3182 77.3132 62.3182C76.9387 62.3182 76.6039 62.3994 76.3089 62.5618C76.0173 62.7242 75.7869 62.9612 75.6179 63.2727C75.4489 63.5843 75.3643 63.9621 75.3643 64.4062ZM88.5652 69.179C88.0813 69.179 87.6421 69.0878 87.2477 68.9055C86.8533 68.7199 86.5401 68.4531 86.3081 68.1051C86.0761 67.7538 85.96 67.3295 85.96 66.8324C85.96 66.3949 86.0462 66.0402 86.2186 65.7685C86.3909 65.4934 86.6213 65.2779 86.9096 65.1222C87.198 64.9664 87.5162 64.8504 87.8642 64.7741C88.2155 64.6946 88.5685 64.6316 88.9231 64.5852C89.3871 64.5256 89.7633 64.4808 90.0517 64.451C90.3433 64.4179 90.5555 64.3632 90.688 64.2869C90.8239 64.2107 90.8919 64.0781 90.8919 63.8892V63.8494C90.8919 63.3589 90.7576 62.9777 90.4892 62.706C90.224 62.4342 89.8213 62.2983 89.2811 62.2983C88.7209 62.2983 88.2818 62.4209 87.9636 62.6662C87.6454 62.9115 87.4217 63.1733 87.2924 63.4517L86.1788 63.054C86.3777 62.59 86.6428 62.2287 86.9743 61.9702C87.309 61.7083 87.6736 61.526 88.068 61.4233C88.4657 61.3172 88.8568 61.2642 89.2413 61.2642C89.4866 61.2642 89.7683 61.294 90.0865 61.3537C90.408 61.41 90.7179 61.5277 91.0162 61.7067C91.3178 61.8857 91.568 62.1558 91.7669 62.517C91.9657 62.8783 92.0652 63.3622 92.0652 63.9688V69H90.8919V67.9659H90.8322C90.7527 68.1316 90.6201 68.3089 90.4345 68.4979C90.2489 68.6868 90.002 68.8475 89.6937 68.9801C89.3855 69.1127 89.0093 69.179 88.5652 69.179ZM88.7441 68.125C89.2082 68.125 89.5993 68.0339 89.9174 67.8516C90.2389 67.6693 90.4809 67.4339 90.6433 67.1456C90.809 66.8572 90.8919 66.554 90.8919 66.2358V65.1619C90.8422 65.2216 90.7328 65.2763 90.5637 65.326C90.398 65.3724 90.2058 65.4138 89.987 65.4503C89.7716 65.4834 89.5611 65.5133 89.3556 65.5398C89.1535 65.563 88.9894 65.5829 88.8635 65.5994C88.5585 65.6392 88.2735 65.7038 88.0083 65.7933C87.7465 65.8795 87.5344 66.0104 87.372 66.1861C87.2129 66.3584 87.1333 66.5937 87.1333 66.892C87.1333 67.2997 87.2842 67.608 87.5858 67.8168C87.8907 68.0223 88.2768 68.125 88.7441 68.125ZM94.2067 69V61.3636H95.3402V62.5568H95.4396C95.5987 62.1491 95.8556 61.8326 96.2102 61.6072C96.5649 61.3786 96.9908 61.2642 97.4879 61.2642C97.9917 61.2642 98.411 61.3786 98.7457 61.6072C99.0838 61.8326 99.3473 62.1491 99.5362 62.5568H99.6158C99.8113 62.1624 100.105 61.8492 100.496 61.6172C100.887 61.3819 101.356 61.2642 101.903 61.2642C102.585 61.2642 103.144 61.478 103.578 61.9055C104.012 62.3298 104.229 62.991 104.229 63.8892V69H103.056V63.8892C103.056 63.3258 102.902 62.9231 102.594 62.6811C102.286 62.4392 101.923 62.3182 101.505 62.3182C100.968 62.3182 100.552 62.4806 100.257 62.8054C99.9621 63.1269 99.8146 63.5346 99.8146 64.0284V69H98.6214V63.7699C98.6214 63.3357 98.4806 62.986 98.1989 62.7209C97.9171 62.4524 97.5542 62.3182 97.1101 62.3182C96.8052 62.3182 96.5201 62.3994 96.255 62.5618C95.9931 62.7242 95.781 62.9496 95.6186 63.2379C95.4595 63.523 95.38 63.8527 95.38 64.2273V69H94.2067ZM109.477 69.1591C108.788 69.1591 108.183 68.995 107.662 68.6669C107.145 68.3388 106.741 67.8797 106.449 67.2898C106.161 66.6998 106.017 66.0104 106.017 65.2216C106.017 64.4261 106.161 63.7318 106.449 63.1385C106.741 62.5452 107.145 62.0845 107.662 61.7564C108.183 61.4283 108.788 61.2642 109.477 61.2642C110.166 61.2642 110.77 61.4283 111.287 61.7564C111.807 62.0845 112.211 62.5452 112.5 63.1385C112.791 63.7318 112.937 64.4261 112.937 65.2216C112.937 66.0104 112.791 66.6998 112.5 67.2898C112.211 67.8797 111.807 68.3388 111.287 68.6669C110.77 68.995 110.166 69.1591 109.477 69.1591ZM109.477 68.1051C110.001 68.1051 110.431 67.9709 110.77 67.7024C111.108 67.4339 111.358 67.081 111.52 66.6435C111.683 66.206 111.764 65.732 111.764 65.2216C111.764 64.7112 111.683 64.2356 111.52 63.7947C111.358 63.3539 111.108 62.9976 110.77 62.7259C110.431 62.4541 110.001 62.3182 109.477 62.3182C108.953 62.3182 108.522 62.4541 108.184 62.7259C107.846 62.9976 107.596 63.3539 107.434 63.7947C107.271 64.2356 107.19 64.7112 107.19 65.2216C107.19 65.732 107.271 66.206 107.434 66.6435C107.596 67.081 107.846 67.4339 108.184 67.7024C108.522 67.9709 108.953 68.1051 109.477 68.1051ZM119.541 65.8778V61.3636H120.714V69H119.541V67.7074H119.461C119.282 68.0952 119.004 68.425 118.626 68.6967C118.248 68.9652 117.771 69.0994 117.194 69.0994C116.717 69.0994 116.293 68.995 115.921 68.7862C115.55 68.5741 115.258 68.2559 115.046 67.8317C114.834 67.4041 114.728 66.8655 114.728 66.2159V61.3636H115.901V66.1364C115.901 66.6932 116.057 67.1373 116.369 67.4688C116.684 67.8002 117.085 67.9659 117.572 67.9659C117.864 67.9659 118.16 67.8913 118.462 67.7422C118.767 67.593 119.022 67.3643 119.227 67.0561C119.436 66.7479 119.541 66.3551 119.541 65.8778ZM124.036 64.4062V69H122.863V61.3636H123.996V62.5568H124.096C124.275 62.169 124.547 61.8575 124.911 61.6222C125.276 61.3835 125.746 61.2642 126.323 61.2642C126.84 61.2642 127.293 61.3703 127.68 61.5824C128.068 61.7912 128.37 62.1094 128.585 62.5369C128.801 62.9612 128.908 63.4981 128.908 64.1477V69H127.735V64.2273C127.735 63.6274 127.579 63.16 127.268 62.8253C126.956 62.4872 126.529 62.3182 125.985 62.3182C125.611 62.3182 125.276 62.3994 124.981 62.5618C124.689 62.7242 124.459 62.9612 124.29 63.2727C124.121 63.5843 124.036 63.9621 124.036 64.4062ZM134.373 61.3636V62.358H130.416V61.3636H134.373ZM131.569 59.5341H132.743V66.8125C132.743 67.1439 132.791 67.3925 132.887 67.5582C132.986 67.7206 133.112 67.83 133.265 67.8864C133.421 67.9394 133.585 67.9659 133.757 67.9659C133.886 67.9659 133.992 67.9593 134.075 67.946C134.158 67.9295 134.224 67.9162 134.274 67.9062L134.513 68.9602C134.433 68.9901 134.322 69.0199 134.18 69.0497C134.037 69.0829 133.856 69.0994 133.638 69.0994C133.306 69.0994 132.981 69.0282 132.663 68.8857C132.348 68.7431 132.086 68.526 131.878 68.2344C131.672 67.9427 131.569 67.5748 131.569 67.1307V59.5341ZM143.397 61.3636V62.358H139.439V61.3636H143.397ZM140.593 59.5341H141.766V66.8125C141.766 67.1439 141.814 67.3925 141.91 67.5582C142.01 67.7206 142.136 67.83 142.288 67.8864C142.444 67.9394 142.608 67.9659 142.78 67.9659C142.91 67.9659 143.016 67.9593 143.099 67.946C143.181 67.9295 143.248 67.9162 143.297 67.9062L143.536 68.9602C143.456 68.9901 143.345 69.0199 143.203 69.0497C143.06 69.0829 142.88 69.0994 142.661 69.0994C142.33 69.0994 142.005 69.0282 141.687 68.8857C141.372 68.7431 141.11 68.526 140.901 68.2344C140.696 67.9427 140.593 67.5748 140.593 67.1307V59.5341ZM148.182 69.1591C147.493 69.1591 146.888 68.995 146.367 68.6669C145.85 68.3388 145.446 67.8797 145.154 67.2898C144.866 66.6998 144.722 66.0104 144.722 65.2216C144.722 64.4261 144.866 63.7318 145.154 63.1385C145.446 62.5452 145.85 62.0845 146.367 61.7564C146.888 61.4283 147.493 61.2642 148.182 61.2642C148.871 61.2642 149.475 61.4283 149.992 61.7564C150.512 62.0845 150.916 62.5452 151.205 63.1385C151.496 63.7318 151.642 64.4261 151.642 65.2216C151.642 66.0104 151.496 66.6998 151.205 67.2898C150.916 67.8797 150.512 68.3388 149.992 68.6669C149.475 68.995 148.871 69.1591 148.182 69.1591ZM148.182 68.1051C148.706 68.1051 149.137 67.9709 149.475 67.7024C149.813 67.4339 150.063 67.081 150.225 66.6435C150.388 66.206 150.469 65.732 150.469 65.2216C150.469 64.7112 150.388 64.2356 150.225 63.7947C150.063 63.3539 149.813 62.9976 149.475 62.7259C149.137 62.4541 148.706 62.3182 148.182 62.3182C147.658 62.3182 147.227 62.4541 146.889 62.7259C146.551 62.9976 146.301 63.3539 146.139 63.7947C145.976 64.2356 145.895 64.7112 145.895 65.2216C145.895 65.732 145.976 66.206 146.139 66.6435C146.301 67.081 146.551 67.4339 146.889 67.7024C147.227 67.9709 147.658 68.1051 148.182 68.1051ZM157.53 69V58.8182H158.703V62.5767H158.803C158.889 62.4441 159.008 62.2751 159.161 62.0696C159.316 61.8608 159.538 61.6752 159.827 61.5128C160.118 61.3471 160.513 61.2642 161.01 61.2642C161.653 61.2642 162.22 61.425 162.71 61.7464C163.201 62.0679 163.584 62.5237 163.859 63.1136C164.134 63.7036 164.271 64.3996 164.271 65.2017C164.271 66.0104 164.134 66.7114 163.859 67.3047C163.584 67.8946 163.202 68.352 162.715 68.6768C162.228 68.9983 161.666 69.1591 161.03 69.1591C160.539 69.1591 160.147 69.0779 159.852 68.9155C159.557 68.7498 159.33 68.5625 159.17 68.3537C159.011 68.1416 158.889 67.9659 158.803 67.8267H158.663V69H157.53ZM158.683 65.1818C158.683 65.7585 158.768 66.2673 158.937 66.7081C159.106 67.1456 159.353 67.4886 159.678 67.7372C160.002 67.9825 160.4 68.1051 160.871 68.1051C161.361 68.1051 161.771 67.9759 162.099 67.7173C162.43 67.4555 162.679 67.1042 162.844 66.6634C163.013 66.2192 163.098 65.7254 163.098 65.1818C163.098 64.6449 163.015 64.161 162.849 63.7301C162.687 63.2959 162.44 62.9529 162.109 62.701C161.781 62.4458 161.368 62.3182 160.871 62.3182C160.393 62.3182 159.992 62.4392 159.668 62.6811C159.343 62.9197 159.098 63.2545 158.932 63.6854C158.766 64.1129 158.683 64.6117 158.683 65.1818ZM169.268 69.1591C168.532 69.1591 167.897 68.9967 167.364 68.6719C166.833 68.3438 166.424 67.8864 166.136 67.2997C165.851 66.7098 165.708 66.0237 165.708 65.2415C165.708 64.4593 165.851 63.7699 166.136 63.1733C166.424 62.5734 166.825 62.1061 167.339 61.7713C167.856 61.4332 168.459 61.2642 169.148 61.2642C169.546 61.2642 169.939 61.3305 170.327 61.4631C170.714 61.5956 171.067 61.8111 171.386 62.1094C171.704 62.4044 171.957 62.7955 172.146 63.2827C172.335 63.7699 172.43 64.3698 172.43 65.0824V65.5795H166.543V64.5653H171.237C171.237 64.1345 171.15 63.75 170.978 63.4119C170.809 63.0739 170.567 62.8071 170.252 62.6115C169.941 62.416 169.573 62.3182 169.148 62.3182C168.681 62.3182 168.277 62.4342 167.935 62.6662C167.597 62.8949 167.337 63.1932 167.155 63.5611C166.973 63.929 166.881 64.3234 166.881 64.7443V65.4205C166.881 65.9972 166.981 66.486 167.18 66.8871C167.382 67.2848 167.662 67.5881 168.02 67.7969C168.378 68.0024 168.794 68.1051 169.268 68.1051C169.576 68.1051 169.854 68.062 170.103 67.9759C170.355 67.8864 170.572 67.7538 170.754 67.5781C170.937 67.3991 171.077 67.1771 171.177 66.9119L172.31 67.2301C172.191 67.6146 171.991 67.9527 171.709 68.2443C171.427 68.5327 171.079 68.758 170.665 68.9205C170.25 69.0795 169.785 69.1591 169.268 69.1591ZM181.036 69.1591C180.399 69.1591 179.837 68.9983 179.35 68.6768C178.863 68.352 178.482 67.8946 178.207 67.3047C177.932 66.7114 177.794 66.0104 177.794 65.2017C177.794 64.3996 177.932 63.7036 178.207 63.1136C178.482 62.5237 178.865 62.0679 179.355 61.7464C179.846 61.425 180.412 61.2642 181.055 61.2642C181.553 61.2642 181.945 61.3471 182.234 61.5128C182.525 61.6752 182.747 61.8608 182.9 62.0696C183.056 62.2751 183.177 62.4441 183.263 62.5767H183.362V58.8182H184.536V69H183.402V67.8267H183.263C183.177 67.9659 183.054 68.1416 182.895 68.3537C182.736 68.5625 182.509 68.7498 182.214 68.9155C181.919 69.0779 181.526 69.1591 181.036 69.1591ZM181.195 68.1051C181.665 68.1051 182.063 67.9825 182.388 67.7372C182.713 67.4886 182.96 67.1456 183.129 66.7081C183.298 66.2673 183.382 65.7585 183.382 65.1818C183.382 64.6117 183.299 64.1129 183.134 63.6854C182.968 63.2545 182.723 62.9197 182.398 62.6811C182.073 62.4392 181.672 62.3182 181.195 62.3182C180.697 62.3182 180.283 62.4458 179.952 62.701C179.624 62.9529 179.377 63.2959 179.211 63.7301C179.049 64.161 178.967 64.6449 178.967 65.1818C178.967 65.7254 179.05 66.2192 179.216 66.6634C179.385 67.1042 179.634 67.4555 179.962 67.7173C180.293 67.9759 180.704 68.1051 181.195 68.1051ZM186.847 69V61.3636H188.021V69H186.847ZM187.444 60.0909C187.215 60.0909 187.018 60.013 186.852 59.8572C186.69 59.7015 186.609 59.5142 186.609 59.2955C186.609 59.0767 186.69 58.8894 186.852 58.7337C187.018 58.5779 187.215 58.5 187.444 58.5C187.673 58.5 187.868 58.5779 188.031 58.7337C188.196 58.8894 188.279 59.0767 188.279 59.2955C188.279 59.5142 188.196 59.7015 188.031 59.8572C187.868 60.013 187.673 60.0909 187.444 60.0909ZM195.579 63.0739L194.525 63.3722C194.458 63.1965 194.361 63.0258 194.231 62.8601C194.105 62.6911 193.933 62.5518 193.714 62.4425C193.496 62.3331 193.215 62.2784 192.874 62.2784C192.407 62.2784 192.017 62.3861 191.706 62.6016C191.398 62.8137 191.243 63.0838 191.243 63.4119C191.243 63.7036 191.349 63.9339 191.562 64.103C191.774 64.272 192.105 64.4129 192.556 64.5256L193.689 64.804C194.372 64.9697 194.881 65.2232 195.216 65.5646C195.55 65.9027 195.718 66.3385 195.718 66.8722C195.718 67.3097 195.592 67.7008 195.34 68.0455C195.091 68.3902 194.743 68.6619 194.296 68.8608C193.849 69.0597 193.328 69.1591 192.735 69.1591C191.956 69.1591 191.311 68.9901 190.801 68.652C190.291 68.3139 189.967 67.8201 189.831 67.1705L190.945 66.892C191.051 67.303 191.252 67.6113 191.547 67.8168C191.845 68.0223 192.234 68.125 192.715 68.125C193.262 68.125 193.696 68.009 194.018 67.777C194.342 67.5417 194.505 67.2599 194.505 66.9318C194.505 66.6667 194.412 66.4446 194.226 66.2656C194.041 66.0833 193.756 65.9474 193.371 65.858L192.099 65.5597C191.399 65.3939 190.885 65.1371 190.557 64.7891C190.233 64.4377 190.07 63.9986 190.07 63.4716C190.07 63.0407 190.191 62.6596 190.433 62.3281C190.678 61.9967 191.011 61.7365 191.432 61.5476C191.857 61.3587 192.337 61.2642 192.874 61.2642C193.63 61.2642 194.223 61.4299 194.654 61.7614C195.088 62.0928 195.396 62.5303 195.579 63.0739ZM197.643 69V58.8182H198.816V62.5767H198.916C199.002 62.4441 199.121 62.2751 199.274 62.0696C199.43 61.8608 199.652 61.6752 199.94 61.5128C200.232 61.3471 200.626 61.2642 201.123 61.2642C201.766 61.2642 202.333 61.425 202.824 61.7464C203.314 62.0679 203.697 62.5237 203.972 63.1136C204.247 63.7036 204.385 64.3996 204.385 65.2017C204.385 66.0104 204.247 66.7114 203.972 67.3047C203.697 67.8946 203.316 68.352 202.828 68.6768C202.341 68.9983 201.779 69.1591 201.143 69.1591C200.653 69.1591 200.26 69.0779 199.965 68.9155C199.67 68.7498 199.443 68.5625 199.284 68.3537C199.125 68.1416 199.002 67.9659 198.916 67.8267H198.777V69H197.643ZM198.797 65.1818C198.797 65.7585 198.881 66.2673 199.05 66.7081C199.219 67.1456 199.466 67.4886 199.791 67.7372C200.116 67.9825 200.513 68.1051 200.984 68.1051C201.475 68.1051 201.884 67.9759 202.212 67.7173C202.543 67.4555 202.792 67.1042 202.958 66.6634C203.127 66.2192 203.211 65.7254 203.211 65.1818C203.211 64.6449 203.128 64.161 202.963 63.7301C202.8 63.2959 202.553 62.9529 202.222 62.701C201.894 62.4458 201.481 62.3182 200.984 62.3182C200.507 62.3182 200.106 62.4392 199.781 62.6811C199.456 62.9197 199.211 63.2545 199.045 63.6854C198.879 64.1129 198.797 64.6117 198.797 65.1818ZM210.992 65.8778V61.3636H212.165V69H210.992V67.7074H210.912C210.733 68.0952 210.455 68.425 210.077 68.6967C209.699 68.9652 209.222 69.0994 208.645 69.0994C208.168 69.0994 207.744 68.995 207.373 68.7862C207.001 68.5741 206.71 68.2559 206.498 67.8317C206.285 67.4041 206.179 66.8655 206.179 66.2159V61.3636H207.353V66.1364C207.353 66.6932 207.508 67.1373 207.82 67.4688C208.135 67.8002 208.536 67.9659 209.023 67.9659C209.315 67.9659 209.611 67.8913 209.913 67.7422C210.218 67.593 210.473 67.3643 210.679 67.0561C210.887 66.7479 210.992 66.3551 210.992 65.8778ZM214.314 69V61.3636H215.448V62.517H215.527C215.666 62.1392 215.918 61.8326 216.283 61.5973C216.647 61.362 217.058 61.2443 217.516 61.2443C217.602 61.2443 217.71 61.246 217.839 61.2493C217.968 61.2526 218.066 61.2576 218.132 61.2642V62.4574C218.093 62.4474 218.001 62.4325 217.859 62.4126C217.72 62.3894 217.572 62.3778 217.416 62.3778C217.045 62.3778 216.714 62.4557 216.422 62.6115C216.134 62.764 215.905 62.9761 215.736 63.2479C215.57 63.5163 215.487 63.8229 215.487 64.1676V69H214.314ZM224.932 63.0739L223.878 63.3722C223.812 63.1965 223.714 63.0258 223.585 62.8601C223.459 62.6911 223.287 62.5518 223.068 62.4425C222.849 62.3331 222.569 62.2784 222.228 62.2784C221.76 62.2784 221.371 62.3861 221.059 62.6016C220.751 62.8137 220.597 63.0838 220.597 63.4119C220.597 63.7036 220.703 63.9339 220.915 64.103C221.127 64.272 221.459 64.4129 221.909 64.5256L223.043 64.804C223.726 64.9697 224.234 65.2232 224.569 65.5646C224.904 65.9027 225.071 66.3385 225.071 66.8722C225.071 67.3097 224.945 67.7008 224.694 68.0455C224.445 68.3902 224.097 68.6619 223.65 68.8608C223.202 69.0597 222.682 69.1591 222.088 69.1591C221.31 69.1591 220.665 68.9901 220.154 68.652C219.644 68.3139 219.321 67.8201 219.185 67.1705L220.299 66.892C220.405 67.303 220.605 67.6113 220.9 67.8168C221.199 68.0223 221.588 68.125 222.069 68.125C222.615 68.125 223.05 68.009 223.371 67.777C223.696 67.5417 223.858 67.2599 223.858 66.9318C223.858 66.6667 223.766 66.4446 223.58 66.2656C223.394 66.0833 223.109 65.9474 222.725 65.858L221.452 65.5597C220.753 65.3939 220.239 65.1371 219.911 64.7891C219.586 64.4377 219.424 63.9986 219.424 63.4716C219.424 63.0407 219.545 62.6596 219.787 62.3281C220.032 61.9967 220.365 61.7365 220.786 61.5476C221.21 61.3587 221.691 61.2642 222.228 61.2642C222.983 61.2642 223.577 61.4299 224.007 61.7614C224.442 62.0928 224.75 62.5303 224.932 63.0739ZM230.039 69.1591C229.303 69.1591 228.669 68.9967 228.135 68.6719C227.605 68.3438 227.195 67.8864 226.907 67.2997C226.622 66.7098 226.48 66.0237 226.48 65.2415C226.48 64.4593 226.622 63.7699 226.907 63.1733C227.195 62.5734 227.597 62.1061 228.11 61.7713C228.627 61.4332 229.231 61.2642 229.92 61.2642C230.318 61.2642 230.71 61.3305 231.098 61.4631C231.486 61.5956 231.839 61.8111 232.157 62.1094C232.475 62.4044 232.729 62.7955 232.918 63.2827C233.107 63.7699 233.201 64.3698 233.201 65.0824V65.5795H227.315V64.5653H232.008C232.008 64.1345 231.922 63.75 231.749 63.4119C231.58 63.0739 231.338 62.8071 231.024 62.6115C230.712 62.416 230.344 62.3182 229.92 62.3182C229.453 62.3182 229.048 62.4342 228.707 62.6662C228.369 62.8949 228.109 63.1932 227.926 63.5611C227.744 63.929 227.653 64.3234 227.653 64.7443V65.4205C227.653 65.9972 227.752 66.486 227.951 66.8871C228.153 67.2848 228.433 67.5881 228.791 67.7969C229.149 68.0024 229.565 68.1051 230.039 68.1051C230.347 68.1051 230.626 68.062 230.874 67.9759C231.126 67.8864 231.343 67.7538 231.526 67.5781C231.708 67.3991 231.849 67.1771 231.948 66.9119L233.082 67.2301C232.963 67.6146 232.762 67.9527 232.48 68.2443C232.199 68.5327 231.851 68.758 231.436 68.9205C231.022 69.0795 230.556 69.1591 230.039 69.1591ZM237.869 69.1591C237.233 69.1591 236.671 68.9983 236.184 68.6768C235.697 68.352 235.316 67.8946 235.041 67.3047C234.766 66.7114 234.628 66.0104 234.628 65.2017C234.628 64.3996 234.766 63.7036 235.041 63.1136C235.316 62.5237 235.699 62.0679 236.189 61.7464C236.68 61.425 237.246 61.2642 237.889 61.2642C238.387 61.2642 238.779 61.3471 239.068 61.5128C239.359 61.6752 239.581 61.8608 239.734 62.0696C239.89 62.2751 240.011 62.4441 240.097 62.5767H240.196V58.8182H241.369V69H240.236V67.8267H240.097C240.011 67.9659 239.888 68.1416 239.729 68.3537C239.57 68.5625 239.343 68.7498 239.048 68.9155C238.753 69.0779 238.36 69.1591 237.869 69.1591ZM238.029 68.1051C238.499 68.1051 238.897 67.9825 239.222 67.7372C239.547 67.4886 239.794 67.1456 239.963 66.7081C240.132 66.2673 240.216 65.7585 240.216 65.1818C240.216 64.6117 240.133 64.1129 239.968 63.6854C239.802 63.2545 239.557 62.9197 239.232 62.6811C238.907 62.4392 238.506 62.3182 238.029 62.3182C237.531 62.3182 237.117 62.4458 236.786 62.701C236.458 62.9529 236.211 63.2959 236.045 63.7301C235.883 64.161 235.801 64.6449 235.801 65.1818C235.801 65.7254 235.884 66.2192 236.05 66.6634C236.219 67.1042 236.468 67.4555 236.796 67.7173C237.127 67.9759 237.538 68.1051 238.029 68.1051Z" fill="#343A40"/>
<rect x="13" y="14" width="5" height="140" rx="2.5" fill="#2D995F"/>
</svg>
