<svg width="1120" height="348" viewBox="0 0 1120 348" fill="none" xmlns="http://www.w3.org/2000/svg">
<rect y="68" width="1120" height="280" rx="8" fill="#F2F5F3" fill-opacity="0.77"/>
<path d="M100.744 176.273V217H92.392L76.1847 193.494H75.9261V217H66.0824V176.273H74.554L90.5824 199.739H90.9205V176.273H100.744ZM122.445 217.557C119.476 217.557 116.837 217.02 114.531 215.946C112.224 214.872 110.401 213.394 109.062 211.511C107.736 209.629 107.047 207.468 106.994 205.028H116.539C116.619 206.527 117.228 207.733 118.369 208.648C119.509 209.549 120.868 210 122.445 210C123.678 210 124.772 209.728 125.727 209.185C126.681 208.641 127.43 207.879 127.974 206.898C128.517 205.903 128.782 204.763 128.769 203.477C128.782 202.165 128.511 201.018 127.954 200.037C127.41 199.056 126.655 198.294 125.687 197.75C124.732 197.193 123.632 196.915 122.386 196.915C121.206 196.902 120.085 197.16 119.025 197.69C117.978 198.221 117.182 198.943 116.638 199.858L107.948 198.227L109.718 176.273H135.849V184.207H117.812L116.877 193.812H117.116C117.792 192.686 118.879 191.758 120.377 191.028C121.888 190.286 123.605 189.915 125.528 189.915C127.967 189.915 130.141 190.485 132.05 191.625C133.973 192.752 135.484 194.316 136.585 196.318C137.698 198.32 138.255 200.614 138.255 203.199C138.255 205.996 137.592 208.475 136.266 210.636C134.954 212.797 133.111 214.494 130.738 215.727C128.378 216.947 125.614 217.557 122.445 217.557ZM152.459 211.432L152.28 213.639C152.121 215.469 151.796 217.252 151.305 218.989C150.828 220.739 150.318 222.31 149.774 223.702C149.231 225.094 148.8 226.174 148.482 226.943H142.357C142.569 226.174 142.854 225.094 143.212 223.702C143.583 222.31 143.928 220.739 144.246 218.989C144.564 217.239 144.743 215.462 144.783 213.659L144.822 211.432H152.459ZM174.94 217.994C171.387 217.994 168.325 217.152 165.753 215.469C163.181 213.772 161.199 211.339 159.807 208.17C158.415 204.989 157.725 201.164 157.739 196.696C157.752 192.228 158.448 188.437 159.827 185.321C161.219 182.192 163.194 179.812 165.753 178.182C168.325 176.538 171.387 175.716 174.94 175.716C178.493 175.716 181.556 176.538 184.128 178.182C186.713 179.812 188.702 182.192 190.094 185.321C191.486 188.45 192.175 192.241 192.162 196.696C192.162 201.177 191.466 205.009 190.074 208.19C188.682 211.372 186.7 213.805 184.128 215.489C181.569 217.159 178.507 217.994 174.94 217.994ZM174.94 209.94C177.062 209.94 178.778 208.86 180.091 206.699C181.403 204.525 182.053 201.19 182.04 196.696C182.04 193.753 181.741 191.327 181.145 189.418C180.548 187.495 179.72 186.063 178.659 185.122C177.598 184.181 176.359 183.71 174.94 183.71C172.832 183.71 171.129 184.777 169.83 186.912C168.53 189.033 167.874 192.295 167.861 196.696C167.848 199.679 168.133 202.152 168.716 204.114C169.313 206.076 170.148 207.541 171.222 208.509C172.295 209.463 173.535 209.94 174.94 209.94ZM214.643 217.994C211.09 217.994 208.028 217.152 205.456 215.469C202.884 213.772 200.902 211.339 199.51 208.17C198.118 204.989 197.429 201.164 197.442 196.696C197.455 192.228 198.151 188.437 199.53 185.321C200.922 182.192 202.897 179.812 205.456 178.182C208.028 176.538 211.09 175.716 214.643 175.716C218.196 175.716 221.259 176.538 223.831 178.182C226.416 179.812 228.405 182.192 229.797 185.321C231.189 188.45 231.878 192.241 231.865 196.696C231.865 201.177 231.169 205.009 229.777 208.19C228.385 211.372 226.403 213.805 223.831 215.489C221.272 217.159 218.21 217.994 214.643 217.994ZM214.643 209.94C216.765 209.94 218.482 208.86 219.794 206.699C221.107 204.525 221.756 201.19 221.743 196.696C221.743 193.753 221.445 191.327 220.848 189.418C220.251 187.495 219.423 186.063 218.362 185.122C217.302 184.181 216.062 183.71 214.643 183.71C212.536 183.71 210.832 184.777 209.533 186.912C208.233 189.033 207.577 192.295 207.564 196.696C207.551 199.679 207.836 202.152 208.419 204.114C209.016 206.076 209.851 207.541 210.925 208.509C211.999 209.463 213.238 209.94 214.643 209.94ZM254.347 217.994C250.794 217.994 247.731 217.152 245.159 215.469C242.587 213.772 240.605 211.339 239.213 208.17C237.821 204.989 237.132 201.164 237.145 196.696C237.158 192.228 237.854 188.437 239.233 185.321C240.625 182.192 242.6 179.812 245.159 178.182C247.731 176.538 250.794 175.716 254.347 175.716C257.9 175.716 260.962 176.538 263.534 178.182C266.119 179.812 268.108 182.192 269.5 185.321C270.892 188.45 271.581 192.241 271.568 196.696C271.568 201.177 270.872 205.009 269.48 208.19C268.088 211.372 266.106 213.805 263.534 215.489C260.975 217.159 257.913 217.994 254.347 217.994ZM254.347 209.94C256.468 209.94 258.185 208.86 259.497 206.699C260.81 204.525 261.459 201.19 261.446 196.696C261.446 193.753 261.148 191.327 260.551 189.418C259.955 187.495 259.126 186.063 258.065 185.122C257.005 184.181 255.765 183.71 254.347 183.71C252.239 183.71 250.535 184.777 249.236 186.912C247.937 189.033 247.28 192.295 247.267 196.696C247.254 199.679 247.539 202.152 248.122 204.114C248.719 206.076 249.554 207.541 250.628 208.509C251.702 209.463 252.941 209.94 254.347 209.94Z" fill="#2D995F"/>
<path d="M64.7614 134.455H66.8636L71.8068 146.528H71.9773L76.9205 134.455H79.0227V149H77.375V137.949H77.233L72.6875 149H71.0966L66.5511 137.949H66.4091V149H64.7614V134.455ZM86.7589 149.227C85.774 149.227 84.9099 148.993 84.1665 148.524C83.4279 148.055 82.8503 147.4 82.4336 146.557C82.0217 145.714 81.8157 144.729 81.8157 143.602C81.8157 142.466 82.0217 141.474 82.4336 140.626C82.8503 139.779 83.4279 139.121 84.1665 138.652C84.9099 138.183 85.774 137.949 86.7589 137.949C87.7437 137.949 88.6055 138.183 89.3441 138.652C90.0875 139.121 90.6651 139.779 91.0771 140.626C91.4937 141.474 91.7021 142.466 91.7021 143.602C91.7021 144.729 91.4937 145.714 91.0771 146.557C90.6651 147.4 90.0875 148.055 89.3441 148.524C88.6055 148.993 87.7437 149.227 86.7589 149.227ZM86.7589 147.722C87.507 147.722 88.1225 147.53 88.6055 147.146C89.0884 146.763 89.4459 146.259 89.6779 145.634C89.9099 145.009 90.0259 144.331 90.0259 143.602C90.0259 142.873 89.9099 142.194 89.6779 141.564C89.4459 140.934 89.0884 140.425 88.6055 140.037C88.1225 139.649 87.507 139.455 86.7589 139.455C86.0108 139.455 85.3952 139.649 84.9123 140.037C84.4293 140.425 84.0719 140.934 83.8398 141.564C83.6078 142.194 83.4918 142.873 83.4918 143.602C83.4918 144.331 83.6078 145.009 83.8398 145.634C84.0719 146.259 84.4293 146.763 84.9123 147.146C85.3952 147.53 86.0108 147.722 86.7589 147.722ZM95.9368 142.438V149H94.2607V138.091H95.88V139.795H96.022C96.2777 139.241 96.666 138.796 97.1868 138.46C97.7076 138.119 98.38 137.949 99.2038 137.949C99.9425 137.949 100.589 138.1 101.143 138.403C101.697 138.702 102.128 139.156 102.435 139.767C102.743 140.373 102.897 141.14 102.897 142.068V149H101.221V142.182C101.221 141.325 100.998 140.657 100.553 140.179C100.108 139.696 99.4974 139.455 98.7209 139.455C98.1858 139.455 97.7076 139.571 97.2862 139.803C96.8696 140.035 96.5405 140.373 96.299 140.818C96.0575 141.263 95.9368 141.803 95.9368 142.438ZM105.96 149V138.091H107.636V149H105.96ZM106.812 136.273C106.485 136.273 106.204 136.161 105.967 135.939C105.735 135.716 105.619 135.449 105.619 135.136C105.619 134.824 105.735 134.556 105.967 134.334C106.204 134.111 106.485 134 106.812 134C107.139 134 107.418 134.111 107.65 134.334C107.887 134.556 108.005 134.824 108.005 135.136C108.005 135.449 107.887 135.716 107.65 135.939C107.418 136.161 107.139 136.273 106.812 136.273ZM115.45 138.091V139.511H109.797V138.091H115.45ZM111.445 135.477H113.121V145.875C113.121 146.348 113.189 146.704 113.327 146.94C113.469 147.172 113.649 147.329 113.866 147.409C114.089 147.485 114.323 147.523 114.57 147.523C114.754 147.523 114.906 147.513 115.024 147.494C115.143 147.471 115.237 147.452 115.308 147.438L115.649 148.943C115.536 148.986 115.377 149.028 115.173 149.071C114.97 149.118 114.712 149.142 114.399 149.142C113.926 149.142 113.462 149.04 113.007 148.837C112.557 148.633 112.183 148.323 111.885 147.906C111.591 147.49 111.445 146.964 111.445 146.33V135.477ZM122.286 149.227C121.301 149.227 120.437 148.993 119.694 148.524C118.955 148.055 118.378 147.4 117.961 146.557C117.549 145.714 117.343 144.729 117.343 143.602C117.343 142.466 117.549 141.474 117.961 140.626C118.378 139.779 118.955 139.121 119.694 138.652C120.437 138.183 121.301 137.949 122.286 137.949C123.271 137.949 124.133 138.183 124.871 138.652C125.615 139.121 126.192 139.779 126.604 140.626C127.021 141.474 127.229 142.466 127.229 143.602C127.229 144.729 127.021 145.714 126.604 146.557C126.192 147.4 125.615 148.055 124.871 148.524C124.133 148.993 123.271 149.227 122.286 149.227ZM122.286 147.722C123.034 147.722 123.65 147.53 124.133 147.146C124.616 146.763 124.973 146.259 125.205 145.634C125.437 145.009 125.553 144.331 125.553 143.602C125.553 142.873 125.437 142.194 125.205 141.564C124.973 140.934 124.616 140.425 124.133 140.037C123.65 139.649 123.034 139.455 122.286 139.455C121.538 139.455 120.923 139.649 120.44 140.037C119.957 140.425 119.599 140.934 119.367 141.564C119.135 142.194 119.019 142.873 119.019 143.602C119.019 144.331 119.135 145.009 119.367 145.634C119.599 146.259 119.957 146.763 120.44 147.146C120.923 147.53 121.538 147.722 122.286 147.722ZM129.788 149V138.091H131.407V139.739H131.521C131.72 139.199 132.08 138.761 132.6 138.425C133.121 138.089 133.708 137.92 134.362 137.92C134.485 137.92 134.639 137.923 134.824 137.928C135.008 137.932 135.148 137.939 135.243 137.949V139.653C135.186 139.639 135.056 139.618 134.852 139.589C134.653 139.556 134.442 139.54 134.22 139.54C133.69 139.54 133.216 139.651 132.799 139.874C132.387 140.091 132.061 140.394 131.819 140.783C131.583 141.166 131.464 141.604 131.464 142.097V149H129.788ZM147.712 138.091V139.511H141.832V138.091H147.712ZM143.593 149V136.585C143.593 135.96 143.74 135.439 144.033 135.023C144.327 134.606 144.708 134.294 145.177 134.085C145.646 133.877 146.14 133.773 146.661 133.773C147.073 133.773 147.409 133.806 147.67 133.872C147.93 133.938 148.124 134 148.252 134.057L147.769 135.506C147.684 135.477 147.566 135.442 147.414 135.399C147.267 135.357 147.073 135.335 146.832 135.335C146.278 135.335 145.878 135.475 145.631 135.754C145.39 136.034 145.269 136.443 145.269 136.983V149H143.593ZM154.186 149.227C153.135 149.227 152.228 148.995 151.466 148.531C150.708 148.062 150.124 147.409 149.712 146.571C149.304 145.728 149.101 144.748 149.101 143.631C149.101 142.513 149.304 141.528 149.712 140.676C150.124 139.819 150.696 139.152 151.43 138.673C152.169 138.19 153.031 137.949 154.016 137.949C154.584 137.949 155.145 138.044 155.699 138.233C156.253 138.422 156.757 138.73 157.212 139.156C157.666 139.578 158.028 140.136 158.298 140.832C158.568 141.528 158.703 142.385 158.703 143.403V144.114H150.294V142.665H156.999C156.999 142.049 156.875 141.5 156.629 141.017C156.388 140.534 156.042 140.153 155.592 139.874C155.147 139.594 154.622 139.455 154.016 139.455C153.348 139.455 152.77 139.62 152.283 139.952C151.8 140.278 151.428 140.705 151.168 141.23C150.907 141.756 150.777 142.319 150.777 142.92V143.886C150.777 144.71 150.919 145.409 151.203 145.982C151.492 146.55 151.892 146.983 152.403 147.281C152.915 147.575 153.509 147.722 154.186 147.722C154.626 147.722 155.024 147.66 155.379 147.537C155.739 147.409 156.049 147.22 156.31 146.969C156.57 146.713 156.771 146.396 156.913 146.017L158.533 146.472C158.362 147.021 158.076 147.504 157.673 147.92C157.271 148.332 156.774 148.654 156.182 148.886C155.59 149.114 154.925 149.227 154.186 149.227ZM165.827 149.227C164.776 149.227 163.869 148.995 163.107 148.531C162.349 148.062 161.764 147.409 161.352 146.571C160.945 145.728 160.741 144.748 160.741 143.631C160.741 142.513 160.945 141.528 161.352 140.676C161.764 139.819 162.337 139.152 163.071 138.673C163.81 138.19 164.671 137.949 165.656 137.949C166.224 137.949 166.786 138.044 167.339 138.233C167.893 138.422 168.398 138.73 168.852 139.156C169.307 139.578 169.669 140.136 169.939 140.832C170.209 141.528 170.344 142.385 170.344 143.403V144.114H161.935V142.665H168.639C168.639 142.049 168.516 141.5 168.27 141.017C168.028 140.534 167.683 140.153 167.233 139.874C166.788 139.594 166.262 139.455 165.656 139.455C164.989 139.455 164.411 139.62 163.923 139.952C163.44 140.278 163.069 140.705 162.808 141.23C162.548 141.756 162.418 142.319 162.418 142.92V143.886C162.418 144.71 162.56 145.409 162.844 145.982C163.133 146.55 163.533 146.983 164.044 147.281C164.555 147.575 165.15 147.722 165.827 147.722C166.267 147.722 166.665 147.66 167.02 147.537C167.38 147.409 167.69 147.22 167.95 146.969C168.211 146.713 168.412 146.396 168.554 146.017L170.173 146.472C170.003 147.021 169.716 147.504 169.314 147.92C168.911 148.332 168.414 148.654 167.822 148.886C167.231 149.114 166.565 149.227 165.827 149.227Z" fill="#343A40"/>
<rect x="28" y="95" width="7" height="226" rx="3.5" fill="#2D995F"/>
<rect x="63.5" y="257.5" width="285" height="47" rx="3.5" stroke="#2D995F"/>
<path d="M133.909 278.156C133.81 277.811 133.67 277.505 133.49 277.24C133.31 276.97 133.09 276.743 132.83 276.558C132.574 276.369 132.28 276.224 131.949 276.125C131.622 276.026 131.26 275.976 130.862 275.976C130.119 275.976 129.465 276.161 128.902 276.53C128.343 276.899 127.908 277.437 127.595 278.142C127.283 278.843 127.126 279.7 127.126 280.713C127.126 281.726 127.28 282.588 127.588 283.298C127.896 284.009 128.331 284.551 128.895 284.925C129.458 285.294 130.124 285.479 130.891 285.479C131.587 285.479 132.181 285.356 132.673 285.109C133.17 284.858 133.549 284.506 133.81 284.051C134.075 283.597 134.207 283.059 134.207 282.439L134.832 282.531H131.082V280.216H137.169V282.048C137.169 283.327 136.899 284.425 136.359 285.344C135.82 286.258 135.076 286.963 134.129 287.46C133.182 287.953 132.098 288.199 130.876 288.199C129.513 288.199 128.315 287.898 127.283 287.297C126.25 286.691 125.446 285.831 124.868 284.719C124.295 283.601 124.009 282.276 124.009 280.741C124.009 279.562 124.179 278.511 124.52 277.588C124.866 276.66 125.348 275.874 125.969 275.23C126.589 274.586 127.311 274.096 128.135 273.76C128.959 273.424 129.851 273.256 130.812 273.256C131.636 273.256 132.403 273.376 133.114 273.618C133.824 273.855 134.454 274.191 135.003 274.626C135.557 275.062 136.009 275.58 136.359 276.182C136.71 276.778 136.935 277.437 137.034 278.156H133.909ZM144.394 288.213C143.272 288.213 142.306 287.986 141.496 287.531C140.691 287.072 140.071 286.423 139.635 285.585C139.2 284.742 138.982 283.746 138.982 282.595C138.982 281.473 139.2 280.488 139.635 279.641C140.071 278.793 140.684 278.133 141.475 277.659C142.27 277.186 143.203 276.949 144.273 276.949C144.993 276.949 145.663 277.065 146.283 277.297C146.908 277.524 147.453 277.867 147.917 278.327C148.385 278.786 148.75 279.364 149.01 280.06C149.271 280.751 149.401 281.561 149.401 282.489V283.32H140.189V281.445H146.553C146.553 281.009 146.458 280.623 146.269 280.287C146.079 279.951 145.817 279.688 145.48 279.499C145.149 279.304 144.763 279.207 144.323 279.207C143.864 279.207 143.456 279.314 143.101 279.527C142.751 279.735 142.476 280.017 142.277 280.372C142.078 280.723 141.977 281.113 141.972 281.544V283.327C141.972 283.866 142.071 284.333 142.27 284.726C142.474 285.119 142.76 285.422 143.13 285.635C143.499 285.848 143.937 285.955 144.444 285.955C144.78 285.955 145.087 285.907 145.367 285.812C145.646 285.718 145.885 285.576 146.084 285.386C146.283 285.197 146.435 284.965 146.539 284.69L149.337 284.875C149.195 285.547 148.904 286.134 148.463 286.636C148.028 287.134 147.464 287.522 146.773 287.801C146.087 288.076 145.293 288.213 144.394 288.213ZM154.401 281.693V288H151.375V277.091H154.259V279.016H154.387C154.628 278.381 155.033 277.879 155.601 277.51C156.169 277.136 156.858 276.949 157.668 276.949C158.426 276.949 159.086 277.115 159.65 277.446C160.213 277.777 160.651 278.251 160.963 278.866C161.276 279.477 161.432 280.206 161.432 281.054V288H158.407V281.594C158.411 280.926 158.241 280.405 157.895 280.031C157.55 279.652 157.074 279.463 156.468 279.463C156.06 279.463 155.701 279.551 155.388 279.726C155.08 279.901 154.839 280.157 154.664 280.493C154.493 280.824 154.406 281.224 154.401 281.693ZM168.788 288.213C167.666 288.213 166.7 287.986 165.891 287.531C165.086 287.072 164.465 286.423 164.03 285.585C163.594 284.742 163.376 283.746 163.376 282.595C163.376 281.473 163.594 280.488 164.03 279.641C164.465 278.793 165.079 278.133 165.869 277.659C166.665 277.186 167.598 276.949 168.668 276.949C169.387 276.949 170.057 277.065 170.678 277.297C171.303 277.524 171.847 277.867 172.311 278.327C172.78 278.786 173.144 279.364 173.405 280.06C173.665 280.751 173.795 281.561 173.795 282.489V283.32H164.584V281.445H170.947C170.947 281.009 170.853 280.623 170.663 280.287C170.474 279.951 170.211 279.688 169.875 279.499C169.544 279.304 169.158 279.207 168.717 279.207C168.258 279.207 167.851 279.314 167.496 279.527C167.145 279.735 166.871 280.017 166.672 280.372C166.473 280.723 166.371 281.113 166.366 281.544V283.327C166.366 283.866 166.466 284.333 166.665 284.726C166.868 285.119 167.155 285.422 167.524 285.635C167.893 285.848 168.331 285.955 168.838 285.955C169.174 285.955 169.482 285.907 169.761 285.812C170.041 285.718 170.28 285.576 170.479 285.386C170.678 285.197 170.829 284.965 170.933 284.69L173.732 284.875C173.589 285.547 173.298 286.134 172.858 286.636C172.422 287.134 171.859 287.522 171.168 287.801C170.481 288.076 169.688 288.213 168.788 288.213ZM175.77 288V277.091H178.703V278.994H178.817C179.016 278.317 179.349 277.806 179.818 277.46C180.287 277.11 180.827 276.935 181.438 276.935C181.589 276.935 181.752 276.944 181.928 276.963C182.103 276.982 182.257 277.008 182.389 277.041V279.726C182.247 279.683 182.051 279.645 181.8 279.612C181.549 279.579 181.319 279.562 181.111 279.562C180.666 279.562 180.268 279.66 179.918 279.854C179.572 280.043 179.297 280.308 179.094 280.649C178.895 280.99 178.795 281.383 178.795 281.828V288H175.77ZM186.752 288.206C186.056 288.206 185.435 288.085 184.891 287.844C184.346 287.598 183.916 287.235 183.598 286.757C183.286 286.274 183.13 285.673 183.13 284.953C183.13 284.347 183.241 283.838 183.463 283.426C183.686 283.014 183.989 282.683 184.373 282.432C184.756 282.181 185.192 281.991 185.679 281.864C186.172 281.736 186.688 281.646 187.228 281.594C187.862 281.527 188.373 281.466 188.762 281.409C189.15 281.348 189.432 281.258 189.607 281.139C189.782 281.021 189.87 280.846 189.87 280.614V280.571C189.87 280.121 189.728 279.773 189.444 279.527C189.164 279.281 188.766 279.158 188.25 279.158C187.706 279.158 187.273 279.278 186.951 279.52C186.629 279.757 186.416 280.055 186.311 280.415L183.513 280.188C183.655 279.525 183.935 278.952 184.351 278.469C184.768 277.981 185.305 277.607 185.963 277.347C186.626 277.081 187.393 276.949 188.265 276.949C188.871 276.949 189.451 277.02 190.005 277.162C190.563 277.304 191.058 277.524 191.489 277.822C191.925 278.121 192.268 278.504 192.519 278.973C192.77 279.437 192.895 279.993 192.895 280.642V288H190.026V286.487H189.941C189.766 286.828 189.531 287.129 189.238 287.389C188.944 287.645 188.591 287.846 188.179 287.993C187.767 288.135 187.292 288.206 186.752 288.206ZM187.618 286.118C188.063 286.118 188.456 286.03 188.797 285.855C189.138 285.675 189.406 285.434 189.6 285.131C189.794 284.828 189.891 284.484 189.891 284.101V282.943C189.796 283.005 189.666 283.062 189.5 283.114C189.339 283.161 189.157 283.206 188.953 283.249C188.75 283.286 188.546 283.322 188.343 283.355C188.139 283.384 187.954 283.41 187.789 283.433C187.434 283.485 187.123 283.568 186.858 283.682C186.593 283.795 186.387 283.949 186.24 284.143C186.094 284.333 186.02 284.57 186.02 284.854C186.02 285.266 186.169 285.58 186.468 285.798C186.771 286.011 187.154 286.118 187.618 286.118ZM201.045 277.091V279.364H194.475V277.091H201.045ZM195.967 274.477H198.993V284.648C198.993 284.927 199.035 285.145 199.12 285.301C199.206 285.453 199.324 285.559 199.475 285.621C199.632 285.682 199.812 285.713 200.015 285.713C200.157 285.713 200.299 285.701 200.441 285.678C200.583 285.649 200.692 285.628 200.768 285.614L201.244 287.865C201.092 287.912 200.879 287.967 200.605 288.028C200.33 288.095 199.996 288.135 199.603 288.149C198.874 288.178 198.235 288.08 197.686 287.858C197.141 287.635 196.717 287.29 196.414 286.821C196.111 286.352 195.962 285.76 195.967 285.045V274.477ZM207.87 288.213C206.748 288.213 205.782 287.986 204.973 287.531C204.168 287.072 203.547 286.423 203.112 285.585C202.676 284.742 202.458 283.746 202.458 282.595C202.458 281.473 202.676 280.488 203.112 279.641C203.547 278.793 204.161 278.133 204.951 277.659C205.747 277.186 206.68 276.949 207.75 276.949C208.469 276.949 209.139 277.065 209.76 277.297C210.385 277.524 210.929 277.867 211.393 278.327C211.862 278.786 212.226 279.364 212.487 280.06C212.747 280.751 212.877 281.561 212.877 282.489V283.32H203.666V281.445H210.029C210.029 281.009 209.935 280.623 209.745 280.287C209.556 279.951 209.293 279.688 208.957 279.499C208.626 279.304 208.24 279.207 207.799 279.207C207.34 279.207 206.933 279.314 206.578 279.527C206.227 279.735 205.953 280.017 205.754 280.372C205.555 280.723 205.453 281.113 205.449 281.544V283.327C205.449 283.866 205.548 284.333 205.747 284.726C205.95 285.119 206.237 285.422 206.606 285.635C206.975 285.848 207.413 285.955 207.92 285.955C208.256 285.955 208.564 285.907 208.843 285.812C209.123 285.718 209.362 285.576 209.561 285.386C209.76 285.197 209.911 284.965 210.015 284.69L212.814 284.875C212.672 285.547 212.38 286.134 211.94 286.636C211.504 287.134 210.941 287.522 210.25 287.801C209.563 288.076 208.77 288.213 207.87 288.213ZM222.613 273.455V288H219.538V273.455H222.613ZM228.112 281.693V288H225.086V277.091H227.97V279.016H228.098C228.339 278.381 228.744 277.879 229.312 277.51C229.88 277.136 230.569 276.949 231.379 276.949C232.136 276.949 232.797 277.115 233.36 277.446C233.924 277.777 234.362 278.251 234.674 278.866C234.987 279.477 235.143 280.206 235.143 281.054V288H232.118V281.594C232.122 280.926 231.952 280.405 231.606 280.031C231.261 279.652 230.785 279.463 230.179 279.463C229.771 279.463 229.412 279.551 229.099 279.726C228.791 279.901 228.55 280.157 228.375 280.493C228.204 280.824 228.117 281.224 228.112 281.693ZM247.308 277.091L243.494 288H240.085L236.271 277.091H239.467L241.732 284.896H241.846L244.104 277.091H247.308ZM253.433 288.213C252.33 288.213 251.376 287.979 250.571 287.51C249.771 287.036 249.153 286.378 248.717 285.536C248.282 284.688 248.064 283.705 248.064 282.588C248.064 281.461 248.282 280.476 248.717 279.634C249.153 278.786 249.771 278.128 250.571 277.659C251.376 277.186 252.33 276.949 253.433 276.949C254.536 276.949 255.488 277.186 256.288 277.659C257.093 278.128 257.714 278.786 258.149 279.634C258.585 280.476 258.803 281.461 258.803 282.588C258.803 283.705 258.585 284.688 258.149 285.536C257.714 286.378 257.093 287.036 256.288 287.51C255.488 287.979 254.536 288.213 253.433 288.213ZM253.447 285.869C253.949 285.869 254.368 285.727 254.705 285.443C255.041 285.154 255.294 284.761 255.464 284.264C255.64 283.767 255.727 283.201 255.727 282.567C255.727 281.932 255.64 281.366 255.464 280.869C255.294 280.372 255.041 279.979 254.705 279.69C254.368 279.402 253.949 279.257 253.447 279.257C252.941 279.257 252.515 279.402 252.169 279.69C251.828 279.979 251.57 280.372 251.395 280.869C251.224 281.366 251.139 281.932 251.139 282.567C251.139 283.201 251.224 283.767 251.395 284.264C251.57 284.761 251.828 285.154 252.169 285.443C252.515 285.727 252.941 285.869 253.447 285.869ZM260.77 288V277.091H263.795V288H260.77ZM262.29 275.685C261.84 275.685 261.454 275.536 261.132 275.237C260.815 274.934 260.656 274.572 260.656 274.151C260.656 273.734 260.815 273.376 261.132 273.078C261.454 272.775 261.84 272.624 262.29 272.624C262.74 272.624 263.123 272.775 263.44 273.078C263.762 273.376 263.923 273.734 263.923 274.151C263.923 274.572 263.762 274.934 263.44 275.237C263.123 275.536 262.74 275.685 262.29 275.685ZM271.148 288.213C270.031 288.213 269.069 287.976 268.265 287.503C267.464 287.025 266.849 286.362 266.418 285.514C265.992 284.667 265.779 283.691 265.779 282.588C265.779 281.471 265.994 280.491 266.425 279.648C266.861 278.8 267.479 278.14 268.279 277.666C269.079 277.188 270.031 276.949 271.134 276.949C272.086 276.949 272.919 277.122 273.634 277.467C274.349 277.813 274.915 278.298 275.331 278.923C275.748 279.548 275.978 280.282 276.02 281.125H273.165C273.085 280.58 272.872 280.143 272.526 279.811C272.185 279.475 271.738 279.307 271.184 279.307C270.715 279.307 270.305 279.435 269.955 279.69C269.609 279.941 269.339 280.308 269.145 280.791C268.951 281.274 268.854 281.859 268.854 282.545C268.854 283.241 268.949 283.833 269.138 284.321C269.332 284.809 269.605 285.18 269.955 285.436C270.305 285.692 270.715 285.82 271.184 285.82C271.529 285.82 271.839 285.749 272.114 285.607C272.393 285.464 272.623 285.259 272.803 284.989C272.988 284.714 273.108 284.385 273.165 284.001H276.02C275.973 284.835 275.746 285.569 275.338 286.203C274.936 286.833 274.38 287.325 273.669 287.68C272.959 288.036 272.119 288.213 271.148 288.213ZM282.929 288.213C281.807 288.213 280.841 287.986 280.031 287.531C279.226 287.072 278.606 286.423 278.17 285.585C277.735 284.742 277.517 283.746 277.517 282.595C277.517 281.473 277.735 280.488 278.17 279.641C278.606 278.793 279.219 278.133 280.01 277.659C280.805 277.186 281.738 276.949 282.808 276.949C283.528 276.949 284.198 277.065 284.818 277.297C285.443 277.524 285.988 277.867 286.452 278.327C286.92 278.786 287.285 279.364 287.545 280.06C287.806 280.751 287.936 281.561 287.936 282.489V283.32H278.724V281.445H285.088C285.088 281.009 284.993 280.623 284.804 280.287C284.615 279.951 284.352 279.688 284.016 279.499C283.684 279.304 283.298 279.207 282.858 279.207C282.399 279.207 281.991 279.314 281.636 279.527C281.286 279.735 281.011 280.017 280.812 280.372C280.614 280.723 280.512 281.113 280.507 281.544V283.327C280.507 283.866 280.607 284.333 280.805 284.726C281.009 285.119 281.295 285.422 281.665 285.635C282.034 285.848 282.472 285.955 282.979 285.955C283.315 285.955 283.623 285.907 283.902 285.812C284.181 285.718 284.42 285.576 284.619 285.386C284.818 285.197 284.97 284.965 285.074 284.69L287.872 284.875C287.73 285.547 287.439 286.134 286.999 286.636C286.563 287.134 286 287.522 285.308 287.801C284.622 288.076 283.829 288.213 282.929 288.213Z" fill="#2D995F"/>
<path d="M1022.56 289.117H1015.29L1011.84 261.021H1022.56L1022.56 289.117Z" fill="#9F616A"/>
<path d="M1024.42 296.178L1000.98 296.177V295.88C1000.98 293.455 1001.94 291.13 1003.65 289.416C1005.36 287.702 1007.68 286.738 1010.1 286.738L1024.42 286.739L1024.42 296.178Z" fill="#2F2E41"/>
<path d="M951.721 288.539L944.83 286.224L950.463 258.484L960.634 261.902L951.721 288.539Z" fill="#9F616A"/>
<path d="M951.239 295.825L929.018 288.359L929.112 288.077C929.881 285.779 931.53 283.88 933.696 282.8C935.862 281.719 938.367 281.545 940.661 282.316L954.233 286.876L951.239 295.825Z" fill="#2F2E41"/>
<path d="M960.681 143.917L944.941 277.351L960.379 278.655C960.379 278.655 984.662 147.466 992.149 163.006C999.635 178.547 1008.81 275.743 1008.81 275.743H1024.13C1024.13 275.743 1028.06 124.09 1012.02 116.588L960.681 143.917Z" fill="#2F2E41"/>
<path d="M1001.48 33.9883C1002.97 25.5357 997.332 17.4765 988.897 15.9874C980.463 14.4983 972.421 20.1432 970.935 28.5957C969.449 37.0483 975.082 45.1075 983.516 46.5966C991.951 48.0858 999.993 42.4408 1001.48 33.9883Z" fill="#9F616A"/>
<path d="M976.991 52.5508L996.776 54.1584C996.776 54.1584 1012.55 54.4263 1018.97 58.7133C1025.39 63.0003 1012.82 89.5262 1012.82 89.5262C1012.82 89.5262 1009.55 100.043 1012.02 104.799C1020.01 120.229 1018.83 132.111 1018.83 132.111C1018.83 132.111 1002.39 135.879 974.05 143.382C974.05 143.382 956.403 150.348 956.938 146.597C957.473 142.846 962.82 99.9757 962.82 99.9757V55.498L976.991 52.5508Z" fill="#3F3D56"/>
<path d="M1011.6 29.6079C1010.81 25.1824 1009.04 18.9046 1005.09 14.1448C1005.21 14.1456 1005.34 14.151 1005.46 14.1474C1006.82 14.1077 1008.36 13.6786 1008.92 12.439C1009.1 11.9425 1009.15 11.4065 1009.05 10.8865C1008.96 10.3666 1008.73 9.88158 1008.38 9.48182C1007.68 8.69215 1006.84 8.03639 1005.91 7.54644C1006.86 8.1261 1008.21 8.66451 1008.97 7.84802C1009.17 7.60184 1009.29 7.30494 1009.32 6.99212C1009.35 6.67929 1009.3 6.36351 1009.16 6.08181C1008.87 5.52293 1008.46 5.03292 1007.97 4.64509C1006.37 3.22549 1004.61 1.98634 1002.74 0.949898C1001.29 0.147657 999.388 -0.496553 998.087 0.529686C996.762 1.57515 996.975 3.61094 997.315 5.26616C996.573 4.83141 995.739 4.57911 994.881 4.52998C994.452 4.51771 994.032 4.65401 993.692 4.9159C993.352 5.17778 993.112 5.54923 993.014 5.96756C993.001 6.29768 993.074 6.62539 993.225 6.91898C993.377 7.21256 993.601 7.46208 993.876 7.64334C988.763 6.80074 982.23 7.75681 973.878 11.6296C973.878 11.6296 965.779 14.3348 965.368 25.0182C965.326 26.7269 965.515 28.4334 965.93 30.0912C966.386 32.0279 968.01 41.5288 966.063 45.3685L975.816 48.8509L975.927 42.9966C968.347 32.0316 972.092 28.0079 975.043 21.4131C975.048 21.401 975.056 21.3906 975.067 21.383C975.077 21.3754 975.09 21.3708 975.102 21.3698C975.115 21.3689 975.128 21.3715 975.14 21.3775C975.151 21.3835 975.161 21.3925 975.167 21.4037C975.713 22.3415 977.803 25.5564 984.996 25.5564L982.216 22.771C982.216 22.771 994.446 27.7846 998.893 27.7846C998.893 27.7846 1002.23 30.0129 998.893 33.3553C995.558 36.6977 988.258 41.6173 992.149 47.7451C996.04 53.8728 995.705 56.0468 995.705 56.0468L1004.6 51.0332C1004.6 51.0332 1010.03 40.2621 1011 37.0902C1011.79 34.6796 1012 32.1149 1011.6 29.6079Z" fill="#2F2E41"/>
<path d="M904.729 150.375H1081.67V248.655H1059.19V275.682L1034.98 248.655H904.729V150.375Z" fill="#2D995F"/>
<path d="M1052.65 179.242H933.742V184.566H1052.65V179.242Z" fill="white"/>
<path d="M1052.65 196.852H933.742V202.175H1052.65V196.852Z" fill="white"/>
<path d="M1052.65 214.461H933.742V219.784H1052.65V214.461Z" fill="white"/>
<path d="M1020.91 87.4004L1010.53 89.9285L1010.45 110.977L998.777 151.35C997.843 152.09 997.129 153.073 996.712 154.191C996.296 155.31 996.193 156.521 996.415 157.694C996.637 158.867 997.175 159.956 997.972 160.844C998.768 161.732 999.792 162.384 1000.93 162.73C1002.07 163.076 1003.28 163.102 1004.44 162.806C1005.59 162.51 1006.64 161.903 1007.48 161.051C1008.31 160.199 1008.9 159.134 1009.17 157.972C1009.44 156.81 1009.39 155.595 1009.02 154.46L1022.98 112.665L1020.91 87.4004Z" fill="#9F616A"/>
<path d="M951.833 86.959L964.284 90.5238L964.362 111.572L976.035 151.945C976.969 152.686 977.684 153.668 978.1 154.787C978.516 155.905 978.619 157.116 978.397 158.289C978.175 159.462 977.637 160.551 976.84 161.439C976.044 162.327 975.02 162.979 973.88 163.325C972.74 163.671 971.528 163.698 970.374 163.402C969.22 163.106 968.169 162.499 967.335 161.646C966.501 160.794 965.916 159.729 965.643 158.567C965.37 157.405 965.42 156.191 965.788 155.055L951.833 113.26V86.959Z" fill="#9F616A"/>
<path d="M1005.33 56.5708L1007.9 55.7304C1009.35 55.2585 1010.92 55.3677 1012.28 56.0349C1012.28 56.0349 1019.77 56.5708 1020.84 61.9295C1021.91 67.2883 1024.51 114.127 1024.51 114.127L1008.65 109.07L1005.33 56.5708Z" fill="#3F3D56"/>
<path d="M969.237 56.5709L964.685 56.3415L963.243 55.6191C963.243 55.6191 954.799 56.5709 953.73 61.9296C952.66 67.2884 949.548 115.571 949.548 115.571L965.406 111.238L969.237 56.5709Z" fill="#3F3D56"/>
<path d="M707.707 246.42L715.224 239.849C714.902 235.129 714.315 230.432 713.466 225.778L709.318 227.537L713.166 224.172C712.059 218.429 710.963 214.695 710.963 214.695C710.963 214.695 695.797 228.191 687.311 244.655L691.034 256.926L685.348 248.812C684.502 250.77 683.78 252.781 683.187 254.83C677.269 275.516 679.214 294.222 687.53 296.611C695.846 299 707.385 284.168 713.302 263.482C715.029 256.856 715.732 250.004 715.386 243.164L707.707 246.42Z" fill="#ACE7C7"/>
<path d="M727.611 262.504L737.435 260.773C739.594 256.566 741.515 252.241 743.188 247.817L738.73 247.174L743.76 246.288C745.774 240.797 746.762 237.033 746.762 237.033C746.762 237.033 726.818 240.73 711.062 250.428L707.918 262.862L707.237 252.97C705.502 254.208 703.848 255.555 702.282 257.003C686.547 271.645 678.563 288.666 684.449 295.019C690.336 301.371 707.864 294.651 723.6 280.008C728.496 275.231 732.632 269.729 735.864 263.695L727.611 262.504Z" fill="#ACE7C7"/>
<path d="M1105.17 296.872H659.721C659.53 296.872 659.346 296.796 659.211 296.661C659.076 296.525 659 296.342 659 296.15C659 295.958 659.076 295.775 659.211 295.639C659.346 295.504 659.53 295.428 659.721 295.428H1105.17C1105.36 295.428 1105.54 295.504 1105.68 295.639C1105.81 295.775 1105.89 295.958 1105.89 296.15C1105.89 296.342 1105.81 296.525 1105.68 296.661C1105.54 296.796 1105.36 296.872 1105.17 296.872Z" fill="#CBCBCB"/>
</svg>
