<svg width="379" height="165" viewBox="0 0 379 165" fill="none" xmlns="http://www.w3.org/2000/svg">
<rect width="379" height="165" rx="8" fill="#F5F8F6"/>
<path d="M31.9091 43.1562C31.8097 42.8106 31.67 42.5052 31.4901 42.2401C31.3101 41.9702 31.09 41.7429 30.8295 41.5582C30.5739 41.3688 30.2803 41.2244 29.9489 41.125C29.6222 41.0256 29.2599 40.9759 28.8622 40.9759C28.1188 40.9759 27.4654 41.1605 26.902 41.5298C26.3433 41.8991 25.9077 42.4366 25.5952 43.142C25.2827 43.8428 25.1264 44.6998 25.1264 45.7131C25.1264 46.7263 25.2803 47.5881 25.5881 48.2983C25.8958 49.0085 26.3314 49.5507 26.8949 49.9247C27.4583 50.294 28.1236 50.4787 28.8906 50.4787C29.5866 50.4787 30.1809 50.3556 30.6733 50.1094C31.1705 49.8584 31.5492 49.5057 31.8097 49.0511C32.0748 48.5966 32.2074 48.0592 32.2074 47.4389L32.8324 47.5312H29.0824V45.2159H35.169V47.0483C35.169 48.3267 34.8991 49.4252 34.3594 50.3438C33.8196 51.2576 33.0762 51.9631 32.1293 52.4602C31.1823 52.9527 30.098 53.1989 28.8764 53.1989C27.5128 53.1989 26.3149 52.8982 25.2827 52.2969C24.2505 51.6908 23.4455 50.8314 22.8679 49.7188C22.295 48.6013 22.0085 47.2756 22.0085 45.7415C22.0085 44.5625 22.179 43.5114 22.5199 42.5881C22.8655 41.66 23.3485 40.8741 23.9688 40.2301C24.589 39.5862 25.3111 39.0961 26.1349 38.7599C26.9588 38.4238 27.8513 38.2557 28.8125 38.2557C29.6364 38.2557 30.4034 38.3764 31.1136 38.6179C31.8239 38.8546 32.4536 39.1908 33.0028 39.6264C33.5568 40.062 34.009 40.5805 34.3594 41.1818C34.7098 41.7784 34.9347 42.4366 35.0341 43.1562H31.9091ZM42.3938 53.2131C41.2717 53.2131 40.3058 52.9858 39.4961 52.5312C38.6912 52.072 38.0709 51.4233 37.6353 50.5852C37.1997 49.7424 36.9819 48.7457 36.9819 47.5952C36.9819 46.473 37.1997 45.4882 37.6353 44.6406C38.0709 43.7931 38.6841 43.1326 39.4748 42.6591C40.2702 42.1856 41.203 41.9489 42.2731 41.9489C42.9928 41.9489 43.6628 42.0649 44.283 42.2969C44.908 42.5241 45.4525 42.8674 45.9165 43.3267C46.3853 43.786 46.7499 44.3636 47.0103 45.0597C47.2707 45.7509 47.4009 46.5606 47.4009 47.4886V48.3196H38.1893V46.4446H44.5529C44.5529 46.009 44.4582 45.6231 44.2688 45.2869C44.0794 44.9508 43.8166 44.688 43.4805 44.4986C43.149 44.3045 42.7631 44.2074 42.3228 44.2074C41.8635 44.2074 41.4563 44.3139 41.1012 44.527C40.7508 44.7353 40.4762 45.017 40.2773 45.3722C40.0785 45.7225 39.9767 46.1132 39.9719 46.544V48.3267C39.9719 48.8665 40.0714 49.3329 40.2702 49.7259C40.4738 50.1188 40.7603 50.4219 41.1296 50.6349C41.4989 50.848 41.9369 50.9545 42.4435 50.9545C42.7797 50.9545 43.0875 50.9072 43.3668 50.8125C43.6462 50.7178 43.8853 50.5758 44.0842 50.3864C44.283 50.197 44.4345 49.965 44.5387 49.6903L47.337 49.875C47.195 50.5473 46.9038 51.1345 46.4634 51.6364C46.0278 52.1335 45.4644 52.5218 44.7731 52.8011C44.0865 53.0758 43.2934 53.2131 42.3938 53.2131ZM55.1779 42.0909V44.3636H48.6083V42.0909H55.1779ZM50.0998 39.4773H53.1254V49.6477C53.1254 49.9271 53.168 50.1449 53.2532 50.3011C53.3384 50.4527 53.4568 50.5592 53.6083 50.6207C53.7646 50.6823 53.9445 50.7131 54.1481 50.7131C54.2901 50.7131 54.4322 50.7012 54.5742 50.6776C54.7163 50.6491 54.8252 50.6278 54.9009 50.6136L55.3768 52.8651C55.2253 52.9124 55.0122 52.9669 54.7376 53.0284C54.4629 53.0947 54.1291 53.1349 53.7362 53.1491C53.007 53.1776 52.3678 53.0805 51.8185 52.858C51.274 52.6354 50.8503 52.2898 50.5472 51.821C50.2442 51.3523 50.0951 50.7604 50.0998 50.0455V39.4773ZM74.0007 38.4545V53H71.3445L65.0163 43.8452H64.9098V53H61.8345V38.4545H64.5334L70.8118 47.6023H70.9396V38.4545H74.0007ZM82.7844 38.4545V53H79.7092V41.3736H79.6239L76.293 43.4616V40.7344L79.8938 38.4545H82.7844ZM91.9446 53.3196C90.723 53.3149 89.6719 53.0142 88.7912 52.4176C87.9152 51.821 87.2405 50.9569 86.767 49.8253C86.2983 48.6937 86.0663 47.3324 86.071 45.7415C86.071 44.1553 86.3054 42.8035 86.7741 41.6861C87.2476 40.5687 87.9223 39.7187 88.7983 39.1364C89.679 38.5492 90.7277 38.2557 91.9446 38.2557C93.1615 38.2557 94.2079 38.5492 95.0838 39.1364C95.9645 39.7235 96.6416 40.5758 97.1151 41.6932C97.5885 42.8059 97.8229 44.1553 97.8182 45.7415C97.8182 47.3371 97.5814 48.7008 97.108 49.8324C96.6392 50.964 95.9669 51.8281 95.0909 52.4247C94.215 53.0213 93.1662 53.3196 91.9446 53.3196ZM91.9446 50.7699C92.7779 50.7699 93.4432 50.3509 93.9403 49.5128C94.4375 48.6747 94.6837 47.4176 94.679 45.7415C94.679 44.6383 94.5653 43.7197 94.3381 42.9858C94.1155 42.2519 93.7983 41.7003 93.3864 41.331C92.9792 40.9616 92.4986 40.777 91.9446 40.777C91.116 40.777 90.4531 41.1913 89.956 42.0199C89.4588 42.8485 89.2079 44.089 89.2031 45.7415C89.2031 46.8589 89.3144 47.7917 89.5369 48.5398C89.7642 49.2831 90.0838 49.8419 90.4957 50.2159C90.9077 50.5852 91.3906 50.7699 91.9446 50.7699ZM105.714 53.3196C104.493 53.3149 103.441 53.0142 102.561 52.4176C101.685 51.821 101.01 50.9569 100.537 49.8253C100.068 48.6937 99.8358 47.3324 99.8406 45.7415C99.8406 44.1553 100.075 42.8035 100.544 41.6861C101.017 40.5687 101.692 39.7187 102.568 39.1364C103.449 38.5492 104.497 38.2557 105.714 38.2557C106.931 38.2557 107.977 38.5492 108.853 39.1364C109.734 39.7235 110.411 40.5758 110.885 41.6932C111.358 42.8059 111.592 44.1553 111.588 45.7415C111.588 47.3371 111.351 48.7008 110.877 49.8324C110.409 50.964 109.736 51.8281 108.86 52.4247C107.984 53.0213 106.936 53.3196 105.714 53.3196ZM105.714 50.7699C106.547 50.7699 107.213 50.3509 107.71 49.5128C108.207 48.6747 108.453 47.4176 108.449 45.7415C108.449 44.6383 108.335 43.7197 108.108 42.9858C107.885 42.2519 107.568 41.7003 107.156 41.331C106.749 40.9616 106.268 40.777 105.714 40.777C104.886 40.777 104.223 41.1913 103.725 42.0199C103.228 42.8485 102.977 44.089 102.973 45.7415C102.973 46.8589 103.084 47.7917 103.306 48.5398C103.534 49.2831 103.853 49.8419 104.265 50.2159C104.677 50.5852 105.16 50.7699 105.714 50.7699ZM116.511 51.0114L116.433 51.7926C116.372 52.4176 116.253 53.0402 116.078 53.6605C115.908 54.2855 115.728 54.8513 115.538 55.358C115.354 55.8646 115.205 56.2623 115.091 56.5511H113.131C113.202 56.2718 113.299 55.8812 113.422 55.3793C113.545 54.8821 113.661 54.3234 113.77 53.7031C113.879 53.0829 113.947 52.4508 113.976 51.8068L114.011 51.0114H116.511ZM124.366 53.3196C123.145 53.3149 122.094 53.0142 121.213 52.4176C120.337 51.821 119.662 50.9569 119.189 49.8253C118.72 48.6937 118.488 47.3324 118.493 45.7415C118.493 44.1553 118.727 42.8035 119.196 41.6861C119.67 40.5687 120.344 39.7187 121.22 39.1364C122.101 38.5492 123.15 38.2557 124.366 38.2557C125.583 38.2557 126.63 38.5492 127.506 39.1364C128.386 39.7235 129.063 40.5758 129.537 41.6932C130.01 42.8059 130.245 44.1553 130.24 45.7415C130.24 47.3371 130.003 48.7008 129.53 49.8324C129.061 50.964 128.389 51.8281 127.513 52.4247C126.637 53.0213 125.588 53.3196 124.366 53.3196ZM124.366 50.7699C125.2 50.7699 125.865 50.3509 126.362 49.5128C126.859 48.6747 127.106 47.4176 127.101 45.7415C127.101 44.6383 126.987 43.7197 126.76 42.9858C126.537 42.2519 126.22 41.7003 125.808 41.331C125.401 40.9616 124.92 40.777 124.366 40.777C123.538 40.777 122.875 41.1913 122.378 42.0199C121.881 42.8485 121.63 44.089 121.625 45.7415C121.625 46.8589 121.736 47.7917 121.959 48.5398C122.186 49.2831 122.506 49.8419 122.918 50.2159C123.33 50.5852 123.812 50.7699 124.366 50.7699ZM138.136 53.3196C136.914 53.3149 135.863 53.0142 134.983 52.4176C134.107 51.821 133.432 50.9569 132.958 49.8253C132.49 48.6937 132.258 47.3324 132.262 45.7415C132.262 44.1553 132.497 42.8035 132.966 41.6861C133.439 40.5687 134.114 39.7187 134.99 39.1364C135.87 38.5492 136.919 38.2557 138.136 38.2557C139.353 38.2557 140.399 38.5492 141.275 39.1364C142.156 39.7235 142.833 40.5758 143.306 41.6932C143.78 42.8059 144.014 44.1553 144.01 45.7415C144.01 47.3371 143.773 48.7008 143.299 49.8324C142.831 50.964 142.158 51.8281 141.282 52.4247C140.406 53.0213 139.358 53.3196 138.136 53.3196ZM138.136 50.7699C138.969 50.7699 139.635 50.3509 140.132 49.5128C140.629 48.6747 140.875 47.4176 140.87 45.7415C140.87 44.6383 140.757 43.7197 140.529 42.9858C140.307 42.2519 139.99 41.7003 139.578 41.331C139.171 40.9616 138.69 40.777 138.136 40.777C137.307 40.777 136.645 41.1913 136.147 42.0199C135.65 42.8485 135.399 44.089 135.395 45.7415C135.395 46.8589 135.506 47.7917 135.728 48.5398C135.956 49.2831 136.275 49.8419 136.687 50.2159C137.099 50.5852 137.582 50.7699 138.136 50.7699ZM151.906 53.3196C150.684 53.3149 149.633 53.0142 148.752 52.4176C147.876 51.821 147.201 50.9569 146.728 49.8253C146.259 48.6937 146.027 47.3324 146.032 45.7415C146.032 44.1553 146.266 42.8035 146.735 41.6861C147.209 40.5687 147.883 39.7187 148.759 39.1364C149.64 38.5492 150.689 38.2557 151.906 38.2557C153.122 38.2557 154.169 38.5492 155.045 39.1364C155.925 39.7235 156.603 40.5758 157.076 41.6932C157.549 42.8059 157.784 44.1553 157.779 45.7415C157.779 47.3371 157.542 48.7008 157.069 49.8324C156.6 50.964 155.928 51.8281 155.052 52.4247C154.176 53.0213 153.127 53.3196 151.906 53.3196ZM151.906 50.7699C152.739 50.7699 153.404 50.3509 153.901 49.5128C154.398 48.6747 154.645 47.4176 154.64 45.7415C154.64 44.6383 154.526 43.7197 154.299 42.9858C154.076 42.2519 153.759 41.7003 153.347 41.331C152.94 40.9616 152.46 40.777 151.906 40.777C151.077 40.777 150.414 41.1913 149.917 42.0199C149.42 42.8485 149.169 44.089 149.164 45.7415C149.164 46.8589 149.275 47.7917 149.498 48.5398C149.725 49.2831 150.045 49.8419 150.457 50.2159C150.869 50.5852 151.352 50.7699 151.906 50.7699ZM174.331 43.1562C174.232 42.8106 174.092 42.5052 173.912 42.2401C173.732 41.9702 173.512 41.7429 173.251 41.5582C172.996 41.3688 172.702 41.2244 172.371 41.125C172.044 41.0256 171.682 40.9759 171.284 40.9759C170.541 40.9759 169.887 41.1605 169.324 41.5298C168.765 41.8991 168.33 42.4366 168.017 43.142C167.705 43.8428 167.548 44.6998 167.548 45.7131C167.548 46.7263 167.702 47.5881 168.01 48.2983C168.318 49.0085 168.753 49.5507 169.317 49.9247C169.88 50.294 170.545 50.4787 171.312 50.4787C172.009 50.4787 172.603 50.3556 173.095 50.1094C173.592 49.8584 173.971 49.5057 174.232 49.0511C174.497 48.5966 174.629 48.0592 174.629 47.4389L175.254 47.5312H171.504V45.2159H177.591V47.0483C177.591 48.3267 177.321 49.4252 176.781 50.3438C176.241 51.2576 175.498 51.9631 174.551 52.4602C173.604 52.9527 172.52 53.1989 171.298 53.1989C169.935 53.1989 168.737 52.8982 167.705 52.2969C166.672 51.6908 165.867 50.8314 165.29 49.7188C164.717 48.6013 164.43 47.2756 164.43 45.7415C164.43 44.5625 164.601 43.5114 164.942 42.5881C165.287 41.66 165.77 40.8741 166.391 40.2301C167.011 39.5862 167.733 39.0961 168.557 38.7599C169.381 38.4238 170.273 38.2557 171.234 38.2557C172.058 38.2557 172.825 38.3764 173.536 38.6179C174.246 38.8546 174.875 39.1908 175.425 39.6264C175.979 40.062 176.431 40.5805 176.781 41.1818C177.132 41.7784 177.357 42.4366 177.456 43.1562H174.331ZM179.844 53V42.0909H182.777V43.9943H182.891C183.09 43.3172 183.424 42.8059 183.892 42.4602C184.361 42.1098 184.901 41.9347 185.512 41.9347C185.663 41.9347 185.827 41.9441 186.002 41.9631C186.177 41.982 186.331 42.008 186.463 42.0412V44.7259C186.321 44.6832 186.125 44.6454 185.874 44.6122C185.623 44.5791 185.393 44.5625 185.185 44.5625C184.74 44.5625 184.342 44.6596 183.992 44.8537C183.646 45.0431 183.372 45.3082 183.168 45.6491C182.969 45.9901 182.87 46.383 182.87 46.8281V53H179.844ZM190.826 53.206C190.13 53.206 189.51 53.0852 188.965 52.8438C188.421 52.5975 187.99 52.2353 187.673 51.7571C187.36 51.2741 187.204 50.6728 187.204 49.9531C187.204 49.3471 187.315 48.8381 187.538 48.4261C187.76 48.0142 188.063 47.6828 188.447 47.4318C188.83 47.1809 189.266 46.9915 189.754 46.8636C190.246 46.7358 190.762 46.6458 191.302 46.5938C191.936 46.5275 192.448 46.4659 192.836 46.4091C193.224 46.3475 193.506 46.2576 193.681 46.1392C193.856 46.0208 193.944 45.8456 193.944 45.6136V45.571C193.944 45.1212 193.802 44.7732 193.518 44.527C193.238 44.2808 192.841 44.1577 192.325 44.1577C191.78 44.1577 191.347 44.2784 191.025 44.5199C190.703 44.7566 190.49 45.0549 190.386 45.4148L187.587 45.1875C187.729 44.5246 188.009 43.9517 188.425 43.4688C188.842 42.9811 189.379 42.607 190.038 42.3466C190.701 42.0814 191.468 41.9489 192.339 41.9489C192.945 41.9489 193.525 42.0199 194.079 42.1619C194.638 42.304 195.132 42.5241 195.563 42.8224C195.999 43.1207 196.342 43.5043 196.593 43.973C196.844 44.437 196.969 44.9934 196.969 45.642V53H194.1V51.4872H194.015C193.84 51.8281 193.605 52.1288 193.312 52.3892C193.018 52.6449 192.665 52.8461 192.254 52.9929C191.842 53.1349 191.366 53.206 190.826 53.206ZM191.692 51.1179C192.138 51.1179 192.531 51.0303 192.871 50.8551C193.212 50.6752 193.48 50.4337 193.674 50.1307C193.868 49.8277 193.965 49.4844 193.965 49.1009V47.9432C193.871 48.0047 193.74 48.0616 193.575 48.1136C193.414 48.161 193.231 48.206 193.028 48.2486C192.824 48.2865 192.621 48.322 192.417 48.3551C192.213 48.3835 192.029 48.4096 191.863 48.4332C191.508 48.4853 191.198 48.5682 190.933 48.6818C190.667 48.7955 190.461 48.9493 190.315 49.1435C190.168 49.3329 190.094 49.5696 190.094 49.8537C190.094 50.2656 190.244 50.5805 190.542 50.7983C190.845 51.0114 191.228 51.1179 191.692 51.1179ZM202.342 46.6932V53H199.317V42.0909H202.2V44.0156H202.328C202.57 43.3812 202.974 42.8793 203.543 42.5099C204.111 42.1359 204.8 41.9489 205.609 41.9489C206.367 41.9489 207.027 42.1146 207.591 42.446C208.154 42.7775 208.592 43.2509 208.905 43.8665C209.217 44.4773 209.374 45.2064 209.374 46.054V53H206.348V46.5938C206.353 45.9261 206.182 45.4053 205.837 45.0312C205.491 44.6525 205.015 44.4631 204.409 44.4631C204.002 44.4631 203.642 44.5507 203.33 44.7259C203.022 44.901 202.78 45.1567 202.605 45.4929C202.435 45.8243 202.347 46.2244 202.342 46.6932ZM217.561 42.0909V44.3636H210.991V42.0909H217.561ZM212.483 39.4773H215.508V49.6477C215.508 49.9271 215.551 50.1449 215.636 50.3011C215.721 50.4527 215.84 50.5592 215.991 50.6207C216.147 50.6823 216.327 50.7131 216.531 50.7131C216.673 50.7131 216.815 50.7012 216.957 50.6776C217.099 50.6491 217.208 50.6278 217.284 50.6136L217.76 52.8651C217.608 52.9124 217.395 52.9669 217.12 53.0284C216.846 53.0947 216.512 53.1349 216.119 53.1491C215.39 53.1776 214.751 53.0805 214.201 52.858C213.657 52.6354 213.233 52.2898 212.93 51.821C212.627 51.3523 212.478 50.7604 212.483 50.0455V39.4773ZM28.0739 66.0909V68.3636H21.3409V66.0909H28.0739ZM22.8821 77V65.3026C22.8821 64.5118 23.036 63.8561 23.3438 63.3352C23.6562 62.8144 24.0824 62.4238 24.6222 62.1634C25.1619 61.9029 25.7751 61.7727 26.4616 61.7727C26.9257 61.7727 27.3494 61.8082 27.733 61.8793C28.1212 61.9503 28.41 62.0142 28.5994 62.071L28.0597 64.3438C27.9413 64.3059 27.7945 64.2704 27.6193 64.2372C27.4489 64.2041 27.2737 64.1875 27.0938 64.1875C26.6487 64.1875 26.3385 64.2917 26.1634 64.5C25.9882 64.7036 25.9006 64.9901 25.9006 65.3594V77H22.8821ZM29.9222 77V66.0909H32.8555V67.9943H32.9691C33.168 67.3172 33.5018 66.8059 33.9705 66.4602C34.4393 66.1098 34.979 65.9347 35.5898 65.9347C35.7414 65.9347 35.9047 65.9441 36.0799 65.9631C36.2551 65.982 36.409 66.008 36.5415 66.0412V68.7259C36.3995 68.6832 36.203 68.6454 35.9521 68.6122C35.7011 68.5791 35.4715 68.5625 35.2631 68.5625C34.8181 68.5625 34.4203 68.6596 34.07 68.8537C33.7243 69.0431 33.4497 69.3082 33.2461 69.6491C33.0472 69.9901 32.9478 70.383 32.9478 70.8281V77H29.9222ZM42.527 77.2131C41.4238 77.2131 40.4697 76.9787 39.6648 76.5099C38.8646 76.0365 38.2467 75.3783 37.8111 74.5355C37.3755 73.688 37.1577 72.7055 37.1577 71.5881C37.1577 70.4612 37.3755 69.4763 37.8111 68.6335C38.2467 67.786 38.8646 67.1278 39.6648 66.6591C40.4697 66.1856 41.4238 65.9489 42.527 65.9489C43.6302 65.9489 44.5819 66.1856 45.3821 66.6591C46.187 67.1278 46.8073 67.786 47.2429 68.6335C47.6785 69.4763 47.8963 70.4612 47.8963 71.5881C47.8963 72.7055 47.6785 73.688 47.2429 74.5355C46.8073 75.3783 46.187 76.0365 45.3821 76.5099C44.5819 76.9787 43.6302 77.2131 42.527 77.2131ZM42.5412 74.8693C43.0431 74.8693 43.4621 74.7273 43.7983 74.4432C44.1345 74.1544 44.3878 73.7614 44.5582 73.2642C44.7334 72.767 44.821 72.2012 44.821 71.5668C44.821 70.9323 44.7334 70.3665 44.5582 69.8693C44.3878 69.3722 44.1345 68.9792 43.7983 68.6903C43.4621 68.4015 43.0431 68.2571 42.5412 68.2571C42.0346 68.2571 41.6084 68.4015 41.2628 68.6903C40.9219 68.9792 40.6638 69.3722 40.4886 69.8693C40.3182 70.3665 40.233 70.9323 40.233 71.5668C40.233 72.2012 40.3182 72.767 40.4886 73.2642C40.6638 73.7614 40.9219 74.1544 41.2628 74.4432C41.6084 74.7273 42.0346 74.8693 42.5412 74.8693ZM49.8636 77V66.0909H52.7472V68.0156H52.875C53.1023 67.3764 53.4811 66.8722 54.0114 66.5028C54.5417 66.1335 55.1761 65.9489 55.9148 65.9489C56.6629 65.9489 57.2997 66.1359 57.8253 66.5099C58.3509 66.8793 58.7012 67.3812 58.8764 68.0156H58.9901C59.2126 67.3906 59.6151 66.8911 60.1974 66.517C60.7846 66.1383 61.4782 65.9489 62.2784 65.9489C63.2964 65.9489 64.1226 66.2732 64.7571 66.9219C65.3963 67.5658 65.7159 68.4796 65.7159 69.6634V77H62.6974V70.2599C62.6974 69.6539 62.5365 69.1993 62.2145 68.8963C61.8925 68.5933 61.4901 68.4418 61.0071 68.4418C60.4579 68.4418 60.0294 68.617 59.7216 68.9673C59.4138 69.313 59.2599 69.7699 59.2599 70.3381V77H56.3267V70.196C56.3267 69.661 56.1728 69.2348 55.8651 68.9176C55.562 68.6004 55.1619 68.4418 54.6648 68.4418C54.3286 68.4418 54.0256 68.527 53.7557 68.6974C53.4905 68.8632 53.2798 69.0975 53.1236 69.4006C52.9673 69.6989 52.8892 70.0492 52.8892 70.4517V77H49.8636ZM78.5373 66.0909V68.3636H71.9677V66.0909H78.5373ZM73.4592 63.4773H76.4847V73.6477C76.4847 73.9271 76.5273 74.1449 76.6126 74.3011C76.6978 74.4527 76.8162 74.5592 76.9677 74.6207C77.1239 74.6823 77.3039 74.7131 77.5075 74.7131C77.6495 74.7131 77.7915 74.7012 77.9336 74.6776C78.0756 74.6491 78.1845 74.6278 78.2603 74.6136L78.7362 76.8651C78.5846 76.9124 78.3716 76.9669 78.0969 77.0284C77.8223 77.0947 77.4885 77.1349 77.0955 77.1491C76.3664 77.1776 75.7272 77.0805 75.1779 76.858C74.6334 76.6354 74.2096 76.2898 73.9066 75.821C73.6036 75.3523 73.4544 74.7604 73.4592 74.0455V63.4773ZM83.7681 70.6932V77H80.7425V62.4545H83.6829V68.0156H83.8107C84.0569 67.3717 84.4547 66.8674 85.0039 66.5028C85.5531 66.1335 86.2421 65.9489 87.0707 65.9489C87.8282 65.9489 88.4888 66.1146 89.0522 66.446C89.6204 66.7727 90.0607 67.2438 90.3732 67.8594C90.6905 68.4702 90.8467 69.2017 90.842 70.054V77H87.8164V70.5938C87.8211 69.9214 87.6507 69.3982 87.305 69.0241C86.9641 68.6501 86.4859 68.4631 85.8704 68.4631C85.4585 68.4631 85.0939 68.5507 84.7766 68.7259C84.4641 68.901 84.2179 69.1567 84.038 69.4929C83.8628 69.8243 83.7728 70.2244 83.7681 70.6932ZM98.1946 77.2131C97.0724 77.2131 96.1065 76.9858 95.2969 76.5312C94.492 76.072 93.8717 75.4233 93.4361 74.5852C93.0005 73.7424 92.7827 72.7457 92.7827 71.5952C92.7827 70.473 93.0005 69.4882 93.4361 68.6406C93.8717 67.7931 94.4848 67.1326 95.2756 66.6591C96.071 66.1856 97.0038 65.9489 98.0739 65.9489C98.7936 65.9489 99.4635 66.0649 100.084 66.2969C100.709 66.5241 101.253 66.8674 101.717 67.3267C102.186 67.786 102.551 68.3636 102.811 69.0597C103.071 69.7509 103.202 70.5606 103.202 71.4886V72.3196H93.9901V70.4446H100.354C100.354 70.009 100.259 69.6231 100.07 69.2869C99.8802 68.9508 99.6174 68.688 99.2812 68.4986C98.9498 68.3045 98.5639 68.2074 98.1236 68.2074C97.6643 68.2074 97.2571 68.3139 96.902 68.527C96.5516 68.7353 96.277 69.017 96.0781 69.3722C95.8793 69.7225 95.7775 70.1132 95.7727 70.544V72.3267C95.7727 72.8665 95.8722 73.3329 96.071 73.7259C96.2746 74.1188 96.5611 74.4219 96.9304 74.6349C97.2997 74.848 97.7377 74.9545 98.2443 74.9545C98.5805 74.9545 98.8883 74.9072 99.1676 74.8125C99.447 74.7178 99.6861 74.5758 99.8849 74.3864C100.084 74.197 100.235 73.965 100.339 73.6903L103.138 73.875C102.996 74.5473 102.705 75.1345 102.264 75.6364C101.829 76.1335 101.265 76.5218 100.574 76.8011C99.8873 77.0758 99.0942 77.2131 98.1946 77.2131ZM123.228 69.7273C123.228 71.3134 122.928 72.6629 122.326 73.7756C121.73 74.8883 120.915 75.7382 119.883 76.3253C118.856 76.9077 117.7 77.1989 116.417 77.1989C115.125 77.1989 113.965 76.9053 112.937 76.3182C111.91 75.7311 111.098 74.8812 110.501 73.7685C109.904 72.6558 109.606 71.3087 109.606 69.7273C109.606 68.1411 109.904 66.7917 110.501 65.679C111.098 64.5663 111.91 63.7187 112.937 63.1364C113.965 62.5492 115.125 62.2557 116.417 62.2557C117.7 62.2557 118.856 62.5492 119.883 63.1364C120.915 63.7187 121.73 64.5663 122.326 65.679C122.928 66.7917 123.228 68.1411 123.228 69.7273ZM120.11 69.7273C120.11 68.6998 119.957 67.8333 119.649 67.1278C119.346 66.4223 118.917 65.8873 118.363 65.5227C117.809 65.1581 117.161 64.9759 116.417 64.9759C115.674 64.9759 115.025 65.1581 114.471 65.5227C113.917 65.8873 113.486 66.4223 113.179 67.1278C112.876 67.8333 112.724 68.6998 112.724 69.7273C112.724 70.7547 112.876 71.6212 113.179 72.3267C113.486 73.0322 113.917 73.5672 114.471 73.9318C115.025 74.2964 115.674 74.4787 116.417 74.4787C117.161 74.4787 117.809 74.2964 118.363 73.9318C118.917 73.5672 119.346 73.0322 119.649 72.3267C119.957 71.6212 120.11 70.7547 120.11 69.7273ZM130.364 81.3182C129.384 81.3182 128.544 81.1832 127.843 80.9134C127.147 80.6482 126.593 80.286 126.181 79.8267C125.769 79.3674 125.502 78.8513 125.379 78.2784L128.177 77.902C128.262 78.1198 128.397 78.3234 128.582 78.5128C128.766 78.7022 129.01 78.8537 129.313 78.9673C129.621 79.0857 129.995 79.1449 130.435 79.1449C131.094 79.1449 131.636 78.9839 132.062 78.6619C132.493 78.3447 132.708 77.812 132.708 77.0639V75.0682H132.58C132.448 75.3712 132.249 75.6577 131.984 75.9276C131.719 76.1974 131.378 76.4176 130.961 76.5881C130.544 76.7585 130.047 76.8438 129.469 76.8438C128.65 76.8438 127.905 76.6544 127.232 76.2756C126.565 75.892 126.032 75.3073 125.634 74.5213C125.241 73.7306 125.045 72.7315 125.045 71.5241C125.045 70.2884 125.246 69.2562 125.648 68.4276C126.051 67.599 126.586 66.9787 127.254 66.5668C127.926 66.1548 128.662 65.9489 129.462 65.9489C130.073 65.9489 130.585 66.053 130.996 66.2614C131.408 66.465 131.74 66.7206 131.991 67.0284C132.246 67.3314 132.443 67.6297 132.58 67.9233H132.694V66.0909H135.698V77.1065C135.698 78.0346 135.471 78.8111 135.016 79.4361C134.562 80.0611 133.932 80.5298 133.127 80.8423C132.327 81.1596 131.406 81.3182 130.364 81.3182ZM130.428 74.571C130.916 74.571 131.328 74.4503 131.664 74.2088C132.005 73.9626 132.265 73.6122 132.445 73.1577C132.63 72.6984 132.722 72.1491 132.722 71.5099C132.722 70.8707 132.632 70.3168 132.452 69.848C132.272 69.3745 132.012 69.0076 131.671 68.7472C131.33 68.4867 130.916 68.3565 130.428 68.3565C129.931 68.3565 129.512 68.4915 129.171 68.7614C128.83 69.0265 128.572 69.3958 128.397 69.8693C128.222 70.3428 128.134 70.8897 128.134 71.5099C128.134 72.1397 128.222 72.6842 128.397 73.1435C128.577 73.598 128.835 73.9508 129.171 74.2017C129.512 74.4479 129.931 74.571 130.428 74.571ZM145.102 72.3551V66.0909H148.127V77H145.222V75.0185H145.109C144.862 75.6577 144.453 76.1714 143.88 76.5597C143.312 76.9479 142.618 77.142 141.799 77.142C141.07 77.142 140.428 76.9763 139.874 76.6449C139.32 76.3134 138.887 75.8423 138.575 75.2315C138.267 74.6207 138.111 73.8892 138.106 73.0369V66.0909H141.131V72.4972C141.136 73.1411 141.309 73.6501 141.65 74.0241C141.991 74.3982 142.448 74.5852 143.021 74.5852C143.385 74.5852 143.726 74.5024 144.043 74.3366C144.361 74.1662 144.616 73.9152 144.81 73.5838C145.009 73.2524 145.106 72.8428 145.102 72.3551ZM153.573 70.6932V77H150.547V66.0909H153.431V68.0156H153.559C153.8 67.3812 154.205 66.8793 154.773 66.5099C155.341 66.1359 156.03 65.9489 156.84 65.9489C157.597 65.9489 158.258 66.1146 158.821 66.446C159.385 66.7775 159.823 67.2509 160.135 67.8665C160.448 68.4773 160.604 69.2064 160.604 70.054V77H157.578V70.5938C157.583 69.9261 157.413 69.4053 157.067 69.0312C156.721 68.6525 156.246 68.4631 155.64 68.4631C155.232 68.4631 154.873 68.5507 154.56 68.7259C154.252 68.901 154.011 69.1567 153.836 69.4929C153.665 69.8243 153.578 70.2244 153.573 70.6932ZM175.565 66.6378C175.508 66.0649 175.264 65.6198 174.833 65.3026C174.403 64.9853 173.818 64.8267 173.079 64.8267C172.577 64.8267 172.154 64.8977 171.808 65.0398C171.462 65.1771 171.197 65.3688 171.012 65.6151C170.833 65.8613 170.743 66.1406 170.743 66.4531C170.733 66.7135 170.788 66.9408 170.906 67.1349C171.029 67.3291 171.197 67.4972 171.41 67.6392C171.623 67.7765 171.869 67.8973 172.149 68.0014C172.428 68.1009 172.726 68.1861 173.044 68.2571L174.35 68.5696C174.985 68.7116 175.567 68.901 176.098 69.1378C176.628 69.3745 177.087 69.6657 177.475 70.0114C177.864 70.357 178.164 70.7642 178.377 71.233C178.595 71.7017 178.707 72.2391 178.711 72.8452C178.707 73.7353 178.479 74.5071 178.029 75.1605C177.584 75.8092 176.94 76.3134 176.098 76.6733C175.26 77.0284 174.249 77.206 173.065 77.206C171.891 77.206 170.868 77.026 169.997 76.6662C169.13 76.3063 168.453 75.7737 167.966 75.0682C167.483 74.358 167.229 73.4796 167.206 72.4332H170.181C170.215 72.9209 170.354 73.3281 170.6 73.6548C170.851 73.9768 171.185 74.2206 171.602 74.3864C172.023 74.5473 172.499 74.6278 173.029 74.6278C173.55 74.6278 174.002 74.5521 174.386 74.4006C174.774 74.2491 175.075 74.0384 175.288 73.7685C175.501 73.4986 175.608 73.1884 175.608 72.8381C175.608 72.5114 175.511 72.2367 175.316 72.0142C175.127 71.7917 174.848 71.6023 174.478 71.446C174.114 71.2898 173.666 71.1477 173.136 71.0199L171.552 70.6222C170.326 70.3239 169.358 69.8575 168.647 69.223C167.937 68.5885 167.584 67.7339 167.589 66.6591C167.584 65.7784 167.819 65.009 168.292 64.3509C168.77 63.6927 169.426 63.179 170.26 62.8097C171.093 62.4403 172.04 62.2557 173.1 62.2557C174.18 62.2557 175.122 62.4403 175.927 62.8097C176.737 63.179 177.367 63.6927 177.816 64.3509C178.266 65.009 178.498 65.7713 178.512 66.6378H175.565ZM186.526 66.0909V68.3636H179.956V66.0909H186.526ZM181.447 63.4773H184.473V73.6477C184.473 73.9271 184.516 74.1449 184.601 74.3011C184.686 74.4527 184.804 74.5592 184.956 74.6207C185.112 74.6823 185.292 74.7131 185.496 74.7131C185.638 74.7131 185.78 74.7012 185.922 74.6776C186.064 74.6491 186.173 74.6278 186.249 74.6136L186.724 76.8651C186.573 76.9124 186.36 76.9669 186.085 77.0284C185.811 77.0947 185.477 77.1349 185.084 77.1491C184.355 77.1776 183.715 77.0805 183.166 76.858C182.622 76.6354 182.198 76.2898 181.895 75.821C181.592 75.3523 181.443 74.7604 181.447 74.0455V63.4773ZM191.607 77.206C190.911 77.206 190.291 77.0852 189.746 76.8438C189.202 76.5975 188.771 76.2353 188.454 75.7571C188.141 75.2741 187.985 74.6728 187.985 73.9531C187.985 73.3471 188.096 72.8381 188.319 72.4261C188.541 72.0142 188.844 71.6828 189.228 71.4318C189.612 71.1809 190.047 70.9915 190.535 70.8636C191.027 70.7358 191.543 70.6458 192.083 70.5938C192.718 70.5275 193.229 70.4659 193.617 70.4091C194.005 70.3475 194.287 70.2576 194.462 70.1392C194.638 70.0208 194.725 69.8456 194.725 69.6136V69.571C194.725 69.1212 194.583 68.7732 194.299 68.527C194.02 68.2808 193.622 68.1577 193.106 68.1577C192.561 68.1577 192.128 68.2784 191.806 68.5199C191.484 68.7566 191.271 69.0549 191.167 69.4148L188.369 69.1875C188.511 68.5246 188.79 67.9517 189.207 67.4688C189.623 66.9811 190.161 66.607 190.819 66.3466C191.482 66.0814 192.249 65.9489 193.12 65.9489C193.726 65.9489 194.306 66.0199 194.86 66.1619C195.419 66.304 195.914 66.5241 196.344 66.8224C196.78 67.1207 197.123 67.5043 197.374 67.973C197.625 68.437 197.751 68.9934 197.751 69.642V77H194.881V75.4872H194.796C194.621 75.8281 194.387 76.1288 194.093 76.3892C193.799 76.6449 193.447 76.8461 193.035 76.9929C192.623 77.1349 192.147 77.206 191.607 77.206ZM192.474 75.1179C192.919 75.1179 193.312 75.0303 193.653 74.8551C193.994 74.6752 194.261 74.4337 194.455 74.1307C194.649 73.8277 194.746 73.4844 194.746 73.1009V71.9432C194.652 72.0047 194.522 72.0616 194.356 72.1136C194.195 72.161 194.013 72.206 193.809 72.2486C193.605 72.2865 193.402 72.322 193.198 72.3551C192.995 72.3835 192.81 72.4096 192.644 72.4332C192.289 72.4853 191.979 72.5682 191.714 72.6818C191.449 72.7955 191.243 72.9493 191.096 73.1435C190.949 73.3329 190.876 73.5696 190.876 73.8537C190.876 74.2656 191.025 74.5805 191.323 74.7983C191.626 75.0114 192.01 75.1179 192.474 75.1179ZM205.901 66.0909V68.3636H199.331V66.0909H205.901ZM200.822 63.4773H203.848V73.6477C203.848 73.9271 203.891 74.1449 203.976 74.3011C204.061 74.4527 204.179 74.5592 204.331 74.6207C204.487 74.6823 204.667 74.7131 204.871 74.7131C205.013 74.7131 205.155 74.7012 205.297 74.6776C205.439 74.6491 205.548 74.6278 205.624 74.6136L206.099 76.8651C205.948 76.9124 205.735 76.9669 205.46 77.0284C205.186 77.0947 204.852 77.1349 204.459 77.1491C203.73 77.1776 203.09 77.0805 202.541 76.858C201.997 76.6354 201.573 76.2898 201.27 75.821C200.967 75.3523 200.818 74.7604 200.822 74.0455V63.4773ZM212.726 77.2131C211.604 77.2131 210.638 76.9858 209.828 76.5312C209.023 76.072 208.403 75.4233 207.967 74.5852C207.532 73.7424 207.314 72.7457 207.314 71.5952C207.314 70.473 207.532 69.4882 207.967 68.6406C208.403 67.7931 209.016 67.1326 209.807 66.6591C210.602 66.1856 211.535 65.9489 212.605 65.9489C213.325 65.9489 213.995 66.0649 214.615 66.2969C215.24 66.5241 215.785 66.8674 216.249 67.3267C216.717 67.786 217.082 68.3636 217.342 69.0597C217.603 69.7509 217.733 70.5606 217.733 71.4886V72.3196H208.521V70.4446H214.885C214.885 70.009 214.79 69.6231 214.601 69.2869C214.411 68.9508 214.149 68.688 213.812 68.4986C213.481 68.3045 213.095 68.2074 212.655 68.2074C212.196 68.2074 211.788 68.3139 211.433 68.527C211.083 68.7353 210.808 69.017 210.609 69.3722C210.411 69.7225 210.309 70.1132 210.304 70.544V72.3267C210.304 72.8665 210.403 73.3329 210.602 73.7259C210.806 74.1188 211.092 74.4219 211.462 74.6349C211.831 74.848 212.269 74.9545 212.776 74.9545C213.112 74.9545 213.42 74.9072 213.699 74.8125C213.978 74.7178 214.217 74.5758 214.416 74.3864C214.615 74.197 214.767 73.965 214.871 73.6903L217.669 73.875C217.527 74.5473 217.236 75.1345 216.795 75.6364C216.36 76.1335 215.796 76.5218 215.105 76.8011C214.419 77.0758 213.625 77.2131 212.726 77.2131ZM30.1548 90.6378C30.098 90.0649 29.8542 89.6198 29.4233 89.3026C28.9924 88.9853 28.4077 88.8267 27.669 88.8267C27.1671 88.8267 26.7434 88.8977 26.3977 89.0398C26.0521 89.1771 25.7869 89.3688 25.6023 89.6151C25.4223 89.8613 25.3324 90.1406 25.3324 90.4531C25.3229 90.7135 25.3774 90.9408 25.4957 91.1349C25.6188 91.3291 25.7869 91.4972 26 91.6392C26.2131 91.7765 26.4593 91.8973 26.7386 92.0014C27.018 92.1009 27.3163 92.1861 27.6335 92.2571L28.9403 92.5696C29.5748 92.7116 30.1572 92.901 30.6875 93.1378C31.2178 93.3745 31.6771 93.6657 32.0653 94.0114C32.4536 94.357 32.7543 94.7642 32.9673 95.233C33.1851 95.7017 33.2964 96.2391 33.3011 96.8452C33.2964 97.7353 33.0691 98.5071 32.6193 99.1605C32.1742 99.8092 31.5303 100.313 30.6875 100.673C29.8494 101.028 28.8385 101.206 27.6548 101.206C26.4806 101.206 25.4579 101.026 24.5866 100.666C23.7202 100.306 23.0431 99.7737 22.5554 99.0682C22.0724 98.358 21.8191 97.4796 21.7955 96.4332H24.7713C24.8045 96.9209 24.9441 97.3281 25.1903 97.6548C25.4413 97.9768 25.7751 98.2206 26.1918 98.3864C26.6132 98.5473 27.089 98.6278 27.6193 98.6278C28.1402 98.6278 28.5923 98.5521 28.9759 98.4006C29.3641 98.2491 29.6648 98.0384 29.8778 97.7685C30.0909 97.4986 30.1974 97.1884 30.1974 96.8381C30.1974 96.5114 30.1004 96.2367 29.9062 96.0142C29.7169 95.7917 29.4375 95.6023 29.0682 95.446C28.7036 95.2898 28.2562 95.1477 27.7259 95.0199L26.142 94.6222C24.9157 94.3239 23.9474 93.8575 23.2372 93.223C22.527 92.5885 22.1742 91.7339 22.179 90.6591C22.1742 89.7784 22.4086 89.009 22.8821 88.3509C23.3603 87.6927 24.0161 87.179 24.8494 86.8097C25.6828 86.4403 26.6297 86.2557 27.6903 86.2557C28.7699 86.2557 29.7121 86.4403 30.517 86.8097C31.3267 87.179 31.9564 87.6927 32.4062 88.3509C32.8561 89.009 33.0881 89.7713 33.1023 90.6378H30.1548ZM35.3697 86.4545H39.1623L43.168 96.2273H43.3384L47.3441 86.4545H51.1367V101H48.1538V91.5327H48.033L44.2688 100.929H42.2376L38.4734 91.4972H38.3526V101H35.3697V86.4545ZM53.6705 101V86.4545H63.4716V88.9901H56.7457V92.456H62.9673V94.9915H56.7457V98.4645H63.5V101H53.6705ZM70.5455 101V86.4545H80.3466V88.9901H73.6207V92.456H79.8423V94.9915H73.6207V98.4645H80.375V101H70.5455ZM82.7347 101V90.0909H85.6183V92.0156H85.7461C85.9734 91.3764 86.3522 90.8722 86.8825 90.5028C87.4128 90.1335 88.0472 89.9489 88.7859 89.9489C89.534 89.9489 90.1708 90.1359 90.6964 90.5099C91.2219 90.8793 91.5723 91.3812 91.7475 92.0156H91.8612C92.0837 91.3906 92.4862 90.8911 93.0685 90.517C93.6557 90.1383 94.3493 89.9489 95.1495 89.9489C96.1675 89.9489 96.9937 90.2732 97.6282 90.9219C98.2674 91.5658 98.587 92.4796 98.587 93.6634V101H95.5685V94.2599C95.5685 93.6539 95.4076 93.1993 95.0856 92.8963C94.7636 92.5933 94.3612 92.4418 93.8782 92.4418C93.329 92.4418 92.9004 92.617 92.5927 92.9673C92.2849 93.313 92.131 93.7699 92.131 94.3381V101H89.1978V94.196C89.1978 93.661 89.0439 93.2348 88.7362 92.9176C88.4331 92.6004 88.033 92.4418 87.5359 92.4418C87.1997 92.4418 86.8967 92.527 86.6268 92.6974C86.3616 92.8632 86.1509 93.0975 85.9947 93.4006C85.8384 93.6989 85.7603 94.0492 85.7603 94.4517V101H82.7347ZM100.977 105.091V90.0909H103.96V91.9233H104.095C104.227 91.6297 104.419 91.3314 104.67 91.0284C104.926 90.7206 105.257 90.465 105.664 90.2614C106.076 90.053 106.588 89.9489 107.199 89.9489C107.994 89.9489 108.728 90.1572 109.4 90.5739C110.073 90.9858 110.61 91.6084 111.012 92.4418C111.415 93.2704 111.616 94.3097 111.616 95.5597C111.616 96.7765 111.42 97.804 111.027 98.642C110.638 99.4754 110.108 100.107 109.436 100.538C108.768 100.964 108.02 101.178 107.191 101.178C106.604 101.178 106.105 101.08 105.693 100.886C105.286 100.692 104.952 100.448 104.691 100.155C104.431 99.8565 104.232 99.5559 104.095 99.2528H104.002V105.091H100.977ZM103.939 95.5455C103.939 96.1941 104.029 96.7599 104.208 97.2429C104.388 97.7259 104.649 98.1023 104.99 98.3722C105.331 98.6373 105.745 98.7699 106.233 98.7699C106.725 98.7699 107.142 98.6349 107.483 98.3651C107.824 98.0904 108.082 97.7116 108.257 97.2287C108.437 96.741 108.527 96.1799 108.527 95.5455C108.527 94.9157 108.439 94.3617 108.264 93.8835C108.089 93.4053 107.831 93.0312 107.49 92.7614C107.149 92.4915 106.73 92.3565 106.233 92.3565C105.74 92.3565 105.324 92.4867 104.983 92.7472C104.646 93.0076 104.388 93.3769 104.208 93.8551C104.029 94.3333 103.939 94.8968 103.939 95.5455ZM118.562 101.213C117.459 101.213 116.505 100.979 115.7 100.51C114.9 100.036 114.282 99.3783 113.846 98.5355C113.411 97.688 113.193 96.7055 113.193 95.5881C113.193 94.4612 113.411 93.4763 113.846 92.6335C114.282 91.786 114.9 91.1278 115.7 90.6591C116.505 90.1856 117.459 89.9489 118.562 89.9489C119.665 89.9489 120.617 90.1856 121.417 90.6591C122.222 91.1278 122.842 91.786 123.278 92.6335C123.714 93.4763 123.931 94.4612 123.931 95.5881C123.931 96.7055 123.714 97.688 123.278 98.5355C122.842 99.3783 122.222 100.036 121.417 100.51C120.617 100.979 119.665 101.213 118.562 101.213ZM118.576 98.8693C119.078 98.8693 119.497 98.7273 119.833 98.4432C120.17 98.1544 120.423 97.7614 120.593 97.2642C120.769 96.767 120.856 96.2012 120.856 95.5668C120.856 94.9323 120.769 94.3665 120.593 93.8693C120.423 93.3722 120.17 92.9792 119.833 92.6903C119.497 92.4015 119.078 92.2571 118.576 92.2571C118.07 92.2571 117.644 92.4015 117.298 92.6903C116.957 92.9792 116.699 93.3722 116.524 93.8693C116.353 94.3665 116.268 94.9323 116.268 95.5668C116.268 96.2012 116.353 96.767 116.524 97.2642C116.699 97.7614 116.957 98.1544 117.298 98.4432C117.644 98.7273 118.07 98.8693 118.576 98.8693ZM127.777 101L124.809 90.0909H127.87L129.56 97.4205H129.659L131.421 90.0909H134.425L136.215 97.3778H136.307L137.969 90.0909H141.023L138.061 101H134.858L132.983 94.1392H132.848L130.973 101H127.777ZM147.335 101.213C146.213 101.213 145.247 100.986 144.438 100.531C143.633 100.072 143.012 99.4233 142.577 98.5852C142.141 97.7424 141.923 96.7457 141.923 95.5952C141.923 94.473 142.141 93.4882 142.577 92.6406C143.012 91.7931 143.625 91.1326 144.416 90.6591C145.212 90.1856 146.144 89.9489 147.214 89.9489C147.934 89.9489 148.604 90.0649 149.224 90.2969C149.849 90.5241 150.394 90.8674 150.858 91.3267C151.327 91.786 151.691 92.3636 151.952 93.0597C152.212 93.7509 152.342 94.5606 152.342 95.4886V96.3196H143.131V94.4446H149.494C149.494 94.009 149.4 93.6231 149.21 93.2869C149.021 92.9508 148.758 92.688 148.422 92.4986C148.09 92.3045 147.705 92.2074 147.264 92.2074C146.805 92.2074 146.398 92.3139 146.043 92.527C145.692 92.7353 145.418 93.017 145.219 93.3722C145.02 93.7225 144.918 94.1132 144.913 94.544V96.3267C144.913 96.8665 145.013 97.3329 145.212 97.7259C145.415 98.1188 145.702 98.4219 146.071 98.6349C146.44 98.848 146.878 98.9545 147.385 98.9545C147.721 98.9545 148.029 98.9072 148.308 98.8125C148.588 98.7178 148.827 98.5758 149.026 98.3864C149.224 98.197 149.376 97.965 149.48 97.6903L152.278 97.875C152.136 98.5473 151.845 99.1345 151.405 99.6364C150.969 100.134 150.406 100.522 149.714 100.801C149.028 101.076 148.235 101.213 147.335 101.213ZM154.317 101V90.0909H157.25V91.9943H157.364C157.563 91.3172 157.896 90.8059 158.365 90.4602C158.834 90.1098 159.374 89.9347 159.984 89.9347C160.136 89.9347 160.299 89.9441 160.474 89.9631C160.65 89.982 160.804 90.008 160.936 90.0412V92.7259C160.794 92.6832 160.598 92.6454 160.347 92.6122C160.096 92.5791 159.866 92.5625 159.658 92.5625C159.213 92.5625 158.815 92.6596 158.464 92.8537C158.119 93.0431 157.844 93.3082 157.641 93.6491C157.442 93.9901 157.342 94.383 157.342 94.8281V101H154.317ZM162.5 101V90.0909H165.384V92.0156H165.512C165.739 91.3764 166.118 90.8722 166.648 90.5028C167.178 90.1335 167.813 89.9489 168.551 89.9489C169.3 89.9489 169.936 90.1359 170.462 90.5099C170.988 90.8793 171.338 91.3812 171.513 92.0156H171.627C171.849 91.3906 172.252 90.8911 172.834 90.517C173.421 90.1383 174.115 89.9489 174.915 89.9489C175.933 89.9489 176.759 90.2732 177.394 90.9219C178.033 91.5658 178.353 92.4796 178.353 93.6634V101H175.334V94.2599C175.334 93.6539 175.173 93.1993 174.851 92.8963C174.529 92.5933 174.127 92.4418 173.644 92.4418C173.095 92.4418 172.666 92.617 172.358 92.9673C172.051 93.313 171.897 93.7699 171.897 94.3381V101H168.963V94.196C168.963 93.661 168.81 93.2348 168.502 92.9176C168.199 92.6004 167.799 92.4418 167.301 92.4418C166.965 92.4418 166.662 92.527 166.392 92.6974C166.127 92.8632 165.917 93.0975 165.76 93.4006C165.604 93.6989 165.526 94.0492 165.526 94.4517V101H162.5ZM185.714 101.213C184.592 101.213 183.626 100.986 182.816 100.531C182.011 100.072 181.391 99.4233 180.956 98.5852C180.52 97.7424 180.302 96.7457 180.302 95.5952C180.302 94.473 180.52 93.4882 180.956 92.6406C181.391 91.7931 182.004 91.1326 182.795 90.6591C183.591 90.1856 184.523 89.9489 185.593 89.9489C186.313 89.9489 186.983 90.0649 187.603 90.2969C188.228 90.5241 188.773 90.8674 189.237 91.3267C189.706 91.786 190.07 92.3636 190.331 93.0597C190.591 93.7509 190.721 94.5606 190.721 95.4886V96.3196H181.51V94.4446H187.873C187.873 94.009 187.779 93.6231 187.589 93.2869C187.4 92.9508 187.137 92.688 186.801 92.4986C186.469 92.3045 186.083 92.2074 185.643 92.2074C185.184 92.2074 184.777 92.3139 184.422 92.527C184.071 92.7353 183.797 93.017 183.598 93.3722C183.399 93.7225 183.297 94.1132 183.292 94.544V96.3267C183.292 96.8665 183.392 97.3329 183.591 97.7259C183.794 98.1188 184.081 98.4219 184.45 98.6349C184.819 98.848 185.257 98.9545 185.764 98.9545C186.1 98.9545 186.408 98.9072 186.687 98.8125C186.967 98.7178 187.206 98.5758 187.404 98.3864C187.603 98.197 187.755 97.965 187.859 97.6903L190.657 97.875C190.515 98.5473 190.224 99.1345 189.784 99.6364C189.348 100.134 188.785 100.522 188.093 100.801C187.407 101.076 186.614 101.213 185.714 101.213ZM195.721 94.6932V101H192.696V90.0909H195.579V92.0156H195.707C195.949 91.3812 196.353 90.8793 196.922 90.5099C197.49 90.1359 198.179 89.9489 198.988 89.9489C199.746 89.9489 200.406 90.1146 200.97 90.446C201.533 90.7775 201.971 91.2509 202.284 91.8665C202.596 92.4773 202.752 93.2064 202.752 94.054V101H199.727V94.5938C199.732 93.9261 199.561 93.4053 199.216 93.0312C198.87 92.6525 198.394 92.4631 197.788 92.4631C197.381 92.4631 197.021 92.5507 196.708 92.7259C196.401 92.901 196.159 93.1567 195.984 93.4929C195.814 93.8243 195.726 94.2244 195.721 94.6932ZM210.94 90.0909V92.3636H204.37V90.0909H210.94ZM205.862 87.4773H208.887V97.6477C208.887 97.9271 208.93 98.1449 209.015 98.3011C209.1 98.4527 209.219 98.5592 209.37 98.6207C209.526 98.6823 209.706 98.7131 209.91 98.7131C210.052 98.7131 210.194 98.7012 210.336 98.6776C210.478 98.6491 210.587 98.6278 210.663 98.6136L211.138 100.865C210.987 100.912 210.774 100.967 210.499 101.028C210.225 101.095 209.891 101.135 209.498 101.149C208.769 101.178 208.129 101.08 207.58 100.858C207.036 100.635 206.612 100.29 206.309 99.821C206.006 99.3523 205.857 98.7604 205.862 98.0455V87.4773ZM217.596 101V86.4545H227.227V88.9901H220.672V92.456H226.588V94.9915H220.672V101H217.596ZM235.551 96.3551V90.0909H238.576V101H235.672V99.0185H235.558C235.312 99.6577 234.902 100.171 234.329 100.56C233.761 100.948 233.067 101.142 232.248 101.142C231.519 101.142 230.877 100.976 230.324 100.645C229.77 100.313 229.336 99.8423 229.024 99.2315C228.716 98.6207 228.56 97.8892 228.555 97.0369V90.0909H231.581V96.4972C231.585 97.1411 231.758 97.6501 232.099 98.0241C232.44 98.3982 232.897 98.5852 233.47 98.5852C233.834 98.5852 234.175 98.5024 234.493 98.3366C234.81 98.1662 235.065 97.9152 235.26 97.5838C235.458 97.2524 235.556 96.8428 235.551 96.3551ZM244.022 94.6932V101H240.996V90.0909H243.88V92.0156H244.008C244.249 91.3812 244.654 90.8793 245.222 90.5099C245.79 90.1359 246.479 89.9489 247.289 89.9489C248.047 89.9489 248.707 90.1146 249.271 90.446C249.834 90.7775 250.272 91.2509 250.585 91.8665C250.897 92.4773 251.053 93.2064 251.053 94.054V101H248.028V94.5938C248.032 93.9261 247.862 93.4053 247.516 93.0312C247.171 92.6525 246.695 92.4631 246.089 92.4631C245.682 92.4631 245.322 92.5507 245.009 92.7259C244.701 92.901 244.46 93.1567 244.285 93.4929C244.114 93.8243 244.027 94.2244 244.022 94.6932ZM257.458 101.178C256.629 101.178 255.879 100.964 255.206 100.538C254.539 100.107 254.008 99.4754 253.615 98.642C253.227 97.804 253.033 96.7765 253.033 95.5597C253.033 94.3097 253.234 93.2704 253.637 92.4418C254.039 91.6084 254.574 90.9858 255.242 90.5739C255.914 90.1572 256.65 89.9489 257.451 89.9489C258.061 89.9489 258.57 90.053 258.978 90.2614C259.39 90.465 259.721 90.7206 259.972 91.0284C260.228 91.3314 260.422 91.6297 260.554 91.9233H260.647V86.4545H263.665V101H260.682V99.2528H260.554C260.412 99.5559 260.211 99.8565 259.951 100.155C259.695 100.448 259.361 100.692 258.949 100.886C258.542 101.08 258.045 101.178 257.458 101.178ZM258.417 98.7699C258.904 98.7699 259.316 98.6373 259.652 98.3722C259.993 98.1023 260.254 97.7259 260.434 97.2429C260.618 96.7599 260.711 96.1941 260.711 95.5455C260.711 94.8968 260.621 94.3333 260.441 93.8551C260.261 93.3769 260 93.0076 259.659 92.7472C259.319 92.4867 258.904 92.3565 258.417 92.3565C257.919 92.3565 257.5 92.4915 257.159 92.7614C256.819 93.0312 256.56 93.4053 256.385 93.8835C256.21 94.3617 256.123 94.9157 256.123 95.5455C256.123 96.1799 256.21 96.741 256.385 97.2287C256.565 97.7116 256.823 98.0904 257.159 98.3651C257.5 98.6349 257.919 98.7699 258.417 98.7699Z" fill="#2D995F"/>
<path d="M28.9148 117.818H30.1477V124.56C30.1477 125.256 29.9837 125.877 29.6555 126.424C29.3307 126.968 28.8717 127.397 28.2784 127.712C27.6851 128.023 26.9891 128.179 26.1903 128.179C25.3916 128.179 24.6955 128.023 24.1023 127.712C23.509 127.397 23.0483 126.968 22.7202 126.424C22.3954 125.877 22.233 125.256 22.233 124.56V117.818H23.4659V124.46C23.4659 124.957 23.5753 125.4 23.794 125.788C24.0128 126.172 24.3243 126.475 24.7287 126.697C25.1364 126.916 25.6236 127.026 26.1903 127.026C26.7571 127.026 27.2443 126.916 27.652 126.697C28.0597 126.475 28.3712 126.172 28.5866 125.788C28.8054 125.4 28.9148 124.957 28.9148 124.46V117.818ZM32.4508 130.864V120.364H33.5843V121.577H33.7235C33.8097 121.444 33.929 121.275 34.0815 121.07C34.2373 120.861 34.4593 120.675 34.7477 120.513C35.0394 120.347 35.4338 120.264 35.9309 120.264C36.5739 120.264 37.1407 120.425 37.6312 120.746C38.1217 121.068 38.5046 121.524 38.7797 122.114C39.0547 122.704 39.1923 123.4 39.1923 124.202C39.1923 125.01 39.0547 125.711 38.7797 126.305C38.5046 126.895 38.1234 127.352 37.6362 127.677C37.149 127.998 36.5872 128.159 35.9508 128.159C35.4603 128.159 35.0675 128.078 34.7725 127.915C34.4776 127.75 34.2505 127.562 34.0914 127.354C33.9324 127.142 33.8097 126.966 33.7235 126.827H33.6241V130.864H32.4508ZM33.6042 124.182C33.6042 124.759 33.6887 125.267 33.8578 125.708C34.0268 126.146 34.2737 126.489 34.5985 126.737C34.9234 126.982 35.3211 127.105 35.7917 127.105C36.2823 127.105 36.6916 126.976 37.0197 126.717C37.3511 126.455 37.5997 126.104 37.7654 125.663C37.9345 125.219 38.019 124.725 38.019 124.182C38.019 123.645 37.9361 123.161 37.7704 122.73C37.608 122.296 37.3611 121.953 37.0297 121.701C36.7015 121.446 36.2889 121.318 35.7917 121.318C35.3145 121.318 34.9134 121.439 34.5886 121.681C34.2638 121.92 34.0185 122.254 33.8528 122.685C33.6871 123.113 33.6042 123.612 33.6042 124.182ZM44.0645 131.023C43.4977 131.023 43.0105 130.95 42.6028 130.804C42.1951 130.661 41.8554 130.473 41.5836 130.237C41.3152 130.005 41.1014 129.757 40.9423 129.491L41.877 128.835C41.983 128.974 42.1172 129.134 42.2797 129.312C42.4421 129.495 42.6641 129.652 42.9458 129.785C43.2309 129.921 43.6038 129.989 44.0645 129.989C44.6809 129.989 45.1897 129.839 45.5907 129.541C45.9918 129.243 46.1923 128.776 46.1923 128.139V126.588H46.0929C46.0067 126.727 45.8841 126.9 45.725 127.105C45.5692 127.307 45.3438 127.488 45.0488 127.647C44.7572 127.803 44.3627 127.881 43.8656 127.881C43.2491 127.881 42.6956 127.735 42.2051 127.443C41.7179 127.152 41.3317 126.727 41.0467 126.17C40.765 125.614 40.6241 124.937 40.6241 124.142C40.6241 123.36 40.7617 122.679 41.0368 122.099C41.3118 121.515 41.6947 121.065 42.1852 120.746C42.6757 120.425 43.2425 120.264 43.8855 120.264C44.3826 120.264 44.777 120.347 45.0687 120.513C45.3637 120.675 45.5891 120.861 45.7449 121.07C45.9039 121.275 46.0266 121.444 46.1127 121.577H46.2321V120.364H47.3656V128.219C47.3656 128.875 47.2164 129.409 46.9181 129.82C46.6232 130.234 46.2254 130.537 45.725 130.729C45.2278 130.925 44.6743 131.023 44.0645 131.023ZM44.0247 126.827C44.4953 126.827 44.8931 126.719 45.2179 126.504C45.5427 126.288 45.7896 125.978 45.9586 125.574C46.1277 125.17 46.2122 124.686 46.2122 124.122C46.2122 123.572 46.1293 123.086 45.9636 122.665C45.7979 122.245 45.5526 121.915 45.2278 121.676C44.903 121.437 44.502 121.318 44.0247 121.318C43.5275 121.318 43.1132 121.444 42.7818 121.696C42.4537 121.948 42.2067 122.286 42.041 122.71C41.8786 123.134 41.7974 123.605 41.7974 124.122C41.7974 124.652 41.8803 125.121 42.046 125.529C42.215 125.933 42.4636 126.252 42.7917 126.484C43.1232 126.712 43.5342 126.827 44.0247 126.827ZM49.5133 128V120.364H50.6468V121.517H50.7264C50.8656 121.139 51.1175 120.833 51.4821 120.597C51.8467 120.362 52.2576 120.244 52.715 120.244C52.8012 120.244 52.9089 120.246 53.0382 120.249C53.1674 120.253 53.2652 120.258 53.3315 120.264V121.457C53.2917 121.447 53.2006 121.433 53.0581 121.413C52.9189 121.389 52.7714 121.378 52.6156 121.378C52.2444 121.378 51.9129 121.456 51.6213 121.612C51.3329 121.764 51.1042 121.976 50.9352 122.248C50.7695 122.516 50.6866 122.823 50.6866 123.168V128H49.5133ZM56.9695 128.179C56.4856 128.179 56.0464 128.088 55.652 127.906C55.2576 127.72 54.9444 127.453 54.7124 127.105C54.4804 126.754 54.3643 126.33 54.3643 125.832C54.3643 125.395 54.4505 125.04 54.6229 124.768C54.7952 124.493 55.0256 124.278 55.3139 124.122C55.6023 123.966 55.9205 123.85 56.2685 123.774C56.6198 123.695 56.9728 123.632 57.3274 123.585C57.7914 123.526 58.1676 123.481 58.456 123.451C58.7476 123.418 58.9598 123.363 59.0923 123.287C59.2282 123.211 59.2962 123.078 59.2962 122.889V122.849C59.2962 122.359 59.1619 121.978 58.8935 121.706C58.6283 121.434 58.2256 121.298 57.6854 121.298C57.1252 121.298 56.6861 121.421 56.3679 121.666C56.0497 121.911 55.826 122.173 55.6967 122.452L54.5831 122.054C54.782 121.59 55.0471 121.229 55.3786 120.97C55.7133 120.708 56.0779 120.526 56.4723 120.423C56.87 120.317 57.2611 120.264 57.6456 120.264C57.8909 120.264 58.1726 120.294 58.4908 120.354C58.8123 120.41 59.1222 120.528 59.4205 120.707C59.7221 120.886 59.9723 121.156 60.1712 121.517C60.37 121.878 60.4695 122.362 60.4695 122.969V128H59.2962V126.966H59.2365C59.157 127.132 59.0244 127.309 58.8388 127.498C58.6532 127.687 58.4063 127.848 58.098 127.98C57.7898 128.113 57.4136 128.179 56.9695 128.179ZM57.1484 127.125C57.6125 127.125 58.0036 127.034 58.3217 126.852C58.6432 126.669 58.8852 126.434 59.0476 126.146C59.2133 125.857 59.2962 125.554 59.2962 125.236V124.162C59.2464 124.222 59.1371 124.276 58.968 124.326C58.8023 124.372 58.6101 124.414 58.3913 124.45C58.1759 124.483 57.9654 124.513 57.7599 124.54C57.5578 124.563 57.3937 124.583 57.2678 124.599C56.9628 124.639 56.6778 124.704 56.4126 124.793C56.1508 124.879 55.9387 125.01 55.7763 125.186C55.6172 125.358 55.5376 125.594 55.5376 125.892C55.5376 126.3 55.6884 126.608 55.9901 126.817C56.295 127.022 56.6811 127.125 57.1484 127.125ZM65.4945 128.159C64.8581 128.159 64.2963 127.998 63.8091 127.677C63.3219 127.352 62.9408 126.895 62.6657 126.305C62.3906 125.711 62.253 125.01 62.253 124.202C62.253 123.4 62.3906 122.704 62.6657 122.114C62.9408 121.524 63.3236 121.068 63.8141 120.746C64.3046 120.425 64.8714 120.264 65.5144 120.264C66.0115 120.264 66.4043 120.347 66.6926 120.513C66.9843 120.675 67.2064 120.861 67.3588 121.07C67.5146 121.275 67.6356 121.444 67.7218 121.577H67.8212V117.818H68.9945V128H67.861V126.827H67.7218C67.6356 126.966 67.513 127.142 67.3539 127.354C67.1948 127.562 66.9677 127.75 66.6728 127.915C66.3778 128.078 65.985 128.159 65.4945 128.159ZM65.6536 127.105C66.1242 127.105 66.522 126.982 66.8468 126.737C67.1716 126.489 67.4185 126.146 67.5875 125.708C67.7566 125.267 67.8411 124.759 67.8411 124.182C67.8411 123.612 67.7582 123.113 67.5925 122.685C67.4268 122.254 67.1815 121.92 66.8567 121.681C66.5319 121.439 66.1309 121.318 65.6536 121.318C65.1564 121.318 64.7421 121.446 64.4107 121.701C64.0826 121.953 63.8356 122.296 63.6699 122.73C63.5075 123.161 63.4263 123.645 63.4263 124.182C63.4263 124.725 63.5092 125.219 63.6749 125.663C63.8439 126.104 64.0925 126.455 64.4206 126.717C64.7521 126.976 65.1631 127.105 65.6536 127.105ZM74.508 128.159C73.7722 128.159 73.1375 127.997 72.6039 127.672C72.0736 127.344 71.6642 126.886 71.3759 126.3C71.0908 125.71 70.9483 125.024 70.9483 124.241C70.9483 123.459 71.0908 122.77 71.3759 122.173C71.6642 121.573 72.0653 121.106 72.579 120.771C73.0961 120.433 73.6993 120.264 74.3887 120.264C74.7864 120.264 75.1792 120.33 75.5669 120.463C75.9547 120.596 76.3077 120.811 76.6259 121.109C76.9441 121.404 77.1976 121.795 77.3865 122.283C77.5755 122.77 77.6699 123.37 77.6699 124.082V124.58H71.7836V123.565H76.4767C76.4767 123.134 76.3906 122.75 76.2182 122.412C76.0492 122.074 75.8072 121.807 75.4924 121.612C75.1808 121.416 74.8129 121.318 74.3887 121.318C73.9213 121.318 73.517 121.434 73.1756 121.666C72.8375 121.895 72.5774 122.193 72.3951 122.561C72.2128 122.929 72.1216 123.323 72.1216 123.744V124.42C72.1216 124.997 72.2211 125.486 72.4199 125.887C72.6221 126.285 72.9022 126.588 73.2601 126.797C73.6181 127.002 74.034 127.105 74.508 127.105C74.8162 127.105 75.0946 127.062 75.3432 126.976C75.5951 126.886 75.8122 126.754 75.9945 126.578C76.1768 126.399 76.3176 126.177 76.4171 125.912L77.5506 126.23C77.4313 126.615 77.2308 126.953 76.949 127.244C76.6673 127.533 76.3193 127.758 75.905 127.92C75.4907 128.08 75.025 128.159 74.508 128.159ZM84.1479 130.864C83.949 130.864 83.7717 130.847 83.6159 130.814C83.4602 130.784 83.3525 130.754 83.2928 130.724L83.5911 129.69C83.8761 129.763 84.128 129.79 84.3468 129.77C84.5655 129.75 84.7594 129.652 84.9284 129.477C85.1008 129.304 85.2582 129.024 85.4007 128.636L85.6195 128.04L82.7956 120.364H84.0684L86.1763 126.449H86.2559L88.3638 120.364H89.6365L86.3951 129.114C86.2492 129.508 86.0686 129.835 85.8532 130.093C85.6377 130.355 85.3875 130.549 85.1025 130.675C84.8207 130.801 84.5025 130.864 84.1479 130.864ZM94.014 128.159C93.3246 128.159 92.7198 127.995 92.1994 127.667C91.6824 127.339 91.278 126.88 90.9863 126.29C90.698 125.7 90.5538 125.01 90.5538 124.222C90.5538 123.426 90.698 122.732 90.9863 122.138C91.278 121.545 91.6824 121.085 92.1994 120.756C92.7198 120.428 93.3246 120.264 94.014 120.264C94.7034 120.264 95.3066 120.428 95.8237 120.756C96.344 121.085 96.7484 121.545 97.0368 122.138C97.3284 122.732 97.4743 123.426 97.4743 124.222C97.4743 125.01 97.3284 125.7 97.0368 126.29C96.7484 126.88 96.344 127.339 95.8237 127.667C95.3066 127.995 94.7034 128.159 94.014 128.159ZM94.014 127.105C94.5377 127.105 94.9686 126.971 95.3066 126.702C95.6447 126.434 95.8949 126.081 96.0574 125.643C96.2198 125.206 96.301 124.732 96.301 124.222C96.301 123.711 96.2198 123.236 96.0574 122.795C95.8949 122.354 95.6447 121.998 95.3066 121.726C94.9686 121.454 94.5377 121.318 94.014 121.318C93.4904 121.318 93.0595 121.454 92.7214 121.726C92.3833 121.998 92.1331 122.354 91.9707 122.795C91.8083 123.236 91.7271 123.711 91.7271 124.222C91.7271 124.732 91.8083 125.206 91.9707 125.643C92.1331 126.081 92.3833 126.434 92.7214 126.702C93.0595 126.971 93.4904 127.105 94.014 127.105ZM104.078 124.878V120.364H105.251V128H104.078V126.707H103.998C103.819 127.095 103.541 127.425 103.163 127.697C102.785 127.965 102.308 128.099 101.731 128.099C101.254 128.099 100.83 127.995 100.458 127.786C100.087 127.574 99.7956 127.256 99.5835 126.832C99.3713 126.404 99.2653 125.866 99.2653 125.216V120.364H100.439V125.136C100.439 125.693 100.594 126.137 100.906 126.469C101.221 126.8 101.622 126.966 102.109 126.966C102.401 126.966 102.697 126.891 102.999 126.742C103.304 126.593 103.559 126.364 103.765 126.056C103.973 125.748 104.078 125.355 104.078 124.878ZM107.4 128V120.364H108.534V121.517H108.613C108.752 121.139 109.004 120.833 109.369 120.597C109.733 120.362 110.144 120.244 110.602 120.244C110.688 120.244 110.796 120.246 110.925 120.249C111.054 120.253 111.152 120.258 111.218 120.264V121.457C111.178 121.447 111.087 121.433 110.945 121.413C110.806 121.389 110.658 121.378 110.502 121.378C110.131 121.378 109.8 121.456 109.508 121.612C109.22 121.764 108.991 121.976 108.822 122.248C108.656 122.516 108.573 122.823 108.573 123.168V128H107.4ZM116.706 128V117.818H120.265C120.975 117.818 121.56 117.941 122.02 118.186C122.481 118.428 122.824 118.754 123.049 119.165C123.275 119.573 123.387 120.026 123.387 120.523C123.387 120.96 123.31 121.321 123.154 121.607C123.001 121.892 122.799 122.117 122.547 122.283C122.299 122.448 122.029 122.571 121.737 122.651V122.75C122.048 122.77 122.362 122.879 122.676 123.078C122.991 123.277 123.255 123.562 123.467 123.933C123.679 124.304 123.785 124.759 123.785 125.295C123.785 125.806 123.669 126.265 123.437 126.673C123.205 127.08 122.839 127.403 122.338 127.642C121.838 127.881 121.187 128 120.385 128H116.706ZM117.939 126.906H120.385C121.19 126.906 121.762 126.75 122.1 126.439C122.441 126.124 122.612 125.743 122.612 125.295C122.612 124.951 122.524 124.633 122.348 124.341C122.173 124.046 121.922 123.811 121.598 123.635C121.273 123.456 120.888 123.366 120.444 123.366H117.939V126.906ZM117.939 122.293H120.225C120.597 122.293 120.931 122.22 121.23 122.074C121.531 121.928 121.77 121.723 121.946 121.457C122.125 121.192 122.214 120.881 122.214 120.523C122.214 120.075 122.058 119.696 121.747 119.384C121.435 119.069 120.941 118.912 120.265 118.912H117.939V122.293ZM130.464 124.878V120.364H131.638V128H130.464V126.707H130.385C130.206 127.095 129.928 127.425 129.55 127.697C129.172 127.965 128.695 128.099 128.118 128.099C127.641 128.099 127.216 127.995 126.845 127.786C126.474 127.574 126.182 127.256 125.97 126.832C125.758 126.404 125.652 125.866 125.652 125.216V120.364H126.825V125.136C126.825 125.693 126.981 126.137 127.293 126.469C127.607 126.8 128.009 126.966 128.496 126.966C128.787 126.966 129.084 126.891 129.386 126.742C129.691 126.593 129.946 126.364 130.151 126.056C130.36 125.748 130.464 125.355 130.464 124.878ZM139.196 122.074L138.142 122.372C138.076 122.196 137.978 122.026 137.849 121.86C137.723 121.691 137.55 121.552 137.331 121.442C137.113 121.333 136.833 121.278 136.491 121.278C136.024 121.278 135.635 121.386 135.323 121.602C135.015 121.814 134.861 122.084 134.861 122.412C134.861 122.704 134.967 122.934 135.179 123.103C135.391 123.272 135.722 123.413 136.173 123.526L137.307 123.804C137.989 123.97 138.498 124.223 138.833 124.565C139.168 124.903 139.335 125.339 139.335 125.872C139.335 126.31 139.209 126.701 138.957 127.045C138.709 127.39 138.361 127.662 137.913 127.861C137.466 128.06 136.945 128.159 136.352 128.159C135.573 128.159 134.929 127.99 134.418 127.652C133.908 127.314 133.585 126.82 133.449 126.17L134.562 125.892C134.668 126.303 134.869 126.611 135.164 126.817C135.462 127.022 135.852 127.125 136.332 127.125C136.879 127.125 137.313 127.009 137.635 126.777C137.96 126.542 138.122 126.26 138.122 125.932C138.122 125.667 138.029 125.445 137.844 125.266C137.658 125.083 137.373 124.947 136.988 124.858L135.716 124.56C135.016 124.394 134.503 124.137 134.175 123.789C133.85 123.438 133.687 122.999 133.687 122.472C133.687 122.041 133.808 121.66 134.05 121.328C134.296 120.997 134.629 120.737 135.05 120.548C135.474 120.359 135.954 120.264 136.491 120.264C137.247 120.264 137.84 120.43 138.271 120.761C138.705 121.093 139.014 121.53 139.196 122.074ZM141.101 128V120.364H142.275V128H141.101ZM141.698 119.091C141.469 119.091 141.272 119.013 141.106 118.857C140.944 118.701 140.863 118.514 140.863 118.295C140.863 118.077 140.944 117.889 141.106 117.734C141.272 117.578 141.469 117.5 141.698 117.5C141.926 117.5 142.122 117.578 142.284 117.734C142.45 117.889 142.533 118.077 142.533 118.295C142.533 118.514 142.45 118.701 142.284 118.857C142.122 119.013 141.926 119.091 141.698 119.091ZM145.597 123.406V128H144.423V120.364H145.557V121.557H145.656C145.835 121.169 146.107 120.857 146.472 120.622C146.836 120.384 147.307 120.264 147.884 120.264C148.401 120.264 148.853 120.37 149.241 120.582C149.629 120.791 149.93 121.109 150.146 121.537C150.361 121.961 150.469 122.498 150.469 123.148V128H149.296V123.227C149.296 122.627 149.14 122.16 148.828 121.825C148.517 121.487 148.089 121.318 147.546 121.318C147.171 121.318 146.836 121.399 146.541 121.562C146.25 121.724 146.019 121.961 145.85 122.273C145.681 122.584 145.597 122.962 145.597 123.406ZM155.815 128.159C155.079 128.159 154.444 127.997 153.911 127.672C153.38 127.344 152.971 126.886 152.683 126.3C152.397 125.71 152.255 125.024 152.255 124.241C152.255 123.459 152.397 122.77 152.683 122.173C152.971 121.573 153.372 121.106 153.886 120.771C154.403 120.433 155.006 120.264 155.695 120.264C156.093 120.264 156.486 120.33 156.874 120.463C157.261 120.596 157.614 120.811 157.933 121.109C158.251 121.404 158.504 121.795 158.693 122.283C158.882 122.77 158.977 123.37 158.977 124.082V124.58H153.09V123.565H157.783C157.783 123.134 157.697 122.75 157.525 122.412C157.356 122.074 157.114 121.807 156.799 121.612C156.487 121.416 156.12 121.318 155.695 121.318C155.228 121.318 154.824 121.434 154.482 121.666C154.144 121.895 153.884 122.193 153.702 122.561C153.519 122.929 153.428 123.323 153.428 123.744V124.42C153.428 124.997 153.528 125.486 153.727 125.887C153.929 126.285 154.209 126.588 154.567 126.797C154.925 127.002 155.341 127.105 155.815 127.105C156.123 127.105 156.401 127.062 156.65 126.976C156.902 126.886 157.119 126.754 157.301 126.578C157.483 126.399 157.624 126.177 157.724 125.912L158.857 126.23C158.738 126.615 158.537 126.953 158.256 127.244C157.974 127.533 157.626 127.758 157.212 127.92C156.797 128.08 156.332 128.159 155.815 128.159ZM166.17 122.074L165.116 122.372C165.05 122.196 164.952 122.026 164.823 121.86C164.697 121.691 164.525 121.552 164.306 121.442C164.087 121.333 163.807 121.278 163.466 121.278C162.999 121.278 162.609 121.386 162.298 121.602C161.989 121.814 161.835 122.084 161.835 122.412C161.835 122.704 161.941 122.934 162.153 123.103C162.366 123.272 162.697 123.413 163.148 123.526L164.281 123.804C164.964 123.97 165.473 124.223 165.808 124.565C166.142 124.903 166.31 125.339 166.31 125.872C166.31 126.31 166.184 126.701 165.932 127.045C165.683 127.39 165.335 127.662 164.888 127.861C164.44 128.06 163.92 128.159 163.327 128.159C162.548 128.159 161.903 127.99 161.393 127.652C160.882 127.314 160.559 126.82 160.423 126.17L161.537 125.892C161.643 126.303 161.844 126.611 162.138 126.817C162.437 127.022 162.826 127.125 163.307 127.125C163.854 127.125 164.288 127.009 164.609 126.777C164.934 126.542 165.097 126.26 165.097 125.932C165.097 125.667 165.004 125.445 164.818 125.266C164.633 125.083 164.348 124.947 163.963 124.858L162.69 124.56C161.991 124.394 161.477 124.137 161.149 123.789C160.824 123.438 160.662 122.999 160.662 122.472C160.662 122.041 160.783 121.66 161.025 121.328C161.27 120.997 161.603 120.737 162.024 120.548C162.448 120.359 162.929 120.264 163.466 120.264C164.222 120.264 164.815 120.43 165.246 120.761C165.68 121.093 165.988 121.53 166.17 122.074ZM173.485 122.074L172.431 122.372C172.365 122.196 172.267 122.026 172.138 121.86C172.012 121.691 171.839 121.552 171.621 121.442C171.402 121.333 171.122 121.278 170.78 121.278C170.313 121.278 169.924 121.386 169.612 121.602C169.304 121.814 169.15 122.084 169.15 122.412C169.15 122.704 169.256 122.934 169.468 123.103C169.68 123.272 170.011 123.413 170.462 123.526L171.596 123.804C172.278 123.97 172.787 124.223 173.122 124.565C173.457 124.903 173.624 125.339 173.624 125.872C173.624 126.31 173.498 126.701 173.246 127.045C172.998 127.39 172.65 127.662 172.202 127.861C171.755 128.06 171.234 128.159 170.641 128.159C169.862 128.159 169.218 127.99 168.707 127.652C168.197 127.314 167.874 126.82 167.738 126.17L168.851 125.892C168.957 126.303 169.158 126.611 169.453 126.817C169.751 127.022 170.141 127.125 170.621 127.125C171.168 127.125 171.602 127.009 171.924 126.777C172.249 126.542 172.411 126.26 172.411 125.932C172.411 125.667 172.318 125.445 172.133 125.266C171.947 125.083 171.662 124.947 171.278 124.858L170.005 124.56C169.305 124.394 168.792 124.137 168.464 123.789C168.139 123.438 167.976 122.999 167.976 122.472C167.976 122.041 168.097 121.66 168.339 121.328C168.585 120.997 168.918 120.737 169.339 120.548C169.763 120.359 170.243 120.264 170.78 120.264C171.536 120.264 172.129 120.43 172.56 120.761C172.994 121.093 173.303 121.53 173.485 122.074Z" fill="#343A40"/>
</svg>
