<svg width="8" height="9" viewBox="0 0 8 9" fill="none" xmlns="http://www.w3.org/2000/svg">
<path d="M0.660511 9V0.272727H4.29972C4.95313 0.272727 5.5 0.365057 5.94034 0.549716C6.38352 0.734375 6.71591 0.992897 6.9375 1.32528C7.16193 1.65767 7.27415 2.04261 7.27415 2.48011C7.27415 2.8125 7.20455 3.10938 7.06534 3.37074C6.92614 3.62926 6.73438 3.84375 6.49006 4.0142C6.24574 4.18466 5.96307 4.30398 5.64205 4.37216V4.45739C5.99432 4.47443 6.3196 4.5696 6.6179 4.7429C6.91903 4.91619 7.16051 5.15767 7.34233 5.46733C7.52415 5.77415 7.61506 6.13778 7.61506 6.55824C7.61506 7.02699 7.49574 7.44602 7.2571 7.81534C7.01847 8.18182 6.6733 8.47159 6.22159 8.68466C5.76989 8.89489 5.22159 9 4.5767 9H0.660511ZM2.76989 7.29972H4.07386C4.53125 7.29972 4.8679 7.21307 5.08381 7.03977C5.30256 6.86648 5.41193 6.625 5.41193 6.31534C5.41193 6.09091 5.35938 5.89773 5.25426 5.7358C5.14915 5.57102 5 5.4446 4.80682 5.35653C4.61364 5.26562 4.3821 5.22017 4.11222 5.22017H2.76989V7.29972ZM2.76989 3.8608H3.9375C4.16761 3.8608 4.37216 3.82244 4.55114 3.74574C4.73011 3.66903 4.86932 3.55824 4.96875 3.41335C5.07102 3.26847 5.12216 3.09375 5.12216 2.8892C5.12216 2.59659 5.01847 2.36648 4.81108 2.19886C4.60369 2.03125 4.32386 1.94744 3.97159 1.94744H2.76989V3.8608Z" fill="black"/>
</svg>
