<svg width="138" height="189" viewBox="0 0 138 189" fill="none" xmlns="http://www.w3.org/2000/svg">
<g clip-path="url(#clip0_2117_477)">
<path d="M122.152 188.695H62.0702C53.3311 188.695 46.2222 181.582 46.2222 172.838V15.8566C46.2222 7.11275 53.3311 0 62.0702 0H122.152C130.891 0 138 7.11275 138 15.8566V172.838C138 181.582 130.891 188.695 122.152 188.695Z" fill="#DADBDC"/>
<path d="M122.196 184.402H62.0265C55.5584 184.402 50.2944 179.136 50.2944 172.664V15.7228C50.2944 9.25124 55.5584 3.98438 62.0265 3.98438H122.196C128.664 3.98438 133.928 9.25124 133.928 15.7228V172.664C133.928 179.136 128.664 184.402 122.196 184.402Z" fill="white"/>
<path d="M100.62 14.4306H83.6052C81.3589 14.4306 79.5327 12.6034 79.5327 10.3559C79.5327 8.10846 81.3589 6.28125 83.6052 6.28125H100.62C102.866 6.28125 104.692 8.10846 104.692 10.3559C104.692 12.6034 102.866 14.4306 100.62 14.4306Z" fill="#DADBDC"/>
<path d="M117.983 62.3552H68.1956C67.2094 62.3552 66.4067 61.3342 66.4067 60.0829C66.4067 58.8315 67.2094 57.8105 68.1956 57.8105H117.983C118.969 57.8105 119.772 58.8315 119.772 60.0829C119.772 61.3342 118.969 62.3552 117.983 62.3552Z" fill="#DADBDC"/>
<path d="M117.983 72.4255H68.1956C67.2094 72.4255 66.4067 71.4045 66.4067 70.1532C66.4067 68.9019 67.2094 67.8809 68.1956 67.8809H117.983C118.969 67.8809 119.772 68.9019 119.772 70.1532C119.772 71.4045 118.969 72.4255 117.983 72.4255Z" fill="#DADBDC"/>
<path d="M103.706 82.4959H68.1956C67.2094 82.4959 66.4067 81.4749 66.4067 80.2235C66.4067 78.9722 67.2094 77.9512 68.1956 77.9512H103.706C104.692 77.9512 105.495 78.9722 105.495 80.2235C105.495 81.4749 104.692 82.4959 103.706 82.4959Z" fill="#DADBDC"/>
<path d="M92.111 141.701C103.848 141.701 113.363 132.181 113.363 120.437C113.363 108.694 103.848 99.1738 92.111 99.1738C80.3738 99.1738 70.8589 108.694 70.8589 120.437C70.8589 132.181 80.3738 141.701 92.111 141.701Z" fill="#2D995F"/>
<path d="M86.4578 120.879C87.5561 123.03 88.6543 125.184 89.7525 127.335C90.0667 127.955 90.9907 127.759 91.1743 127.149C92.6147 122.342 95.2903 117.963 98.8961 114.479C99.6179 113.782 98.5165 112.683 97.7948 113.377C93.9992 117.044 91.1899 121.679 89.6716 126.735L91.0934 126.548C89.9952 124.397 88.8969 122.243 87.7987 120.092C87.3445 119.198 86.0005 119.986 86.4547 120.876H86.4578V120.879Z" fill="white"/>
<path d="M34.8198 94.7164L29.6678 96.4751L29.5869 89.0324L34.2754 88.9795L34.8198 94.7164Z" fill="#F3A3A6"/>
<path d="M30.1901 91.0869C33.0355 91.0869 35.3421 88.7791 35.3421 85.9321C35.3421 83.0852 33.0355 80.7773 30.1901 80.7773C27.3447 80.7773 25.0381 83.0852 25.0381 85.9321C25.0381 88.7791 27.3447 91.0869 30.1901 91.0869Z" fill="#F3A3A6"/>
<path d="M31.5997 85.4057C30.738 85.3902 30.1624 84.5248 29.8171 83.731C29.4717 82.9404 29.1171 82.0283 28.3175 81.7077C27.6611 81.4462 26.5286 83.2735 26.0059 82.7972C25.4615 82.2992 25.9593 79.7031 26.5255 79.233C27.0917 78.763 27.8726 78.6634 28.6068 78.6198C30.4019 78.5171 32.2064 78.6416 33.9704 78.9902C35.0593 79.205 36.1855 79.535 36.9789 80.3132C37.9838 81.2999 38.2544 82.8034 38.3415 84.2104C38.4318 85.6485 38.3633 87.1582 37.6789 88.4283C36.9913 89.6952 35.5384 90.6415 34.1291 90.3364C33.9797 89.5738 34.1135 88.7893 34.1602 88.0111C34.2069 87.2361 34.1384 86.3987 33.6593 85.7855C33.1802 85.1723 32.166 84.9388 31.6215 85.4929" fill="#2F2E43"/>
<path d="M37.9559 87.1216C38.4661 86.7387 39.079 86.415 39.7137 86.4866C40.4012 86.5613 40.9861 87.1216 41.1697 87.7877C41.3532 88.4538 41.1635 89.1916 40.7466 89.7425C40.3297 90.2935 39.7043 90.6608 39.0386 90.8476C38.6528 90.9565 38.2328 91.0032 37.8626 90.8476C37.3181 90.6204 37.0194 89.9324 37.2248 89.3783" fill="#2F2E43"/>
<path d="M18.7848 135.821C18.4612 137.518 19.1052 139.059 20.2283 139.261C21.3483 139.463 22.5212 138.249 22.8448 136.553C22.9848 135.877 22.9537 135.177 22.7546 134.514L26.7181 107.928L21.3794 106.984L19.6217 133.951C19.1923 134.502 18.903 135.143 18.7848 135.824V135.821Z" fill="#F3A3A6"/>
<path d="M29.5743 93.0605L25.9374 93.101C23.3707 93.5181 22.6863 94.9002 22.1325 97.4403C21.2832 101.316 20.2005 106.48 20.4276 106.551C20.7916 106.67 27.0138 109.515 30.1623 108.811L29.5743 93.0605Z" fill="#2D995F"/>
<path d="M34.0403 177.557L29.1997 177.611L29.2764 184.481L34.117 184.427L34.0403 177.557Z" fill="#F3A3A6"/>
<path d="M24.5963 188.695C24.0861 188.701 23.635 188.695 23.2928 188.667C22.0048 188.564 20.7697 187.627 20.1443 187.079C19.8643 186.834 19.771 186.435 19.911 186.093C20.0106 185.847 20.2159 185.66 20.471 185.582L23.859 184.574L29.319 180.798L29.3813 180.907C29.4061 180.947 29.9568 181.915 30.1435 182.572C30.215 182.821 30.1995 183.03 30.0968 183.192C30.0253 183.304 29.9257 183.369 29.8448 183.409C29.9444 183.512 30.2586 183.721 31.223 183.864C32.6262 184.073 32.9093 182.613 32.9186 182.55L32.9279 182.501L32.9684 182.473C33.631 182.034 34.0386 181.834 34.1817 181.875C34.2719 181.9 34.4182 181.943 34.8599 185.903C34.9004 186.027 35.1897 186.936 35.0093 187.811C34.8133 188.764 30.6661 188.48 29.8386 188.415C29.8137 188.418 26.715 188.673 24.5901 188.695H24.5963Z" fill="#2F2E43"/>
<path d="M47.7633 171.996L43.6846 174.604L47.3829 180.393L51.4616 177.784L47.7633 171.996Z" fill="#F3A3A6"/>
<path d="M42.4698 187.553C41.9004 187.559 41.3778 187.497 41.0044 187.434C40.6373 187.372 40.348 187.086 40.2858 186.718C40.2391 186.454 40.3169 186.189 40.4911 185.99L42.8307 183.341L45.4658 177.246L45.5778 177.305C45.6182 177.327 46.5982 177.856 47.1054 178.314C47.2982 178.488 47.3947 178.672 47.3947 178.865C47.3947 178.999 47.3449 179.108 47.2951 179.182C47.4351 179.217 47.8116 179.226 48.7045 178.837C50.0049 178.27 49.4729 176.882 49.448 176.826L49.4294 176.779L49.4511 176.736C49.7809 176.014 50.0236 175.628 50.1636 175.584C50.2538 175.559 50.4 175.515 52.8703 178.641C52.9698 178.725 53.6978 179.341 54.0058 180.178C54.3418 181.091 50.6769 183.045 49.9365 183.428C49.9147 183.447 46.0849 186.295 44.5107 187.111C43.8853 187.434 43.1418 187.54 42.4636 187.546L42.4698 187.553Z" fill="#2F2E43"/>
<path d="M36.9569 120.054L23.4048 120.203L22.3159 132.829L28.2146 179.378L35.1337 179.3L32.0693 152.412L43.5618 176.592L49.6627 172.215L40.6466 149.623C40.6466 149.623 43.5586 129.822 41.0449 124.926C38.5311 120.029 36.96 120.048 36.96 120.048V120.054H36.9569Z" fill="#2F2E43"/>
<path d="M43.7049 120.748L22.1821 120.988L28.3297 93.0756L37.7097 92.9697L43.7049 120.748Z" fill="#2D995F"/>
<path d="M45.8083 135.522C46.1692 137.212 45.5594 138.765 44.4426 138.993C43.3257 139.22 42.1279 138.034 41.767 136.344C41.6114 135.671 41.627 134.971 41.8105 134.302L37.2559 107.809L42.5728 106.747L44.9279 133.67C45.3697 134.211 45.6714 134.846 45.8083 135.525V135.522Z" fill="#F3A3A6"/>
<path d="M34.0729 93.0102L37.7098 92.9697C40.2858 93.3308 40.9982 94.6973 41.6111 97.2249C42.5445 101.082 43.7422 106.218 43.5182 106.296C43.1542 106.42 37.0004 109.402 33.8364 108.77L34.076 93.0102H34.0729Z" fill="#2D995F"/>
<path d="M66.914 188.695C66.914 188.863 66.7771 189 66.6091 189H0.30489C0.136889 189 0 188.863 0 188.695C0 188.527 0.136889 188.39 0.30489 188.39H66.6091C66.7771 188.39 66.914 188.527 66.914 188.695Z" fill="#3F3D58"/>
</g>
<defs>
<clipPath id="clip0_2117_477">
<rect width="138" height="189" fill="white"/>
</clipPath>
</defs>
</svg>
