<svg width="1120" height="329" viewBox="0 0 1120 329" fill="none" xmlns="http://www.w3.org/2000/svg">
<rect y="49" width="1120" height="280" rx="8" fill="#F2F5F3" fill-opacity="0.77"/>
<path d="M102.744 184.273V225H94.392L78.1847 201.494H77.9261V225H68.0824V184.273H76.554L92.5824 207.739H92.9205V184.273H102.744ZM127.687 184.273V225H117.863V193.46H117.624L108.516 199.028V190.517L118.559 184.273H127.687ZM153.534 225.994C149.981 225.994 146.919 225.152 144.347 223.469C141.775 221.772 139.793 219.339 138.401 216.17C137.009 212.989 136.319 209.164 136.332 204.696C136.346 200.228 137.042 196.437 138.42 193.321C139.813 190.192 141.788 187.812 144.347 186.182C146.919 184.538 149.981 183.716 153.534 183.716C157.087 183.716 160.15 184.538 162.722 186.182C165.307 187.812 167.295 190.192 168.688 193.321C170.08 196.45 170.769 200.241 170.756 204.696C170.756 209.177 170.06 213.009 168.668 216.19C167.276 219.372 165.294 221.805 162.722 223.489C160.163 225.159 157.1 225.994 153.534 225.994ZM153.534 217.94C155.655 217.94 157.372 216.86 158.685 214.699C159.997 212.525 160.647 209.19 160.634 204.696C160.634 201.753 160.335 199.327 159.739 197.418C159.142 195.495 158.313 194.063 157.253 193.122C156.192 192.181 154.953 191.71 153.534 191.71C151.426 191.71 149.723 192.777 148.423 194.912C147.124 197.033 146.468 200.295 146.455 204.696C146.441 207.679 146.726 210.152 147.31 212.114C147.906 214.076 148.741 215.541 149.815 216.509C150.889 217.463 152.129 217.94 153.534 217.94ZM193.237 225.994C189.684 225.994 186.622 225.152 184.05 223.469C181.478 221.772 179.496 219.339 178.104 216.17C176.712 212.989 176.022 209.164 176.036 204.696C176.049 200.228 176.745 196.437 178.124 193.321C179.516 190.192 181.491 187.812 184.05 186.182C186.622 184.538 189.684 183.716 193.237 183.716C196.79 183.716 199.853 184.538 202.425 186.182C205.01 187.812 206.999 190.192 208.391 193.321C209.783 196.45 210.472 200.241 210.459 204.696C210.459 209.177 209.763 213.009 208.371 216.19C206.979 219.372 204.997 221.805 202.425 223.489C199.866 225.159 196.804 225.994 193.237 225.994ZM193.237 217.94C195.358 217.94 197.075 216.86 198.388 214.699C199.7 212.525 200.35 209.19 200.337 204.696C200.337 201.753 200.038 199.327 199.442 197.418C198.845 195.495 198.017 194.063 196.956 193.122C195.895 192.181 194.656 191.71 193.237 191.71C191.129 191.71 189.426 192.777 188.126 194.912C186.827 197.033 186.171 200.295 186.158 204.696C186.144 207.679 186.429 210.152 187.013 212.114C187.609 214.076 188.445 215.541 189.518 216.509C190.592 217.463 191.832 217.94 193.237 217.94ZM224.349 219.432L224.17 221.639C224.011 223.469 223.687 225.252 223.196 226.989C222.719 228.739 222.208 230.31 221.665 231.702C221.121 233.094 220.69 234.174 220.372 234.943H214.247C214.459 234.174 214.744 233.094 215.102 231.702C215.473 230.31 215.818 228.739 216.136 226.989C216.455 225.239 216.634 223.462 216.673 221.659L216.713 219.432H224.349ZM246.831 225.994C243.278 225.994 240.215 225.152 237.643 223.469C235.071 221.772 233.089 219.339 231.697 216.17C230.305 212.989 229.616 209.164 229.629 204.696C229.643 200.228 230.339 196.437 231.717 193.321C233.109 190.192 235.085 187.812 237.643 186.182C240.215 184.538 243.278 183.716 246.831 183.716C250.384 183.716 253.446 184.538 256.018 186.182C258.604 187.812 260.592 190.192 261.984 193.321C263.376 196.45 264.066 200.241 264.053 204.696C264.053 209.177 263.357 213.009 261.964 216.19C260.572 219.372 258.59 221.805 256.018 223.489C253.46 225.159 250.397 225.994 246.831 225.994ZM246.831 217.94C248.952 217.94 250.669 216.86 251.982 214.699C253.294 212.525 253.944 209.19 253.93 204.696C253.93 201.753 253.632 199.327 253.036 197.418C252.439 195.495 251.61 194.063 250.55 193.122C249.489 192.181 248.25 191.71 246.831 191.71C244.723 191.71 243.019 192.777 241.72 194.912C240.421 197.033 239.765 200.295 239.751 204.696C239.738 207.679 240.023 210.152 240.607 212.114C241.203 214.076 242.038 215.541 243.112 216.509C244.186 217.463 245.426 217.94 246.831 217.94ZM286.534 225.994C282.981 225.994 279.919 225.152 277.347 223.469C274.775 221.772 272.793 219.339 271.401 216.17C270.009 212.989 269.319 209.164 269.332 204.696C269.346 200.228 270.042 196.437 271.42 193.321C272.813 190.192 274.788 187.812 277.347 186.182C279.919 184.538 282.981 183.716 286.534 183.716C290.087 183.716 293.15 184.538 295.722 186.182C298.307 187.812 300.295 190.192 301.688 193.321C303.08 196.45 303.769 200.241 303.756 204.696C303.756 209.177 303.06 213.009 301.668 216.19C300.276 219.372 298.294 221.805 295.722 223.489C293.163 225.159 290.1 225.994 286.534 225.994ZM286.534 217.94C288.655 217.94 290.372 216.86 291.685 214.699C292.997 212.525 293.647 209.19 293.634 204.696C293.634 201.753 293.335 199.327 292.739 197.418C292.142 195.495 291.313 194.063 290.253 193.122C289.192 192.181 287.953 191.71 286.534 191.71C284.426 191.71 282.723 192.777 281.423 194.912C280.124 197.033 279.468 200.295 279.455 204.696C279.441 207.679 279.726 210.152 280.31 212.114C280.906 214.076 281.741 215.541 282.815 216.509C283.889 217.463 285.129 217.94 286.534 217.94ZM326.237 225.994C322.684 225.994 319.622 225.152 317.05 223.469C314.478 221.772 312.496 219.339 311.104 216.17C309.712 212.989 309.022 209.164 309.036 204.696C309.049 200.228 309.745 196.437 311.124 193.321C312.516 190.192 314.491 187.812 317.05 186.182C319.622 184.538 322.684 183.716 326.237 183.716C329.79 183.716 332.853 184.538 335.425 186.182C338.01 187.812 339.999 190.192 341.391 193.321C342.783 196.45 343.472 200.241 343.459 204.696C343.459 209.177 342.763 213.009 341.371 216.19C339.979 219.372 337.997 221.805 335.425 223.489C332.866 225.159 329.804 225.994 326.237 225.994ZM326.237 217.94C328.358 217.94 330.075 216.86 331.388 214.699C332.7 212.525 333.35 209.19 333.337 204.696C333.337 201.753 333.038 199.327 332.442 197.418C331.845 195.495 331.017 194.063 329.956 193.122C328.895 192.181 327.656 191.71 326.237 191.71C324.129 191.71 322.426 192.777 321.126 194.912C319.827 197.033 319.171 200.295 319.158 204.696C319.144 207.679 319.429 210.152 320.013 212.114C320.609 214.076 321.445 215.541 322.518 216.509C323.592 217.463 324.832 217.94 326.237 217.94Z" fill="#2D995F"/>
<path d="M76.7045 147C76.5483 146.522 76.3423 146.093 76.0866 145.714C75.8357 145.331 75.535 145.004 75.1847 144.734C74.839 144.464 74.446 144.259 74.0057 144.116C73.5653 143.974 73.0824 143.903 72.5568 143.903C71.6951 143.903 70.9115 144.126 70.206 144.571C69.5005 145.016 68.9394 145.672 68.5227 146.538C68.1061 147.405 67.8977 148.468 67.8977 149.727C67.8977 150.987 68.1084 152.05 68.5298 152.916C68.9512 153.783 69.5218 154.438 70.2415 154.884C70.9612 155.329 71.7708 155.551 72.6705 155.551C73.5038 155.551 74.2377 155.374 74.8722 155.018C75.5114 154.659 76.0085 154.152 76.3636 153.499C76.7235 152.84 76.9034 152.066 76.9034 151.176L77.4432 151.29H73.0682V149.727H78.608V151.29C78.608 152.488 78.3523 153.529 77.8409 154.415C77.3343 155.3 76.6335 155.987 75.7386 156.474C74.8485 156.957 73.8258 157.199 72.6705 157.199C71.3826 157.199 70.2509 156.896 69.2756 156.29C68.3049 155.684 67.5473 154.822 67.0028 153.705C66.4631 152.587 66.1932 151.261 66.1932 149.727C66.1932 148.577 66.3471 147.542 66.6548 146.624C66.9673 145.7 67.4077 144.914 67.9759 144.266C68.544 143.617 69.2164 143.12 69.9929 142.774C70.7694 142.429 71.6241 142.256 72.5568 142.256C73.3239 142.256 74.0388 142.372 74.7017 142.604C75.3693 142.831 75.9635 143.155 76.4844 143.577C77.0099 143.993 77.4479 144.493 77.7983 145.075C78.1487 145.653 78.3902 146.295 78.5227 147H76.7045ZM81.3974 157V146.091H83.0167V147.739H83.1303C83.3292 147.199 83.689 146.761 84.2099 146.425C84.7307 146.089 85.3178 145.92 85.9712 145.92C86.0943 145.92 86.2482 145.923 86.4329 145.928C86.6175 145.932 86.7572 145.939 86.8519 145.949V147.653C86.7951 147.639 86.6649 147.618 86.4613 147.589C86.2624 147.556 86.0517 147.54 85.8292 147.54C85.2989 147.54 84.8254 147.651 84.4087 147.874C83.9968 148.091 83.6701 148.394 83.4286 148.783C83.1919 149.166 83.0735 149.604 83.0735 150.097V157H81.3974ZM92.049 157.256C91.3577 157.256 90.7304 157.125 90.1669 156.865C89.6035 156.6 89.156 156.219 88.8246 155.722C88.4931 155.22 88.3274 154.614 88.3274 153.903C88.3274 153.278 88.4505 152.772 88.6967 152.384C88.9429 151.991 89.272 151.683 89.6839 151.46C90.0959 151.238 90.5504 151.072 91.0476 150.963C91.5495 150.849 92.0537 150.759 92.5604 150.693C93.2232 150.608 93.7607 150.544 94.1726 150.501C94.5893 150.454 94.8923 150.376 95.0817 150.267C95.2758 150.158 95.3729 149.969 95.3729 149.699V149.642C95.3729 148.941 95.1811 148.397 94.7976 148.009C94.4188 147.62 93.8435 147.426 93.0717 147.426C92.2715 147.426 91.6442 147.601 91.1896 147.952C90.7351 148.302 90.4155 148.676 90.2308 149.074L88.6399 148.506C88.924 147.843 89.3028 147.327 89.7763 146.957C90.2545 146.583 90.7753 146.323 91.3388 146.176C91.907 146.025 92.4657 145.949 93.0149 145.949C93.3653 145.949 93.7678 145.991 94.2223 146.077C94.6816 146.157 95.1243 146.325 95.5504 146.581C95.9813 146.837 96.3388 147.223 96.6229 147.739C96.907 148.255 97.049 148.946 97.049 149.812V157H95.3729V155.523H95.2876C95.174 155.759 94.9846 156.013 94.7195 156.283C94.4543 156.553 94.1016 156.782 93.6612 156.972C93.2209 157.161 92.6835 157.256 92.049 157.256ZM92.3047 155.75C92.9676 155.75 93.5263 155.62 93.9808 155.359C94.4401 155.099 94.7857 154.763 95.0178 154.351C95.2545 153.939 95.3729 153.506 95.3729 153.051V151.517C95.3018 151.602 95.1456 151.68 94.9041 151.751C94.6674 151.818 94.3928 151.877 94.0803 151.929C93.7725 151.976 93.4718 152.019 93.1783 152.057C92.8894 152.09 92.6551 152.118 92.4751 152.142C92.0395 152.199 91.6323 152.291 91.2536 152.419C90.8795 152.542 90.5765 152.729 90.3445 152.98C90.1172 153.226 90.0036 153.562 90.0036 153.989C90.0036 154.571 90.219 155.011 90.6499 155.31C91.0855 155.603 91.6371 155.75 92.3047 155.75ZM101.784 150.438V157H100.108V146.091H101.728V147.795H101.87C102.125 147.241 102.514 146.796 103.034 146.46C103.555 146.119 104.228 145.949 105.051 145.949C105.79 145.949 106.436 146.1 106.99 146.403C107.544 146.702 107.975 147.156 108.283 147.767C108.591 148.373 108.745 149.14 108.745 150.068V157H107.069V150.182C107.069 149.325 106.846 148.657 106.401 148.179C105.956 147.696 105.345 147.455 104.569 147.455C104.033 147.455 103.555 147.571 103.134 147.803C102.717 148.035 102.388 148.373 102.147 148.818C101.905 149.263 101.784 149.803 101.784 150.438ZM116.552 146.091V147.511H110.898V146.091H116.552ZM112.546 143.477H114.222V153.875C114.222 154.348 114.291 154.704 114.428 154.94C114.57 155.172 114.75 155.329 114.968 155.409C115.191 155.485 115.425 155.523 115.671 155.523C115.856 155.523 116.007 155.513 116.126 155.494C116.244 155.471 116.339 155.452 116.41 155.438L116.751 156.943C116.637 156.986 116.478 157.028 116.275 157.071C116.071 157.118 115.813 157.142 115.501 157.142C115.027 157.142 114.563 157.04 114.109 156.837C113.659 156.633 113.285 156.323 112.987 155.906C112.693 155.49 112.546 154.964 112.546 154.33V143.477ZM127.908 157.256C127.217 157.256 126.59 157.125 126.026 156.865C125.463 156.6 125.015 156.219 124.684 155.722C124.353 155.22 124.187 154.614 124.187 153.903C124.187 153.278 124.31 152.772 124.556 152.384C124.802 151.991 125.131 151.683 125.543 151.46C125.955 151.238 126.41 151.072 126.907 150.963C127.409 150.849 127.913 150.759 128.42 150.693C129.083 150.608 129.62 150.544 130.032 150.501C130.449 150.454 130.752 150.376 130.941 150.267C131.135 150.158 131.232 149.969 131.232 149.699V149.642C131.232 148.941 131.04 148.397 130.657 148.009C130.278 147.62 129.703 147.426 128.931 147.426C128.131 147.426 127.504 147.601 127.049 147.952C126.594 148.302 126.275 148.676 126.09 149.074L124.499 148.506C124.783 147.843 125.162 147.327 125.636 146.957C126.114 146.583 126.635 146.323 127.198 146.176C127.766 146.025 128.325 145.949 128.874 145.949C129.225 145.949 129.627 145.991 130.082 146.077C130.541 146.157 130.984 146.325 131.41 146.581C131.841 146.837 132.198 147.223 132.482 147.739C132.766 148.255 132.908 148.946 132.908 149.812V157H131.232V155.523H131.147C131.033 155.759 130.844 156.013 130.579 156.283C130.314 156.553 129.961 156.782 129.521 156.972C129.08 157.161 128.543 157.256 127.908 157.256ZM128.164 155.75C128.827 155.75 129.386 155.62 129.84 155.359C130.299 155.099 130.645 154.763 130.877 154.351C131.114 153.939 131.232 153.506 131.232 153.051V151.517C131.161 151.602 131.005 151.68 130.763 151.751C130.527 151.818 130.252 151.877 129.94 151.929C129.632 151.976 129.331 152.019 129.038 152.057C128.749 152.09 128.514 152.118 128.335 152.142C127.899 152.199 127.492 152.291 127.113 152.419C126.739 152.542 126.436 152.729 126.204 152.98C125.977 153.226 125.863 153.562 125.863 153.989C125.863 154.571 126.078 155.011 126.509 155.31C126.945 155.603 127.496 155.75 128.164 155.75ZM135.968 157V146.091H137.587V147.795H137.729C137.956 147.213 138.323 146.761 138.83 146.439C139.337 146.112 139.945 145.949 140.655 145.949C141.375 145.949 141.974 146.112 142.452 146.439C142.935 146.761 143.311 147.213 143.581 147.795H143.695C143.974 147.232 144.393 146.785 144.952 146.453C145.511 146.117 146.181 145.949 146.962 145.949C147.937 145.949 148.735 146.254 149.355 146.865C149.976 147.471 150.286 148.416 150.286 149.699V157H148.61V149.699C148.61 148.894 148.39 148.319 147.949 147.973C147.509 147.627 146.99 147.455 146.394 147.455C145.627 147.455 145.033 147.687 144.611 148.151C144.19 148.61 143.979 149.192 143.979 149.898V157H142.275V149.528C142.275 148.908 142.073 148.409 141.671 148.03C141.268 147.646 140.75 147.455 140.115 147.455C139.68 147.455 139.273 147.571 138.894 147.803C138.52 148.035 138.217 148.357 137.985 148.768C137.757 149.176 137.644 149.647 137.644 150.182V157H135.968ZM157.782 157.227C156.797 157.227 155.933 156.993 155.19 156.524C154.451 156.055 153.874 155.4 153.457 154.557C153.045 153.714 152.839 152.729 152.839 151.602C152.839 150.466 153.045 149.474 153.457 148.626C153.874 147.779 154.451 147.121 155.19 146.652C155.933 146.183 156.797 145.949 157.782 145.949C158.767 145.949 159.629 146.183 160.368 146.652C161.111 147.121 161.689 147.779 162.1 148.626C162.517 149.474 162.725 150.466 162.725 151.602C162.725 152.729 162.517 153.714 162.1 154.557C161.689 155.4 161.111 156.055 160.368 156.524C159.629 156.993 158.767 157.227 157.782 157.227ZM157.782 155.722C158.53 155.722 159.146 155.53 159.629 155.146C160.112 154.763 160.469 154.259 160.701 153.634C160.933 153.009 161.049 152.331 161.049 151.602C161.049 150.873 160.933 150.194 160.701 149.564C160.469 148.934 160.112 148.425 159.629 148.037C159.146 147.649 158.53 147.455 157.782 147.455C157.034 147.455 156.419 147.649 155.936 148.037C155.453 148.425 155.095 148.934 154.863 149.564C154.631 150.194 154.515 150.873 154.515 151.602C154.515 152.331 154.631 153.009 154.863 153.634C155.095 154.259 155.453 154.763 155.936 155.146C156.419 155.53 157.034 155.722 157.782 155.722ZM172.159 152.54V146.091H173.835V157H172.159V155.153H172.045C171.79 155.707 171.392 156.179 170.852 156.567C170.313 156.95 169.631 157.142 168.807 157.142C168.125 157.142 167.519 156.993 166.989 156.695C166.458 156.392 166.042 155.937 165.739 155.331C165.436 154.72 165.284 153.951 165.284 153.023V146.091H166.96V152.909C166.96 153.705 167.183 154.339 167.628 154.812C168.078 155.286 168.651 155.523 169.347 155.523C169.763 155.523 170.187 155.416 170.618 155.203C171.054 154.99 171.418 154.663 171.712 154.223C172.01 153.783 172.159 153.222 172.159 152.54ZM178.581 150.438V157H176.905V146.091H178.525V147.795H178.667C178.922 147.241 179.31 146.796 179.831 146.46C180.352 146.119 181.025 145.949 181.848 145.949C182.587 145.949 183.233 146.1 183.787 146.403C184.341 146.702 184.772 147.156 185.08 147.767C185.388 148.373 185.542 149.14 185.542 150.068V157H183.865V150.182C183.865 149.325 183.643 148.657 183.198 148.179C182.753 147.696 182.142 147.455 181.365 147.455C180.83 147.455 180.352 147.571 179.931 147.803C179.514 148.035 179.185 148.373 178.944 148.818C178.702 149.263 178.581 149.803 178.581 150.438ZM193.349 146.091V147.511H187.695V146.091H193.349ZM189.343 143.477H191.019V153.875C191.019 154.348 191.088 154.704 191.225 154.94C191.367 155.172 191.547 155.329 191.765 155.409C191.987 155.485 192.222 155.523 192.468 155.523C192.653 155.523 192.804 155.513 192.923 155.494C193.041 155.471 193.136 155.452 193.207 155.438L193.548 156.943C193.434 156.986 193.275 157.028 193.072 157.071C192.868 157.118 192.61 157.142 192.298 157.142C191.824 157.142 191.36 157.04 190.906 156.837C190.456 156.633 190.082 156.323 189.783 155.906C189.49 155.49 189.343 154.964 189.343 154.33V143.477ZM206.239 146.091V147.511H200.586V146.091H206.239ZM202.234 143.477H203.91V153.875C203.91 154.348 203.978 154.704 204.116 154.94C204.258 155.172 204.438 155.329 204.656 155.409C204.878 155.485 205.112 155.523 205.359 155.523C205.543 155.523 205.695 155.513 205.813 155.494C205.932 155.471 206.026 155.452 206.097 155.438L206.438 156.943C206.325 156.986 206.166 157.028 205.962 157.071C205.759 157.118 205.501 157.142 205.188 157.142C204.715 157.142 204.251 157.04 203.796 156.837C203.346 156.633 202.972 156.323 202.674 155.906C202.38 155.49 202.234 154.964 202.234 154.33V143.477ZM213.075 157.227C212.09 157.227 211.226 156.993 210.483 156.524C209.744 156.055 209.167 155.4 208.75 154.557C208.338 153.714 208.132 152.729 208.132 151.602C208.132 150.466 208.338 149.474 208.75 148.626C209.167 147.779 209.744 147.121 210.483 146.652C211.226 146.183 212.09 145.949 213.075 145.949C214.06 145.949 214.922 146.183 215.661 146.652C216.404 147.121 216.982 147.779 217.393 148.626C217.81 149.474 218.018 150.466 218.018 151.602C218.018 152.729 217.81 153.714 217.393 154.557C216.982 155.4 216.404 156.055 215.661 156.524C214.922 156.993 214.06 157.227 213.075 157.227ZM213.075 155.722C213.823 155.722 214.439 155.53 214.922 155.146C215.405 154.763 215.762 154.259 215.994 153.634C216.226 153.009 216.342 152.331 216.342 151.602C216.342 150.873 216.226 150.194 215.994 149.564C215.762 148.934 215.405 148.425 214.922 148.037C214.439 147.649 213.823 147.455 213.075 147.455C212.327 147.455 211.712 147.649 211.229 148.037C210.746 148.425 210.388 148.934 210.156 149.564C209.924 150.194 209.808 150.873 209.808 151.602C209.808 152.331 209.924 153.009 210.156 153.634C210.388 154.259 210.746 154.763 211.229 155.146C211.712 155.53 212.327 155.722 213.075 155.722ZM226.429 157V142.455H228.105V147.824H228.248C228.371 147.634 228.541 147.393 228.759 147.099C228.981 146.801 229.299 146.536 229.711 146.304C230.127 146.067 230.691 145.949 231.401 145.949C232.319 145.949 233.129 146.179 233.83 146.638C234.531 147.097 235.078 147.748 235.471 148.591C235.864 149.434 236.06 150.428 236.06 151.574C236.06 152.729 235.864 153.731 235.471 154.578C235.078 155.421 234.533 156.074 233.837 156.538C233.141 156.998 232.338 157.227 231.429 157.227C230.729 157.227 230.167 157.111 229.746 156.879C229.325 156.643 229 156.375 228.773 156.077C228.546 155.774 228.371 155.523 228.248 155.324H228.049V157H226.429ZM228.077 151.545C228.077 152.369 228.198 153.096 228.439 153.726C228.681 154.351 229.033 154.841 229.498 155.196C229.962 155.546 230.53 155.722 231.202 155.722C231.903 155.722 232.488 155.537 232.956 155.168C233.43 154.794 233.785 154.292 234.022 153.662C234.263 153.027 234.384 152.322 234.384 151.545C234.384 150.778 234.266 150.087 234.029 149.472C233.797 148.851 233.444 148.361 232.971 148.001C232.502 147.637 231.912 147.455 231.202 147.455C230.52 147.455 229.947 147.627 229.483 147.973C229.019 148.314 228.669 148.792 228.432 149.408C228.195 150.018 228.077 150.731 228.077 151.545ZM243.198 157.227C242.147 157.227 241.24 156.995 240.478 156.531C239.72 156.062 239.135 155.409 238.723 154.571C238.316 153.728 238.113 152.748 238.113 151.631C238.113 150.513 238.316 149.528 238.723 148.676C239.135 147.819 239.708 147.152 240.442 146.673C241.181 146.19 242.042 145.949 243.027 145.949C243.596 145.949 244.157 146.044 244.711 146.233C245.265 146.422 245.769 146.73 246.223 147.156C246.678 147.578 247.04 148.136 247.31 148.832C247.58 149.528 247.715 150.385 247.715 151.403V152.114H239.306V150.665H246.01C246.01 150.049 245.887 149.5 245.641 149.017C245.4 148.534 245.054 148.153 244.604 147.874C244.159 147.594 243.633 147.455 243.027 147.455C242.36 147.455 241.782 147.62 241.294 147.952C240.811 148.278 240.44 148.705 240.179 149.23C239.919 149.756 239.789 150.319 239.789 150.92V151.886C239.789 152.71 239.931 153.409 240.215 153.982C240.504 154.55 240.904 154.983 241.415 155.281C241.926 155.575 242.521 155.722 243.198 155.722C243.638 155.722 244.036 155.66 244.391 155.537C244.751 155.409 245.061 155.22 245.321 154.969C245.582 154.713 245.783 154.396 245.925 154.017L247.544 154.472C247.374 155.021 247.087 155.504 246.685 155.92C246.283 156.332 245.785 156.654 245.194 156.886C244.602 157.114 243.936 157.227 243.198 157.227ZM260.009 157.227C259.1 157.227 258.297 156.998 257.601 156.538C256.905 156.074 256.361 155.421 255.968 154.578C255.575 153.731 255.378 152.729 255.378 151.574C255.378 150.428 255.575 149.434 255.968 148.591C256.361 147.748 256.908 147.097 257.608 146.638C258.309 146.179 259.119 145.949 260.037 145.949C260.748 145.949 261.309 146.067 261.721 146.304C262.137 146.536 262.454 146.801 262.672 147.099C262.895 147.393 263.068 147.634 263.191 147.824H263.333V142.455H265.009V157H263.39V155.324H263.191C263.068 155.523 262.892 155.774 262.665 156.077C262.438 156.375 262.114 156.643 261.692 156.879C261.271 157.111 260.71 157.227 260.009 157.227ZM260.236 155.722C260.908 155.722 261.477 155.546 261.941 155.196C262.405 154.841 262.757 154.351 262.999 153.726C263.24 153.096 263.361 152.369 263.361 151.545C263.361 150.731 263.243 150.018 263.006 149.408C262.769 148.792 262.419 148.314 261.955 147.973C261.491 147.627 260.918 147.455 260.236 147.455C259.526 147.455 258.934 147.637 258.461 148.001C257.992 148.361 257.639 148.851 257.402 149.472C257.17 150.087 257.054 150.778 257.054 151.545C257.054 152.322 257.173 153.027 257.409 153.662C257.651 154.292 258.006 154.794 258.475 155.168C258.948 155.537 259.535 155.722 260.236 155.722ZM268.311 157V146.091H269.988V157H268.311ZM269.164 144.273C268.837 144.273 268.555 144.161 268.319 143.939C268.087 143.716 267.971 143.449 267.971 143.136C267.971 142.824 268.087 142.556 268.319 142.334C268.555 142.111 268.837 142 269.164 142C269.49 142 269.77 142.111 270.002 142.334C270.239 142.556 270.357 142.824 270.357 143.136C270.357 143.449 270.239 143.716 270.002 143.939C269.77 144.161 269.49 144.273 269.164 144.273ZM280.785 148.534L279.279 148.96C279.184 148.709 279.045 148.465 278.86 148.229C278.68 147.987 278.434 147.788 278.121 147.632C277.809 147.476 277.409 147.398 276.921 147.398C276.254 147.398 275.697 147.552 275.252 147.859C274.812 148.162 274.592 148.548 274.592 149.017C274.592 149.434 274.743 149.763 275.046 150.004C275.349 150.246 275.823 150.447 276.467 150.608L278.086 151.006C279.061 151.242 279.788 151.605 280.266 152.092C280.745 152.575 280.984 153.198 280.984 153.96C280.984 154.585 280.804 155.144 280.444 155.636C280.089 156.129 279.592 156.517 278.952 156.801C278.313 157.085 277.57 157.227 276.722 157.227C275.61 157.227 274.689 156.986 273.96 156.503C273.23 156.02 272.769 155.314 272.575 154.386L274.165 153.989C274.317 154.576 274.603 155.016 275.025 155.31C275.451 155.603 276.007 155.75 276.694 155.75C277.475 155.75 278.095 155.584 278.555 155.253C279.019 154.917 279.251 154.514 279.251 154.045C279.251 153.667 279.118 153.349 278.853 153.094C278.588 152.833 278.181 152.639 277.631 152.511L275.813 152.085C274.814 151.848 274.08 151.482 273.612 150.984C273.147 150.482 272.915 149.855 272.915 149.102C272.915 148.487 273.088 147.942 273.434 147.469C273.784 146.995 274.26 146.624 274.862 146.354C275.468 146.084 276.154 145.949 276.921 145.949C278.001 145.949 278.848 146.186 279.464 146.659C280.084 147.133 280.524 147.758 280.785 148.534ZM283.734 157V142.455H285.41V147.824H285.552C285.675 147.634 285.846 147.393 286.064 147.099C286.286 146.801 286.603 146.536 287.015 146.304C287.432 146.067 287.995 145.949 288.706 145.949C289.624 145.949 290.434 146.179 291.135 146.638C291.835 147.097 292.382 147.748 292.775 148.591C293.168 149.434 293.365 150.428 293.365 151.574C293.365 152.729 293.168 153.731 292.775 154.578C292.382 155.421 291.838 156.074 291.142 156.538C290.446 156.998 289.643 157.227 288.734 157.227C288.033 157.227 287.472 157.111 287.051 156.879C286.629 156.643 286.305 156.375 286.078 156.077C285.85 155.774 285.675 155.523 285.552 155.324H285.353V157H283.734ZM285.382 151.545C285.382 152.369 285.502 153.096 285.744 153.726C285.985 154.351 286.338 154.841 286.802 155.196C287.266 155.546 287.834 155.722 288.507 155.722C289.208 155.722 289.792 155.537 290.261 155.168C290.734 154.794 291.09 154.292 291.326 153.662C291.568 153.027 291.689 152.322 291.689 151.545C291.689 150.778 291.57 150.087 291.333 149.472C291.101 148.851 290.749 148.361 290.275 148.001C289.806 147.637 289.217 147.455 288.507 147.455C287.825 147.455 287.252 147.627 286.788 147.973C286.324 148.314 285.974 148.792 285.737 149.408C285.5 150.018 285.382 150.731 285.382 151.545ZM302.804 152.54V146.091H304.48V157H302.804V155.153H302.69C302.434 155.707 302.037 156.179 301.497 156.567C300.957 156.95 300.275 157.142 299.451 157.142C298.77 157.142 298.163 156.993 297.633 156.695C297.103 156.392 296.686 155.937 296.383 155.331C296.08 154.72 295.929 153.951 295.929 153.023V146.091H297.605V152.909C297.605 153.705 297.827 154.339 298.272 154.812C298.722 155.286 299.295 155.523 299.991 155.523C300.408 155.523 300.832 155.416 301.262 155.203C301.698 154.99 302.063 154.663 302.356 154.223C302.654 153.783 302.804 153.222 302.804 152.54ZM307.55 157V146.091H309.169V147.739H309.283C309.482 147.199 309.841 146.761 310.362 146.425C310.883 146.089 311.47 145.92 312.124 145.92C312.247 145.92 312.401 145.923 312.585 145.928C312.77 145.932 312.91 145.939 313.004 145.949V147.653C312.947 147.639 312.817 147.618 312.614 147.589C312.415 147.556 312.204 147.54 311.982 147.54C311.451 147.54 310.978 147.651 310.561 147.874C310.149 148.091 309.822 148.394 309.581 148.783C309.344 149.166 309.226 149.604 309.226 150.097V157H307.55ZM322.718 148.534L321.213 148.96C321.118 148.709 320.978 148.465 320.794 148.229C320.614 147.987 320.368 147.788 320.055 147.632C319.743 147.476 319.342 147.398 318.855 147.398C318.187 147.398 317.631 147.552 317.186 147.859C316.745 148.162 316.525 148.548 316.525 149.017C316.525 149.434 316.677 149.763 316.98 150.004C317.283 150.246 317.756 150.447 318.4 150.608L320.02 151.006C320.995 151.242 321.722 151.605 322.2 152.092C322.678 152.575 322.917 153.198 322.917 153.96C322.917 154.585 322.737 155.144 322.377 155.636C322.022 156.129 321.525 156.517 320.886 156.801C320.247 157.085 319.503 157.227 318.656 157.227C317.543 157.227 316.622 156.986 315.893 156.503C315.164 156.02 314.702 155.314 314.508 154.386L316.099 153.989C316.251 154.576 316.537 155.016 316.958 155.31C317.385 155.603 317.941 155.75 318.627 155.75C319.409 155.75 320.029 155.584 320.488 155.253C320.952 154.917 321.184 154.514 321.184 154.045C321.184 153.667 321.052 153.349 320.787 153.094C320.521 152.833 320.114 152.639 319.565 152.511L317.747 152.085C316.748 151.848 316.014 151.482 315.545 150.984C315.081 150.482 314.849 149.855 314.849 149.102C314.849 148.487 315.022 147.942 315.368 147.469C315.718 146.995 316.194 146.624 316.795 146.354C317.401 146.084 318.088 145.949 318.855 145.949C319.934 145.949 320.782 146.186 321.397 146.659C322.018 147.133 322.458 147.758 322.718 148.534ZM330.014 157.227C328.963 157.227 328.056 156.995 327.294 156.531C326.536 156.062 325.952 155.409 325.54 154.571C325.133 153.728 324.929 152.748 324.929 151.631C324.929 150.513 325.133 149.528 325.54 148.676C325.952 147.819 326.525 147.152 327.259 146.673C327.997 146.19 328.859 145.949 329.844 145.949C330.412 145.949 330.973 146.044 331.527 146.233C332.081 146.422 332.585 146.73 333.04 147.156C333.494 147.578 333.857 148.136 334.126 148.832C334.396 149.528 334.531 150.385 334.531 151.403V152.114H326.122V150.665H332.827C332.827 150.049 332.704 149.5 332.457 149.017C332.216 148.534 331.87 148.153 331.42 147.874C330.975 147.594 330.45 147.455 329.844 147.455C329.176 147.455 328.598 147.62 328.111 147.952C327.628 148.278 327.256 148.705 326.996 149.23C326.735 149.756 326.605 150.319 326.605 150.92V151.886C326.605 152.71 326.747 153.409 327.031 153.982C327.32 154.55 327.72 154.983 328.232 155.281C328.743 155.575 329.337 155.722 330.014 155.722C330.455 155.722 330.852 155.66 331.207 155.537C331.567 155.409 331.877 155.22 332.138 154.969C332.398 154.713 332.599 154.396 332.741 154.017L334.361 154.472C334.19 155.021 333.904 155.504 333.501 155.92C333.099 156.332 332.602 156.654 332.01 156.886C331.418 157.114 330.753 157.227 330.014 157.227ZM341.2 157.227C340.291 157.227 339.489 156.998 338.793 156.538C338.097 156.074 337.552 155.421 337.159 154.578C336.766 153.731 336.57 152.729 336.57 151.574C336.57 150.428 336.766 149.434 337.159 148.591C337.552 147.748 338.099 147.097 338.8 146.638C339.5 146.179 340.31 145.949 341.229 145.949C341.939 145.949 342.5 146.067 342.912 146.304C343.329 146.536 343.646 146.801 343.864 147.099C344.086 147.393 344.259 147.634 344.382 147.824H344.524V142.455H346.2V157H344.581V155.324H344.382C344.259 155.523 344.084 155.774 343.857 156.077C343.629 156.375 343.305 156.643 342.884 156.879C342.462 157.111 341.901 157.227 341.2 157.227ZM341.428 155.722C342.1 155.722 342.668 155.546 343.132 155.196C343.596 154.841 343.949 154.351 344.19 153.726C344.432 153.096 344.553 152.369 344.553 151.545C344.553 150.731 344.434 150.018 344.197 149.408C343.961 148.792 343.61 148.314 343.146 147.973C342.682 147.627 342.109 147.455 341.428 147.455C340.717 147.455 340.125 147.637 339.652 148.001C339.183 148.361 338.83 148.851 338.594 149.472C338.362 150.087 338.246 150.778 338.246 151.545C338.246 152.322 338.364 153.027 338.601 153.662C338.842 154.292 339.197 154.794 339.666 155.168C340.14 155.537 340.727 155.722 341.428 155.722Z" fill="#343A40"/>
<rect x="28" y="76" width="7" height="226" rx="3.5" fill="#2D995F"/>
<g clip-path="url(#clip0_4006_474)">
<path d="M882.462 27.8759C877.82 35.8698 886.561 49.3391 877.752 52.1361L878.478 51.4106C883.795 44.8722 872.681 31.0333 877.998 24.4949C878.825 23.5358 879.534 22.4819 880.111 21.3555" fill="#2F2E41"/>
<path d="M925.935 145.154C926.087 144.354 926.062 143.53 925.861 142.741C925.66 141.952 925.289 141.216 924.773 140.586C924.258 139.956 923.61 139.446 922.876 139.093C922.142 138.74 921.339 138.552 920.524 138.543L909.05 105.219L902.699 113.311L914.831 144.449C914.906 145.818 915.481 147.112 916.446 148.086C917.412 149.059 918.701 149.645 920.07 149.732C921.438 149.818 922.791 149.4 923.872 148.557C924.953 147.713 925.687 146.502 925.935 145.154Z" fill="#FFB8B8"/>
<path d="M875.497 64.6955C875.497 64.6955 875.14 52.6325 885.931 59.5429C896.722 66.4533 920.217 131.187 920.217 131.187L908.525 137.511L881.983 78.2719L875.497 64.6955Z" fill="#2D995F"/>
<path d="M907.334 271.447L901.945 273.749L890.499 254.067L898.452 250.67L907.334 271.447Z" fill="#FFB6B6"/>
<path d="M914.167 279.564L910.303 281.215L908.054 277.863L907.846 282.264L897.597 286.642C897.106 286.852 896.561 286.9 896.041 286.778C895.52 286.656 895.053 286.371 894.706 285.964C894.36 285.558 894.152 285.051 894.114 284.519C894.076 283.986 894.209 283.455 894.494 283.003L900.263 273.857L898.687 270.17L907.515 267.006L914.167 279.564Z" fill="#2F2E41"/>
<path d="M822.864 278.124L817.012 277.838L815.33 255.135L823.968 255.557L822.864 278.124Z" fill="#FFB6B6"/>
<path d="M825.458 288.41L821.261 288.205L820.705 284.207L818.593 288.075L807.461 287.531C806.927 287.505 806.416 287.309 806.002 286.972C805.587 286.635 805.292 286.174 805.158 285.657C805.024 285.14 805.059 284.594 805.257 284.098C805.456 283.602 805.808 283.183 806.262 282.901L815.452 277.198L815.647 273.193L824.971 274.208L825.458 288.41Z" fill="#2F2E41"/>
<path d="M995.311 274.506C995.698 274.52 996.081 274.415 996.407 274.204C996.733 273.994 996.986 273.688 997.132 273.329C997.278 272.97 997.31 272.574 997.224 272.196C997.138 271.818 996.938 271.475 996.651 271.215C996.601 271.026 996.566 270.89 996.516 270.701C996.878 269.756 997.514 268.94 998.343 268.358C999.171 267.777 1000.15 267.456 1001.17 267.437C1002.18 267.417 1003.17 267.701 1004.02 268.251C1004.87 268.8 1005.54 269.591 1005.94 270.522C1008.23 275.748 1011.18 281.151 1009.8 286.944C1019.14 266.656 1015.66 241.565 1001.4 224.427C997.488 222.32 994.296 218.54 993.432 214.124C995.365 214.758 997.753 213.168 996.285 211.153C995.649 210.383 995.008 209.62 994.372 208.85C1001.62 200.986 1010.46 213.153 1002.5 223.749C1005.17 227.028 1007.49 230.576 1009.41 234.337C1008.94 230.329 1009.42 226.265 1010.82 222.48C1012.25 218.951 1014.95 215.965 1017.33 212.904C1020.22 209.174 1026.25 210.825 1026.69 215.519C1024 216.432 1023.69 220.333 1026.78 220.837C1026.06 229.585 1020.42 237.671 1012.59 241.579C1015.57 249.7 1016.79 258.364 1016.16 266.992C1017.45 256.903 1028.25 254.355 1035.77 250.278C1036.25 249.965 1036.81 249.798 1037.38 249.797C1037.95 249.796 1038.51 249.961 1038.99 250.273C1039.47 250.585 1039.85 251.029 1040.08 251.552C1040.31 252.075 1040.39 252.654 1040.29 253.218C1039.25 253.652 1038.26 254.188 1037.33 254.819C1036.89 255.119 1036.56 255.547 1036.37 256.044C1036.19 256.542 1036.16 257.084 1036.3 257.596C1036.43 258.109 1036.72 258.567 1037.13 258.908C1037.54 259.249 1038.04 259.456 1038.57 259.5C1034.84 268.968 1025.05 275.395 1014.93 275.455C1013.99 279.69 1012.62 283.817 1010.84 287.768L995.815 287.911C995.759 287.745 995.709 287.573 995.659 287.407C997.051 287.481 998.446 287.384 999.814 287.119C996.093 282.8 993.227 280.605 995.311 274.506Z" fill="#ACE7C7"/>
<path d="M837.65 130.545C837.65 130.545 825.748 162.97 825.555 166.598C825.363 170.227 821.969 216.111 819.122 218.777C816.275 221.443 807.572 262.777 814.344 266.01C821.116 269.243 842.481 263.887 842.481 263.887L849.913 215.062L852.438 177.656C852.438 177.656 860.125 265.74 874.066 265.481C888.007 265.222 904.996 259.915 904.996 259.915L885.483 206.571C885.483 206.571 885.758 143.418 881.235 130.681C876.713 117.943 837.65 130.545 837.65 130.545Z" fill="#2F2E41"/>
<path d="M872.966 47.0059L857.027 48.4653L854.459 56.3451C854.459 56.3451 841.12 63.6682 844.073 66.9952C847.027 70.3221 843.413 92.7428 843.413 92.7428L844.229 110.942C844.229 110.942 843.352 123.551 840.728 126.456C838.104 129.361 831.239 136.485 836.09 133.077C853.098 121.127 882.828 131.21 882.828 131.21L878.581 105.206C878.581 105.206 888.228 62.6303 884.421 59.0347C880.614 55.439 877.022 54.9845 877.022 54.9845L872.966 47.0059Z" fill="#2D995F"/>
<path d="M789.212 129.493C790.013 129.344 790.771 129.021 791.433 128.548C792.096 128.074 792.647 127.461 793.046 126.751C793.446 126.042 793.685 125.253 793.748 124.441C793.81 123.63 793.693 122.814 793.405 122.052L820.289 99.2518L810.439 96.2793L785.831 118.897C784.583 119.464 783.586 120.47 783.03 121.723C782.474 122.976 782.397 124.39 782.813 125.696C783.23 127.002 784.112 128.11 785.291 128.81C786.47 129.51 787.865 129.753 789.212 129.493Z" fill="#FFB8B8"/>
<path d="M857.486 69.8536C857.486 69.8536 862.783 59.0089 850.103 60.8614C837.422 62.7138 789.335 112.022 789.335 112.022L797.383 122.599L845.982 79.5532L857.486 69.8536Z" fill="#2D995F"/>
<path d="M836.836 51.4595L786.56 115.847C785.691 116.965 785.3 118.381 785.473 119.787C785.646 121.192 786.37 122.471 787.485 123.344C799.16 151.683 834.09 172.698 875.179 191.772C876.297 192.642 877.714 193.034 879.12 192.86C880.526 192.687 881.806 191.963 882.679 190.848L932.955 126.46C933.826 125.343 934.217 123.926 934.044 122.52C933.871 121.115 933.147 119.836 932.031 118.963C897.549 99.4992 867.911 76.9485 844.336 50.5356C843.218 49.6662 841.801 49.2752 840.395 49.4484C838.989 49.6216 837.71 50.3448 836.836 51.4595Z" fill="#E6E6E6"/>
<path d="M929.426 124.995L914.123 144.594C904.775 156.494 891.095 164.212 876.073 166.063C861.05 167.914 845.906 163.746 833.947 154.471L791.06 121.007C790.424 120.511 790.012 119.783 789.912 118.983C789.813 118.184 790.035 117.377 790.53 116.741L839.112 54.523C839.609 53.8888 840.337 53.4777 841.138 53.3799C841.938 53.2821 842.744 53.5056 843.38 54.0013C865.074 82.0059 894.114 103.799 928.901 120.733C929.535 121.229 929.947 121.956 930.045 122.755C930.144 123.554 929.921 124.36 929.426 124.995Z" fill="white"/>
<path d="M835.833 86.6088L825.867 99.3728C825.602 99.7109 825.214 99.9302 824.788 99.9825C824.362 100.035 823.933 99.9158 823.594 99.6517C823.256 99.3876 823.036 99 822.983 98.5741C822.931 98.1482 823.049 97.7187 823.313 97.3802L833.28 84.6162C833.411 84.4484 833.573 84.308 833.758 84.203C833.943 84.098 834.147 84.0306 834.359 84.0044C834.57 83.9783 834.784 83.9941 834.989 84.0508C835.194 84.1075 835.386 84.2041 835.554 84.335C835.722 84.4659 835.862 84.6286 835.967 84.8137C836.072 84.9989 836.139 85.2029 836.165 85.4141C836.191 85.6252 836.175 85.8394 836.118 86.0444C836.061 86.2495 835.965 86.4412 835.833 86.6088Z" fill="#CCCCCC"/>
<path d="M854.527 77.1411L832.64 105.172C832.509 105.339 832.347 105.48 832.162 105.584C831.977 105.689 831.773 105.756 831.562 105.782C831.35 105.808 831.136 105.793 830.931 105.736C830.726 105.679 830.534 105.583 830.367 105.452C830.199 105.321 830.059 105.158 829.954 104.973C829.849 104.788 829.782 104.585 829.756 104.373C829.73 104.162 829.746 103.948 829.802 103.743C829.859 103.538 829.956 103.347 830.087 103.179L851.974 75.1485C852.105 74.9805 852.267 74.8399 852.452 74.7347C852.637 74.6296 852.842 74.562 853.053 74.5358C853.264 74.5095 853.479 74.5252 853.684 74.582C853.889 74.6387 854.081 74.7353 854.249 74.8663C854.417 74.9972 854.557 75.16 854.662 75.3453C854.767 75.5305 854.834 75.7347 854.86 75.9459C854.886 76.1572 854.87 76.3715 854.813 76.5766C854.756 76.7817 854.659 76.9735 854.527 77.1411Z" fill="#CCCCCC"/>
<path d="M817.198 123.894C823.091 123.894 827.867 119.119 827.867 113.229C827.867 107.339 823.091 102.564 817.198 102.564C811.306 102.564 806.53 107.339 806.53 113.229C806.53 119.119 811.306 123.894 817.198 123.894Z" fill="#2D995F"/>
<path d="M855.69 99.2949L828.808 133.722C828.527 134.008 828.151 134.18 827.752 134.206C827.352 134.233 826.957 134.111 826.642 133.865C826.326 133.619 826.112 133.265 826.041 132.871C825.969 132.477 826.045 132.071 826.254 131.73L853.136 97.3023C853.417 97.0167 853.792 96.8443 854.192 96.818C854.592 96.7917 854.987 96.9132 855.302 97.1595C855.618 97.4057 855.832 97.7595 855.903 98.1533C855.975 98.5472 855.899 98.9535 855.69 99.2949Z" fill="#CCCCCC"/>
<path d="M873.128 91.4336L835.608 139.486C835.327 139.771 834.952 139.944 834.552 139.97C834.152 139.996 833.757 139.875 833.442 139.628C833.126 139.382 832.912 139.028 832.841 138.635C832.769 138.241 832.845 137.834 833.054 137.493L870.575 89.441C870.855 89.1554 871.231 88.983 871.631 88.9567C872.03 88.9303 872.425 89.0519 872.741 89.2982C873.057 89.5444 873.271 89.8982 873.342 90.292C873.414 90.6859 873.338 91.0922 873.128 91.4336Z" fill="#CCCCCC"/>
<path d="M872.998 112.799L846.116 147.226C845.836 147.512 845.46 147.684 845.061 147.71C844.661 147.737 844.266 147.615 843.95 147.369C843.635 147.123 843.421 146.769 843.349 146.375C843.278 145.981 843.354 145.575 843.563 145.233L870.445 110.806C870.725 110.521 871.101 110.348 871.501 110.322C871.9 110.296 872.295 110.417 872.611 110.663C872.927 110.91 873.141 111.263 873.212 111.657C873.283 112.051 873.207 112.457 872.998 112.799Z" fill="#CCCCCC"/>
<path d="M908.567 117.045L881.686 151.472C881.405 151.758 881.029 151.93 880.63 151.956C880.23 151.983 879.835 151.861 879.519 151.615C879.204 151.369 878.99 151.015 878.918 150.621C878.847 150.227 878.923 149.821 879.132 149.48L906.014 115.052C906.294 114.767 906.67 114.594 907.07 114.568C907.469 114.542 907.864 114.663 908.18 114.909C908.496 115.156 908.71 115.51 908.781 115.903C908.852 116.297 908.776 116.704 908.567 117.045Z" fill="#2D995F"/>
<path d="M890.437 104.939L852.917 152.991C852.636 153.277 852.26 153.449 851.861 153.476C851.461 153.502 851.066 153.381 850.75 153.134C850.435 152.888 850.221 152.534 850.149 152.14C850.078 151.747 850.154 151.34 850.363 150.999L887.884 102.947C888.164 102.661 888.54 102.489 888.94 102.463C889.339 102.436 889.734 102.558 890.05 102.804C890.366 103.05 890.579 103.404 890.651 103.798C890.722 104.192 890.646 104.598 890.437 104.939Z" fill="#CCCCCC"/>
<path d="M846.243 26.6649C846.242 29.2556 846.877 31.8069 848.093 34.0949C849.309 36.3829 851.068 38.3376 853.215 39.7874C855.363 41.2372 857.834 42.1378 860.411 42.4101C862.989 42.6825 865.593 42.3182 867.997 41.3493C870.4 40.3804 872.529 38.8365 874.197 36.8531C875.864 34.8697 877.019 32.5076 877.56 29.9739C878.1 27.4403 878.011 24.8126 877.299 22.3216C876.587 19.8307 875.274 17.5526 873.475 15.6873L873.399 15.6114C873.272 15.4784 873.146 15.3454 873.013 15.2188C873.012 15.2188 873.011 15.2186 873.01 15.2183C873.01 15.218 873.009 15.2176 873.008 15.217C873.008 15.2164 873.007 15.2157 873.007 15.2149C873.007 15.2141 873.006 15.2133 873.006 15.2125C872.842 15.0605 872.677 14.9086 872.506 14.763C870.218 12.7579 867.401 11.4545 864.391 11.0088C861.382 10.563 858.307 10.9938 855.536 12.2496C852.765 13.5054 850.415 15.533 848.767 18.0896C847.118 20.6462 846.242 23.6235 846.243 26.6649Z" fill="#2F2E41"/>
<path d="M865.976 43.598C873.309 43.598 879.253 37.656 879.253 30.3263C879.253 22.9966 873.309 17.0547 865.976 17.0547C858.644 17.0547 852.7 22.9966 852.7 30.3263C852.7 37.656 858.644 43.598 865.976 43.598Z" fill="#FFB8B8"/>
<path d="M851.823 33.8622C850.525 28.0162 852.401 21.4666 856.491 17.5638C858.547 15.6397 861.106 14.3347 863.871 13.7988C866.637 13.263 869.497 13.518 872.124 14.5346C872.458 14.6693 872.792 14.8168 873.12 14.9707L873.272 15.0425V15.0648C873.302 15.0853 873.331 15.1068 873.361 15.1285C873.423 15.1865 873.498 15.2281 873.58 15.2495C874.733 15.2194 875.879 15.4331 876.943 15.8766C878.008 16.3201 878.966 16.9835 879.756 17.8232C881.814 20.0551 882.783 23.662 882.486 27.9794L882.477 28.1144L882.361 28.1861C880.804 29.173 879.187 30.064 877.521 30.8542C871.692 33.5937 866.372 34.1013 861.258 32.404L861.164 32.3729L859.018 28.777C858.577 31.2571 858.812 39.4837 856.284 39.9294L851.878 34.1101L851.823 33.8622Z" fill="#2F2E41"/>
<path d="M823.876 45.4186C828.394 43.0875 822.583 34.6271 823.751 29.6805C824.918 24.734 833.326 23.143 833.862 18.0889C834.397 13.0347 835.658 7.82191 838.994 3.9868C841.126 1.53617 844.267 -0.272977 847.501 0.03398C848.595 0.137835 849.655 0.476234 850.606 1.02613C851.558 1.57602 852.38 2.3245 853.016 3.22057C853.652 4.11665 854.088 5.13926 854.293 6.21877C854.498 7.29829 854.468 8.40934 854.205 9.47626C855.126 8.17192 857.509 8.45461 858.099 9.93825C858.624 11.2572 857.465 12.8548 856.102 12.9715C854.318 15.1739 852.275 17.5113 849.48 17.9555C849.034 18.0578 848.572 18.0575 848.127 17.9548C847.681 17.8521 847.265 17.6496 846.91 17.3626C846.252 16.7313 846.201 15.4694 846.981 14.9976C843.469 16.3924 841.41 20.1887 840.888 23.9307C840.367 27.6727 841.088 31.4588 841.563 35.2069C842.038 38.955 842.243 42.8978 840.773 46.3784C839.036 50.4907 835.037 53.4381 830.673 54.3833C826.309 55.3286 821.661 54.4048 817.711 52.3234C813.76 50.242 810.466 47.0645 807.775 43.5022C812.41 46.7926 818.824 48.0253 823.876 45.4186Z" fill="#2F2E41"/>
<path d="M859.634 29.4677C854.992 37.4616 863.733 50.9309 854.924 53.7279L855.65 53.0024C860.967 46.464 849.853 32.6251 855.17 26.0867C855.997 25.1276 856.706 24.0737 857.283 22.9473" fill="#2F2E41"/>
<path d="M852.443 33.742C852.443 33.742 856.376 19.0672 873.234 15.6801C873.253 15.6739 873.317 15.6485 873.399 15.6106C873.45 15.5789 873.513 15.5472 873.576 15.5156C873.386 15.4079 873.203 15.313 873.013 15.218L873.01 15.2175L873.008 15.2162L873.007 15.2141L873.006 15.2116C872.842 15.0597 872.677 14.9078 872.506 14.7622L872.025 14.7812C872.025 14.7812 855.109 12.1033 852.443 33.742Z" fill="#FD6584"/>
<path d="M730 288.368C730 288.451 730.016 288.533 730.048 288.61C730.079 288.687 730.126 288.756 730.185 288.815C730.243 288.874 730.313 288.92 730.39 288.952C730.466 288.983 730.549 289 730.632 288.999H1110.37C1110.54 288.999 1110.7 288.933 1110.81 288.814C1110.93 288.696 1111 288.535 1111 288.368C1111 288.2 1110.93 288.04 1110.81 287.921C1110.7 287.803 1110.54 287.736 1110.37 287.736H730.632C730.549 287.736 730.466 287.752 730.39 287.784C730.313 287.816 730.243 287.862 730.184 287.921C730.126 287.979 730.079 288.049 730.048 288.126C730.016 288.203 730 288.285 730 288.368Z" fill="#CCCCCC"/>
</g>
<defs>
<clipPath id="clip0_4006_474">
<rect width="381" height="289" fill="white" transform="translate(730)"/>
</clipPath>
</defs>
</svg>
