<svg width="4" height="10" viewBox="0 0 4 10" fill="none" xmlns="http://www.w3.org/2000/svg">
<path d="M0.996 0.323999L2.532 0.36L3.9 0.323999C3.916 0.355999 3.924 0.4 3.924 0.456L3.876 0.648C3.564 0.648 3.324 0.66 3.156 0.684C3.028 0.7 2.888 1.616 2.736 3.432L2.58 5.388C2.468 6.7 2.412 7.576 2.412 8.016C2.412 8.456 2.424 8.676 2.448 8.676C2.64 8.7 3.012 8.712 3.564 8.712C3.58 8.744 3.588 8.78 3.588 8.82C3.588 8.852 3.572 8.924 3.54 9.036L2.004 9C1.268 9 0.652 9.032 0.156 9.096C0.124 9.032 0.108 8.968 0.108 8.904L0.132 8.808C0.58 8.712 0.868 8.6 0.996 8.472C1.132 8.336 1.228 8.124 1.284 7.836C1.452 6.924 1.58 5.904 1.668 4.776L1.776 3.432C1.864 2.416 1.908 1.704 1.908 1.296C1.908 0.888 1.88 0.684 1.824 0.684C1.56 0.66 1.272 0.648 0.96 0.648C0.952 0.615999 0.948 0.568 0.948 0.504C0.948 0.44 0.964 0.38 0.996 0.323999Z" fill="black"/>
</svg>
