<svg width="18" height="18" viewBox="0 0 18 18" fill="none" xmlns="http://www.w3.org/2000/svg">
<path d="M5.68915 17.7485C4.92682 17.7485 4.16388 17.4586 3.58344 16.8782L1.12067 14.4154C-0.0402222 13.2539 -0.0402222 11.3649 1.12067 10.2034L3.16962 8.15442C3.73236 7.59167 4.48004 7.28223 5.27594 7.28223C6.07184 7.28223 6.81952 7.59167 7.38165 8.15442C7.62579 8.39856 7.62579 8.79468 7.38165 9.03821C7.13751 9.28235 6.742 9.28235 6.49786 9.03821C5.84479 8.38452 4.70648 8.38574 4.05341 9.03821L2.00446 11.0872C1.33124 11.761 1.33124 12.8578 2.00446 13.5316L4.46722 15.9944C5.14166 16.6682 6.23846 16.6682 6.91168 15.9944L8.96063 13.9454C9.28717 13.6189 9.46661 13.1849 9.46661 12.7229C9.46661 12.2615 9.28717 11.8275 8.96063 11.501C8.71649 11.2574 8.71649 10.8613 8.96063 10.6172C9.20477 10.373 9.60028 10.373 9.84442 10.6172C10.4072 11.1793 10.7166 11.927 10.7166 12.7229C10.7166 13.5188 10.4072 14.2665 9.84442 14.8292L7.79547 16.8782C7.21503 17.4586 6.45209 17.7485 5.68915 17.7485Z" fill="#6C757D"/>
<path d="M12.7219 10.7186C11.926 10.7186 11.1783 10.4091 10.6162 9.84637C10.3721 9.60223 10.3721 9.20612 10.6162 8.96259C10.8604 8.71844 11.2559 8.71844 11.5 8.96259C12.1537 9.61688 13.292 9.61566 13.9445 8.96259L15.9934 6.91364C16.6666 6.23981 16.6666 5.14301 15.9934 4.46918L13.5306 2.00641C12.8568 1.33197 11.76 1.33319 11.0862 2.00641L9.03723 4.05536C8.71069 4.3819 8.53125 4.81586 8.53125 5.27789C8.53125 5.73932 8.71069 6.17328 9.03723 6.49982C9.28137 6.74335 9.28137 7.13947 9.03723 7.38361C8.79309 7.62775 8.39758 7.62775 8.15344 7.38361C7.5907 6.82147 7.28125 6.07379 7.28125 5.27789C7.28125 4.48199 7.5907 3.73431 8.15344 3.17157L10.2024 1.12262C11.3627 -0.0376586 13.2529 -0.0388793 14.4144 1.12262L16.8772 3.58539C18.0381 4.74689 18.0381 6.63593 16.8772 7.79742L14.8282 9.84637C14.2655 10.4091 13.5178 10.7186 12.7219 10.7186Z" fill="#6C757D"/>
<path d="M5.27734 13.3484C5.11743 13.3484 4.95752 13.2874 4.83545 13.1653C4.59131 12.9211 4.59131 12.5256 4.83545 12.2815L12.2805 4.83643C12.5247 4.59229 12.9202 4.59229 13.1643 4.83643C13.4084 5.08057 13.4084 5.47607 13.1643 5.72021L5.71924 13.1653C5.59717 13.2874 5.43726 13.3484 5.27734 13.3484Z" fill="#6C757D"/>
</svg>
