<svg width="1120" height="329" viewBox="0 0 1120 329" fill="none" xmlns="http://www.w3.org/2000/svg">
<rect y="49" width="1120" height="280" rx="8" fill="#F2F5F3" fill-opacity="0.77"/>
<path d="M102.744 184.273V225H94.392L78.1847 201.494H77.9261V225H68.0824V184.273H76.554L92.5824 207.739H92.9205V184.273H102.744ZM124.445 225.557C121.476 225.557 118.837 225.02 116.531 223.946C114.224 222.872 112.401 221.394 111.062 219.511C109.736 217.629 109.047 215.468 108.994 213.028H118.539C118.619 214.527 119.228 215.733 120.369 216.648C121.509 217.549 122.868 218 124.445 218C125.678 218 126.772 217.728 127.727 217.185C128.681 216.641 129.43 215.879 129.974 214.898C130.517 213.903 130.782 212.763 130.769 211.477C130.782 210.165 130.511 209.018 129.954 208.037C129.41 207.056 128.655 206.294 127.687 205.75C126.732 205.193 125.632 204.915 124.386 204.915C123.206 204.902 122.085 205.16 121.025 205.69C119.978 206.221 119.182 206.943 118.638 207.858L109.948 206.227L111.718 184.273H137.849V192.207H119.812L118.877 201.812H119.116C119.792 200.686 120.879 199.758 122.377 199.028C123.888 198.286 125.605 197.915 127.528 197.915C129.967 197.915 132.141 198.485 134.05 199.625C135.973 200.752 137.484 202.316 138.585 204.318C139.698 206.32 140.255 208.614 140.255 211.199C140.255 213.996 139.592 216.475 138.266 218.636C136.954 220.797 135.111 222.494 132.738 223.727C130.378 224.947 127.614 225.557 124.445 225.557ZM162.503 225.994C158.95 225.994 155.887 225.152 153.315 223.469C150.743 221.772 148.761 219.339 147.369 216.17C145.977 212.989 145.288 209.164 145.301 204.696C145.314 200.228 146.01 196.437 147.389 193.321C148.781 190.192 150.757 187.812 153.315 186.182C155.887 184.538 158.95 183.716 162.503 183.716C166.056 183.716 169.118 184.538 171.69 186.182C174.276 187.812 176.264 190.192 177.656 193.321C179.048 196.45 179.738 200.241 179.724 204.696C179.724 209.177 179.028 213.009 177.636 216.19C176.244 219.372 174.262 221.805 171.69 223.489C169.132 225.159 166.069 225.994 162.503 225.994ZM162.503 217.94C164.624 217.94 166.341 216.86 167.653 214.699C168.966 212.525 169.616 209.19 169.602 204.696C169.602 201.753 169.304 199.327 168.707 197.418C168.111 195.495 167.282 194.063 166.222 193.122C165.161 192.181 163.921 191.71 162.503 191.71C160.395 191.71 158.691 192.777 157.392 194.912C156.093 197.033 155.437 200.295 155.423 204.696C155.41 207.679 155.695 210.152 156.278 212.114C156.875 214.076 157.71 215.541 158.784 216.509C159.858 217.463 161.098 217.94 162.503 217.94ZM202.206 225.994C198.653 225.994 195.59 225.152 193.018 223.469C190.446 221.772 188.464 219.339 187.072 216.17C185.68 212.989 184.991 209.164 185.004 204.696C185.018 200.228 185.714 196.437 187.092 193.321C188.484 190.192 190.46 187.812 193.018 186.182C195.59 184.538 198.653 183.716 202.206 183.716C205.759 183.716 208.821 184.538 211.393 186.182C213.979 187.812 215.967 190.192 217.359 193.321C218.751 196.45 219.441 200.241 219.428 204.696C219.428 209.177 218.732 213.009 217.339 216.19C215.947 219.372 213.965 221.805 211.393 223.489C208.835 225.159 205.772 225.994 202.206 225.994ZM202.206 217.94C204.327 217.94 206.044 216.86 207.357 214.699C208.669 212.525 209.319 209.19 209.305 204.696C209.305 201.753 209.007 199.327 208.411 197.418C207.814 195.495 206.985 194.063 205.925 193.122C204.864 192.181 203.625 191.71 202.206 191.71C200.098 191.71 198.394 192.777 197.095 194.912C195.796 197.033 195.14 200.295 195.126 204.696C195.113 207.679 195.398 210.152 195.982 212.114C196.578 214.076 197.413 215.541 198.487 216.509C199.561 217.463 200.801 217.94 202.206 217.94ZM233.318 219.432L233.139 221.639C232.98 223.469 232.655 225.252 232.165 226.989C231.688 228.739 231.177 230.31 230.634 231.702C230.09 233.094 229.659 234.174 229.341 234.943H223.216C223.428 234.174 223.713 233.094 224.071 231.702C224.442 230.31 224.787 228.739 225.105 226.989C225.423 225.239 225.602 223.462 225.642 221.659L225.682 219.432H233.318ZM255.8 225.994C252.247 225.994 249.184 225.152 246.612 223.469C244.04 221.772 242.058 219.339 240.666 216.17C239.274 212.989 238.585 209.164 238.598 204.696C238.611 200.228 239.307 196.437 240.686 193.321C242.078 190.192 244.054 187.812 246.612 186.182C249.184 184.538 252.247 183.716 255.8 183.716C259.353 183.716 262.415 184.538 264.987 186.182C267.572 187.812 269.561 190.192 270.953 193.321C272.345 196.45 273.035 200.241 273.021 204.696C273.021 209.177 272.325 213.009 270.933 216.19C269.541 219.372 267.559 221.805 264.987 223.489C262.429 225.159 259.366 225.994 255.8 225.994ZM255.8 217.94C257.921 217.94 259.638 216.86 260.95 214.699C262.263 212.525 262.912 209.19 262.899 204.696C262.899 201.753 262.601 199.327 262.004 197.418C261.408 195.495 260.579 194.063 259.518 193.122C258.458 192.181 257.218 191.71 255.8 191.71C253.692 191.71 251.988 192.777 250.689 194.912C249.39 197.033 248.733 200.295 248.72 204.696C248.707 207.679 248.992 210.152 249.575 212.114C250.172 214.076 251.007 215.541 252.081 216.509C253.155 217.463 254.394 217.94 255.8 217.94ZM295.503 225.994C291.95 225.994 288.887 225.152 286.315 223.469C283.743 221.772 281.761 219.339 280.369 216.17C278.977 212.989 278.288 209.164 278.301 204.696C278.314 200.228 279.01 196.437 280.389 193.321C281.781 190.192 283.757 187.812 286.315 186.182C288.887 184.538 291.95 183.716 295.503 183.716C299.056 183.716 302.118 184.538 304.69 186.182C307.276 187.812 309.264 190.192 310.656 193.321C312.048 196.45 312.738 200.241 312.724 204.696C312.724 209.177 312.028 213.009 310.636 216.19C309.244 219.372 307.262 221.805 304.69 223.489C302.132 225.159 299.069 225.994 295.503 225.994ZM295.503 217.94C297.624 217.94 299.341 216.86 300.653 214.699C301.966 212.525 302.616 209.19 302.602 204.696C302.602 201.753 302.304 199.327 301.707 197.418C301.111 195.495 300.282 194.063 299.222 193.122C298.161 192.181 296.921 191.71 295.503 191.71C293.395 191.71 291.691 192.777 290.392 194.912C289.093 197.033 288.437 200.295 288.423 204.696C288.41 207.679 288.695 210.152 289.278 212.114C289.875 214.076 290.71 215.541 291.784 216.509C292.858 217.463 294.098 217.94 295.503 217.94ZM335.206 225.994C331.653 225.994 328.59 225.152 326.018 223.469C323.446 221.772 321.464 219.339 320.072 216.17C318.68 212.989 317.991 209.164 318.004 204.696C318.018 200.228 318.714 196.437 320.092 193.321C321.484 190.192 323.46 187.812 326.018 186.182C328.59 184.538 331.653 183.716 335.206 183.716C338.759 183.716 341.821 184.538 344.393 186.182C346.979 187.812 348.967 190.192 350.359 193.321C351.751 196.45 352.441 200.241 352.428 204.696C352.428 209.177 351.732 213.009 350.339 216.19C348.947 219.372 346.965 221.805 344.393 223.489C341.835 225.159 338.772 225.994 335.206 225.994ZM335.206 217.94C337.327 217.94 339.044 216.86 340.357 214.699C341.669 212.525 342.319 209.19 342.305 204.696C342.305 201.753 342.007 199.327 341.411 197.418C340.814 195.495 339.985 194.063 338.925 193.122C337.864 192.181 336.625 191.71 335.206 191.71C333.098 191.71 331.394 192.777 330.095 194.912C328.796 197.033 328.14 200.295 328.126 204.696C328.113 207.679 328.398 210.152 328.982 212.114C329.578 214.076 330.413 215.541 331.487 216.509C332.561 217.463 333.801 217.94 335.206 217.94Z" fill="#2D995F"/>
<path d="M66.7614 157V142.455H68.5227V155.438H75.2841V157H66.7614ZM82.2159 157.227C81.2311 157.227 80.367 156.993 79.6236 156.524C78.8849 156.055 78.3073 155.4 77.8906 154.557C77.4787 153.714 77.2727 152.729 77.2727 151.602C77.2727 150.466 77.4787 149.474 77.8906 148.626C78.3073 147.779 78.8849 147.121 79.6236 146.652C80.367 146.183 81.2311 145.949 82.2159 145.949C83.2008 145.949 84.0625 146.183 84.8011 146.652C85.5445 147.121 86.1222 147.779 86.5341 148.626C86.9508 149.474 87.1591 150.466 87.1591 151.602C87.1591 152.729 86.9508 153.714 86.5341 154.557C86.1222 155.4 85.5445 156.055 84.8011 156.524C84.0625 156.993 83.2008 157.227 82.2159 157.227ZM82.2159 155.722C82.964 155.722 83.5795 155.53 84.0625 155.146C84.5455 154.763 84.9029 154.259 85.1349 153.634C85.367 153.009 85.483 152.331 85.483 151.602C85.483 150.873 85.367 150.194 85.1349 149.564C84.9029 148.934 84.5455 148.425 84.0625 148.037C83.5795 147.649 82.964 147.455 82.2159 147.455C81.4678 147.455 80.8523 147.649 80.3693 148.037C79.8864 148.425 79.5289 148.934 79.2969 149.564C79.0649 150.194 78.9489 150.873 78.9489 151.602C78.9489 152.331 79.0649 153.009 79.2969 153.634C79.5289 154.259 79.8864 154.763 80.3693 155.146C80.8523 155.53 81.4678 155.722 82.2159 155.722ZM92.9279 157.256C92.2366 157.256 91.6093 157.125 91.0458 156.865C90.4824 156.6 90.0349 156.219 89.7035 155.722C89.372 155.22 89.2063 154.614 89.2063 153.903C89.2063 153.278 89.3294 152.772 89.5756 152.384C89.8219 151.991 90.1509 151.683 90.5629 151.46C90.9748 151.238 91.4293 151.072 91.9265 150.963C92.4284 150.849 92.9326 150.759 93.4393 150.693C94.1022 150.608 94.6396 150.544 95.0515 150.501C95.4682 150.454 95.7712 150.376 95.9606 150.267C96.1547 150.158 96.2518 149.969 96.2518 149.699V149.642C96.2518 148.941 96.06 148.397 95.6765 148.009C95.2977 147.62 94.7224 147.426 93.9506 147.426C93.1504 147.426 92.5231 147.601 92.0685 147.952C91.614 148.302 91.2944 148.676 91.1097 149.074L89.5188 148.506C89.8029 147.843 90.1817 147.327 90.6552 146.957C91.1334 146.583 91.6542 146.323 92.2177 146.176C92.7859 146.025 93.3446 145.949 93.8938 145.949C94.2442 145.949 94.6467 145.991 95.1012 146.077C95.5605 146.157 96.0032 146.325 96.4293 146.581C96.8602 146.837 97.2177 147.223 97.5018 147.739C97.7859 148.255 97.9279 148.946 97.9279 149.812V157H96.2518V155.523H96.1665C96.0529 155.759 95.8635 156.013 95.5984 156.283C95.3332 156.553 94.9805 156.782 94.5401 156.972C94.0998 157.161 93.5624 157.256 92.9279 157.256ZM93.1836 155.75C93.8465 155.75 94.4052 155.62 94.8597 155.359C95.319 155.099 95.6647 154.763 95.8967 154.351C96.1334 153.939 96.2518 153.506 96.2518 153.051V151.517C96.1808 151.602 96.0245 151.68 95.783 151.751C95.5463 151.818 95.2717 151.877 94.9592 151.929C94.6514 151.976 94.3507 152.019 94.0572 152.057C93.7683 152.09 93.534 152.118 93.354 152.142C92.9184 152.199 92.5112 152.291 92.1325 152.419C91.7584 152.542 91.4554 152.729 91.2234 152.98C90.9961 153.226 90.8825 153.562 90.8825 153.989C90.8825 154.571 91.0979 155.011 91.5288 155.31C91.9644 155.603 92.516 155.75 93.1836 155.75ZM102.663 150.438V157H100.987V146.091H102.607V147.795H102.749C103.004 147.241 103.393 146.796 103.913 146.46C104.434 146.119 105.107 145.949 105.93 145.949C106.669 145.949 107.315 146.1 107.869 146.403C108.423 146.702 108.854 147.156 109.162 147.767C109.47 148.373 109.624 149.14 109.624 150.068V157H107.947V150.182C107.947 149.325 107.725 148.657 107.28 148.179C106.835 147.696 106.224 147.455 105.447 147.455C104.912 147.455 104.434 147.571 104.013 147.803C103.596 148.035 103.267 148.373 103.026 148.818C102.784 149.263 102.663 149.803 102.663 150.438ZM121.522 157.256C120.83 157.256 120.203 157.125 119.64 156.865C119.076 156.6 118.629 156.219 118.297 155.722C117.966 155.22 117.8 154.614 117.8 153.903C117.8 153.278 117.923 152.772 118.169 152.384C118.416 151.991 118.745 151.683 119.157 151.46C119.569 151.238 120.023 151.072 120.52 150.963C121.022 150.849 121.526 150.759 122.033 150.693C122.696 150.608 123.233 150.544 123.645 150.501C124.062 150.454 124.365 150.376 124.554 150.267C124.748 150.158 124.846 149.969 124.846 149.699V149.642C124.846 148.941 124.654 148.397 124.27 148.009C123.891 147.62 123.316 147.426 122.544 147.426C121.744 147.426 121.117 147.601 120.662 147.952C120.208 148.302 119.888 148.676 119.703 149.074L118.113 148.506C118.397 147.843 118.775 147.327 119.249 146.957C119.727 146.583 120.248 146.323 120.811 146.176C121.38 146.025 121.938 145.949 122.488 145.949C122.838 145.949 123.24 145.991 123.695 146.077C124.154 146.157 124.597 146.325 125.023 146.581C125.454 146.837 125.811 147.223 126.096 147.739C126.38 148.255 126.522 148.946 126.522 149.812V157H124.846V155.523H124.76C124.647 155.759 124.457 156.013 124.192 156.283C123.927 156.553 123.574 156.782 123.134 156.972C122.694 157.161 122.156 157.256 121.522 157.256ZM121.777 155.75C122.44 155.75 122.999 155.62 123.453 155.359C123.913 155.099 124.258 154.763 124.49 154.351C124.727 153.939 124.846 153.506 124.846 153.051V151.517C124.775 151.602 124.618 151.68 124.377 151.751C124.14 151.818 123.865 151.877 123.553 151.929C123.245 151.976 122.944 152.019 122.651 152.057C122.362 152.09 122.128 152.118 121.948 152.142C121.512 152.199 121.105 152.291 120.726 152.419C120.352 152.542 120.049 152.729 119.817 152.98C119.59 153.226 119.476 153.562 119.476 153.989C119.476 154.571 119.692 155.011 120.123 155.31C120.558 155.603 121.11 155.75 121.777 155.75ZM129.581 157V146.091H131.2V147.795H131.342C131.57 147.213 131.937 146.761 132.443 146.439C132.95 146.112 133.558 145.949 134.268 145.949C134.988 145.949 135.587 146.112 136.065 146.439C136.548 146.761 136.925 147.213 137.195 147.795H137.308C137.588 147.232 138.007 146.785 138.565 146.453C139.124 146.117 139.794 145.949 140.575 145.949C141.551 145.949 142.348 146.254 142.969 146.865C143.589 147.471 143.899 148.416 143.899 149.699V157H142.223V149.699C142.223 148.894 142.003 148.319 141.562 147.973C141.122 147.627 140.604 147.455 140.007 147.455C139.24 147.455 138.646 147.687 138.224 148.151C137.803 148.61 137.592 149.192 137.592 149.898V157H135.888V149.528C135.888 148.908 135.687 148.409 135.284 148.03C134.882 147.646 134.363 147.455 133.729 147.455C133.293 147.455 132.886 147.571 132.507 147.803C132.133 148.035 131.83 148.357 131.598 148.768C131.371 149.176 131.257 149.647 131.257 150.182V157H129.581ZM151.396 157.227C150.411 157.227 149.547 156.993 148.803 156.524C148.065 156.055 147.487 155.4 147.07 154.557C146.658 153.714 146.452 152.729 146.452 151.602C146.452 150.466 146.658 149.474 147.07 148.626C147.487 147.779 148.065 147.121 148.803 146.652C149.547 146.183 150.411 145.949 151.396 145.949C152.38 145.949 153.242 146.183 153.981 146.652C154.724 147.121 155.302 147.779 155.714 148.626C156.13 149.474 156.339 150.466 156.339 151.602C156.339 152.729 156.13 153.714 155.714 154.557C155.302 155.4 154.724 156.055 153.981 156.524C153.242 156.993 152.38 157.227 151.396 157.227ZM151.396 155.722C152.144 155.722 152.759 155.53 153.242 155.146C153.725 154.763 154.083 154.259 154.315 153.634C154.547 153.009 154.663 152.331 154.663 151.602C154.663 150.873 154.547 150.194 154.315 149.564C154.083 148.934 153.725 148.425 153.242 148.037C152.759 147.649 152.144 147.455 151.396 147.455C150.647 147.455 150.032 147.649 149.549 148.037C149.066 148.425 148.709 148.934 148.477 149.564C148.245 150.194 148.129 150.873 148.129 151.602C148.129 152.331 148.245 153.009 148.477 153.634C148.709 154.259 149.066 154.763 149.549 155.146C150.032 155.53 150.647 155.722 151.396 155.722ZM165.772 152.54V146.091H167.449V157H165.772V155.153H165.659C165.403 155.707 165.005 156.179 164.466 156.567C163.926 156.95 163.244 157.142 162.42 157.142C161.738 157.142 161.132 156.993 160.602 156.695C160.072 156.392 159.655 155.937 159.352 155.331C159.049 154.72 158.897 153.951 158.897 153.023V146.091H160.574V152.909C160.574 153.705 160.796 154.339 161.241 154.812C161.691 155.286 162.264 155.523 162.96 155.523C163.377 155.523 163.8 155.416 164.231 155.203C164.667 154.99 165.031 154.663 165.325 154.223C165.623 153.783 165.772 153.222 165.772 152.54ZM172.195 150.438V157H170.518V146.091H172.138V147.795H172.28C172.536 147.241 172.924 146.796 173.445 146.46C173.965 146.119 174.638 145.949 175.462 145.949C176.2 145.949 176.847 146.1 177.401 146.403C177.955 146.702 178.385 147.156 178.693 147.767C179.001 148.373 179.155 149.14 179.155 150.068V157H177.479V150.182C177.479 149.325 177.256 148.657 176.811 148.179C176.366 147.696 175.755 147.455 174.979 147.455C174.444 147.455 173.965 147.571 173.544 147.803C173.127 148.035 172.798 148.373 172.557 148.818C172.315 149.263 172.195 149.803 172.195 150.438ZM186.962 146.091V147.511H181.309V146.091H186.962ZM182.956 143.477H184.632V153.875C184.632 154.348 184.701 154.704 184.838 154.94C184.98 155.172 185.16 155.329 185.378 155.409C185.601 155.485 185.835 155.523 186.081 155.523C186.266 155.523 186.417 155.513 186.536 155.494C186.654 155.471 186.749 155.452 186.82 155.438L187.161 156.943C187.047 156.986 186.889 157.028 186.685 157.071C186.481 157.118 186.223 157.142 185.911 157.142C185.437 157.142 184.973 157.04 184.519 156.837C184.069 156.633 183.695 156.323 183.397 155.906C183.103 155.49 182.956 154.964 182.956 154.33V143.477ZM199.853 146.091V147.511H194.199V146.091H199.853ZM195.847 143.477H197.523V153.875C197.523 154.348 197.592 154.704 197.729 154.94C197.871 155.172 198.051 155.329 198.269 155.409C198.491 155.485 198.726 155.523 198.972 155.523C199.157 155.523 199.308 155.513 199.426 155.494C199.545 155.471 199.64 155.452 199.711 155.438L200.051 156.943C199.938 156.986 199.779 157.028 199.576 157.071C199.372 157.118 199.114 157.142 198.801 157.142C198.328 157.142 197.864 157.04 197.409 156.837C196.96 156.633 196.586 156.323 196.287 155.906C195.994 155.49 195.847 154.964 195.847 154.33V143.477ZM206.689 157.227C205.704 157.227 204.84 156.993 204.096 156.524C203.358 156.055 202.78 155.4 202.363 154.557C201.951 153.714 201.745 152.729 201.745 151.602C201.745 150.466 201.951 149.474 202.363 148.626C202.78 147.779 203.358 147.121 204.096 146.652C204.84 146.183 205.704 145.949 206.689 145.949C207.673 145.949 208.535 146.183 209.274 146.652C210.017 147.121 210.595 147.779 211.007 148.626C211.423 149.474 211.632 150.466 211.632 151.602C211.632 152.729 211.423 153.714 211.007 154.557C210.595 155.4 210.017 156.055 209.274 156.524C208.535 156.993 207.673 157.227 206.689 157.227ZM206.689 155.722C207.437 155.722 208.052 155.53 208.535 155.146C209.018 154.763 209.376 154.259 209.608 153.634C209.84 153.009 209.956 152.331 209.956 151.602C209.956 150.873 209.84 150.194 209.608 149.564C209.376 148.934 209.018 148.425 208.535 148.037C208.052 147.649 207.437 147.455 206.689 147.455C205.94 147.455 205.325 147.649 204.842 148.037C204.359 148.425 204.002 148.934 203.77 149.564C203.538 150.194 203.422 150.873 203.422 151.602C203.422 152.331 203.538 153.009 203.77 153.634C204.002 154.259 204.359 154.763 204.842 155.146C205.325 155.53 205.94 155.722 206.689 155.722ZM220.043 157V142.455H221.719V147.824H221.861C221.984 147.634 222.154 147.393 222.372 147.099C222.595 146.801 222.912 146.536 223.324 146.304C223.741 146.067 224.304 145.949 225.014 145.949C225.933 145.949 226.742 146.179 227.443 146.638C228.144 147.097 228.691 147.748 229.084 148.591C229.477 149.434 229.673 150.428 229.673 151.574C229.673 152.729 229.477 153.731 229.084 154.578C228.691 155.421 228.146 156.074 227.45 156.538C226.754 156.998 225.952 157.227 225.043 157.227C224.342 157.227 223.781 157.111 223.359 156.879C222.938 156.643 222.614 156.375 222.386 156.077C222.159 155.774 221.984 155.523 221.861 155.324H221.662V157H220.043ZM221.69 151.545C221.69 152.369 221.811 153.096 222.053 153.726C222.294 154.351 222.647 154.841 223.111 155.196C223.575 155.546 224.143 155.722 224.815 155.722C225.516 155.722 226.101 155.537 226.57 155.168C227.043 154.794 227.398 154.292 227.635 153.662C227.876 153.027 227.997 152.322 227.997 151.545C227.997 150.778 227.879 150.087 227.642 149.472C227.41 148.851 227.057 148.361 226.584 148.001C226.115 147.637 225.526 147.455 224.815 147.455C224.134 147.455 223.561 147.627 223.097 147.973C222.633 148.314 222.282 148.792 222.045 149.408C221.809 150.018 221.69 150.731 221.69 151.545ZM236.811 157.227C235.76 157.227 234.853 156.995 234.091 156.531C233.333 156.062 232.749 155.409 232.337 154.571C231.929 153.728 231.726 152.748 231.726 151.631C231.726 150.513 231.929 149.528 232.337 148.676C232.749 147.819 233.321 147.152 234.055 146.673C234.794 146.19 235.656 145.949 236.641 145.949C237.209 145.949 237.77 146.044 238.324 146.233C238.878 146.422 239.382 146.73 239.837 147.156C240.291 147.578 240.653 148.136 240.923 148.832C241.193 149.528 241.328 150.385 241.328 151.403V152.114H232.919V150.665H239.624C239.624 150.049 239.5 149.5 239.254 149.017C239.013 148.534 238.667 148.153 238.217 147.874C237.772 147.594 237.247 147.455 236.641 147.455C235.973 147.455 235.395 147.62 234.908 147.952C234.425 148.278 234.053 148.705 233.793 149.23C233.532 149.756 233.402 150.319 233.402 150.92V151.886C233.402 152.71 233.544 153.409 233.828 153.982C234.117 154.55 234.517 154.983 235.028 155.281C235.54 155.575 236.134 155.722 236.811 155.722C237.251 155.722 237.649 155.66 238.004 155.537C238.364 155.409 238.674 155.22 238.935 154.969C239.195 154.713 239.396 154.396 239.538 154.017L241.158 154.472C240.987 155.021 240.701 155.504 240.298 155.92C239.896 156.332 239.399 156.654 238.807 156.886C238.215 157.114 237.55 157.227 236.811 157.227ZM253.622 157.227C252.713 157.227 251.911 156.998 251.214 156.538C250.518 156.074 249.974 155.421 249.581 154.578C249.188 153.731 248.991 152.729 248.991 151.574C248.991 150.428 249.188 149.434 249.581 148.591C249.974 147.748 250.521 147.097 251.222 146.638C251.922 146.179 252.732 145.949 253.651 145.949C254.361 145.949 254.922 146.067 255.334 146.304C255.75 146.536 256.068 146.801 256.286 147.099C256.508 147.393 256.681 147.634 256.804 147.824H256.946V142.455H258.622V157H257.003V155.324H256.804C256.681 155.523 256.506 155.774 256.278 156.077C256.051 156.375 255.727 156.643 255.305 156.879C254.884 157.111 254.323 157.227 253.622 157.227ZM253.849 155.722C254.522 155.722 255.09 155.546 255.554 155.196C256.018 154.841 256.371 154.351 256.612 153.726C256.854 153.096 256.974 152.369 256.974 151.545C256.974 150.731 256.856 150.018 256.619 149.408C256.383 148.792 256.032 148.314 255.568 147.973C255.104 147.627 254.531 147.455 253.849 147.455C253.139 147.455 252.547 147.637 252.074 148.001C251.605 148.361 251.252 148.851 251.016 149.472C250.784 150.087 250.668 150.778 250.668 151.545C250.668 152.322 250.786 153.027 251.023 153.662C251.264 154.292 251.619 154.794 252.088 155.168C252.562 155.537 253.149 155.722 253.849 155.722ZM261.925 157V146.091H263.601V157H261.925ZM262.777 144.273C262.45 144.273 262.169 144.161 261.932 143.939C261.7 143.716 261.584 143.449 261.584 143.136C261.584 142.824 261.7 142.556 261.932 142.334C262.169 142.111 262.45 142 262.777 142C263.104 142 263.383 142.111 263.615 142.334C263.852 142.556 263.97 142.824 263.97 143.136C263.97 143.449 263.852 143.716 263.615 143.939C263.383 144.161 263.104 144.273 262.777 144.273ZM274.398 148.534L272.892 148.96C272.798 148.709 272.658 148.465 272.473 148.229C272.293 147.987 272.047 147.788 271.735 147.632C271.422 147.476 271.022 147.398 270.534 147.398C269.867 147.398 269.31 147.552 268.865 147.859C268.425 148.162 268.205 148.548 268.205 149.017C268.205 149.434 268.356 149.763 268.659 150.004C268.962 150.246 269.436 150.447 270.08 150.608L271.699 151.006C272.675 151.242 273.401 151.605 273.88 152.092C274.358 152.575 274.597 153.198 274.597 153.96C274.597 154.585 274.417 155.144 274.057 155.636C273.702 156.129 273.205 156.517 272.566 156.801C271.926 157.085 271.183 157.227 270.336 157.227C269.223 157.227 268.302 156.986 267.573 156.503C266.844 156.02 266.382 155.314 266.188 154.386L267.779 153.989C267.93 154.576 268.217 155.016 268.638 155.31C269.064 155.603 269.621 155.75 270.307 155.75C271.088 155.75 271.709 155.584 272.168 155.253C272.632 154.917 272.864 154.514 272.864 154.045C272.864 153.667 272.731 153.349 272.466 153.094C272.201 152.833 271.794 152.639 271.245 152.511L269.426 152.085C268.427 151.848 267.694 151.482 267.225 150.984C266.761 150.482 266.529 149.855 266.529 149.102C266.529 148.487 266.702 147.942 267.047 147.469C267.398 146.995 267.873 146.624 268.475 146.354C269.081 146.084 269.767 145.949 270.534 145.949C271.614 145.949 272.462 146.186 273.077 146.659C273.697 147.133 274.138 147.758 274.398 148.534ZM277.347 157V142.455H279.023V147.824H279.165C279.289 147.634 279.459 147.393 279.677 147.099C279.899 146.801 280.217 146.536 280.629 146.304C281.045 146.067 281.609 145.949 282.319 145.949C283.237 145.949 284.047 146.179 284.748 146.638C285.449 147.097 285.996 147.748 286.388 148.591C286.781 149.434 286.978 150.428 286.978 151.574C286.978 152.729 286.781 153.731 286.388 154.578C285.996 155.421 285.451 156.074 284.755 156.538C284.059 156.998 283.256 157.227 282.347 157.227C281.647 157.227 281.085 157.111 280.664 156.879C280.243 156.643 279.918 156.375 279.691 156.077C279.464 155.774 279.289 155.523 279.165 155.324H278.967V157H277.347ZM278.995 151.545C278.995 152.369 279.116 153.096 279.357 153.726C279.599 154.351 279.951 154.841 280.415 155.196C280.879 155.546 281.448 155.722 282.12 155.722C282.821 155.722 283.406 155.537 283.874 155.168C284.348 154.794 284.703 154.292 284.94 153.662C285.181 153.027 285.302 152.322 285.302 151.545C285.302 150.778 285.183 150.087 284.947 149.472C284.715 148.851 284.362 148.361 283.888 148.001C283.42 147.637 282.83 147.455 282.12 147.455C281.438 147.455 280.865 147.627 280.401 147.973C279.937 148.314 279.587 148.792 279.35 149.408C279.113 150.018 278.995 150.731 278.995 151.545ZM296.417 152.54V146.091H298.093V157H296.417V155.153H296.303C296.048 155.707 295.65 156.179 295.11 156.567C294.57 156.95 293.888 157.142 293.065 157.142C292.383 157.142 291.777 156.993 291.246 156.695C290.716 156.392 290.299 155.937 289.996 155.331C289.693 154.72 289.542 153.951 289.542 153.023V146.091H291.218V152.909C291.218 153.705 291.441 154.339 291.886 154.812C292.335 155.286 292.908 155.523 293.604 155.523C294.021 155.523 294.445 155.416 294.876 155.203C295.311 154.99 295.676 154.663 295.969 154.223C296.268 153.783 296.417 153.222 296.417 152.54ZM301.163 157V146.091H302.782V147.739H302.896C303.095 147.199 303.455 146.761 303.975 146.425C304.496 146.089 305.083 145.92 305.737 145.92C305.86 145.92 306.014 145.923 306.199 145.928C306.383 145.932 306.523 145.939 306.618 145.949V147.653C306.561 147.639 306.431 147.618 306.227 147.589C306.028 147.556 305.817 147.54 305.595 147.54C305.065 147.54 304.591 147.651 304.174 147.874C303.762 148.091 303.436 148.394 303.194 148.783C302.958 149.166 302.839 149.604 302.839 150.097V157H301.163ZM316.332 148.534L314.826 148.96C314.731 148.709 314.592 148.465 314.407 148.229C314.227 147.987 313.981 147.788 313.668 147.632C313.356 147.476 312.956 147.398 312.468 147.398C311.8 147.398 311.244 147.552 310.799 147.859C310.359 148.162 310.138 148.548 310.138 149.017C310.138 149.434 310.29 149.763 310.593 150.004C310.896 150.246 311.37 150.447 312.013 150.608L313.633 151.006C314.608 151.242 315.335 151.605 315.813 152.092C316.291 152.575 316.531 153.198 316.531 153.96C316.531 154.585 316.351 155.144 315.991 155.636C315.636 156.129 315.138 156.517 314.499 156.801C313.86 157.085 313.117 157.227 312.269 157.227C311.156 157.227 310.236 156.986 309.506 156.503C308.777 156.02 308.316 155.314 308.121 154.386L309.712 153.989C309.864 154.576 310.15 155.016 310.572 155.31C310.998 155.603 311.554 155.75 312.241 155.75C313.022 155.75 313.642 155.584 314.102 155.253C314.566 154.917 314.798 154.514 314.798 154.045C314.798 153.667 314.665 153.349 314.4 153.094C314.135 152.833 313.728 152.639 313.178 152.511L311.36 152.085C310.361 151.848 309.627 151.482 309.158 150.984C308.694 150.482 308.462 149.855 308.462 149.102C308.462 148.487 308.635 147.942 308.981 147.469C309.331 146.995 309.807 146.624 310.408 146.354C311.014 146.084 311.701 145.949 312.468 145.949C313.548 145.949 314.395 146.186 315.011 146.659C315.631 147.133 316.071 147.758 316.332 148.534ZM323.627 157.227C322.576 157.227 321.67 156.995 320.907 156.531C320.15 156.062 319.565 155.409 319.153 154.571C318.746 153.728 318.542 152.748 318.542 151.631C318.542 150.513 318.746 149.528 319.153 148.676C319.565 147.819 320.138 147.152 320.872 146.673C321.61 146.19 322.472 145.949 323.457 145.949C324.025 145.949 324.586 146.044 325.14 146.233C325.694 146.422 326.199 146.73 326.653 147.156C327.108 147.578 327.47 148.136 327.74 148.832C328.01 149.528 328.145 150.385 328.145 151.403V152.114H319.735V150.665H326.44C326.44 150.049 326.317 149.5 326.071 149.017C325.829 148.534 325.484 148.153 325.034 147.874C324.589 147.594 324.063 147.455 323.457 147.455C322.789 147.455 322.212 147.62 321.724 147.952C321.241 148.278 320.869 148.705 320.609 149.23C320.349 149.756 320.218 150.319 320.218 150.92V151.886C320.218 152.71 320.36 153.409 320.645 153.982C320.933 154.55 321.333 154.983 321.845 155.281C322.356 155.575 322.95 155.722 323.627 155.722C324.068 155.722 324.466 155.66 324.821 155.537C325.181 155.409 325.491 155.22 325.751 154.969C326.011 154.713 326.213 154.396 326.355 154.017L327.974 154.472C327.804 155.021 327.517 155.504 327.115 155.92C326.712 156.332 326.215 156.654 325.623 156.886C325.031 157.114 324.366 157.227 323.627 157.227ZM334.814 157.227C333.904 157.227 333.102 156.998 332.406 156.538C331.71 156.074 331.165 155.421 330.772 154.578C330.379 153.731 330.183 152.729 330.183 151.574C330.183 150.428 330.379 149.434 330.772 148.591C331.165 147.748 331.712 147.097 332.413 146.638C333.114 146.179 333.923 145.949 334.842 145.949C335.552 145.949 336.113 146.067 336.525 146.304C336.942 146.536 337.259 146.801 337.477 147.099C337.699 147.393 337.872 147.634 337.995 147.824H338.137V142.455H339.814V157H338.194V155.324H337.995C337.872 155.523 337.697 155.774 337.47 156.077C337.243 156.375 336.918 156.643 336.497 156.879C336.075 157.111 335.514 157.227 334.814 157.227ZM335.041 155.722C335.713 155.722 336.281 155.546 336.745 155.196C337.209 154.841 337.562 154.351 337.804 153.726C338.045 153.096 338.166 152.369 338.166 151.545C338.166 150.731 338.047 150.018 337.811 149.408C337.574 148.792 337.224 148.314 336.76 147.973C336.296 147.627 335.723 147.455 335.041 147.455C334.331 147.455 333.739 147.637 333.265 148.001C332.797 148.361 332.444 148.851 332.207 149.472C331.975 150.087 331.859 150.778 331.859 151.545C331.859 152.322 331.977 153.027 332.214 153.662C332.456 154.292 332.811 154.794 333.279 155.168C333.753 155.537 334.34 155.722 335.041 155.722Z" fill="#343A40"/>
<rect x="28" y="76" width="7" height="226" rx="3.5" fill="#2D995F"/>
<g clip-path="url(#clip0_4004_470)">
<path d="M882.462 27.8759C877.82 35.8698 886.561 49.3391 877.752 52.1361L878.478 51.4106C883.795 44.8722 872.681 31.0333 877.998 24.4949C878.825 23.5358 879.534 22.4819 880.111 21.3555" fill="#2F2E41"/>
<path d="M925.935 145.154C926.087 144.354 926.062 143.53 925.861 142.741C925.66 141.952 925.289 141.216 924.773 140.586C924.258 139.956 923.61 139.446 922.876 139.093C922.142 138.74 921.339 138.552 920.524 138.543L909.05 105.219L902.699 113.311L914.831 144.449C914.906 145.818 915.481 147.112 916.446 148.086C917.412 149.059 918.701 149.645 920.07 149.732C921.438 149.818 922.791 149.4 923.872 148.557C924.953 147.713 925.687 146.502 925.935 145.154Z" fill="#FFB8B8"/>
<path d="M875.497 64.6955C875.497 64.6955 875.14 52.6325 885.931 59.5429C896.722 66.4533 920.217 131.187 920.217 131.187L908.525 137.511L881.983 78.2719L875.497 64.6955Z" fill="#2D995F"/>
<path d="M907.334 271.447L901.945 273.749L890.499 254.067L898.452 250.67L907.334 271.447Z" fill="#FFB6B6"/>
<path d="M914.167 279.564L910.303 281.215L908.054 277.863L907.846 282.264L897.597 286.642C897.106 286.852 896.561 286.9 896.041 286.778C895.52 286.656 895.053 286.371 894.706 285.964C894.36 285.558 894.152 285.051 894.114 284.519C894.076 283.986 894.209 283.455 894.494 283.003L900.263 273.857L898.687 270.17L907.515 267.006L914.167 279.564Z" fill="#2F2E41"/>
<path d="M822.864 278.124L817.012 277.838L815.33 255.135L823.968 255.557L822.864 278.124Z" fill="#FFB6B6"/>
<path d="M825.458 288.41L821.261 288.205L820.705 284.207L818.593 288.075L807.461 287.531C806.927 287.505 806.416 287.309 806.002 286.972C805.587 286.635 805.292 286.174 805.158 285.657C805.024 285.14 805.059 284.594 805.257 284.098C805.456 283.602 805.808 283.183 806.262 282.901L815.452 277.198L815.647 273.193L824.971 274.208L825.458 288.41Z" fill="#2F2E41"/>
<path d="M995.311 274.506C995.698 274.52 996.081 274.415 996.407 274.204C996.733 273.994 996.986 273.688 997.132 273.329C997.278 272.97 997.31 272.574 997.224 272.196C997.138 271.818 996.938 271.475 996.651 271.215C996.601 271.026 996.566 270.89 996.516 270.701C996.878 269.756 997.514 268.94 998.343 268.358C999.171 267.777 1000.15 267.456 1001.17 267.437C1002.18 267.417 1003.17 267.701 1004.02 268.251C1004.87 268.8 1005.54 269.591 1005.94 270.522C1008.23 275.748 1011.18 281.151 1009.8 286.944C1019.14 266.656 1015.66 241.565 1001.4 224.427C997.488 222.32 994.296 218.54 993.432 214.124C995.365 214.758 997.753 213.168 996.285 211.153C995.649 210.383 995.008 209.62 994.372 208.85C1001.62 200.986 1010.46 213.153 1002.5 223.749C1005.17 227.028 1007.49 230.576 1009.41 234.337C1008.94 230.329 1009.42 226.265 1010.82 222.48C1012.25 218.951 1014.95 215.965 1017.33 212.904C1020.22 209.174 1026.25 210.825 1026.69 215.519C1024 216.432 1023.69 220.333 1026.78 220.837C1026.06 229.585 1020.42 237.671 1012.59 241.579C1015.57 249.7 1016.79 258.364 1016.16 266.992C1017.45 256.903 1028.25 254.355 1035.77 250.278C1036.25 249.965 1036.81 249.798 1037.38 249.797C1037.95 249.796 1038.51 249.961 1038.99 250.273C1039.47 250.585 1039.85 251.029 1040.08 251.552C1040.31 252.075 1040.39 252.654 1040.29 253.218C1039.25 253.652 1038.26 254.188 1037.33 254.819C1036.89 255.119 1036.56 255.547 1036.37 256.044C1036.19 256.542 1036.16 257.084 1036.3 257.596C1036.43 258.109 1036.72 258.567 1037.13 258.908C1037.54 259.249 1038.04 259.456 1038.57 259.5C1034.84 268.968 1025.05 275.395 1014.93 275.455C1013.99 279.69 1012.62 283.817 1010.84 287.768L995.815 287.911C995.759 287.745 995.709 287.573 995.659 287.407C997.051 287.481 998.446 287.384 999.814 287.119C996.093 282.8 993.227 280.605 995.311 274.506Z" fill="#ACE7C7"/>
<path d="M837.65 130.545C837.65 130.545 825.748 162.97 825.555 166.598C825.363 170.227 821.969 216.111 819.122 218.777C816.275 221.443 807.572 262.777 814.344 266.01C821.116 269.243 842.481 263.887 842.481 263.887L849.913 215.062L852.438 177.656C852.438 177.656 860.125 265.74 874.066 265.481C888.007 265.222 904.996 259.915 904.996 259.915L885.483 206.571C885.483 206.571 885.758 143.418 881.235 130.681C876.713 117.943 837.65 130.545 837.65 130.545Z" fill="#2F2E41"/>
<path d="M872.966 47.0059L857.027 48.4653L854.459 56.3451C854.459 56.3451 841.12 63.6682 844.073 66.9952C847.027 70.3221 843.413 92.7428 843.413 92.7428L844.229 110.942C844.229 110.942 843.352 123.551 840.728 126.456C838.104 129.361 831.239 136.485 836.09 133.077C853.098 121.127 882.828 131.21 882.828 131.21L878.581 105.206C878.581 105.206 888.228 62.6303 884.421 59.0347C880.614 55.439 877.022 54.9845 877.022 54.9845L872.966 47.0059Z" fill="#2D995F"/>
<path d="M789.212 129.493C790.013 129.344 790.771 129.021 791.433 128.548C792.096 128.074 792.647 127.461 793.046 126.751C793.446 126.042 793.685 125.253 793.748 124.441C793.81 123.63 793.693 122.814 793.405 122.052L820.289 99.2518L810.439 96.2793L785.831 118.897C784.583 119.464 783.586 120.47 783.03 121.723C782.474 122.976 782.397 124.39 782.813 125.696C783.23 127.002 784.112 128.11 785.291 128.81C786.47 129.51 787.865 129.753 789.212 129.493Z" fill="#FFB8B8"/>
<path d="M857.486 69.8536C857.486 69.8536 862.783 59.0089 850.103 60.8614C837.422 62.7138 789.335 112.022 789.335 112.022L797.383 122.599L845.982 79.5532L857.486 69.8536Z" fill="#2D995F"/>
<path d="M836.836 51.4595L786.56 115.847C785.691 116.965 785.3 118.381 785.473 119.787C785.646 121.192 786.37 122.471 787.485 123.344C799.16 151.683 834.09 172.698 875.179 191.772C876.297 192.642 877.714 193.034 879.12 192.86C880.526 192.687 881.806 191.963 882.679 190.848L932.955 126.46C933.826 125.343 934.217 123.926 934.044 122.52C933.871 121.115 933.147 119.836 932.031 118.963C897.549 99.4992 867.911 76.9485 844.336 50.5356C843.218 49.6662 841.801 49.2752 840.395 49.4484C838.989 49.6216 837.71 50.3448 836.836 51.4595Z" fill="#E6E6E6"/>
<path d="M929.426 124.995L914.123 144.594C904.775 156.494 891.095 164.212 876.073 166.063C861.05 167.914 845.906 163.746 833.947 154.471L791.06 121.007C790.424 120.511 790.012 119.783 789.912 118.983C789.813 118.184 790.035 117.377 790.53 116.741L839.112 54.523C839.609 53.8888 840.337 53.4777 841.138 53.3799C841.938 53.2821 842.744 53.5056 843.38 54.0013C865.074 82.0059 894.114 103.799 928.901 120.733C929.535 121.229 929.947 121.956 930.045 122.755C930.144 123.554 929.921 124.36 929.426 124.995Z" fill="white"/>
<path d="M835.833 86.6088L825.867 99.3728C825.602 99.7109 825.214 99.9302 824.788 99.9825C824.362 100.035 823.933 99.9158 823.594 99.6517C823.256 99.3876 823.036 99 822.983 98.5741C822.931 98.1482 823.049 97.7187 823.313 97.3802L833.28 84.6162C833.411 84.4484 833.573 84.308 833.758 84.203C833.943 84.098 834.147 84.0306 834.359 84.0044C834.57 83.9783 834.784 83.9941 834.989 84.0508C835.194 84.1075 835.386 84.2041 835.554 84.335C835.722 84.4659 835.862 84.6286 835.967 84.8137C836.072 84.9989 836.139 85.2029 836.165 85.4141C836.191 85.6252 836.175 85.8394 836.118 86.0444C836.061 86.2495 835.965 86.4412 835.833 86.6088Z" fill="#CCCCCC"/>
<path d="M854.527 77.1411L832.64 105.172C832.509 105.339 832.347 105.48 832.162 105.584C831.977 105.689 831.773 105.756 831.562 105.782C831.35 105.808 831.136 105.793 830.931 105.736C830.726 105.679 830.534 105.583 830.367 105.452C830.199 105.321 830.059 105.158 829.954 104.973C829.849 104.788 829.782 104.585 829.756 104.373C829.73 104.162 829.746 103.948 829.802 103.743C829.859 103.538 829.956 103.347 830.087 103.179L851.974 75.1485C852.105 74.9805 852.267 74.8399 852.452 74.7347C852.637 74.6296 852.842 74.562 853.053 74.5358C853.264 74.5095 853.479 74.5252 853.684 74.582C853.889 74.6387 854.081 74.7353 854.249 74.8663C854.417 74.9972 854.557 75.16 854.662 75.3453C854.767 75.5305 854.834 75.7347 854.86 75.9459C854.886 76.1572 854.87 76.3715 854.813 76.5766C854.756 76.7817 854.659 76.9735 854.527 77.1411Z" fill="#CCCCCC"/>
<path d="M817.198 123.894C823.091 123.894 827.867 119.119 827.867 113.229C827.867 107.339 823.091 102.564 817.198 102.564C811.306 102.564 806.53 107.339 806.53 113.229C806.53 119.119 811.306 123.894 817.198 123.894Z" fill="#2D995F"/>
<path d="M855.69 99.2949L828.808 133.722C828.527 134.008 828.151 134.18 827.752 134.206C827.352 134.233 826.957 134.111 826.642 133.865C826.326 133.619 826.112 133.265 826.041 132.871C825.969 132.477 826.045 132.071 826.254 131.73L853.136 97.3023C853.417 97.0167 853.792 96.8443 854.192 96.818C854.592 96.7917 854.987 96.9132 855.302 97.1595C855.618 97.4057 855.832 97.7595 855.903 98.1533C855.975 98.5472 855.899 98.9535 855.69 99.2949Z" fill="#CCCCCC"/>
<path d="M873.128 91.4336L835.608 139.486C835.327 139.771 834.952 139.944 834.552 139.97C834.152 139.996 833.757 139.875 833.442 139.628C833.126 139.382 832.912 139.028 832.841 138.635C832.769 138.241 832.845 137.834 833.054 137.493L870.575 89.441C870.855 89.1554 871.231 88.983 871.631 88.9567C872.03 88.9303 872.425 89.0519 872.741 89.2982C873.057 89.5444 873.271 89.8982 873.342 90.292C873.414 90.6859 873.338 91.0922 873.128 91.4336Z" fill="#CCCCCC"/>
<path d="M872.998 112.799L846.116 147.226C845.836 147.512 845.46 147.684 845.061 147.71C844.661 147.737 844.266 147.615 843.95 147.369C843.635 147.123 843.421 146.769 843.349 146.375C843.278 145.981 843.354 145.575 843.563 145.233L870.445 110.806C870.725 110.521 871.101 110.348 871.501 110.322C871.9 110.296 872.295 110.417 872.611 110.663C872.927 110.91 873.141 111.263 873.212 111.657C873.283 112.051 873.207 112.457 872.998 112.799Z" fill="#CCCCCC"/>
<path d="M908.567 117.045L881.686 151.472C881.405 151.758 881.029 151.93 880.63 151.956C880.23 151.983 879.835 151.861 879.519 151.615C879.204 151.369 878.99 151.015 878.918 150.621C878.847 150.227 878.923 149.821 879.132 149.48L906.014 115.052C906.294 114.767 906.67 114.594 907.07 114.568C907.469 114.542 907.864 114.663 908.18 114.909C908.496 115.156 908.71 115.51 908.781 115.903C908.852 116.297 908.776 116.704 908.567 117.045Z" fill="#2D995F"/>
<path d="M890.437 104.939L852.917 152.991C852.636 153.277 852.26 153.449 851.861 153.476C851.461 153.502 851.066 153.381 850.75 153.134C850.435 152.888 850.221 152.534 850.149 152.14C850.078 151.747 850.154 151.34 850.363 150.999L887.884 102.947C888.164 102.661 888.54 102.489 888.94 102.463C889.339 102.436 889.734 102.558 890.05 102.804C890.366 103.05 890.579 103.404 890.651 103.798C890.722 104.192 890.646 104.598 890.437 104.939Z" fill="#CCCCCC"/>
<path d="M846.243 26.6649C846.242 29.2556 846.877 31.8069 848.093 34.0949C849.309 36.3829 851.068 38.3376 853.215 39.7874C855.363 41.2372 857.834 42.1378 860.411 42.4101C862.989 42.6825 865.593 42.3182 867.997 41.3493C870.4 40.3804 872.529 38.8365 874.197 36.8531C875.864 34.8697 877.019 32.5076 877.56 29.9739C878.1 27.4403 878.011 24.8126 877.299 22.3216C876.587 19.8307 875.274 17.5526 873.475 15.6873L873.399 15.6114C873.272 15.4784 873.146 15.3454 873.013 15.2188C873.012 15.2188 873.011 15.2186 873.01 15.2183C873.01 15.218 873.009 15.2176 873.008 15.217C873.008 15.2164 873.007 15.2157 873.007 15.2149C873.007 15.2141 873.006 15.2133 873.006 15.2125C872.842 15.0605 872.677 14.9086 872.506 14.763C870.218 12.7579 867.401 11.4545 864.391 11.0088C861.382 10.563 858.307 10.9938 855.536 12.2496C852.765 13.5054 850.415 15.533 848.767 18.0896C847.118 20.6462 846.242 23.6235 846.243 26.6649Z" fill="#2F2E41"/>
<path d="M865.976 43.598C873.309 43.598 879.253 37.656 879.253 30.3263C879.253 22.9966 873.309 17.0547 865.976 17.0547C858.644 17.0547 852.7 22.9966 852.7 30.3263C852.7 37.656 858.644 43.598 865.976 43.598Z" fill="#FFB8B8"/>
<path d="M851.823 33.8622C850.525 28.0162 852.401 21.4666 856.491 17.5638C858.547 15.6397 861.106 14.3347 863.871 13.7988C866.637 13.263 869.497 13.518 872.124 14.5346C872.458 14.6693 872.792 14.8168 873.12 14.9707L873.272 15.0425V15.0648C873.302 15.0853 873.331 15.1068 873.361 15.1285C873.423 15.1865 873.498 15.2281 873.58 15.2495C874.733 15.2194 875.879 15.4331 876.943 15.8766C878.008 16.3201 878.966 16.9835 879.756 17.8232C881.814 20.0551 882.783 23.662 882.486 27.9794L882.477 28.1144L882.361 28.1861C880.804 29.173 879.187 30.064 877.521 30.8542C871.692 33.5937 866.372 34.1013 861.258 32.404L861.164 32.3729L859.018 28.777C858.577 31.2571 858.812 39.4837 856.284 39.9294L851.878 34.1101L851.823 33.8622Z" fill="#2F2E41"/>
<path d="M823.876 45.4186C828.394 43.0875 822.583 34.6271 823.751 29.6805C824.918 24.734 833.326 23.143 833.862 18.0889C834.397 13.0347 835.658 7.82191 838.994 3.9868C841.126 1.53617 844.267 -0.272977 847.501 0.03398C848.595 0.137835 849.655 0.476234 850.606 1.02613C851.558 1.57602 852.38 2.3245 853.016 3.22057C853.652 4.11665 854.088 5.13926 854.293 6.21877C854.498 7.29829 854.468 8.40934 854.205 9.47626C855.126 8.17192 857.509 8.45461 858.099 9.93825C858.624 11.2572 857.465 12.8548 856.102 12.9715C854.318 15.1739 852.275 17.5113 849.48 17.9555C849.034 18.0578 848.572 18.0575 848.127 17.9548C847.681 17.8521 847.265 17.6496 846.91 17.3626C846.252 16.7313 846.201 15.4694 846.981 14.9976C843.469 16.3924 841.41 20.1887 840.888 23.9307C840.367 27.6727 841.088 31.4588 841.563 35.2069C842.038 38.955 842.243 42.8978 840.773 46.3784C839.036 50.4907 835.037 53.4381 830.673 54.3833C826.309 55.3286 821.661 54.4048 817.711 52.3234C813.76 50.242 810.466 47.0645 807.775 43.5022C812.41 46.7926 818.824 48.0253 823.876 45.4186Z" fill="#2F2E41"/>
<path d="M859.634 29.4677C854.992 37.4616 863.733 50.9309 854.924 53.7279L855.65 53.0024C860.967 46.464 849.853 32.6251 855.17 26.0867C855.997 25.1276 856.706 24.0737 857.283 22.9473" fill="#2F2E41"/>
<path d="M852.443 33.742C852.443 33.742 856.376 19.0672 873.234 15.6801C873.253 15.6739 873.317 15.6485 873.399 15.6106C873.45 15.5789 873.513 15.5472 873.576 15.5156C873.386 15.4079 873.203 15.313 873.013 15.218L873.01 15.2175L873.008 15.2162L873.007 15.2141L873.006 15.2116C872.842 15.0597 872.677 14.9078 872.506 14.7622L872.025 14.7812C872.025 14.7812 855.109 12.1033 852.443 33.742Z" fill="#FD6584"/>
<path d="M730 288.368C730 288.451 730.016 288.533 730.048 288.61C730.079 288.687 730.126 288.756 730.185 288.815C730.243 288.874 730.313 288.92 730.39 288.952C730.466 288.983 730.549 289 730.632 288.999H1110.37C1110.54 288.999 1110.7 288.933 1110.81 288.814C1110.93 288.696 1111 288.535 1111 288.368C1111 288.2 1110.93 288.04 1110.81 287.921C1110.7 287.803 1110.54 287.736 1110.37 287.736H730.632C730.549 287.736 730.466 287.752 730.39 287.784C730.313 287.816 730.243 287.862 730.184 287.921C730.126 287.979 730.079 288.049 730.048 288.126C730.016 288.203 730 288.285 730 288.368Z" fill="#CCCCCC"/>
</g>
<defs>
<clipPath id="clip0_4004_470">
<rect width="381" height="289" fill="white" transform="translate(730)"/>
</clipPath>
</defs>
</svg>
