<svg width="180" height="162" viewBox="0 0 180 162" fill="none" xmlns="http://www.w3.org/2000/svg">
<g clip-path="url(#clip0_2375_1048)">
<path d="M178.421 61.9521C178.356 61.9521 178.294 61.9323 178.241 61.8953L90.9063 0.915655C90.6405 0.730947 90.3247 0.632235 90.0013 0.632788C89.6779 0.633341 89.3624 0.733131 89.0973 0.918747L2.392 61.8947C2.32342 61.943 2.23854 61.9619 2.15603 61.9474C2.07353 61.9329 2.00015 61.8861 1.95204 61.8173C1.90394 61.7486 1.88505 61.6635 1.89953 61.5807C1.91401 61.498 1.96068 61.4244 2.02926 61.3762L88.7346 0.400241C89.1059 0.140417 89.5475 0.000748973 90.0003 3.00384e-06C90.453 -0.000742965 90.8951 0.137468 91.2672 0.396067L178.602 61.3756C178.657 61.4141 178.698 61.4693 178.72 61.5331C178.742 61.5969 178.743 61.666 178.722 61.7304C178.702 61.7947 178.662 61.8509 178.608 61.8907C178.554 61.9306 178.488 61.9521 178.421 61.9521Z" fill="#3F3D56"/>
<path d="M7.34644 64.1135L90.0871 2.63379L173.455 68.4881L94.3502 115.504L51.4029 105.689L7.34644 64.1135Z" fill="#E6E6E6"/>
<path d="M55.028 144.544H14.1521C13.9011 144.544 13.6526 144.495 13.4206 144.399C13.1886 144.303 12.9778 144.162 12.8002 143.984C12.6226 143.806 12.4817 143.595 12.3856 143.363C12.2895 143.13 12.24 142.881 12.24 142.629C12.24 142.378 12.2895 142.129 12.3856 141.896C12.4817 141.664 12.6226 141.453 12.8002 141.275C12.9778 141.097 13.1886 140.956 13.4206 140.86C13.6526 140.764 13.9011 140.715 14.1521 140.715H55.028C55.279 140.715 55.5276 140.764 55.7596 140.86C55.9916 140.956 56.2024 141.097 56.38 141.275C56.5576 141.453 56.6985 141.664 56.7946 141.896C56.8907 142.129 56.9402 142.378 56.9402 142.629C56.9402 142.881 56.8907 143.13 56.7946 143.363C56.6985 143.595 56.5576 143.806 56.38 143.984C56.2024 144.162 55.9916 144.303 55.7596 144.399C55.5276 144.495 55.279 144.544 55.028 144.544Z" fill="#2D995F"/>
<path d="M28.8175 136.313H14.1521C13.9011 136.313 13.6526 136.264 13.4206 136.168C13.1886 136.072 12.9778 135.931 12.8002 135.753C12.6226 135.575 12.4817 135.364 12.3856 135.131C12.2895 134.899 12.24 134.65 12.24 134.398C12.24 134.146 12.2895 133.897 12.3856 133.665C12.4817 133.432 12.6226 133.221 12.8002 133.043C12.9778 132.865 13.1886 132.725 13.4206 132.628C13.6526 132.532 13.9011 132.483 14.1521 132.483H28.8175C29.0685 132.483 29.3171 132.532 29.5491 132.628C29.781 132.725 29.9919 132.865 30.1694 133.043C30.347 133.221 30.4879 133.432 30.5841 133.665C30.6802 133.897 30.7297 134.146 30.7297 134.398C30.7297 134.65 30.6802 134.899 30.5841 135.131C30.4879 135.364 30.347 135.575 30.1694 135.753C29.9919 135.931 29.781 136.072 29.5491 136.168C29.3171 136.264 29.0685 136.313 28.8175 136.313Z" fill="#2D995F"/>
<path d="M91.2506 98.3571C90.94 98.3574 90.6322 98.297 90.3446 98.1792L39.3159 76.951V10.5034C39.3166 9.91578 39.5497 9.35247 39.9641 8.93699C40.3785 8.52151 40.9404 8.28779 41.5264 8.28711H139.421C140.007 8.28779 140.569 8.52151 140.984 8.93699C141.398 9.35247 141.631 9.91578 141.632 10.5034V76.9974L141.536 77.0385L92.1841 98.1688C91.8886 98.2933 91.5712 98.3573 91.2506 98.3571Z" fill="white"/>
<path d="M91.2506 98.5154C90.9193 98.5157 90.5911 98.4513 90.2844 98.3258L39.158 77.0569V10.5035C39.1587 9.87391 39.4084 9.27035 39.8524 8.82519C40.2965 8.38002 40.8985 8.12962 41.5264 8.12891H139.421C140.049 8.12962 140.651 8.38002 141.095 8.82519C141.539 9.27035 141.789 9.87391 141.79 10.5035V77.102L92.246 98.3144C91.9309 98.4473 91.5924 98.5156 91.2506 98.5154ZM39.7895 76.6339L90.5252 97.7404C90.9985 97.9329 91.5284 97.9297 91.9993 97.7316L141.158 76.684V10.5035C141.157 10.0418 140.974 9.5992 140.649 9.27275C140.323 8.94631 139.882 8.76267 139.421 8.76212H41.5264C41.0659 8.76267 40.6245 8.94631 40.2989 9.27275C39.9733 9.5992 39.7901 10.0418 39.7895 10.5035L39.7895 76.6339Z" fill="#3F3D56"/>
<path d="M177.789 61.3193H177.726L141.474 76.8394L91.8727 98.0743C91.6789 98.156 91.4709 98.1987 91.2606 98.1997C91.0504 98.2008 90.8419 98.1603 90.6473 98.0806L39.4737 76.7951L2.33049 61.3447L2.27375 61.3193H2.21053C1.62446 61.32 1.06258 61.5537 0.648164 61.9692C0.233751 62.3847 0.00065029 62.948 0 63.5356V159.784C0.000651124 160.372 0.233751 160.935 0.648164 161.351C1.06258 161.766 1.62446 162 2.21053 162H177.789C178.376 162 178.937 161.766 179.352 161.351C179.766 160.935 179.999 160.372 180 159.784V63.5356C179.999 62.948 179.766 62.3847 179.352 61.9692C178.937 61.5537 178.376 61.32 177.789 61.3193ZM179.368 159.784C179.368 160.204 179.202 160.607 178.906 160.903C178.61 161.2 178.208 161.367 177.789 161.367H2.21053C1.79181 161.367 1.3903 161.2 1.09423 160.903C0.798155 160.607 0.631746 160.204 0.631579 159.784V63.5356C0.632152 63.1262 0.790535 62.7329 1.07361 62.4379C1.35669 62.1429 1.74256 61.969 2.15054 61.9526L39.4737 77.479L90.4043 98.6663C90.9556 98.8912 91.5734 98.8878 92.1222 98.6568L141.474 77.5265L177.853 61.9526C178.26 61.9702 178.645 62.1446 178.927 62.4394C179.209 62.7343 179.367 63.1269 179.368 63.5356V159.784Z" fill="#3F3D56"/>
<path d="M90.7406 79.5146C88.8568 79.5182 87.0229 78.9074 85.5156 77.7745L85.4221 77.7042L65.745 62.5996C64.8337 61.8996 64.0689 61.0264 63.4941 60.0301C62.9194 59.0337 62.5461 57.9335 62.3954 56.7925C62.2448 55.6514 62.3198 54.4918 62.6161 53.3798C62.9125 52.2678 63.4244 51.2252 64.1226 50.3116C64.8208 49.3979 65.6917 48.6311 66.6855 48.0549C67.6793 47.4787 68.7766 47.1044 69.9147 46.9533C71.0528 46.8023 72.2095 46.8775 73.3186 47.1746C74.4277 47.4717 75.4676 47.9849 76.3789 48.685L89.1243 58.4833L119.244 19.1015C119.942 18.1881 120.813 17.4216 121.807 16.8457C122.801 16.2699 123.899 15.8959 125.037 15.7453C126.175 15.5947 127.332 15.6703 128.441 15.9678C129.55 16.2653 130.589 16.779 131.5 17.4794L131.313 17.7343L131.505 17.4831C133.343 18.8991 134.545 20.9882 134.849 23.292C135.152 25.5958 134.532 27.9261 133.123 29.7717L97.6957 76.0941C96.8763 77.1615 95.8227 78.0254 94.6165 78.6186C93.4103 79.2118 92.0841 79.5184 90.7406 79.5146Z" fill="#2D995F"/>
</g>
<defs>
<clipPath id="clip0_2375_1048">
<rect width="180" height="162" fill="white"/>
</clipPath>
</defs>
</svg>
