<svg width="187" height="210" viewBox="0 0 187 210" fill="none" xmlns="http://www.w3.org/2000/svg">
<g clip-path="url(#clip0_2682_1946)">
<path d="M106.012 161.809C150.74 161.809 187 125.586 187 80.9043C187 36.2221 150.74 0 106.012 0C61.2828 0 25.0231 36.2221 25.0231 80.9043C25.0231 125.586 61.2828 161.809 106.012 161.809Z" fill="#F2F2F2"/>
<path d="M158.936 36.1821H10.5765C10.2584 36.1753 10.006 35.9122 10.0128 35.5944C10.0194 35.2861 10.268 35.0378 10.5765 35.0312H158.936C159.254 35.038 159.507 35.3012 159.5 35.619C159.493 35.9272 159.245 36.1755 158.936 36.1821Z" fill="#CACACA"/>
<path d="M108.376 55.5742H67.3631C64.2826 55.5742 61.7854 58.0689 61.7854 61.1462V61.1462C61.7854 64.2235 64.2826 66.7181 67.3631 66.7181H108.376C111.456 66.7181 113.953 64.2235 113.953 61.1462C113.953 58.0689 111.456 55.5742 108.376 55.5742Z" fill="white"/>
<path d="M40.8689 77.8594H134.87C137.95 77.8594 140.448 80.354 140.448 83.4313C140.448 86.5086 137.95 89.0033 134.87 89.0033H40.8689C37.7884 89.0033 35.2911 86.5086 35.2911 83.4313C35.2911 80.354 37.7884 77.8594 40.8689 77.8594Z" fill="white"/>
<path d="M40.8689 100.148H134.87C137.95 100.148 140.448 102.643 140.448 105.72C140.448 108.798 137.95 111.292 134.87 111.292H40.8689C37.7884 111.292 35.2911 108.798 35.2911 105.72C35.2911 102.643 37.7884 100.148 40.8689 100.148Z" fill="white"/>
<path d="M29.2199 209.509L28.9987 209.487C21.4927 208.714 14.7073 204.681 10.4451 198.461C9.2777 196.727 8.33338 194.854 7.63445 192.885L7.56727 192.697L7.76616 192.681C10.1406 192.491 12.58 192.088 13.6636 191.896L6.67604 189.531L6.63284 189.324C6.21857 187.38 7.03016 185.38 8.68258 184.272C10.3395 183.111 12.5366 183.074 14.2319 184.178C14.9927 184.664 15.7884 185.144 16.5579 185.609C19.2022 187.207 21.9365 188.859 23.9866 191.12C27.0953 194.617 28.4579 199.329 27.6948 203.943L29.2199 209.509Z" fill="#F2F2F2"/>
<path d="M54.6194 206.04L58.063 206.04L59.7016 192.77L54.6185 192.77L54.6194 206.04Z" fill="#A0616A"/>
<path d="M54.498 209.628L65.0884 209.628V209.494C65.0883 207.22 63.2428 205.376 60.9663 205.376L59.0316 203.91L55.4223 205.376L54.4978 205.376L54.498 209.628Z" fill="#2F2E41"/>
<path d="M27.0199 196.51L29.7745 198.574L39.0572 188.941L34.9912 185.895L27.0199 196.51Z" fill="#A0616A"/>
<path d="M24.7667 199.307L33.2383 205.656L33.3186 205.549C34.6847 203.73 34.316 201.149 32.4951 199.784L31.8283 197.451L28.0603 196.46L27.3207 195.906L24.7667 199.307Z" fill="#2F2E41"/>
<path d="M38.4678 143.766C38.4678 143.766 38.6579 148.946 38.8977 153.101C38.937 153.782 37.3391 154.522 37.3805 155.264C37.4079 155.755 37.7083 156.234 37.7362 156.746C37.7656 157.288 37.351 157.767 37.3805 158.326C37.4093 158.873 37.8824 159.5 37.911 160.06C38.2181 166.083 39.3313 173.293 38.2166 175.309C37.6672 176.302 30.6644 190.064 30.6644 190.064C30.6644 190.064 34.5661 195.91 35.6809 193.962C37.1533 191.388 48.5007 179.345 48.5007 177.046C48.5007 174.749 51.126 157.535 51.126 157.535L52.9565 167.722L53.7959 169.741L53.5321 170.925L54.0745 172.525L54.1038 174.107L54.6319 177.046C54.6319 177.046 53.0434 199.942 53.938 200.579C54.8354 201.22 59.1802 202.369 59.693 201.22C60.203 200.07 63.5226 177.324 63.5226 177.324C63.5226 177.324 64.0577 166.901 64.6374 157.213C64.6708 156.65 65.0666 155.971 65.0973 155.417C65.1335 154.774 64.8827 153.939 64.9161 153.315C64.9523 152.599 65.27 152.095 65.3007 151.411C65.5376 146.118 64.2078 139.673 63.7842 139.039C62.505 137.123 61.354 135.592 61.354 135.592C61.354 135.592 44.1246 129.937 39.5206 135.683L38.4678 143.766Z" fill="#2F2E41"/>
<path d="M55.6518 90.4935L48.8217 89.1289L45.6343 93.4501C39.6869 99.292 39.5973 104.448 40.659 112.712V124.311L39.8905 132.087C39.8905 132.087 37.1702 137.771 39.976 139.095C42.7817 140.418 61.2111 140.305 62.9706 139.777C64.7302 139.249 63.205 138.6 62.743 136.138C61.875 131.513 62.4556 133.744 62.5153 132.272C63.3717 111.149 61.377 102.478 61.1744 100.199L57.7008 93.905L55.6518 90.4935Z" fill="#3F3D56"/>
<path d="M91.6506 107.525C90.9388 108.873 89.2683 109.388 87.9195 108.677C87.7757 108.602 87.6389 108.513 87.5107 108.413L72.7604 117.769L72.803 112.675L87.1317 104.369C88.1523 103.226 89.9073 103.126 91.0516 104.145C92.0092 104.998 92.2568 106.396 91.6506 107.525Z" fill="#A0616A"/>
<path d="M50.259 96.3929L48.5798 96.2151C47.0281 96.0544 45.5057 96.7182 44.5688 97.9641C44.2099 98.4367 43.9521 98.9778 43.8115 99.5541L43.8105 99.5587C43.3893 101.293 44.0499 103.111 45.487 104.171L51.2871 108.443C55.3573 113.937 63.007 117.582 71.98 120.543L85.9275 111.89L80.9943 105.922L71.4276 111.043L57.2073 100.047L57.1992 100.04L51.7869 96.557L50.259 96.3929Z" fill="#3F3D56"/>
<path d="M53.344 87.1436C57.7428 87.1436 61.3088 83.5814 61.3088 79.1871C61.3088 74.7928 57.7428 71.2305 53.344 71.2305C48.9451 71.2305 45.3791 74.7928 45.3791 79.1871C45.3791 83.5814 48.9451 87.1436 53.344 87.1436Z" fill="#A0616A"/>
<path d="M53.5279 87.1445C53.4637 87.1466 53.3994 87.1481 53.3351 87.1498C53.3076 87.2211 53.2779 87.2918 53.2436 87.3612L53.5279 87.1445Z" fill="#2F2E41"/>
<path d="M55.7138 79.4062C55.7263 79.4846 55.7454 79.5618 55.7709 79.637C55.7604 79.5582 55.7413 79.4809 55.7138 79.4062Z" fill="#2F2E41"/>
<path d="M61.4105 71.5703C61.0826 72.5872 60.79 71.2972 59.7115 71.5293C58.4142 71.8084 56.9044 71.7125 55.842 70.9181C54.259 69.7578 52.2075 69.4455 50.3503 70.0819C48.5324 70.7244 45.4867 71.1774 45.013 73.0448C44.8484 73.6938 44.783 74.3983 44.3839 74.9362C44.0349 75.4065 43.4842 75.6747 43.0236 76.0367C41.4685 77.259 42.6571 80.7316 43.3931 82.5665C44.1291 84.4014 45.8175 85.7381 47.6738 86.4228C49.4698 87.0852 51.4191 87.2021 53.3351 87.15C53.6683 86.2866 53.5244 85.2894 53.2494 84.3944C52.9517 83.4254 52.511 82.4903 52.3866 81.4844C52.2622 80.4785 52.5353 79.3359 53.3796 78.7738C54.1557 78.2572 55.4186 78.5719 55.7138 79.4072C55.5416 78.3629 56.6005 77.3524 57.6924 77.1747C58.8646 76.9839 60.0368 77.4067 61.2057 77.6171C62.3746 77.8276 61.9597 72.9116 61.4105 71.5703Z" fill="#2F2E41"/>
<path d="M105.956 92.3493C106.698 83.3872 100.028 75.5207 91.0562 74.779C82.0848 74.0373 74.2101 80.7012 73.4676 89.6633C72.7251 98.6254 79.3959 106.492 88.3674 107.234C97.3388 107.975 105.213 101.311 105.956 92.3493Z" fill="#D38E34"/>
<path d="M93.9934 84.2185L89.7118 88.4957L85.4301 84.2185C84.737 83.5261 83.6133 83.5261 82.9202 84.2185C82.2271 84.9109 82.2271 86.0334 82.9202 86.7258L87.2018 91.003L82.9202 95.2802C82.2278 95.9732 82.2288 97.0958 82.9226 97.7875C83.6154 98.4783 84.7373 98.4783 85.4301 97.7875L89.7118 93.5103L93.9934 97.7875C94.6872 98.4792 95.8109 98.4782 96.5033 97.7852C97.1949 97.0931 97.1949 95.9723 96.5033 95.2802L92.2217 91.003L96.5033 86.7258C97.1964 86.0334 97.1964 84.9109 96.5033 84.2185C95.8103 83.5261 94.6865 83.5261 93.9934 84.2185Z" fill="white"/>
<path d="M83.2886 77.3192C83.7691 78.7651 82.9852 80.3263 81.5378 80.8063C81.3835 80.8575 81.225 80.8949 81.064 80.9182L77.6107 98.0282L73.9605 94.471L77.8801 78.3914C77.7609 76.8643 78.9036 75.5298 80.4323 75.4108C81.7115 75.3112 82.8923 76.1002 83.2886 77.3192Z" fill="#A0616A"/>
<path d="M46.5923 99.4495L45.3014 100.537C44.111 101.544 43.5366 103.101 43.7879 104.639C43.8808 105.225 44.0933 105.785 44.4122 106.286L44.4148 106.29C45.3761 107.794 47.1465 108.576 48.9074 108.274L56.0085 107.051C62.7951 107.92 70.724 104.929 79.0752 100.511L82.4804 84.4665L74.7537 83.8906L71.8304 94.3326L54.0422 96.9704L54.0318 96.9717L47.7686 98.4617L46.5923 99.4495Z" fill="#3F3D56"/>
<path d="M87.0265 209.903L0.378425 210.001C0.168751 210 -0.000677121 209.83 2.03468e-06 209.62C0.000674813 209.412 0.169705 209.243 0.378425 209.242L87.0265 209.145C87.2362 209.145 87.4056 209.316 87.4049 209.525C87.4043 209.734 87.2352 209.902 87.0265 209.903Z" fill="#CACACA"/>
<path d="M18.1034 28.8901C19.5926 28.8901 20.7998 27.6572 20.7998 26.1364C20.7998 24.6157 19.5926 23.3828 18.1034 23.3828C16.6142 23.3828 15.407 24.6157 15.407 26.1364C15.407 27.6572 16.6142 28.8901 18.1034 28.8901Z" fill="#3F3D56"/>
<path d="M27.4183 28.8901C28.9075 28.8901 30.1147 27.6572 30.1147 26.1364C30.1147 24.6157 28.9075 23.3828 27.4183 23.3828C25.9291 23.3828 24.7219 24.6157 24.7219 26.1364C24.7219 27.6572 25.9291 28.8901 27.4183 28.8901Z" fill="#3F3D56"/>
<path d="M36.7332 28.8901C38.2223 28.8901 39.4296 27.6572 39.4296 26.1364C39.4296 24.6157 38.2223 23.3828 36.7332 23.3828C35.244 23.3828 34.0368 24.6157 34.0368 26.1364C34.0368 27.6572 35.244 28.8901 36.7332 28.8901Z" fill="#3F3D56"/>
<path d="M47.3546 28.3135C47.2718 28.3135 47.1891 28.2815 47.1267 28.2177L45.3073 26.3598C45.186 26.236 45.186 26.0382 45.3073 25.9144L47.1267 24.0566C47.2501 23.9309 47.4522 23.9289 47.5775 24.0516C47.7035 24.1746 47.7057 24.3764 47.5825 24.502L45.9812 26.1371L47.5825 27.7723C47.7057 27.898 47.7035 28.0997 47.5775 28.2227C47.5156 28.2834 47.4351 28.3135 47.3546 28.3135Z" fill="#3F3D56"/>
<path d="M50.4119 28.3138C50.3314 28.3138 50.2509 28.2836 50.1889 28.2229C50.063 28.0999 50.0608 27.8984 50.1839 27.7725L51.785 26.1373L50.1839 24.5023C50.0608 24.3766 50.063 24.1749 50.1889 24.0518C50.3146 23.9287 50.5166 23.931 50.6398 24.0568L52.459 25.9146C52.5803 26.0384 52.5803 26.2362 52.459 26.36L50.6398 28.218C50.5774 28.2817 50.4947 28.3138 50.4119 28.3138Z" fill="#3F3D56"/>
<path d="M145.592 23.7031H142.209C141.824 23.7031 141.511 24.0153 141.511 24.4007V27.7834C141.511 28.1688 141.824 28.4809 142.209 28.4809H145.592C145.978 28.4809 146.294 28.1688 146.294 27.7834V24.4007C146.294 24.0153 145.978 23.7031 145.592 23.7031Z" fill="#3F3D56"/>
<path d="M137.302 23.7031H133.919C133.533 23.7031 133.221 24.0153 133.221 24.4007V27.7834C133.221 28.1688 133.533 28.4809 133.919 28.4809H137.302C137.688 28.4809 138.004 28.1688 138.004 27.7834V24.4007C138.004 24.0153 137.688 23.7031 137.302 23.7031Z" fill="#3F3D56"/>
<path d="M153.404 23.8594H150.021C149.635 23.8594 149.323 24.1715 149.323 24.5569V27.9396C149.323 28.325 149.635 28.6372 150.021 28.6372H153.404C153.79 28.6372 154.106 28.325 154.106 27.9396V24.5569C154.106 24.1715 153.79 23.8594 153.404 23.8594Z" fill="#3F3D56"/>
<path d="M102.413 25.1484H75.371C74.8991 25.1484 74.5197 25.5307 74.5197 25.9989C74.5197 26.4671 74.8991 26.8493 75.371 26.8493H102.413C102.882 26.8493 103.264 26.4671 103.264 25.9989C103.264 25.5307 102.882 25.1484 102.413 25.1484Z" fill="#3F3D56"/>
</g>
<defs>
<clipPath id="clip0_2682_1946">
<rect width="187" height="210" fill="white"/>
</clipPath>
</defs>
</svg>
