<svg width="189" height="184" viewBox="0 0 189 184" fill="none" xmlns="http://www.w3.org/2000/svg">
<g clip-path="url(#clip0_2337_3050)">
<path d="M119.985 41.3801H69.0577C67.8971 41.3815 66.7845 41.8419 65.9639 42.6604C65.1433 43.4788 64.6816 44.5885 64.6802 45.7459V158.633L64.0965 158.811L51.6033 162.627C51.0112 162.807 50.3717 162.745 49.8251 162.455C49.2785 162.166 48.8695 161.671 48.688 161.081L11.5262 40.015C11.3453 39.4245 11.407 38.7865 11.6975 38.2412C11.9881 37.696 12.4839 37.2882 13.0758 37.1073L32.3279 31.2279L88.1405 14.1893L107.392 8.30991C107.685 8.21998 107.993 8.18855 108.299 8.21743C108.604 8.24631 108.9 8.33492 109.171 8.47821C109.442 8.62149 109.682 8.81662 109.877 9.05245C110.072 9.28827 110.218 9.56015 110.308 9.85252L119.807 40.7979L119.985 41.3801Z" fill="#F2F2F2"/>
<path d="M131.098 40.8004L119.65 3.50409C119.459 2.88267 119.148 2.30476 118.733 1.80341C118.319 1.30205 117.809 0.887069 117.234 0.582172C116.659 0.277276 116.029 0.0884376 115.38 0.026457C114.731 -0.0355237 114.077 0.0305672 113.454 0.220946L86.3868 8.48412L30.5772 25.5256L3.50992 33.7917C2.25251 34.1768 1.19967 35.0437 0.582493 36.2022C-0.0346876 37.3607 -0.165785 38.7161 0.217981 39.9709L39.3466 167.434C39.6584 168.447 40.2874 169.334 41.1415 169.964C41.9955 170.594 43.0295 170.935 44.0919 170.936C44.5836 170.936 45.0725 170.863 45.5422 170.718L64.0968 165.054L64.6805 164.873V164.265L64.0968 164.442L45.3701 170.162C44.2602 170.499 43.0614 170.384 42.0367 169.841C41.012 169.298 40.2451 168.372 39.9041 167.266L0.778415 39.7992C0.609472 39.2511 0.55059 38.6751 0.605141 38.1043C0.659691 37.5335 0.826598 36.979 1.09631 36.4726C1.36603 35.9663 1.73326 35.5179 2.17695 35.1533C2.62065 34.7886 3.13211 34.5149 3.68204 34.3476L30.7493 26.0816L86.5591 9.04295L113.626 0.776875C114.043 0.649915 114.477 0.58518 114.913 0.584775C115.849 0.586871 116.76 0.887813 117.512 1.44352C118.264 1.99923 118.818 2.78051 119.092 3.67291L130.488 40.8004L130.669 41.3825H131.276L131.098 40.8004Z" fill="#3F3D56"/>
<path d="M35.802 37.2047C35.2396 37.2043 34.692 37.0242 34.2397 36.6906C33.7875 36.3571 33.4543 35.8879 33.289 35.3516L29.5301 23.1063C29.4291 22.7773 29.394 22.4318 29.427 22.0893C29.4599 21.7469 29.5601 21.4143 29.7219 21.1105C29.8837 20.8067 30.104 20.5376 30.3701 20.3187C30.6361 20.0998 30.9429 19.9353 31.2727 19.8347L82.6171 4.15714C83.2831 3.95442 84.0026 4.02356 84.6176 4.34937C85.2326 4.67518 85.6929 5.23105 85.8974 5.89497L89.6563 18.1405C89.8594 18.8048 89.7901 19.5223 89.4634 20.1357C89.1367 20.749 88.5795 21.2081 87.9139 21.4122L36.5694 37.0897C36.3207 37.1659 36.0621 37.2046 35.802 37.2047Z" fill="#2D995F"/>
<path d="M55.4926 13.0838C58.7161 13.0838 61.3292 10.4775 61.3292 7.26259C61.3292 4.04764 58.7161 1.44141 55.4926 1.44141C52.2691 1.44141 49.656 4.04764 49.656 7.26259C49.656 10.4775 52.2691 13.0838 55.4926 13.0838Z" fill="#2D995F"/>
<path d="M55.4926 10.9504C57.5338 10.9504 59.1885 9.30009 59.1885 7.26428C59.1885 5.22847 57.5338 3.57812 55.4926 3.57812C53.4514 3.57812 51.7967 5.22847 51.7967 7.26428C51.7967 9.30009 53.4514 10.9504 55.4926 10.9504Z" fill="white"/>
<path d="M175.868 169.448H77.229C76.5714 169.447 75.9408 169.186 75.4758 168.723C75.0108 168.259 74.7492 167.63 74.7484 166.974V49.0951C74.7492 48.4392 75.0108 47.8103 75.4758 47.3465C75.9408 46.8827 76.5713 46.6218 77.229 46.6211H175.868C176.525 46.6219 177.156 46.8827 177.621 47.3465C178.086 47.8103 178.348 48.4392 178.348 49.0951V166.974C178.347 167.63 178.086 168.259 177.621 168.723C177.156 169.186 176.525 169.447 175.868 169.448Z" fill="#E6E6E6"/>
<path d="M130.488 40.8008H69.0577C67.7425 40.8026 66.4817 41.3245 65.5517 42.2521C64.6217 43.1796 64.0984 44.4371 64.0966 45.7488V164.443L64.6802 164.265V45.7488C64.6816 44.5913 65.1433 43.4817 65.9639 42.6632C66.7845 41.8447 67.8971 41.3843 69.0577 41.3829H130.669L130.488 40.8008ZM184.039 40.8008H69.0577C67.7425 40.8026 66.4817 41.3245 65.5517 42.2521C64.6217 43.1796 64.0984 44.4371 64.0966 45.7488V179.054C64.0984 180.366 64.6217 181.623 65.5517 182.551C66.4817 183.478 67.7425 184 69.0577 184.002H184.039C185.354 184 186.615 183.478 187.545 182.551C188.475 181.623 188.998 180.366 189 179.054V45.7488C188.998 44.4371 188.475 43.1796 187.545 42.2521C186.615 41.3245 185.354 40.8026 184.039 40.8008ZM188.416 179.054C188.415 180.211 187.953 181.321 187.133 182.139C186.312 182.958 185.199 183.418 184.039 183.42H69.0577C67.8971 183.418 66.7845 182.958 65.9639 182.139C65.1433 181.321 64.6816 180.211 64.6802 179.054V45.7488C64.6816 44.5913 65.1433 43.4817 65.9639 42.6632C66.7845 41.8447 67.8971 41.3843 69.0577 41.3829H184.039C185.199 41.3843 186.312 41.8447 187.133 42.6632C187.953 43.4817 188.415 44.5913 188.416 45.7488V179.054Z" fill="#3F3D56"/>
<path d="M153.397 53.6043H99.6999C99.0036 53.6035 98.336 53.3272 97.8436 52.8362C97.3512 52.3451 97.0742 51.6792 97.0735 50.9847V38.1781C97.0742 37.4836 97.3512 36.8178 97.8436 36.3267C98.336 35.8356 99.0036 35.5594 99.6999 35.5586H153.397C154.093 35.5594 154.761 35.8356 155.253 36.3267C155.745 36.8178 156.022 37.4836 156.023 38.1781V50.9847C156.022 51.6792 155.745 52.3451 155.253 52.8362C154.761 53.3272 154.093 53.6035 153.397 53.6043Z" fill="#2D995F"/>
<path d="M126.548 36.4314C129.772 36.4314 132.385 33.8252 132.385 30.6102C132.385 27.3953 129.772 24.7891 126.548 24.7891C123.325 24.7891 120.712 27.3953 120.712 30.6102C120.712 33.8252 123.325 36.4314 126.548 36.4314Z" fill="#2D995F"/>
<path d="M126.548 34.1577C128.512 34.1577 130.103 32.5703 130.103 30.6121C130.103 28.6538 128.512 27.0664 126.548 27.0664C124.585 27.0664 122.993 28.6538 122.993 30.6121C122.993 32.5703 124.585 34.1577 126.548 34.1577Z" fill="white"/>
</g>
<defs>
<clipPath id="clip0_2337_3050">
<rect width="189" height="184" fill="white"/>
</clipPath>
</defs>
</svg>
