<svg width="30" height="24" viewBox="0 0 30 24" fill="none" xmlns="http://www.w3.org/2000/svg">
<path d="M3.45881 0.727273V8H2.35795V1.82812H2.31534L0.575284 2.96449V1.91335L2.38991 0.727273H3.45881Z" fill="#6C757D"/>
<line x1="12" y1="3.5" x2="30" y2="3.5" stroke="#6C757D"/>
<path d="M0.699574 24V23.2045L3.16051 20.6548C3.4233 20.3778 3.63991 20.1352 3.81037 19.9268C3.98319 19.7161 4.11222 19.5161 4.19744 19.3267C4.28267 19.1373 4.32528 18.9361 4.32528 18.723C4.32528 18.4815 4.26847 18.2732 4.15483 18.098C4.04119 17.9205 3.88613 17.7843 3.68963 17.6896C3.49313 17.5926 3.27178 17.544 3.02557 17.544C2.76515 17.544 2.53788 17.5973 2.34375 17.7038C2.14962 17.8104 2.00047 17.9607 1.89631 18.1548C1.79214 18.349 1.74006 18.5762 1.74006 18.8366H0.692472C0.692472 18.3939 0.794271 18.0069 0.997869 17.6754C1.20147 17.344 1.48082 17.0871 1.83594 16.9048C2.19105 16.7202 2.5947 16.6278 3.04688 16.6278C3.50379 16.6278 3.90625 16.719 4.25426 16.9013C4.60464 17.0812 4.87808 17.3274 5.07457 17.6399C5.27107 17.95 5.36932 18.3004 5.36932 18.6911C5.36932 18.9609 5.31842 19.2249 5.21662 19.483C5.11719 19.741 4.94318 20.0286 4.6946 20.3459C4.44602 20.6607 4.10038 21.0431 3.65767 21.4929L2.21236 23.0057V23.0589H5.48651V24H0.699574Z" fill="#6C757D"/>
<line x1="12" y1="19.5" x2="30" y2="19.5" stroke="#6C757D"/>
</svg>
