<svg width="18" height="16" viewBox="0 0 18 16" fill="none" xmlns="http://www.w3.org/2000/svg">
<path d="M13.375 6.75C14.4102 6.75 15.25 5.91016 15.25 4.875C15.25 3.83984 14.4102 3 13.375 3C12.3398 3 11.5 3.83984 11.5 4.875C11.5 5.91016 12.3398 6.75 13.375 6.75Z" fill="#6C757D"/>
<path d="M16.6562 0.5H1.34375C0.734375 0.5 0.25 0.996094 0.25 1.60547V14.3945C0.25 15.0039 0.734375 15.5 1.34375 15.5H16.6562C17.2656 15.5 17.75 15.0039 17.75 14.3945V1.60547C17.75 0.996094 17.2656 0.5 16.6562 0.5ZM12.6289 8.22266C12.5117 8.08594 12.332 7.98047 12.1289 7.98047C11.9297 7.98047 11.7891 8.07422 11.6289 8.20313L10.8984 8.82031C10.7461 8.92969 10.625 9.00391 10.4492 9.00391C10.2812 9.00391 10.1289 8.94141 10.0195 8.84375C9.98047 8.80859 9.91016 8.74219 9.85156 8.68359L7.75 6.41016C7.59375 6.23047 7.35938 6.11719 7.09766 6.11719C6.83594 6.11719 6.59375 6.24609 6.44141 6.42188L1.5 12.3828V2.20703C1.53906 1.94141 1.74609 1.75 2.01172 1.75H15.9844C16.2539 1.75 16.4727 1.94922 16.4883 2.21875L16.5 12.3906L12.6289 8.22266Z" fill="#6C757D"/>
</svg>
