<svg width="138" height="189" viewBox="0 0 138 189" fill="none" xmlns="http://www.w3.org/2000/svg">
<g clip-path="url(#clip0_2337_2352)">
<path d="M122.152 188.695H62.0697C53.3306 188.695 46.2217 181.582 46.2217 172.838V15.8566C46.2217 7.11275 53.3306 0 62.0697 0H122.152C130.891 0 138 7.11275 138 15.8566V172.838C138 181.582 130.891 188.695 122.152 188.695Z" fill="#DADBDC"/>
<path d="M122.195 184.402H62.026C55.558 184.402 50.2939 179.136 50.2939 172.664V15.7228C50.2939 9.25124 55.558 3.98438 62.026 3.98438H122.195C128.663 3.98438 133.927 9.25124 133.927 15.7228V172.664C133.927 179.136 128.663 184.402 122.195 184.402Z" fill="white"/>
<path d="M100.619 14.4306H83.6047C81.3585 14.4306 79.5322 12.6034 79.5322 10.3559C79.5322 8.10846 81.3585 6.28125 83.6047 6.28125H100.619C102.866 6.28125 104.692 8.10846 104.692 10.3559C104.692 12.6034 102.866 14.4306 100.619 14.4306Z" fill="#DADBDC"/>
<path d="M117.983 62.3552H68.1961C67.2099 62.3552 66.4072 61.3342 66.4072 60.0829C66.4072 58.8315 67.2099 57.8105 68.1961 57.8105H117.983C118.97 57.8105 119.772 58.8315 119.772 60.0829C119.772 61.3342 118.97 62.3552 117.983 62.3552Z" fill="#DADBDC"/>
<path d="M117.983 72.4255H68.1961C67.2099 72.4255 66.4072 71.4045 66.4072 70.1532C66.4072 68.9019 67.2099 67.8809 68.1961 67.8809H117.983C118.97 67.8809 119.772 68.9019 119.772 70.1532C119.772 71.4045 118.97 72.4255 117.983 72.4255Z" fill="#DADBDC"/>
<path d="M103.706 82.4959H68.1961C67.2099 82.4959 66.4072 81.4749 66.4072 80.2235C66.4072 78.9722 67.2099 77.9512 68.1961 77.9512H103.706C104.693 77.9512 105.495 78.9722 105.495 80.2235C105.495 81.4749 104.693 82.4959 103.706 82.4959Z" fill="#DADBDC"/>
<path d="M92.1114 141.701C103.849 141.701 113.364 132.181 113.364 120.437C113.364 108.694 103.849 99.1738 92.1114 99.1738C80.3743 99.1738 70.8594 108.694 70.8594 120.437C70.8594 132.181 80.3743 141.701 92.1114 141.701Z" fill="#2D995F"/>
<path d="M86.4578 120.879C87.5561 123.03 88.6543 125.184 89.7525 127.335C90.0667 127.955 90.9907 127.759 91.1743 127.149C92.6147 122.342 95.2903 117.963 98.8961 114.479C99.6179 113.782 98.5165 112.683 97.7948 113.377C93.9992 117.044 91.1899 121.679 89.6716 126.735L91.0934 126.548C89.9952 124.397 88.8969 122.243 87.7987 120.092C87.3445 119.198 86.0005 119.986 86.4547 120.876H86.4578V120.879Z" fill="white"/>
<path d="M34.8198 94.7154L29.6678 96.4741L29.5869 89.0314L34.2754 88.9785L34.8198 94.7154Z" fill="#F3A3A6"/>
<path d="M30.1901 91.0869C33.0355 91.0869 35.3421 88.7791 35.3421 85.9321C35.3421 83.0852 33.0355 80.7773 30.1901 80.7773C27.3447 80.7773 25.0381 83.0852 25.0381 85.9321C25.0381 88.7791 27.3447 91.0869 30.1901 91.0869Z" fill="#F3A3A6"/>
<path d="M31.5992 85.4067C30.7375 85.3911 30.1619 84.5258 29.8166 83.732C29.4712 82.9414 29.1166 82.0293 28.317 81.7087C27.6606 81.4472 26.5281 83.2744 26.0054 82.7982C25.461 82.3001 25.9588 79.7041 26.525 79.234C27.0912 78.764 27.8721 78.6644 28.6063 78.6208C30.4015 78.5181 32.2059 78.6426 33.9699 78.9912C35.0588 79.206 36.185 79.536 36.9784 80.3142C37.9833 81.3009 38.2539 82.8044 38.341 84.2114C38.4313 85.6495 38.3628 87.1592 37.6784 88.4292C36.9908 89.6961 35.5379 90.6424 34.1286 90.3374C33.9792 89.5747 34.113 88.7903 34.1597 88.0121C34.2064 87.237 34.1379 86.3997 33.6588 85.7865C33.1797 85.1732 32.1655 84.9398 31.621 85.4939" fill="#2F2E43"/>
<path d="M37.9554 87.1216C38.4656 86.7387 39.0785 86.415 39.7132 86.4866C40.4007 86.5613 40.9856 87.1216 41.1692 87.7877C41.3528 88.4538 41.163 89.1916 40.7461 89.7425C40.3292 90.2935 39.7039 90.6608 39.0381 90.8476C38.6523 90.9565 38.2323 91.0032 37.8621 90.8476C37.3176 90.6204 37.019 89.9324 37.2243 89.3783" fill="#2F2E43"/>
<path d="M18.7848 135.821C18.4612 137.518 19.1052 139.059 20.2283 139.261C21.3483 139.463 22.5212 138.249 22.8448 136.553C22.9848 135.877 22.9537 135.177 22.7546 134.514L26.7181 107.928L21.3794 106.984L19.6217 133.951C19.1923 134.502 18.903 135.143 18.7848 135.824V135.821Z" fill="#F3A3A6"/>
<path d="M29.5748 93.0605L25.9379 93.101C23.3712 93.5181 22.6868 94.9002 22.133 97.4403C21.2836 101.316 20.201 106.48 20.4281 106.551C20.7921 106.67 27.0143 109.515 30.1628 108.811L29.5748 93.0605Z" fill="#2D995F"/>
<path d="M34.0408 177.557L29.2002 177.611L29.2769 184.481L34.1175 184.427L34.0408 177.557Z" fill="#F3A3A6"/>
<path d="M24.5963 188.694C24.0861 188.7 23.635 188.694 23.2928 188.666C22.0048 188.563 20.7697 187.626 20.1443 187.079C19.8643 186.833 19.771 186.434 19.911 186.092C20.0106 185.846 20.2159 185.659 20.471 185.581L23.859 184.573L29.319 180.797L29.3813 180.906C29.4061 180.946 29.9568 181.914 30.1435 182.571C30.215 182.82 30.1995 183.029 30.0968 183.191C30.0253 183.303 29.9257 183.368 29.8448 183.409C29.9444 183.511 30.2586 183.72 31.223 183.863C32.6262 184.072 32.9093 182.612 32.9186 182.549L32.9279 182.5L32.9684 182.472C33.631 182.033 34.0386 181.833 34.1817 181.874C34.2719 181.899 34.4182 181.942 34.8599 185.902C34.9004 186.026 35.1897 186.935 35.0093 187.81C34.8133 188.763 30.6661 188.479 29.8386 188.414C29.8137 188.417 26.715 188.672 24.5901 188.694H24.5963Z" fill="#2F2E43"/>
<path d="M47.7633 171.995L43.6846 174.604L47.3829 180.392L51.4616 177.783L47.7633 171.995Z" fill="#F3A3A6"/>
<path d="M42.4698 187.552C41.9004 187.558 41.3778 187.496 41.0044 187.433C40.6373 187.371 40.348 187.085 40.2858 186.717C40.2391 186.453 40.3169 186.188 40.4911 185.989L42.8307 183.34L45.4658 177.245L45.5778 177.304C45.6182 177.326 46.5982 177.855 47.1054 178.313C47.2982 178.487 47.3947 178.671 47.3947 178.864C47.3947 178.998 47.3449 179.107 47.2951 179.181C47.4351 179.216 47.8116 179.225 48.7045 178.836C50.0049 178.269 49.4729 176.881 49.448 176.825L49.4294 176.778L49.4511 176.735C49.7809 176.013 50.0236 175.627 50.1636 175.583C50.2538 175.558 50.4 175.515 52.8703 178.64C52.9698 178.724 53.6978 179.34 54.0058 180.177C54.3418 181.09 50.6769 183.044 49.9365 183.427C49.9147 183.446 46.0849 186.294 44.5107 187.11C43.8853 187.433 43.1418 187.539 42.4636 187.545L42.4698 187.552Z" fill="#2F2E43"/>
<path d="M36.9573 120.055L23.4053 120.204L22.3164 132.83L28.2151 179.379L35.1342 179.301L32.0698 152.413L43.5623 176.593L49.6632 172.216L40.6471 149.624C40.6471 149.624 43.5591 129.823 41.0454 124.927C38.5316 120.03 36.9605 120.049 36.9605 120.049V120.055H36.9573Z" fill="#2F2E43"/>
<path d="M43.7054 120.749L22.1826 120.989L28.3302 93.0765L37.7102 92.9707L43.7054 120.749Z" fill="#2D995F"/>
<path d="M45.8083 135.523C46.1692 137.213 45.5594 138.766 44.4426 138.994C43.3257 139.221 42.1279 138.035 41.767 136.345C41.6114 135.672 41.627 134.972 41.8105 134.303L37.2559 107.81L42.5728 106.748L44.9279 133.671C45.3697 134.212 45.6714 134.847 45.8083 135.526V135.523Z" fill="#F3A3A6"/>
<path d="M34.0734 93.0112L37.7103 92.9707C40.2863 93.3318 40.9987 94.6983 41.6116 97.2259C42.5449 101.083 43.7427 106.219 43.5187 106.297C43.1547 106.421 37.0009 109.403 33.8369 108.771L34.0765 93.0112H34.0734Z" fill="#2D995F"/>
<path d="M66.914 188.696C66.914 188.864 66.7771 189.001 66.6091 189.001H0.30489C0.136889 189.001 0 188.864 0 188.696C0 188.528 0.136889 188.391 0.30489 188.391H66.6091C66.7771 188.391 66.914 188.528 66.914 188.696Z" fill="#3F3D58"/>
</g>
<defs>
<clipPath id="clip0_2337_2352">
<rect width="138" height="189" fill="white"/>
</clipPath>
</defs>
</svg>
