<svg width="9" height="17" viewBox="0 0 9 17" fill="none" xmlns="http://www.w3.org/2000/svg">
<path d="M4.85355 0.646447C4.65829 0.451184 4.34171 0.451184 4.14645 0.646447L0.964466 3.82843C0.769204 4.02369 0.769204 4.34027 0.964466 4.53553C1.15973 4.7308 1.47631 4.7308 1.67157 4.53553L4.5 1.70711L7.32843 4.53553C7.52369 4.7308 7.84027 4.7308 8.03553 4.53553C8.2308 4.34027 8.2308 4.02369 8.03553 3.82843L4.85355 0.646447ZM4.14645 16.3536C4.34171 16.5488 4.65829 16.5488 4.85355 16.3536L8.03553 13.1716C8.2308 12.9763 8.2308 12.6597 8.03553 12.4645C7.84027 12.2692 7.52369 12.2692 7.32843 12.4645L4.5 15.2929L1.67157 12.4645C1.47631 12.2692 1.15973 12.2692 0.964466 12.4645C0.769204 12.6597 0.769204 12.9763 0.964466 13.1716L4.14645 16.3536ZM4 1L4 16H5L5 1H4Z" fill="#ADB5BD"/>
</svg>
